G04 ================== begin FILE IDENTIFICATION RECORD ==================*
G04 Layout Name:  FX3_DVK_PROTO_REV3_PD14-0048_PCB_20140612_16p3.brd*
G04 Film Name:    BOTMASK*
G04 File Format:  Gerber RS274X*
G04 File Origin:  Cadence Allegro 16.3-p003*
G04 Origin Date:  Wed Jul 23 11:09:00 2014*
G04 *
G04 Layer:  PIN/BOTTOM*
G04 Layer:  VIA CLASS/SOLDERMASK_BOTTOM*
G04 Layer:  PACKAGE GEOMETRY/SOLDERMASK_BOTTOM*
G04 Layer:  PACKAGE GEOMETRY/PCBNO*
G04 Layer:  BOARD GEOMETRY/OUTLINE*
G04 Layer:  BOARD GEOMETRY/SOLDERMASK_BOTTOM*
G04 Layer:  BOARD GEOMETRY/TARGET*
G04 *
G04 Offset:    (0.00 0.00)*
G04 Mirror:    No*
G04 Mode:      Positive*
G04 Rotation:  0*
G04 FullContactRelief:  No*
G04 UndefLineWidth:     5.00*
G04 ================== end FILE IDENTIFICATION RECORD ====================*
%FSLAX25Y25*MOIN*%
%IR0*IPPOS*OFA0.00000B0.00000*MIA0B0*SFA1.00000B1.00000*%
%ADD42C,.03*%
%ADD40C,.04*%
%ADD36C,.014*%
%ADD20R,.1181X.063*%
%ADD16C,.06*%
%ADD14C,.026*%
%ADD39C,.02362*%
%ADD30R,.06X.06*%
%ADD22C,.067*%
%ADD31C,.05118*%
%ADD26C,.05906*%
%ADD11R,.067X.067*%
%ADD15R,.1063X.06299*%
%ADD10C,.06378*%
%ADD34R,.0398X.0398*%
%ADD37R,.027X.011*%
%ADD12C,.118*%
%ADD38R,.0355X.016*%
%ADD28R,.02362X.04331*%
%ADD23R,.02362X.04134*%
%ADD19R,.04724X.06102*%
%ADD35R,.03543X.0374*%
%ADD13C,.12992*%
%ADD44O,.07387X.05024*%
%ADD43R,.03937X.04331*%
%ADD33R,.24409X.22835*%
%ADD17R,.04331X.03937*%
%ADD32R,.05906X.05118*%
%ADD18R,.02756X.03543*%
%ADD25R,.03543X.02756*%
%ADD24R,.05118X.05906*%
%ADD41R,.07087X.05118*%
%ADD21R,.02756X.04528*%
%ADD29R,.06299X.02362*%
%ADD27R,.04724X.07874*%
%ADD45C,.005*%
%ADD46C,.008*%
G75*
%LPD*%
G75*
G54D10*
X-85852Y-121158D03*
X147000Y9000D03*
G54D11*
X-77470Y-83788D03*
X-132000Y-1500D03*
X38800Y-82524D03*
X176000Y15500D03*
G54D20*
X-77000Y-4500D03*
Y13500D03*
G54D21*
X-132740Y-56118D03*
Y-45882D03*
X-129000Y-56118D03*
X-125260D03*
Y-45882D03*
G54D12*
X-123500Y-133244D03*
Y31756D03*
X168500Y-133244D03*
Y31756D03*
G54D30*
X-72500Y-137744D03*
Y26256D03*
G54D13*
X-98960Y-68201D03*
Y-20799D03*
G54D31*
X-72543Y-61232D03*
Y-44500D03*
Y-54343D03*
Y-34657D03*
Y-27768D03*
G54D22*
X-132000Y8500D03*
X-67470Y-83788D03*
X48800Y-82524D03*
X176000Y5500D03*
G54D40*
X136100Y-73300D03*
X64600Y9800D03*
G54D41*
X147318Y700D03*
X137082D03*
G54D32*
X18000Y-63740D03*
Y-56260D03*
X-39000Y-30240D03*
Y-22760D03*
G54D23*
X-84350Y-32315D03*
X-80610D03*
Y-21685D03*
X-88090Y-32315D03*
Y-21685D03*
X-84350D03*
G54D14*
X-99230Y-96500D03*
X-99250Y-100000D03*
Y-93000D03*
X-92500Y-96500D03*
X-93500Y-87000D03*
X-96000Y-96500D03*
X-104500Y-106000D03*
X-94000D03*
X-99250Y-87000D03*
X-109500Y-91500D03*
Y-87000D03*
Y-96500D03*
Y-101500D03*
Y-106000D03*
X-106000Y-96500D03*
X-105000Y-87000D03*
X-102500Y-96500D03*
X-99250Y-103000D03*
X-89000Y-91500D03*
Y-87000D03*
Y-96500D03*
Y-101500D03*
Y-106000D03*
X-99250Y-90000D03*
Y-106000D03*
X-45500Y4500D03*
X-38500Y9000D03*
X-59000Y0D03*
X-48750Y1500D03*
X-52000Y4500D03*
X-59000D03*
Y9000D03*
Y-5000D03*
X-38500Y4500D03*
Y0D03*
X-48750Y10500D03*
X-42000Y4500D03*
X-55500D03*
X-43500Y-5000D03*
X-48750Y7500D03*
Y4500D03*
G54D24*
X-97760Y0D03*
X-105240D03*
X-66760Y-110500D03*
X-74240D03*
X-34760Y-74700D03*
X-42240D03*
X-51260D03*
X-58740D03*
G54D33*
X-48730Y4500D03*
G54D15*
X-101000Y-141012D03*
Y-129988D03*
X-28500Y7012D03*
Y-4012D03*
G54D42*
X152756Y-15000D03*
X142756Y-10000D03*
X152756D03*
X147756D03*
X142756Y-20000D03*
X152756D03*
X147756D03*
X142756Y-15000D03*
X147756D03*
G54D25*
X-85941Y19000D03*
X-91059D03*
X-99641Y-39000D03*
X-104759D03*
X-28559Y-66744D03*
X-23441D03*
X441Y-71500D03*
Y-66000D03*
X5559D03*
X-23441Y-61000D03*
X-28559D03*
X5441Y-60500D03*
X10559D03*
X5559Y-71500D03*
X-20559Y-12500D03*
X-15441D03*
X-20559Y-18044D03*
X9941Y-19000D03*
X15059D03*
X-15441Y-18044D03*
X16441Y-49000D03*
X21559D03*
X-11841Y-42000D03*
X-16959D03*
X-4441Y-15000D03*
X-9559D03*
X9941Y-13500D03*
X15059D03*
X98059Y-79000D03*
X92941D03*
X98059Y-84500D03*
X154059Y-65500D03*
X148941D03*
X53941Y-113000D03*
X59059D03*
X70441Y-102000D03*
X75559D03*
X70441Y-95500D03*
X75559D03*
X92941Y-84500D03*
X129441Y17000D03*
X134559D03*
X133941Y-10000D03*
X139059D03*
X168441Y-93500D03*
X173559D03*
G54D43*
X159500Y-34346D03*
Y-27654D03*
X168500Y-68346D03*
Y-61654D03*
G54D34*
X-65190Y4500D03*
G54D16*
X-109982Y-116332D03*
X-32500Y-127744D03*
X-22500Y-137744D03*
Y-127744D03*
X-12500Y-137744D03*
Y-127744D03*
X-2500Y-137744D03*
Y-127744D03*
X7500Y-137744D03*
Y-127744D03*
X17500Y-137744D03*
X-72500Y-127744D03*
X17500D03*
X27500Y-137744D03*
Y-127744D03*
X37500Y-137744D03*
Y-127744D03*
X-62500Y-137744D03*
Y-127744D03*
X-52500Y-137744D03*
Y-127744D03*
X-42500Y-137744D03*
Y-127744D03*
X-32500Y-137744D03*
X-52500Y36256D03*
Y26256D03*
X-62500Y36256D03*
Y26256D03*
X37500D03*
Y36256D03*
X27500D03*
Y26256D03*
X-72500Y36256D03*
X17500D03*
Y26256D03*
X7500Y36256D03*
X-2500D03*
X7500Y26256D03*
X-12500Y36256D03*
X-2500Y26256D03*
X-22500Y36256D03*
X-12500Y26256D03*
X-32500Y36256D03*
X-22500Y26256D03*
X-32500D03*
X-42500Y36256D03*
Y26256D03*
X47500Y-137744D03*
Y-127744D03*
X57500Y-137744D03*
Y-127744D03*
X67500Y-137744D03*
Y-127744D03*
X77500Y-137744D03*
Y-127744D03*
X87500Y-137744D03*
Y-127744D03*
X97500Y-137744D03*
Y-127744D03*
X107500Y-137744D03*
Y-127744D03*
X117500Y-137744D03*
Y-127744D03*
X153500Y-125000D03*
X117500Y36256D03*
Y26256D03*
X107500Y36256D03*
Y26256D03*
X97500Y36256D03*
X87500D03*
X97500Y26256D03*
X87500D03*
X77500Y36256D03*
X67500D03*
X77500Y26256D03*
X67500D03*
X57500D03*
Y36256D03*
X47500D03*
Y26256D03*
X152000Y18256D03*
G54D17*
X-125654Y-63500D03*
X-132346D03*
X-110654Y-31000D03*
X-117346D03*
X154846Y-73000D03*
X148154D03*
G54D44*
X180169Y-62941D03*
Y-37547D03*
G54D35*
X-41953Y-13500D03*
X-36047D03*
G54D26*
X-80417Y-39579D03*
X-88291Y-49421D03*
X-80417D03*
X-88291Y-39579D03*
G54D45*
G01X-125400Y-243244D02*
G03I-12600J0D01*
G01X-138000D02*
Y-258204D01*
G01X-130520Y-243244D02*
G03I-7480J0D01*
G01X-135640D02*
G03I-2360J0D01*
G01X-138000D02*
X-152960D01*
G01X-138000D02*
Y-228284D01*
G01Y-243244D02*
X-123040D01*
G01X-129500Y-161055D02*
X174500D01*
G03X184500Y-151055I0J10000D01*
G01Y49567D01*
G03X174500Y59567I-10000J0D01*
G01X-129500D01*
G03X-139500Y49567I0J-10000D01*
G01Y-151055D01*
G03X-129500Y-161055I10000J0D01*
G01X-128400Y95256D02*
G03I-12600J0D01*
G01X-133520D02*
G03I-7480J0D01*
G01X-138640D02*
G03I-2360J0D01*
G01X-141000D02*
X-155960D01*
G01X-141000D02*
Y80296D01*
G01Y95256D02*
Y110216D01*
G01Y95256D02*
X-126040D01*
G01X200600D02*
G03I-12600J0D01*
G01X188000D02*
Y80296D01*
G01X195480Y95256D02*
G03I-7480J0D01*
G01X190360D02*
G03I-2360J0D01*
G01X188000D02*
X173040D01*
G01X188000D02*
Y110216D01*
G01Y95256D02*
X202960D01*
G54D27*
X-95201Y10000D03*
X-107799D03*
G54D18*
X-114500Y-63941D03*
Y-69059D03*
X-9500Y-110441D03*
Y-115559D03*
X-6500Y-58559D03*
X-17500Y-72059D03*
Y-66941D03*
X-12000D03*
Y-72059D03*
X7000Y-82441D03*
Y-87559D03*
X-51000Y-17559D03*
Y-12441D03*
X-56500Y-17559D03*
Y-12441D03*
X-4500Y-3941D03*
X14500Y-30559D03*
X-9500Y-20941D03*
X-28000Y-55059D03*
Y-49941D03*
X-4500Y-9059D03*
X14500Y-25441D03*
X-32000Y-23941D03*
X-21000D03*
X-22700Y-35941D03*
X-34000Y-43059D03*
Y-37941D03*
X-28500Y-41059D03*
X-26500Y-23941D03*
Y-29059D03*
X-6100Y-47559D03*
X-6500Y-53441D03*
X-22700Y-41059D03*
X13000Y-37841D03*
Y-42959D03*
X-22000Y-49941D03*
X-21000Y-29059D03*
X3000Y-19059D03*
X-28200Y-17559D03*
Y-12441D03*
X3000Y-13941D03*
X-9500Y-26059D03*
X-22000Y-55059D03*
X-6100Y-42441D03*
X-28500Y-35941D03*
X-32000Y-29059D03*
X104500Y-84059D03*
Y-78941D03*
X110500D03*
Y-84059D03*
X141500Y-110259D03*
Y-105141D03*
X147500D03*
Y-110259D03*
X143500Y-37059D03*
X148800Y-43041D03*
Y-48159D03*
X143500Y-31941D03*
G54D36*
X-6575Y-51027D03*
X17500Y-29000D03*
X2871Y-22674D03*
X6100Y-41600D03*
X6020Y-22674D03*
X9169Y-25825D03*
Y-22674D03*
X11481Y-26667D03*
X6020Y-25825D03*
X2871Y-25824D03*
X-280Y-25825D03*
X12600Y-23500D03*
X16538Y-33623D03*
X-279Y-32123D03*
X6021D03*
X9169Y-28974D03*
X6020D03*
X2871Y-28973D03*
X-280Y-28974D03*
X2871Y-32123D03*
X9170D03*
X-3428D03*
X-3429Y-28974D03*
Y-25825D03*
X-9728Y-28974D03*
X-19900Y-20900D03*
X-18333Y-26668D03*
X-12877Y-28974D03*
Y-25825D03*
X-16026Y-32123D03*
X-16027Y-25824D03*
Y-35273D03*
Y-38422D03*
X-12877Y-38423D03*
X-19176D03*
X-12877Y-32123D03*
X-18333Y-29817D03*
X-19177Y-35274D03*
X-16025Y-44729D03*
X-16027Y-47871D03*
X-12877Y-44722D03*
Y-47871D03*
X-19177D03*
Y-41572D03*
X-19200Y-44700D03*
X-3429Y-54171D03*
X-3428Y-51021D03*
X-279D03*
X-280Y-54171D03*
X-3429Y-47871D03*
X2872Y-47875D03*
X2873Y-51023D03*
X6020Y-57320D03*
X6021Y-51021D03*
X6020Y-54171D03*
X9169Y-57320D03*
X6020Y-47871D03*
X9169Y-54171D03*
X-3429Y-44722D03*
X-9728Y-47871D03*
Y-44722D03*
X-3429Y-35274D03*
X13000Y-51000D03*
X-275Y-44725D03*
X-280Y-47871D03*
X2871Y-44722D03*
X2872Y-41572D03*
X-3422Y-41576D03*
X2871Y-38422D03*
X9169Y-44722D03*
Y-38423D03*
X-280Y-41572D03*
X2871Y-35273D03*
X-278Y-35274D03*
X9169D03*
X6020Y-38423D03*
Y-35274D03*
X-3429Y-38423D03*
X-9728Y-35274D03*
X-6570Y-35281D03*
X-9728Y-38423D03*
X9169Y-47871D03*
X-280Y-57321D03*
X9170Y-51021D03*
X12320Y-57320D03*
Y-54171D03*
X-19177Y-57320D03*
X-16028Y-51021D03*
X-9728Y-57320D03*
X-16027Y-54171D03*
Y-57320D03*
X-9727Y-51021D03*
X-12877Y-54171D03*
Y-57320D03*
X-19177Y-51021D03*
Y-54171D03*
X-9728D03*
G54D46*
G01X300625Y-196334D02*
X299750Y-195167D01*
X299000Y-194500D01*
X298000Y-194167D01*
X297125Y-194500D01*
X296500Y-195167D01*
X296000Y-196167D01*
X295875Y-197333D01*
X296000Y-198333D01*
X296500Y-199334D01*
X297250Y-200167D01*
X298125Y-200500D01*
X299125Y-200167D01*
X300000Y-199167D01*
X300500Y-197667D01*
X300625Y-196000D01*
X300375Y-193834D01*
X300000Y-192667D01*
X299375Y-191500D01*
X298500Y-190667D01*
X297625Y-190500D01*
X296750Y-190833D01*
X296125Y-191667D01*
G01X288250Y-190500D02*
X289250Y-190833D01*
X290000Y-191667D01*
X290500Y-192667D01*
X290875Y-194000D01*
X291000Y-195500D01*
X290875Y-197000D01*
X290500Y-198333D01*
X290000Y-199334D01*
X289250Y-200167D01*
X288250Y-200500D01*
X287250Y-200167D01*
X286500Y-199334D01*
X286000Y-198333D01*
X285625Y-197000D01*
X285500Y-195500D01*
X285625Y-194000D01*
X286000Y-192667D01*
X286500Y-191667D01*
X287250Y-190833D01*
X288250Y-190500D01*
G01X278250D02*
X279250Y-190833D01*
X280000Y-191667D01*
X280500Y-192667D01*
X280875Y-194000D01*
X281000Y-195500D01*
X280875Y-197000D01*
X280500Y-198333D01*
X280000Y-199334D01*
X279250Y-200167D01*
X278250Y-200500D01*
X277250Y-200167D01*
X276500Y-199334D01*
X276000Y-198333D01*
X275625Y-197000D01*
X275500Y-195500D01*
X275625Y-194000D01*
X276000Y-192667D01*
X276500Y-191667D01*
X277250Y-190833D01*
X278250Y-190500D01*
G01X269875Y-197167D02*
X266625D01*
G01X260625Y-196334D02*
X259750Y-195167D01*
X259000Y-194500D01*
X258000Y-194167D01*
X257125Y-194500D01*
X256500Y-195167D01*
X256000Y-196167D01*
X255875Y-197333D01*
X256000Y-198333D01*
X256500Y-199334D01*
X257250Y-200167D01*
X258125Y-200500D01*
X259125Y-200167D01*
X260000Y-199167D01*
X260500Y-197667D01*
X260625Y-196000D01*
X260375Y-193834D01*
X260000Y-192667D01*
X259375Y-191500D01*
X258500Y-190667D01*
X257625Y-190500D01*
X256750Y-190833D01*
X256125Y-191667D01*
G01X248250Y-190500D02*
X249250Y-190833D01*
X250000Y-191667D01*
X250500Y-192667D01*
X250875Y-194000D01*
X251000Y-195500D01*
X250875Y-197000D01*
X250500Y-198333D01*
X250000Y-199334D01*
X249250Y-200167D01*
X248250Y-200500D01*
X247250Y-200167D01*
X246500Y-199334D01*
X246000Y-198333D01*
X245625Y-197000D01*
X245500Y-195500D01*
X245625Y-194000D01*
X246000Y-192667D01*
X246500Y-191667D01*
X247250Y-190833D01*
X248250Y-190500D01*
G01X238250Y-200500D02*
Y-190500D01*
X239750Y-192500D01*
G01Y-200500D02*
X236750D01*
G01X230375Y-199334D02*
X229500Y-200167D01*
X228500Y-200500D01*
X227500Y-200167D01*
X226625Y-199167D01*
X226000Y-197667D01*
X225750Y-196167D01*
Y-194333D01*
X226000Y-192833D01*
X226625Y-191500D01*
X227375Y-190833D01*
X228250Y-190500D01*
X229250Y-190833D01*
X230000Y-191500D01*
X230500Y-192500D01*
X230750Y-193834D01*
X230500Y-195000D01*
X229875Y-196167D01*
X229125Y-196834D01*
X228250Y-197000D01*
X227250Y-196667D01*
X226500Y-195833D01*
X225750Y-194333D01*
G01X218250Y-200500D02*
X217375Y-200333D01*
X216375Y-199833D01*
X215750Y-199000D01*
X215500Y-197833D01*
X215750Y-196667D01*
X216500Y-195667D01*
X217625Y-195167D01*
X218875D01*
X219625Y-194833D01*
X220250Y-194000D01*
X220500Y-192833D01*
X220125Y-191667D01*
X219250Y-190833D01*
X218250Y-190500D01*
X217250Y-190833D01*
X216375Y-191667D01*
X216000Y-192833D01*
X216250Y-194000D01*
X216875Y-194833D01*
X217625Y-195167D01*
X218875D01*
X220000Y-195667D01*
X220750Y-196667D01*
X221000Y-197833D01*
X220750Y-199000D01*
X220125Y-199833D01*
X219125Y-200333D01*
X218250Y-200500D01*
G01X209875Y-197167D02*
X206625D01*
G01X198250Y-190500D02*
X199250Y-190833D01*
X200000Y-191667D01*
X200500Y-192667D01*
X200875Y-194000D01*
X201000Y-195500D01*
X200875Y-197000D01*
X200500Y-198333D01*
X200000Y-199334D01*
X199250Y-200167D01*
X198250Y-200500D01*
X197250Y-200167D01*
X196500Y-199334D01*
X196000Y-198333D01*
X195625Y-197000D01*
X195500Y-195500D01*
X195625Y-194000D01*
X196000Y-192667D01*
X196500Y-191667D01*
X197250Y-190833D01*
X198250Y-190500D01*
G01X188250Y-200500D02*
Y-190500D01*
X189750Y-192500D01*
G01Y-200500D02*
X186750D01*
G01X170875Y-199167D02*
X169875Y-200000D01*
X168750Y-200500D01*
X167750D01*
X166750Y-200000D01*
X166000Y-199167D01*
X165625Y-198000D01*
X165875Y-196834D01*
X166500Y-195833D01*
X167625Y-195167D01*
X169125Y-194833D01*
X170000Y-194167D01*
X170375Y-193000D01*
X170125Y-191833D01*
X169500Y-191000D01*
X168625Y-190500D01*
X167750D01*
X166875Y-190833D01*
X166125Y-191667D01*
G01X161000Y-190500D02*
Y-197667D01*
X160500Y-199167D01*
X159500Y-200167D01*
X158250Y-200500D01*
X157000Y-200167D01*
X156000Y-199167D01*
X155500Y-197667D01*
Y-190500D01*
G01X150750Y-200500D02*
Y-190500D01*
X147750D01*
X146750Y-191000D01*
X146000Y-192167D01*
X145750Y-193500D01*
X146000Y-194833D01*
X146625Y-195833D01*
X147750Y-196334D01*
X150750D01*
G01X135750Y-200500D02*
X140750D01*
Y-190500D01*
X135750D01*
G01X137750Y-195333D02*
X140750D01*
G01X130750Y-200500D02*
Y-190500D01*
X127625D01*
X126625Y-191000D01*
X126000Y-191667D01*
X125750Y-193000D01*
X126000Y-194333D01*
X126750Y-195167D01*
X127625Y-195667D01*
X130750D01*
G01X127625D02*
X125750Y-200500D01*
G01X120875Y-199167D02*
X119875Y-200000D01*
X118750Y-200500D01*
X117750D01*
X116750Y-200000D01*
X116000Y-199167D01*
X115625Y-198000D01*
X115875Y-196834D01*
X116500Y-195833D01*
X117625Y-195167D01*
X119125Y-194833D01*
X120000Y-194167D01*
X120375Y-193000D01*
X120125Y-191833D01*
X119500Y-191000D01*
X118625Y-190500D01*
X117750D01*
X116875Y-190833D01*
X116125Y-191667D01*
G01X110750Y-200500D02*
Y-190500D01*
X107750D01*
X106750Y-191000D01*
X106000Y-192167D01*
X105750Y-193500D01*
X106000Y-194833D01*
X106625Y-195833D01*
X107750Y-196334D01*
X110750D01*
G01X95750Y-200500D02*
X100750D01*
Y-190500D01*
X95750D01*
G01X97750Y-195333D02*
X100750D01*
G01X85750Y-200500D02*
X90750D01*
Y-190500D01*
X85750D01*
G01X87750Y-195333D02*
X90750D01*
G01X81000Y-200500D02*
Y-190500D01*
X78500D01*
X77500Y-191000D01*
X76750Y-191667D01*
X76125Y-192667D01*
X75625Y-193834D01*
X75500Y-195500D01*
X75625Y-197167D01*
X76125Y-198333D01*
X76750Y-199334D01*
X77500Y-200000D01*
X78500Y-200500D01*
X81000D01*
G01X55750D02*
X60750D01*
Y-190500D01*
X55750D01*
G01X57750Y-195333D02*
X60750D01*
G01X50875Y-200500D02*
X45625Y-190500D01*
G01X50875D02*
X45625Y-200500D01*
G01X40750D02*
Y-190500D01*
X37750D01*
X36750Y-191000D01*
X36000Y-192167D01*
X35750Y-193500D01*
X36000Y-194833D01*
X36625Y-195833D01*
X37750Y-196334D01*
X40750D01*
G01X30750Y-190500D02*
Y-200500D01*
X25750D01*
G01X18250D02*
X19250Y-200333D01*
X20125Y-199667D01*
X20875Y-198667D01*
X21375Y-197500D01*
X21625Y-196167D01*
Y-194833D01*
X21375Y-193500D01*
X20875Y-192333D01*
X20125Y-191333D01*
X19250Y-190667D01*
X18250Y-190500D01*
X17250Y-190667D01*
X16375Y-191333D01*
X15625Y-192333D01*
X15125Y-193500D01*
X14875Y-194833D01*
Y-196167D01*
X15125Y-197500D01*
X15625Y-198667D01*
X16375Y-199667D01*
X17250Y-200333D01*
X18250Y-200500D01*
G01X10750D02*
Y-190500D01*
X7625D01*
X6625Y-191000D01*
X6000Y-191667D01*
X5750Y-193000D01*
X6000Y-194333D01*
X6750Y-195167D01*
X7625Y-195667D01*
X10750D01*
G01X7625D02*
X5750Y-200500D01*
G01X-4250D02*
X750D01*
Y-190500D01*
X-4250D01*
G01X-2250Y-195333D02*
X750D01*
G01X-9250Y-200500D02*
Y-190500D01*
X-12375D01*
X-13375Y-191000D01*
X-14000Y-191667D01*
X-14250Y-193000D01*
X-14000Y-194333D01*
X-13250Y-195167D01*
X-12375Y-195667D01*
X-9250D01*
G01X-12375D02*
X-14250Y-200500D01*
G01X-29000D02*
Y-190500D01*
G01X-33750D02*
X-29000Y-196667D01*
G01X-34500Y-200500D02*
X-31125Y-193834D01*
G01X-40250Y-190500D02*
X-43250D01*
G01X-41750D02*
Y-200500D01*
G01X-40250D02*
X-43250D01*
G01X-51750Y-190500D02*
Y-200500D01*
G01X-48875Y-190500D02*
X-54625D01*
G01X-69250Y-200500D02*
Y-190500D01*
X-72375D01*
X-73375Y-191000D01*
X-74000Y-191667D01*
X-74250Y-193000D01*
X-74000Y-194333D01*
X-73250Y-195167D01*
X-72375Y-195667D01*
X-69250D01*
G01X-72375D02*
X-74250Y-200500D01*
G01X-84250D02*
X-79250D01*
Y-190500D01*
X-84250D01*
G01X-82250Y-195333D02*
X-79250D01*
G01X-88625Y-190500D02*
X-91750Y-200500D01*
X-94875Y-190500D01*
G01X-101750D02*
X-100750Y-190833D01*
X-100000Y-191667D01*
X-99500Y-192667D01*
X-99125Y-194000D01*
X-99000Y-195500D01*
X-99125Y-197000D01*
X-99500Y-198333D01*
X-100000Y-199334D01*
X-100750Y-200167D01*
X-101750Y-200500D01*
X-102750Y-200167D01*
X-103500Y-199334D01*
X-104000Y-198333D01*
X-104375Y-197000D01*
X-104500Y-195500D01*
X-104375Y-194000D01*
X-104000Y-192667D01*
X-103500Y-191667D01*
X-102750Y-190833D01*
X-101750Y-190500D01*
G01X-113250Y-200500D02*
Y-190500D01*
X-108625Y-197667D01*
X-114875D01*
G01X-129125Y-199167D02*
X-130125Y-200000D01*
X-131250Y-200500D01*
X-132250D01*
X-133250Y-200000D01*
X-134000Y-199167D01*
X-134375Y-198000D01*
X-134125Y-196834D01*
X-133500Y-195833D01*
X-132375Y-195167D01*
X-130875Y-194833D01*
X-130000Y-194167D01*
X-129625Y-193000D01*
X-129875Y-191833D01*
X-130500Y-191000D01*
X-131375Y-190500D01*
X-132250D01*
X-133125Y-190833D01*
X-133875Y-191667D01*
G01X-141750Y-200500D02*
X-140750Y-200333D01*
X-139875Y-199667D01*
X-139125Y-198667D01*
X-138625Y-197500D01*
X-138375Y-196167D01*
Y-194833D01*
X-138625Y-193500D01*
X-139125Y-192333D01*
X-139875Y-191333D01*
X-140750Y-190667D01*
X-141750Y-190500D01*
X-142750Y-190667D01*
X-143625Y-191333D01*
X-144375Y-192333D01*
X-144875Y-193500D01*
X-145125Y-194833D01*
Y-196167D01*
X-144875Y-197500D01*
X-144375Y-198667D01*
X-143625Y-199667D01*
X-142750Y-200333D01*
X-141750Y-200500D01*
G01X-149250Y-190500D02*
Y-200500D01*
X-154250D01*
G01X-159000D02*
Y-190500D01*
X-161500D01*
X-162500Y-191000D01*
X-163250Y-191667D01*
X-163875Y-192667D01*
X-164375Y-193834D01*
X-164500Y-195500D01*
X-164375Y-197167D01*
X-163875Y-198333D01*
X-163250Y-199334D01*
X-162500Y-200000D01*
X-161500Y-200500D01*
X-159000D01*
G01X-174250D02*
X-169250D01*
Y-190500D01*
X-174250D01*
G01X-172250Y-195333D02*
X-169250D01*
G01X-179250Y-200500D02*
Y-190500D01*
X-182375D01*
X-183375Y-191000D01*
X-184000Y-191667D01*
X-184250Y-193000D01*
X-184000Y-194333D01*
X-183250Y-195167D01*
X-182375Y-195667D01*
X-179250D01*
G01X-182375D02*
X-184250Y-200500D01*
G01X-188500D02*
Y-190500D01*
X-191750Y-198833D01*
X-195000Y-190500D01*
Y-200500D01*
G01X-198625D02*
X-201750Y-190500D01*
X-204875Y-200500D01*
G01X-203750Y-197000D02*
X-199750D01*
G01X-209125Y-199167D02*
X-210125Y-200000D01*
X-211250Y-200500D01*
X-212250D01*
X-213250Y-200000D01*
X-214000Y-199167D01*
X-214375Y-198000D01*
X-214125Y-196834D01*
X-213500Y-195833D01*
X-212375Y-195167D01*
X-210875Y-194833D01*
X-210000Y-194167D01*
X-209625Y-193000D01*
X-209875Y-191833D01*
X-210500Y-191000D01*
X-211375Y-190500D01*
X-212250D01*
X-213125Y-190833D01*
X-213875Y-191667D01*
G01X-219000Y-200500D02*
Y-190500D01*
G01X-223750D02*
X-219000Y-196667D01*
G01X-224500Y-200500D02*
X-221125Y-193834D01*
G01X-242750Y-195167D02*
X-243250Y-194667D01*
X-243625Y-193834D01*
X-243875Y-192667D01*
X-243625Y-191667D01*
X-243125Y-191000D01*
X-242250Y-190500D01*
X-238875D01*
Y-200500D01*
X-243000D01*
X-243875Y-199833D01*
X-244375Y-198833D01*
X-244625Y-197667D01*
X-244375Y-196500D01*
X-243625Y-195500D01*
X-242750Y-195167D01*
X-238875D01*
G01X-251750Y-200500D02*
X-250750Y-200333D01*
X-249875Y-199667D01*
X-249125Y-198667D01*
X-248625Y-197500D01*
X-248375Y-196167D01*
Y-194833D01*
X-248625Y-193500D01*
X-249125Y-192333D01*
X-249875Y-191333D01*
X-250750Y-190667D01*
X-251750Y-190500D01*
X-252750Y-190667D01*
X-253625Y-191333D01*
X-254375Y-192333D01*
X-254875Y-193500D01*
X-255125Y-194833D01*
Y-196167D01*
X-254875Y-197500D01*
X-254375Y-198667D01*
X-253625Y-199667D01*
X-252750Y-200333D01*
X-251750Y-200500D01*
G01X-261750Y-190500D02*
Y-200500D01*
G01X-258875Y-190500D02*
X-264625D01*
G01X-271750D02*
Y-200500D01*
G01X-268875Y-190500D02*
X-274625D01*
G01X-281750Y-200500D02*
X-280750Y-200333D01*
X-279875Y-199667D01*
X-279125Y-198667D01*
X-278625Y-197500D01*
X-278375Y-196167D01*
Y-194833D01*
X-278625Y-193500D01*
X-279125Y-192333D01*
X-279875Y-191333D01*
X-280750Y-190667D01*
X-281750Y-190500D01*
X-282750Y-190667D01*
X-283625Y-191333D01*
X-284375Y-192333D01*
X-284875Y-193500D01*
X-285125Y-194833D01*
Y-196167D01*
X-284875Y-197500D01*
X-284375Y-198667D01*
X-283625Y-199667D01*
X-282750Y-200333D01*
X-281750Y-200500D01*
G01X-288500D02*
Y-190500D01*
X-291750Y-198833D01*
X-295000Y-190500D01*
Y-200500D01*
G54D19*
X-81384Y-70358D03*
X-99494Y-46500D03*
X-106306D03*
X-74572Y-70358D03*
X171594Y-27500D03*
X178406D03*
G54D28*
X-97760Y29627D03*
X-105240Y18603D03*
Y29627D03*
X-97760Y18603D03*
X-101500Y29627D03*
G54D37*
X-58300Y-40600D03*
X-61700D03*
X-58300Y-42600D03*
Y-46400D03*
Y-48400D03*
X-61700D03*
Y-46400D03*
Y-42600D03*
G54D29*
X38114Y-106000D03*
Y-101000D03*
Y-96000D03*
Y-91000D03*
X59374Y-96000D03*
Y-91000D03*
Y-106000D03*
Y-101000D03*
G54D38*
X-58725Y-44500D03*
X-61275D03*
G54D39*
X108256Y-60500D03*
X88256D03*
X108256Y-65500D03*
X103256D03*
X93256D03*
X88256D03*
X108256Y-70500D03*
X103256D03*
X93256D03*
X88256D03*
X93256Y-60500D03*
X103256D03*
X83256D03*
Y-65500D03*
Y-70500D03*
X113256Y-60500D03*
Y-65500D03*
Y-70500D03*
X98256Y-60500D03*
Y-70500D03*
Y-65500D03*
X108256Y9500D03*
X103256D03*
X98256D03*
X93256D03*
X88256D03*
X108256Y4500D03*
X103256D03*
X93256D03*
X88256D03*
Y-500D03*
X108256D03*
X98256Y4500D03*
X103256Y-500D03*
X93256D03*
X83256Y9500D03*
Y4500D03*
Y-45500D03*
Y-50500D03*
Y-55500D03*
X113256Y9500D03*
Y4500D03*
Y-500D03*
Y-5500D03*
X83256Y-500D03*
X113256Y-10500D03*
Y-15500D03*
Y-20500D03*
Y-25500D03*
Y-35500D03*
Y-40500D03*
Y-45500D03*
Y-50500D03*
Y-55500D03*
X83256Y-5500D03*
Y-10500D03*
Y-15500D03*
Y-20500D03*
Y-25500D03*
Y-35500D03*
Y-40500D03*
X98256Y-500D03*
X113256Y-30500D03*
X83256D03*
X108256Y-5500D03*
X88256Y-25500D03*
X103256Y-30500D03*
X93256D03*
X108256Y-35500D03*
X88256D03*
X103256Y-40500D03*
X93256D03*
X108256Y-45500D03*
X88256D03*
X103256Y-50500D03*
X88256Y-5500D03*
X93256Y-50500D03*
X108256Y-55500D03*
X88256D03*
X103256Y-10500D03*
X93256D03*
X108256Y-15500D03*
X88256D03*
X103256Y-20500D03*
X93256D03*
X108256Y-25500D03*
X103256Y-5500D03*
X108256Y-20500D03*
X98256D03*
X88256D03*
X103256Y-25500D03*
X98256D03*
X93256D03*
X108256Y-30500D03*
X98256D03*
X88256D03*
X103256Y-35500D03*
X98256Y-5500D03*
Y-35500D03*
X93256D03*
X108256Y-40500D03*
X98256D03*
X88256D03*
X103256Y-45500D03*
X98256D03*
X93256D03*
X108256Y-50500D03*
X98256D03*
X93256Y-5500D03*
X88256Y-50500D03*
X103256Y-55500D03*
X98256D03*
X93256D03*
X108256Y-10500D03*
X98256D03*
X88256D03*
X103256Y-15500D03*
X98256D03*
X93256D03*
M02*
