G04 ================== begin FILE IDENTIFICATION RECORD ==================*
G04 Layout Name:  FX3_DVK_PROTO_REV3_PD14-0048_PCB_20140612_16p3.brd*
G04 Film Name:    L01_TOP*
G04 File Format:  Gerber RS274X*
G04 File Origin:  Cadence Allegro 16.3-p003*
G04 Origin Date:  Wed Jul 23 11:08:59 2014*
G04 *
G04 Layer:  VIA CLASS/TOP*
G04 Layer:  PIN/TOP*
G04 Layer:  PACKAGE GEOMETRY/PCBNO*
G04 Layer:  MANUFACTURING/TITLE_BLOCK*
G04 Layer:  ETCH/TOP*
G04 Layer:  BOARD GEOMETRY/TITTLE_TOP*
G04 Layer:  BOARD GEOMETRY/TOP*
G04 Layer:  BOARD GEOMETRY/TARGET*
G04 *
G04 Offset:    (0.00 0.00)*
G04 Mirror:    No*
G04 Mode:      Positive*
G04 Rotation:  0*
G04 FullContactRelief:  No*
G04 UndefLineWidth:     5.00*
G04 ================== end FILE IDENTIFICATION RECORD ====================*
%FSLAX25Y25*MOIN*%
%IR0*IPPOS*OFA0.00000B0.00000*MIA0B0*SFA1.00000B1.00000*%
%ADD45R,.06299X.09449*%
%ADD26R,.07874X.06299*%
%ADD16C,.02*%
%ADD34C,.04*%
%ADD28C,.014*%
%ADD27C,.06*%
%ADD17C,.024*%
%ADD10R,.1181X.063*%
%ADD36C,.016*%
%ADD29R,.06X.06*%
%ADD21C,.067*%
%ADD30C,.05118*%
%ADD43R,.09055X.1752*%
%ADD22C,.05906*%
%ADD14R,.067X.067*%
%ADD37R,.1063X.06299*%
%ADD20R,.06299X.1063*%
%ADD13C,.06378*%
%ADD12R,.0398X.0398*%
%ADD42O,.0315X.01181*%
%ADD41O,.01181X.0315*%
%ADD15C,.118*%
%ADD40R,.14X.14*%
%ADD39R,.02362X.04134*%
%ADD46R,.05315X.01575*%
%ADD18C,.12992*%
%ADD44O,.07387X.05024*%
%ADD38R,.03937X.04331*%
%ADD19R,.04331X.03937*%
%ADD11R,.24409X.22835*%
%ADD33R,.05906X.05118*%
%ADD25R,.02756X.03543*%
%ADD32C,.00985*%
%ADD31R,.03543X.02756*%
%ADD23R,.05118X.05906*%
%ADD35R,.04724X.03937*%
%ADD24R,.07087X.06299*%
%ADD47C,.01*%
%ADD48C,.03*%
%ADD49C,.015*%
%ADD50C,.025*%
%ADD51C,.045*%
%ADD52C,.005*%
%ADD53C,.006*%
%ADD54C,.008*%
%ADD55C,.0072*%
%ADD56C,.0065*%
%ADD59C,.03204*%
%ADD63C,.0731*%
%ADD61C,.03604*%
%ADD58C,.08104*%
%ADD60C,.02804*%
%ADD66C,.0825*%
%ADD62C,.07404*%
%ADD67C,.11004*%
%ADD57R,.08104X.08104*%
%ADD68R,.07404X.07404*%
%ADD64C,.14396*%
%ADD65C,.19688*%
G75*
%LPD*%
G75*
G36*
G01X163640Y-67140D02*
X163574Y-67270D01*
G03X166435Y-68713I1426J-730D01*
G01X166490Y-68602D01*
X170888D01*
X170908Y-68780D01*
G03X174092I1592J180D01*
G01X174112Y-68602D01*
X181100D01*
X181999Y-69500D01*
Y-151055D01*
G02X174500Y-158554I-7499J0D01*
G01X-129500D01*
G02X-136999Y-151055I0J7499D01*
G01Y-122000D01*
X-135500Y-120502D01*
X-118998D01*
X-111002Y-128498D01*
Y-145329D01*
X-111000Y-145331D01*
Y-145500D01*
X-109000Y-147500D01*
X-108831D01*
X-108829Y-147502D01*
X-81171D01*
X-81169Y-147500D01*
X-78231D01*
X-78229Y-147502D01*
X-47871D01*
X-45798Y-145429D01*
Y-140647D01*
G02X-45116Y-140364I400J0D01*
G03X-39418Y-139796I2616J2620D01*
G01X-39359Y-139707D01*
X-39052D01*
Y-140405D01*
X-32285Y-147172D01*
X89729D01*
X95843Y-141057D01*
X95969Y-141115D01*
G03X99671Y-134745I1532J3370D01*
G02X99906Y-134022I235J323D01*
G01X101315D01*
X103732Y-131605D01*
Y-130085D01*
G02X104460Y-129857I400J0D01*
G03X108045Y-131406I3040J2113D01*
G01X108144Y-131391D01*
X110405Y-133652D01*
X124302D01*
X124336Y-133685D01*
Y-138265D01*
X125742Y-139672D01*
X128152D01*
X129558Y-138265D01*
Y-133685D01*
X129592Y-133652D01*
X136265D01*
X137672Y-132245D01*
Y-120015D01*
X135955Y-118298D01*
X62435D01*
X53255Y-109118D01*
X43485D01*
X40135Y-105768D01*
X30803D01*
G02X30443Y-105195I1J400D01*
G03X30172Y-103407I-1443J696D01*
G01Y-94593D01*
G03X30061Y-92300I-1172J1092D01*
G02Y-91700I265J300D01*
G03X30596Y-90366I-1061J1200D01*
G02X30980Y-89932I399J34D01*
G01Y-80068D01*
X30887D01*
G02X30510Y-79535I0J400D01*
G03X27490I-1510J535D01*
G02X27113Y-80068I-377J-133D01*
G01X27020D01*
Y-89932D01*
G02X27404Y-90366I-15J-400D01*
G03X27939Y-91700I1596J-134D01*
G02Y-92300I-265J-300D01*
G03X27828Y-94593I1061J-1201D01*
G01Y-103407D01*
G03X27693Y-105426I1172J-1092D01*
G01X27710Y-105451D01*
X27728Y-105505D01*
G02X27539Y-105768I-190J-63D01*
G01X27195D01*
X25445Y-104018D01*
X25480Y-103932D01*
Y-94068D01*
G02X25096Y-93634I15J400D01*
G03X24561Y-92300I-1596J134D01*
G02Y-91700I265J300D01*
G03X25096Y-90366I-1061J1200D01*
G02X25480Y-89932I399J34D01*
G01Y-80068D01*
X25387D01*
G02X25010Y-79535I0J400D01*
G03X21990I-1510J535D01*
G02X21613Y-80068I-377J-133D01*
G01X21520D01*
Y-89932D01*
G02X21904Y-90366I-15J-400D01*
G03X22439Y-91700I1596J-134D01*
G02Y-92300I-265J-300D01*
G03X21904Y-93634I1061J-1200D01*
G02X21520Y-94068I-399J-34D01*
G01Y-103932D01*
X22328D01*
Y-104215D01*
X26225Y-108112D01*
X39165D01*
X40370Y-109317D01*
G02X40088Y-110000I-282J-283D01*
G01X31197D01*
X31195Y-109998D01*
X20855D01*
X19172Y-108315D01*
Y-103932D01*
X19980D01*
Y-94068D01*
G02X19596Y-93634I15J400D01*
G03X19061Y-92300I-1596J134D01*
G02Y-91700I265J300D01*
G03X19596Y-90366I-1061J1200D01*
G02X19980Y-89932I399J34D01*
G01Y-80068D01*
X19887D01*
G02X19510Y-79535I0J400D01*
G03X16490I-1510J535D01*
G02X16113Y-80068I-377J-133D01*
G01X16020D01*
Y-89932D01*
G02X16404Y-90366I-15J-400D01*
G03X16939Y-91700I1596J-134D01*
G02Y-92300I-265J-300D01*
G03X16404Y-93634I1061J-1200D01*
G02X16020Y-94068I-399J-34D01*
G01Y-103932D01*
X16828D01*
Y-106366D01*
G02X16146Y-106649I-400J0D01*
G01X14112Y-104615D01*
G02X14394Y-103932I282J283D01*
G01X14480D01*
Y-94068D01*
G02X14096Y-93634I15J400D01*
G03X13561Y-92300I-1596J134D01*
G02Y-91700I265J300D01*
G03X14096Y-90366I-1061J1200D01*
G02X14480Y-89932I399J34D01*
G01Y-79614D01*
X14494Y-79580D01*
G03X12531Y-77468I-1494J580D01*
G02X12032Y-76969I-117J382D01*
G03X10969Y-78032I-1532J469D01*
G02X11468Y-78531I117J-382D01*
G03X11403Y-78872I1532J-469D01*
G01X11397Y-78946D01*
X11328Y-79015D01*
Y-80068D01*
X10520D01*
Y-89932D01*
G02X10904Y-90366I-15J-400D01*
G03X11439Y-91700I1596J-134D01*
G02Y-92300I-265J-300D01*
G03X10904Y-93634I1061J-1200D01*
G02X10520Y-94068I-399J-34D01*
G01Y-103932D01*
X11328D01*
Y-105145D01*
X14108Y-107925D01*
Y-109245D01*
X13875Y-109478D01*
X8855D01*
X7288Y-111045D01*
Y-113825D01*
X8865Y-115402D01*
X20775D01*
X21108Y-115735D01*
Y-116375D01*
X21005Y-116478D01*
X2485D01*
X2463Y-116500D01*
X-123D01*
X-275Y-116348D01*
X-5905D01*
X-8168Y-114085D01*
Y-111215D01*
X-6490Y-109536D01*
X5950D01*
X8172Y-107315D01*
Y-103932D01*
X8980D01*
Y-94068D01*
G02X8596Y-93634I15J400D01*
G03X8061Y-92300I-1596J134D01*
G02Y-91700I265J300D01*
G03X8172Y-89407I-1061J1201D01*
G01Y-80639D01*
X7838Y-80305D01*
Y-79593D01*
G03X5494I-1172J1093D01*
G01Y-81275D01*
X5828Y-81609D01*
Y-89407D01*
G03X5939Y-91700I1172J-1092D01*
G02Y-92300I-265J-300D01*
G03X5404Y-93634I1061J-1200D01*
G02X5020Y-94068I-399J-34D01*
G01Y-103932D01*
X5828D01*
Y-106345D01*
X4980Y-107194D01*
X2309D01*
G02X2026Y-106511I0J400D01*
G01X2672Y-105865D01*
Y-103932D01*
X3480D01*
Y-94068D01*
G02X3096Y-93634I15J400D01*
G03X2561Y-92300I-1596J134D01*
G02Y-91700I265J300D01*
G03X3096Y-90366I-1061J1200D01*
G02X3480Y-89932I399J34D01*
G01Y-80068D01*
X3387D01*
G02X3010Y-79535I0J400D01*
G03X-10I-1510J535D01*
G02X-387Y-80068I-377J-133D01*
G01X-480D01*
Y-89932D01*
G02X-96Y-90366I-15J-400D01*
G03X439Y-91700I1596J-134D01*
G02Y-92300I-265J-300D01*
G03X-96Y-93634I1061J-1200D01*
G02X-480Y-94068I-399J-34D01*
G01Y-103932D01*
X328D01*
Y-104895D01*
X-175Y-105398D01*
X-7561D01*
G02X-7948Y-104899I0J400D01*
G03X-11052I-1552J399D01*
G02X-11439Y-105398I-387J-99D01*
G01X-12155D01*
X-15965Y-109208D01*
X-23066D01*
G02X-23349Y-108526I0J400D01*
G01X-19328Y-104505D01*
Y-103932D01*
X-18520D01*
Y-94068D01*
G02X-18904Y-93634I15J400D01*
G03X-19439Y-92300I-1596J134D01*
G02Y-91700I265J300D01*
G03X-19328Y-89407I-1061J1201D01*
G01Y-80093D01*
G03X-21672I-1172J1093D01*
G01Y-89407D01*
G03X-21561Y-91700I1172J-1092D01*
G02Y-92300I-265J-300D01*
G03X-22096Y-93634I1061J-1200D01*
G02X-22480Y-94068I-399J-34D01*
G01Y-103932D01*
X-22418D01*
X-22316Y-104179D01*
X-25385Y-107248D01*
X-26806D01*
G02X-27089Y-106566I0J400D01*
G01X-24828Y-104305D01*
Y-103932D01*
X-24020D01*
Y-94068D01*
G02X-24404Y-93634I15J400D01*
G03X-24939Y-92300I-1596J134D01*
G02Y-91700I265J300D01*
G03X-24404Y-90366I-1061J1200D01*
G02X-24020Y-89932I399J34D01*
G01Y-80068D01*
X-24113D01*
G02X-24490Y-79535I0J400D01*
G03X-27510I-1510J535D01*
G02X-27887Y-80068I-377J-133D01*
G01X-27980D01*
Y-89932D01*
G02X-27596Y-90366I-15J-400D01*
G03X-27061Y-91700I1596J-134D01*
G02Y-92300I-265J-300D01*
G03X-27596Y-93634I1061J-1200D01*
G02X-27980Y-94068I-399J-34D01*
G01Y-104143D01*
X-29415Y-105578D01*
X-29584D01*
G02X-29966Y-105063I1J400D01*
G03X-29912Y-104386I-1534J463D01*
G02X-29520Y-103932I396J54D01*
G01Y-94068D01*
G02X-29904Y-93634I15J400D01*
G03X-30439Y-92300I-1596J134D01*
G02Y-91700I265J300D01*
G03X-29904Y-90366I-1061J1200D01*
G02X-29520Y-89932I399J34D01*
G01Y-80068D01*
X-29613D01*
G02X-29990Y-79535I0J400D01*
G03X-32650Y-77885I-1510J535D01*
G02X-33190Y-77917I-287J278D01*
G03X-35293Y-77988I-1011J-1243D01*
G01X-36836D01*
X-38172Y-79324D01*
Y-80068D01*
X-38980D01*
Y-89932D01*
G02X-38596Y-90366I-15J-400D01*
G03X-38061Y-91700I1596J-134D01*
G02Y-92300I-265J-300D01*
G03X-38596Y-93634I1061J-1200D01*
G02X-38980Y-94068I-399J-34D01*
G01Y-103932D01*
X-38880Y-104173D01*
X-39052Y-104345D01*
Y-125000D01*
G02X-39749Y-125267I-400J1D01*
G03X-45116Y-125124I-2751J-2477D01*
G02X-45798Y-124841I-282J283D01*
G01Y-93871D01*
X-47671Y-91998D01*
X-61829D01*
X-61831Y-92000D01*
X-62000D01*
X-63000Y-93000D01*
Y-93169D01*
X-63502Y-93671D01*
Y-112000D01*
X-69500D01*
X-70000Y-111500D01*
Y-95000D01*
X-75000Y-90000D01*
X-81000D01*
X-82500Y-88500D01*
Y-79000D01*
X-84744Y-76756D01*
G02X-84638Y-76114I283J283D01*
G03X-86867Y-75174I-706J1438D01*
G02X-87247Y-75698I-380J-124D01*
G01X-87664D01*
G02X-88031Y-75139I0J400D01*
G03X-90969I-1469J639D01*
G02X-91336Y-75698I-367J-159D01*
G01X-96248D01*
G02X-96391Y-74925I0J400D01*
G03X-101529I-2569J6724D01*
G02X-101672Y-75698I-143J-373D01*
G01X-106229D01*
X-112579Y-82048D01*
X-114452D01*
X-114500Y-82000D01*
Y-81331D01*
X-113998Y-80829D01*
Y-74741D01*
X-116241Y-72498D01*
X-123798D01*
X-123818Y-72320D01*
G03X-124632Y-71100I-1592J-180D01*
G02Y-70400I194J350D01*
G03X-126188I-778J1400D01*
G02Y-71100I-194J-350D01*
G03X-127002Y-72320I778J-1400D01*
G01X-127022Y-72498D01*
X-129829D01*
X-131502Y-74171D01*
Y-82829D01*
X-129329Y-85002D01*
X-121500D01*
Y-90500D01*
X-122000Y-91000D01*
X-132000D01*
X-134500Y-93500D01*
X-136499D01*
X-136999Y-93000D01*
Y48000D01*
G02X-130269Y56658I9499J-439D01*
G01X-125502D01*
Y50498D01*
X-88998D01*
Y56500D01*
X-84062D01*
Y51438D01*
X-23038D01*
Y56500D01*
X175025D01*
G02X181999Y49571I-2063J-9051D01*
G01Y-31500D01*
X181601Y-31898D01*
X165371D01*
X163598Y-33671D01*
Y-33902D01*
X163500Y-34000D01*
Y-49412D01*
X162871D01*
X162848Y-49389D01*
X162841Y-49221D01*
G03X161063Y-50882I-1601J-69D01*
G01X161133Y-50890D01*
X161596Y-51353D01*
G03X161628Y-51384I807J801D01*
G02Y-51664I-143J-140D01*
G03X161596Y-51695I775J-832D01*
G01X161133Y-52158D01*
X161063Y-52166D01*
G03X162841Y-53827I177J-1592D01*
G01X162848Y-53659D01*
X162871Y-53636D01*
X163500D01*
Y-54792D01*
X161738Y-56553D01*
Y-57701D01*
G03X163300Y-60402I1562J-899D01*
G02X163500Y-60602I0J-200D01*
G01Y-67000D01*
X163640Y-67140D01*
G37*
G36*
G01X-108000Y-145500D02*
X-109000Y-144500D01*
Y-127500D01*
X-118000Y-118500D01*
X-135500D01*
X-137000Y-117000D01*
Y-103500D01*
X-136000Y-102500D01*
X-122500D01*
X-114500Y-110500D01*
X-105000D01*
X-98000Y-117500D01*
Y-123500D01*
X-96500Y-125000D01*
X-86468D01*
X-86452Y-125002D01*
G03X-85252I600J3844D01*
G01X-85236Y-125000D01*
X-82000D01*
X-81500Y-125500D01*
Y-145000D01*
X-82000Y-145500D01*
X-108000D01*
G37*
G36*
G01X-117070Y-74500D02*
X-116000Y-75570D01*
Y-80000D01*
X-119000Y-83000D01*
X-128500D01*
X-129500Y-82000D01*
Y-75000D01*
X-129000Y-74500D01*
X-117070D01*
G37*
G36*
G01X-94148Y-118348D02*
X-96600Y-115895D01*
X-104595Y-107900D01*
X-114100D01*
X-118000Y-104000D01*
Y-85500D01*
X-116550Y-84050D01*
X-111750D01*
X-105400Y-77700D01*
X-87500D01*
X-86000Y-79200D01*
Y-91000D01*
X-83500Y-93500D01*
X-75500D01*
X-74000Y-95000D01*
Y-117000D01*
X-75348Y-118348D01*
X-83161D01*
G03X-88543I-2691J-2810D01*
G01X-94148D01*
G37*
G36*
G01X-9000Y-117000D02*
Y-117300D01*
G02X-9418Y-117700I-400J0D01*
G03X-11194Y-118885I-82J-1800D01*
G02X-11852Y-119031I-376J137D01*
G01X-16025Y-114858D01*
X-26725D01*
X-28645Y-116778D01*
X-30515D01*
X-31208Y-116085D01*
Y-112545D01*
X-30215Y-111552D01*
X-14995D01*
X-11185Y-107742D01*
X-8974D01*
G02X-8691Y-108424I0J-400D01*
G01X-10512Y-110245D01*
Y-115055D01*
X-8814Y-116753D01*
X-8916Y-117000D01*
X-9000D01*
G37*
G36*
G01X-15275Y-140828D02*
X-16678Y-139425D01*
Y-124785D01*
X-21645Y-119818D01*
X-26418D01*
X-26400Y-119800D01*
X-27100Y-119100D01*
Y-118547D01*
X-25755Y-117202D01*
X-16995D01*
X-9112Y-125085D01*
Y-125695D01*
X-9415D01*
X-9475Y-125610D01*
G03X-9803Y-130280I-3025J-2134D01*
G02X-9112Y-130554I291J-274D01*
G01Y-131365D01*
X-6565Y-133912D01*
X15254D01*
G02X15473Y-134646I0J-400D01*
G03X14701Y-140167I2027J-3098D01*
G02X14398Y-140828I-303J-261D01*
G01X-15275D01*
G37*
G36*
G01X-61500Y-94500D02*
X-61000Y-94000D01*
X-48500D01*
X-47800Y-94700D01*
Y-144600D01*
X-48700Y-145500D01*
X-77400D01*
X-79200Y-143700D01*
Y-126000D01*
X-67350Y-114150D01*
X-62650D01*
X-61500Y-113000D01*
Y-94500D01*
G37*
G36*
G01X75038Y-142828D02*
G02X74755Y-142146I0J400D01*
G01X75845Y-141056D01*
G03X74129Y-139275I1655J3312D01*
G01X74187Y-139401D01*
X72759Y-140828D01*
X60602D01*
G02X60299Y-140167I0J400D01*
G03X54701I-2799J2423D01*
G02X54398Y-140828I-303J-261D01*
G01X40602D01*
G02X40299Y-140167I0J400D01*
G03X40152Y-135161I-2799J2423D01*
G02X40438Y-134482I286J279D01*
G01X52665D01*
X54582Y-132565D01*
Y-130982D01*
G02X55227Y-130666I400J0D01*
G03X55969Y-124373I2273J2922D01*
G01X55843Y-124431D01*
X53571Y-122158D01*
X48658D01*
X48000Y-121500D01*
Y-119954D01*
X48008Y-119945D01*
Y-114588D01*
X48385Y-114212D01*
X49172D01*
X57972Y-123012D01*
X100595D01*
X101388Y-123805D01*
Y-125586D01*
G02X100648Y-125797I-400J0D01*
G03X95621Y-130934I-3148J-1947D01*
G02X95418Y-131678I-203J-344D01*
G01X89165D01*
X88940Y-131453D01*
G02X89000Y-131129I141J141D01*
G03X86328Y-131256I-1500J3385D01*
G01Y-132155D01*
X87540Y-133366D01*
G02X87281Y-134049I-283J-283D01*
G03X84129Y-139275I219J-3695D01*
G01X84187Y-139401D01*
X80759Y-142828D01*
X75038D01*
G37*
G36*
G01X126712Y-137328D02*
X126678Y-137295D01*
Y-132715D01*
X125272Y-131308D01*
X111375D01*
X110268Y-130202D01*
G03X104460Y-125631I-2768J2458D01*
G02X103732Y-125403I-328J228D01*
G01Y-122835D01*
X102221Y-121324D01*
G02X102504Y-120642I283J282D01*
G01X134985D01*
X135328Y-120985D01*
Y-131275D01*
X135295Y-131308D01*
X128622D01*
X127216Y-132715D01*
Y-137295D01*
X127182Y-137328D01*
X126712D01*
G37*
G36*
G01X166300Y-66600D02*
Y-57200D01*
X173400D01*
X174200Y-56400D01*
Y-46600D01*
X173500Y-45900D01*
X172562D01*
X172549Y-45898D01*
G03X172081I-234J-1787D01*
G01X172068Y-45900D01*
X165608D01*
X165600Y-45892D01*
Y-34500D01*
X166200Y-33900D01*
X181000D01*
X181999Y-34899D01*
Y-66201D01*
X181600Y-66600D01*
X166300D01*
G37*
%LPC*%
G75*
G36*
G01X-40826Y-53298D02*
G02X-36507Y-52098I2326J0D01*
G01X-36000D01*
G03X-34542Y-51493I-1J2062D01*
G01X-32274Y-49226D01*
X-30886Y-47838D01*
G02X-27760Y-45638I7887J-7886D01*
G03X-27930Y-44876I-170J362D01*
G01X-32001D01*
G03X-32568Y-45035I1J-1093D01*
G01Y-46055D01*
X-33719D01*
G02X-36163I-1222J1980D01*
G01X-38837D01*
G02X-41281I-1222J1980D01*
G01X-42432D01*
Y-45035D01*
G03X-43047Y-44878I-566J-935D01*
G02X-47155Y-42764I-1928J1303D01*
G02X-46452Y-41575I3656J-1359D01*
G02X-47155Y-40386I2953J2548D01*
G02X-43047Y-38272I2180J811D01*
G03X-42432Y-38115I49J1092D01*
G01Y-37095D01*
X-41281D01*
G02X-38837I1222J-1980D01*
G01X-36163D01*
G02X-33719I1222J-1980D01*
G01X-32568D01*
Y-38115D01*
G03X-32001Y-38274I568J934D01*
G01X-22304D01*
G02X-21976Y-38026I1561J-1724D01*
G03X-21905Y-37404I-212J339D01*
G01X-23098Y-36212D01*
X-25183D01*
X-25206Y-36217D01*
G02Y-33783I-294J1217D01*
G01X-25183Y-33788D01*
X-22094D01*
X-19888Y-35994D01*
G02X-19696Y-37457I-857J-857D01*
G03X-19555Y-38001I346J-201D01*
G02X-18746Y-38810I-1190J-1999D01*
G03X-18202Y-38951I343J205D01*
G02X-17658Y-38790I606J-1049D01*
G03X-17279Y-38398I-21J399D01*
G02X-16489Y-37258I1252J-24D01*
G03X-16353Y-36604I-147J372D01*
G01X-16542Y-36415D01*
X-16573Y-36400D01*
G02X-16487Y-34109I546J1127D01*
G03X-16351Y-33454I-147J372D01*
G01X-16539Y-33265D01*
X-16570Y-33251D01*
G02X-15892Y-30878I543J1128D01*
G03X-15450Y-30501I43J397D01*
G02X-14499Y-29550I1003J-52D01*
G03X-14122Y-29108I-20J399D01*
G02X-14129Y-28973I1245J132D01*
G03X-14508Y-28574I-400J0D01*
G02X-15275Y-28232I62J1170D01*
G01X-15809Y-27699D01*
G03X-16465Y-27838I-283J-283D01*
G02X-18202Y-28453I-1131J434D01*
G03X-18746Y-28594I-201J-346D01*
G02X-19032Y-28978I-1999J1190D01*
G02X-22303Y-32280I-1713J-1574D01*
G01X-45420D01*
G02X-51366Y-26334I0J5946D01*
G01Y-25857D01*
G02X-50299Y-21464I1067J2067D01*
G02X-48065Y-22245I0J-3586D01*
G02X-45831Y-21464I2234J-2805D01*
G02X-43881Y-25059I0J-2326D01*
G03X-43546Y-25678I335J-219D01*
G01X-22304D01*
G02X-21780Y-25320I1562J-1724D01*
G03X-21612Y-24761I-178J358D01*
G02X-20302Y-23354I867J506D01*
G03X-19726Y-22995I176J359D01*
G01Y-22731D01*
X-20415Y-22042D01*
X-20446Y-22027D01*
G02X-18773Y-20354I546J1127D01*
G01X-18758Y-20385D01*
X-17382Y-21761D01*
Y-22812D01*
X-16994Y-23200D01*
G03X-16652Y-23059I142J141D01*
G01Y-20317D01*
X-16658Y-20294D01*
G02X-14224I1217J294D01*
G01X-14230Y-20317D01*
Y-22759D01*
X-13590Y-23398D01*
G02X-13237Y-24194I-857J-856D01*
G03X-12847Y-24573I399J21D01*
G02X-12743Y-24580I-32J-1252D01*
G03X-12301Y-24203I43J397D01*
G02X-11001Y-25214I1003J-52D01*
G03X-11166Y-25879I118J-382D01*
G01X-10470Y-26576D01*
G02X-10128Y-27343I-828J-829D01*
G03X-9729Y-27722I399J21D01*
G02X-9594Y-27729I3J-1252D01*
G03X-9152Y-27352I43J397D01*
G02X-7822Y-28353I1003J-52D01*
G03X-7974Y-29014I131J-378D01*
G01X-7292Y-29696D01*
G02X-9006Y-31410I-857J-857D01*
G01X-9558Y-30858D01*
G03X-10211Y-30991I-282J-283D01*
G02X-12126Y-31381I-1086J438D01*
G01X-12823Y-30685D01*
G03X-13488Y-30850I-283J-283D01*
G02X-14150Y-31512I-959J297D01*
G03X-14314Y-32177I119J-382D01*
G01X-13619Y-32873D01*
G02X-13276Y-33701I-828J-828D01*
G01Y-33702D01*
G02X-14039Y-34800I-1172J0D01*
G03X-14183Y-35458I139J-375D01*
G01X-13619Y-36023D01*
G02X-14039Y-37949I-828J-828D01*
G03X-14183Y-38607I139J-375D01*
G01X-13619Y-39172D01*
G02X-15275Y-40828I-828J-828D01*
G01X-15535Y-40568D01*
X-15537D01*
X-15809Y-40296D01*
G03X-16465Y-40435I-283J-283D01*
G02X-16739Y-40857I-1131J435D01*
G01X-17291Y-41409D01*
G03X-17158Y-42062I283J-282D01*
G02X-16498Y-42741I-438J-1086D01*
G03X-15840Y-42885I375J139D01*
G01X-15275Y-42321D01*
G02X-13350Y-42738I828J-828D01*
G03X-12693Y-42881I375J140D01*
G01X-12529Y-42718D01*
X-12523D01*
X-12126Y-42321D01*
G02X-10201Y-42738I828J-828D01*
G03X-9544Y-42881I375J140D01*
G01X-9295Y-42632D01*
X-9289D01*
X-8977Y-42321D01*
G02X-7321Y-43977I828J-828D01*
G01X-7885Y-44542D01*
G03X-7741Y-45200I283J-283D01*
G02X-7321Y-47126I-408J-1098D01*
G01X-7854Y-47660D01*
G03X-7715Y-48316I283J-283D01*
G02X-7292Y-48590I-433J-1132D01*
G01X-6740Y-49142D01*
G03X-6087Y-49009I282J283D01*
G02X-5132Y-48283I1087J-438D01*
G01X-5062Y-48275D01*
X-4872Y-48084D01*
X-5021Y-47935D01*
G02X-5047Y-47908I831J826D01*
G01X-5049Y-47906D01*
X-5828Y-47126D01*
G02X-5132Y-45134I828J828D01*
G01X-5062Y-45126D01*
X-4872Y-44935D01*
X-5061Y-44746D01*
G02X-5087Y-44719I831J826D01*
G01X-5089Y-44717D01*
X-5828Y-43977D01*
G02X-5055Y-41979I828J828D01*
G03X-4674Y-41578I-19J400D01*
G02Y-41571I1252J3D01*
G03X-5055Y-41170I-400J1D01*
G02X-5828Y-39172I55J1170D01*
G01X-5552Y-38895D01*
Y-38889D01*
X-5268Y-38605D01*
G03X-5411Y-37948I-283J282D01*
G02X-6170Y-36912I411J1097D01*
G03X-6569Y-36533I-399J-21D01*
G02X-6577I-4J1252D01*
G03X-6979Y-36912I-3J-400D01*
G02X-7741Y-37949I-1170J61D01*
G03X-7885Y-38607I139J-375D01*
G01X-7321Y-39172D01*
G02X-8977Y-40828I-828J-828D01*
G01X-9150Y-40656D01*
X-9152D01*
X-9674Y-40133D01*
G03X-10339Y-40298I-283J-283D01*
G02X-11350Y-38997I-959J298D01*
G03X-10973Y-38556I-21J399D01*
G02Y-38294I1245J131D01*
G03X-11350Y-37854I-398J41D01*
G02Y-35848I52J1003D01*
G03X-10973Y-35407I-21J399D01*
G02X-9721Y-34022I1245J133D01*
G03X-9319Y-33642I3J400D01*
G02X-7321Y-32874I1170J-60D01*
G01X-6756Y-33438D01*
G03X-6098Y-33294I283J283D01*
G02X-5828Y-32874I1098J-409D01*
G01X-5440Y-32486D01*
Y-32479D01*
X-5269Y-32307D01*
G03X-5411Y-31650I-283J283D01*
G02X-5828Y-29725I411J1097D01*
G01X-5340Y-29237D01*
Y-29229D01*
X-5270Y-29158D01*
G03X-5412Y-28501I-283J283D01*
G02X-5828Y-26576I412J1097D01*
G01X-5430Y-26178D01*
Y-26170D01*
X-5301Y-26040D01*
G03X-5439Y-25384I-283J283D01*
G02X-6080Y-24804I439J1129D01*
G03X-6552Y-24602I-357J-181D01*
G02X-6776Y-24651I-445J1497D01*
G01X-6842Y-24661D01*
X-7292Y-25112D01*
G02X-9006Y-23398I-857J857D01*
G01X-8555Y-22948D01*
X-8545Y-22882D01*
G02X-8104Y-22002I1545J-224D01*
G01X-7870Y-21768D01*
X-7986Y-21628D01*
G02X-8502Y-19954I1786J1467D01*
G01Y-19806D01*
X-8508Y-19710D01*
G02X-8512Y-19578I2308J136D01*
G01Y-18377D01*
X-9077Y-17812D01*
X-30957D01*
X-34252Y-14516D01*
Y-9480D01*
X-34314D01*
Y-5520D01*
X-34252D01*
Y11284D01*
X-35057Y12088D01*
X-47139D01*
G03X-47461Y11451I0J-400D01*
G02X-47689Y9300I-1289J-951D01*
G03Y8700I265J-300D01*
G02Y6300I-1061J-1200D01*
G03Y5700I265J-300D01*
G02X-47450Y5436I-1061J-1200D01*
G03X-46800I325J233D01*
G02X-44100Y5278I1300J-936D01*
G03X-43400I350J194D01*
G02X-40600I1400J-778D01*
G03X-39900I350J194D01*
G02Y3722I1400J-778D01*
G03X-40600I-350J-194D01*
G02X-43400I-1400J778D01*
G03X-44100I-350J-194D01*
G02X-46800Y3564I-1400J778D01*
G03X-47450I-325J-233D01*
G02X-47689Y3300I-1300J936D01*
G03Y2700I265J-300D01*
G02X-49811I-1061J-1200D01*
G03Y3300I-265J300D01*
G02X-50050Y3564I1061J1200D01*
G03X-50700I-325J-233D01*
G02X-53400Y3722I-1300J936D01*
G03X-54100I-350J-194D01*
G02X-56900I-1400J778D01*
G03X-57600I-350J-194D01*
G02Y5278I-1400J778D01*
G03X-56900I350J194D01*
G02X-54100I1400J-778D01*
G03X-53400I350J194D01*
G02X-50700Y5436I1400J-778D01*
G03X-50050I325J233D01*
G02X-49811Y5700I1300J-936D01*
G03Y6300I-265J300D01*
G02Y8700I1061J1200D01*
G03Y9300I-265J300D01*
G02X-50039Y11451I1061J1200D01*
G03X-50361Y12088I-322J237D01*
G01X-59257D01*
X-60817Y13648D01*
G03X-61500Y13366I-283J-283D01*
G01Y8000D01*
X-64000Y5500D01*
X-77500D01*
X-80000Y8000D01*
Y10169D01*
X-80502Y10671D01*
Y22002D01*
X-82698Y24198D01*
X-94129D01*
X-94431Y24500D01*
X-95500D01*
X-96500Y25500D01*
Y26569D01*
X-96502Y26571D01*
Y30502D01*
X-98498Y32498D01*
X-99631D01*
G02X-103510Y34176I-1868J1003D01*
G01X-103500Y34207D01*
Y47000D01*
X-103000Y47500D01*
X-56500D01*
X-56000Y47000D01*
Y20000D01*
X-58316Y17684D01*
X-57343Y16712D01*
X-53184D01*
G03X-52901Y17394I0J400D01*
G01X-53972Y18465D01*
Y21055D01*
X-52015Y23012D01*
X-47401D01*
X-45812Y24601D01*
G02X-38811Y26563I3312J1655D01*
G01X-38796Y26380D01*
X-38412D01*
Y27035D01*
X-36465Y28982D01*
X-35005D01*
G02X-34772Y29179I2505J-2726D01*
G03X-34895Y29536I-123J157D01*
G01X-36903D01*
X-38672Y31305D01*
Y34004D01*
G03X-39406Y34224I-400J0D01*
G02Y38288I-3094J2032D01*
G03X-38672Y38508I334J220D01*
G01Y43285D01*
X-36505Y45452D01*
X135305D01*
X141292Y39465D01*
Y14835D01*
X133645Y7188D01*
X116911D01*
G03X116520Y6701I-1J-400D01*
G02X113784I-1368J-305D01*
G03X113393Y7188I-390J87D01*
G01X112601D01*
X111526Y6114D01*
X111513Y6060D01*
G02X109816Y7757I-1361J336D01*
G01X109870Y7770D01*
X111631Y9532D01*
X114036D01*
G03X114425Y10022I-1J400D01*
G02X114779Y11311I1365J318D01*
G03X114491Y11988I-288J277D01*
G01X112401D01*
X111526Y11114D01*
X111513Y11060D01*
G02X109816Y12757I-1361J336D01*
G01X109870Y12770D01*
X111431Y14332D01*
X117826D01*
G03X118109Y15014I0J400D01*
G01X117275Y15848D01*
X104715D01*
X104072Y15205D01*
Y13485D01*
X104800Y12757D01*
X104903Y12776D01*
G02X104427Y10196I249J-1380D01*
G01X104380Y10224D01*
X104019D01*
X101728Y12515D01*
Y16175D01*
X102844Y17291D01*
G03X102561Y17974I-283J283D01*
G01X97000D01*
X96452Y17425D01*
Y14055D01*
X96835Y13672D01*
X97484D01*
X97531Y13700D01*
G02X99618Y12167I725J-1200D01*
G03X100006Y11672I388J-95D01*
G01X101533D01*
X105434Y7770D01*
X105488Y7757D01*
G02X103791Y6060I-336J-1361D01*
G01X103778Y6114D01*
X100563Y9328D01*
X91050D01*
G03X90767Y8646I0J-400D01*
G01X91642Y7770D01*
X91696Y7757D01*
G02X89999Y6060I-336J-1361D01*
G01X89986Y6114D01*
X88771Y7328D01*
X88081D01*
G03X87699Y6810I0J-400D01*
G02X85021I-1339J-414D01*
G03X84639Y7328I-382J118D01*
G01X83081D01*
G03X82699Y6810I0J-400D01*
G02X80583Y5229I-1339J-414D01*
G03X79962Y4896I-221J-333D01*
G01Y2896D01*
G03X80583Y2563I400J0D01*
G02Y229I777J-1167D01*
G03X79962Y-104I-221J-333D01*
G01Y-2104D01*
G03X80583Y-2437I400J0D01*
G02Y-4771I777J-1167D01*
G03X79962Y-5104I-221J-333D01*
G01Y-7104D01*
G03X80583Y-7437I400J0D01*
G02Y-9771I777J-1167D01*
G03X79962Y-10104I-221J-333D01*
G01Y-12104D01*
G03X80583Y-12437I400J0D01*
G02X81952Y-12333I777J-1167D01*
G03X82520Y-11971I168J363D01*
G01Y-11186D01*
X86480D01*
Y-11748D01*
X87065D01*
X87641Y-12323D01*
G02X86648Y-15393I-1281J-1281D01*
G01X86480Y-15420D01*
Y-15932D01*
X82520D01*
Y-15237D01*
G03X81952Y-14875I-400J-1D01*
G02X80583Y-14771I-592J1271D01*
G03X79962Y-15104I-221J-333D01*
G01Y-17104D01*
G03X80583Y-17437I400J0D01*
G02Y-19771I777J-1167D01*
G03X79962Y-20104I-221J-333D01*
G01Y-22104D01*
G03X80583Y-22437I400J0D01*
G02X82201Y-22482I777J-1167D01*
G03X82520Y-22322I119J160D01*
G01Y-22186D01*
X85233D01*
G02X87641Y-24885I1127J-1418D01*
G01X86480Y-26046D01*
Y-26932D01*
X82520D01*
Y-25237D01*
G03X81952Y-24875I-400J-1D01*
G02X80583Y-24771I-592J1271D01*
G03X79962Y-25104I-221J-333D01*
G01Y-35896D01*
G03X80583Y-36229I400J0D01*
G02X81952Y-36125I777J-1167D01*
G03X82520Y-35763I168J363D01*
G01Y-33686D01*
X86480D01*
Y-34954D01*
X87641Y-36115D01*
G02X85079Y-38677I-1281J-1281D01*
G01X84834Y-38432D01*
X82305D01*
G02X80583Y-38563I-945J1036D01*
G03X79962Y-38896I-221J-333D01*
G01Y-40615D01*
X77535Y-43042D01*
X61095D01*
X58598Y-40545D01*
Y-22145D01*
X61981Y-18762D01*
G03X61759Y-18084I-283J283D01*
G02X60907Y-17672I240J1584D01*
G01X54932D01*
Y-18480D01*
X45068D01*
Y-18387D01*
G03X44534Y-18010I-400J0D01*
G02X42800Y-17561I-534J1510D01*
G03X42200I-300J-265D01*
G02X40866Y-18096I-1200J1061D01*
G03X40433Y-18480I-33J-399D01*
G01X30568D01*
Y-18387D01*
G03X30034Y-18010I-400J0D01*
G02Y-14990I-534J1510D01*
G03X30568Y-14613I134J377D01*
G01Y-14520D01*
X40433D01*
G03X40866Y-14904I400J15D01*
G02X42200Y-15439I134J-1596D01*
G03X42800I300J265D01*
G02X44534Y-14990I1200J-1061D01*
G03X45068Y-14613I134J377D01*
G01Y-14520D01*
X54932D01*
Y-15328D01*
X60907D01*
G02X62935Y-15199I1093J-1172D01*
G03X63568Y-14875I233J325D01*
G01Y-12868D01*
G03X63025Y-12495I-400J0D01*
G02X61357Y-12172I-576J1495D01*
G01X54932D01*
Y-12980D01*
X45068D01*
Y-12887D01*
G03X44534Y-12510I-400J0D01*
G02X42800Y-12061I-534J1510D01*
G03X42200I-300J-265D01*
G02X40866Y-12596I-1200J1061D01*
G03X40433Y-12980I-33J-399D01*
G01X30568D01*
Y-12887D01*
G03X30034Y-12510I-400J0D01*
G02Y-9490I-534J1510D01*
G03X30568Y-9113I134J377D01*
G01Y-9020D01*
X40433D01*
G03X40866Y-9404I400J15D01*
G02X42200Y-9939I134J-1596D01*
G03X42800I300J265D01*
G02X44534Y-9490I1200J-1061D01*
G03X45068Y-9113I134J377D01*
G01Y-9020D01*
X54932D01*
Y-9828D01*
X61357D01*
G02X63025Y-9505I1092J-1172D01*
G03X63568Y-9132I143J373D01*
G01Y-7368D01*
G03X63025Y-6995I-400J0D01*
G02X61357Y-6672I-576J1495D01*
G01X54932D01*
Y-7480D01*
X45068D01*
Y-7387D01*
G03X44534Y-7010I-400J0D01*
G02Y-3990I-534J1510D01*
G03X45068Y-3613I134J377D01*
G01Y-3520D01*
X54932D01*
Y-4328D01*
X61357D01*
G02X63025Y-4005I1092J-1172D01*
G03X63568Y-3632I143J373D01*
G01Y-3445D01*
X62185Y-2062D01*
X51085D01*
X48818Y205D01*
Y6484D01*
G03X48172Y6798I-400J-1D01*
G02X46090Y6888I-988J1261D01*
G01X26480D01*
Y568D01*
X26387D01*
G03X26010Y35I0J-400D01*
G02X22990I-1510J-535D01*
G03X22613Y568I-377J133D01*
G01X22520D01*
Y10658D01*
X20980D01*
Y568D01*
X17020D01*
Y1002D01*
G03X16521Y1389I-400J0D01*
G02X15128Y1685I-398J1552D01*
G03X14480Y1372I-248J-314D01*
G01Y568D01*
X10520D01*
Y1038D01*
G03X9997Y1418I-400J0D01*
G02X8603Y1613I-498J1523D01*
G03X7980Y1282I-223J-331D01*
G01Y568D01*
X7172D01*
Y-2907D01*
G02X5073Y-5307I-1172J-1093D01*
G03X4442Y-5633I-231J-326D01*
G01Y-5726D01*
X5661Y-6946D01*
X8498D01*
Y-6171D01*
X10171Y-4498D01*
X17329D01*
X17993Y-5162D01*
G03X18649Y-5023I283J283D01*
G02X19675Y-9506I3851J-1478D01*
G03X19002Y-9797I-273J-291D01*
G01Y-16329D01*
X18340Y-16991D01*
X19312Y-17963D01*
Y-29000D01*
G02X16250Y-30312I-1812J0D01*
G01X15043D01*
X14249Y-31106D01*
G03X14532Y-31788I283J-282D01*
G01X16402D01*
X17136Y-32523D01*
X17159Y-32536D01*
G02X16244Y-34840I-621J-1087D01*
G01X16221Y-34834D01*
X16021D01*
X15866Y-34679D01*
G02X15492Y-34311I672J1057D01*
G01X15481Y-34294D01*
X15398Y-34212D01*
X15126D01*
G03X14757Y-34765I0J-400D01*
G02X13945Y-36447I-1157J-479D01*
G01X13896Y-36462D01*
X12295Y-38062D01*
X10745D01*
G02X10630Y-38057I-5J1211D01*
G03X10413Y-38279I-18J-199D01*
G02X10352Y-38834I-1244J-144D01*
G01X10340Y-38866D01*
Y-38912D01*
X10307Y-38946D01*
X10293Y-38975D01*
G02X9721Y-39547I-1124J552D01*
G01X9692Y-39561D01*
X8424Y-40828D01*
G02X6498Y-40408I-828J828D01*
G03X5840Y-40264I-375J-139D01*
G01X5275Y-40828D01*
G02X4856Y-41098I-829J827D01*
G03X4712Y-41756I139J-375D01*
G01X4894Y-41937D01*
Y-41939D01*
X5275Y-42321D01*
G02X4504Y-44319I-828J-828D01*
G03X4123Y-44719I19J-400D01*
G02Y-44727I-1252J-4D01*
G03X4504Y-45128I400J-1D01*
G02X5275Y-45470I-58J-1170D01*
G01X5628Y-45822D01*
X5630D01*
X6536Y-46730D01*
X6566Y-46744D01*
G02X6482Y-49035I-546J-1127D01*
G03X6346Y-49689I147J-372D01*
G01X6536Y-49879D01*
X6567Y-49894D01*
G02X7273Y-51025I-546J-1127D01*
G03X7653Y-51426I400J-1D01*
G02X8424Y-51768I-58J-1170D01*
G01X9234Y-52578D01*
G02X9261Y-52605I-814J-842D01*
G01X9263Y-52608D01*
X9685Y-53030D01*
X9715Y-53044D01*
G02X9632Y-55334I-546J-1127D01*
G03X9497Y-55989I147J-372D01*
G01X9506Y-55998D01*
Y-56000D01*
X9684Y-56178D01*
X9715Y-56193D01*
G02X8042Y-57866I-546J-1127D01*
G01X8027Y-57835D01*
X7838Y-57646D01*
G03X7184Y-57782I-282J-283D01*
G02X4893Y-57866I-1164J462D01*
G01X4878Y-57835D01*
X4394Y-57351D01*
G03X3712Y-57634I-282J-283D01*
G01Y-60183D01*
X3717Y-60206D01*
G02X1283I-1217J-294D01*
G01X1288Y-60183D01*
Y-57449D01*
X441Y-56602D01*
G02X88Y-55803I857J856D01*
G03X-304Y-55423I-399J-20D01*
G02X-1408Y-54715I24J1252D01*
G01X-1422Y-54685D01*
X-1610Y-54497D01*
G03X-2265Y-54632I-283J-282D01*
G02X-3572Y-55415I-1164J461D01*
G03X-3794Y-55632I-23J-199D01*
G02X-3788Y-55745I-1206J-121D01*
G01Y-61783D01*
X-3783Y-61806D01*
G02X-6217I-1217J-294D01*
G01X-6212Y-61783D01*
Y-55745D01*
G02X-5435Y-54614I1212J0D01*
G03X-5296Y-53959I-144J373D01*
G01X-5829Y-53423D01*
G02X-6170Y-52658I829J828D01*
G03X-6571Y-52279I-399J-21D01*
G02X-7651Y-51667I-4J1252D01*
G01X-7664Y-51645D01*
X-7924Y-51385D01*
G03X-8575Y-51511I-283J-283D01*
G02X-9728Y-52273I-1152J490D01*
G03X-10128Y-52653I0J-400D01*
G02X-10525Y-53476I-1170J57D01*
G01X-11037Y-53988D01*
G03X-10893Y-54646I283J-283D01*
G02X-10200Y-55335I-404J-1100D01*
G03X-9543Y-55478I374J140D01*
G01X-8638Y-54574D01*
X-8149D01*
G02X-7380Y-56629I0J-1171D01*
G01X-8586Y-57835D01*
X-8601Y-57866D01*
G02X-10892Y-57782I-1127J546D01*
G03X-11546Y-57646I-372J-147D01*
G01X-11735Y-57835D01*
X-11750Y-57866D01*
G02X-14041Y-57781I-1127J546D01*
G03X-14696Y-57645I-372J-147D01*
G01X-14885Y-57835D01*
X-14900Y-57866D01*
G02X-17177Y-57815I-1127J546D01*
G03X-17827Y-57690I-367J-158D01*
G01X-17876Y-57738D01*
X-17882D01*
X-18096Y-57953D01*
X-18109Y-57973D01*
G02X-19810Y-56240I-1068J653D01*
G01X-19543Y-55973D01*
G03X-19669Y-55322I-283J283D01*
G02X-20420Y-54025I492J1151D01*
G03X-20637Y-53803I-199J23D01*
G02X-20745Y-53808I-110J1207D01*
G01X-22594D01*
X-24419Y-55633D01*
X-24432Y-55653D01*
G02X-26153Y-53932I-1068J653D01*
G01X-26133Y-53919D01*
X-24450Y-52236D01*
G03X-24899Y-51590I-283J282D01*
G03X-26217Y-52507I1898J-4134D01*
G01X-27605Y-53895D01*
X-29873Y-56162D01*
G02X-35999Y-58700I-6127J6127D01*
G01X-36507D01*
G02X-40826Y-57500I-1993J1200D01*
G01Y-57372D01*
G02X-40177Y-55399I3326J-1D01*
G02X-40826Y-53426I2677J1974D01*
G01Y-53298D01*
G37*
G36*
G01X-113504Y9858D02*
G02X-105874Y16754I2504J4898D01*
G03X-105102Y16899I372J146D01*
G01Y19129D01*
X-104145Y20086D01*
Y20239D01*
X-103992D01*
X-103429Y20802D01*
X-89771D01*
X-87998Y19029D01*
Y13571D01*
X-89971Y11598D01*
X-103429D01*
X-105102Y13271D01*
Y14772D01*
X-105495D01*
X-105501Y14578D01*
G02X-108496Y9858I-5499J179D01*
G03X-108314Y9102I182J-356D01*
G01X-102271D01*
X-95498Y2329D01*
Y2151D01*
X-87532D01*
Y-428D01*
X-86823D01*
X-86782Y-388D01*
X-85980D01*
Y3418D01*
X-87281Y4719D01*
G02X-84719Y7281I1281J1281D01*
G01X-83370Y5932D01*
X-81369D01*
X-81342Y5940D01*
G02X-79317Y4647I442J-1540D01*
G03X-78764Y4342I395J62D01*
G02X-78775Y1405I635J-1471D01*
G03X-79329Y961I-162J-366D01*
G02X-81477Y-845I-1571J-311D01*
G03X-82020Y-1218I-143J-373D01*
G01Y-3932D01*
X-82828D01*
Y-4955D01*
X-83410Y-5537D01*
Y-6017D01*
X-83363Y-6073D01*
G02X-85754Y-6019I-1220J-1039D01*
G01Y-4557D01*
G03X-85980Y-3946I-330J225D01*
G01Y-2772D01*
X-87532D01*
Y-5351D01*
X-95498D01*
Y-9229D01*
X-97771Y-11502D01*
X-116329D01*
X-118502Y-9329D01*
Y-5671D01*
X-116829Y-3998D01*
X-110002D01*
Y998D01*
X-114329D01*
X-115902Y2571D01*
Y7329D01*
X-114129Y9102D01*
X-113686D01*
G03X-113504Y9858I0J400D01*
G37*
G36*
G01X-71438Y-31589D02*
G02X-73648I-1105J-3068D01*
G03Y-30836I-135J377D01*
G02X-71438I1105J3068D01*
G03Y-31589I135J-376D01*
G37*
G36*
G01X155838Y-25681D02*
X156054Y-25897D01*
X156127Y-25903D01*
G02X154403Y-27627I-127J-1597D01*
G01X154397Y-27554D01*
X154146Y-27303D01*
G03X153804Y-27444I-142J-141D01*
G01Y-39797D01*
X156544Y-42537D01*
Y-43260D01*
X157191D01*
Y-48598D01*
X146145D01*
Y-43260D01*
X146792D01*
Y-42701D01*
X149582Y-39911D01*
Y-27160D01*
G03X149071Y-26776I-400J0D01*
G02X148443Y-26785I-330J1145D01*
G03X147944Y-27172I-99J-387D01*
G01Y-31548D01*
G02X145733Y-33860I-1171J-1093D01*
G01X145677Y-33812D01*
X145380D01*
Y-37183D01*
X145387Y-37209D01*
G02X145462Y-37759I-1987J-551D01*
G01Y-41500D01*
G02X141338I-2062J0D01*
G01Y-37759D01*
G02X141413Y-37209I2062J-1D01*
G01X141420Y-37183D01*
Y-30268D01*
X145600D01*
Y-27172D01*
G03X145101Y-26785I-400J0D01*
G02X143960Y-26474I-298J1154D01*
G03X143678I-141J-141D01*
G02X142323Y-26707I-843J843D01*
G01X142283Y-26688D01*
X142038D01*
Y-26985D01*
X139754Y-29268D01*
Y-39042D01*
X139072Y-39725D01*
Y-40205D01*
X139119Y-40261D01*
G02X136728Y-40207I-1220J-1039D01*
G01Y-38755D01*
X137412Y-38072D01*
Y-32406D01*
G03X136724Y-32128I-400J0D01*
G02X129651Y-28905I-2964J2868D01*
G01X129659Y-28812D01*
X129452Y-28605D01*
X129072Y-28985D01*
Y-29467D01*
X127044Y-31495D01*
X127038Y-31568D01*
G02X125314Y-29844I-1597J127D01*
G01X125387Y-29838D01*
X126728Y-28497D01*
Y-28015D01*
X126948Y-27795D01*
G03X126665Y-27112I-283J283D01*
G01X126536D01*
X126480Y-27160D01*
G02X126534Y-24770I-1039J1219D01*
G01X127574D01*
X132536Y-19807D01*
G03X132253Y-19124I-283J283D01*
G01X128414D01*
X127044Y-20495D01*
X127038Y-20568D01*
G02X125314Y-18844I-1597J127D01*
G01X125387Y-18838D01*
X127444Y-16782D01*
X133142D01*
G03X133283Y-16440I0J200D01*
G01X132956Y-16112D01*
X126534D01*
G02Y-13770I-1093J1171D01*
G01X133926D01*
X134969Y-14812D01*
X136905D01*
X136922Y-14810D01*
G02X137126Y-14792I206J-1174D01*
G01X139095D01*
G02X139937Y-16827I-1J-1192D01*
G03Y-17110I142J-141D01*
G02X139938Y-18796I-842J-843D01*
G03Y-19078I141J-141D01*
G02X139937Y-20764I-843J-843D01*
G03Y-21047I142J-142D01*
G02X140278Y-22033I-842J-843D01*
G03X140723Y-22478I397J-48D01*
G02X141709Y-22819I143J-1183D01*
G03X141992I142J142D01*
G02X143678Y-22818I843J-842D01*
G03X143960I141J141D01*
G02X145646Y-22819I843J-843D01*
G03X145929I141J142D01*
G02X147615Y-22818I843J-842D01*
G03X147897I141J141D01*
G02X149583Y-22819I843J-843D01*
G03X149866I141J142D01*
G02X151552Y-22818I843J-842D01*
G03X151834I141J141D01*
G02X153520Y-22819I843J-843D01*
G03X153803I141J142D01*
G02X155838Y-23661I843J-843D01*
G01Y-25681D01*
G37*
G36*
G01X40433Y-51480D02*
X30568D01*
Y-50672D01*
X30015D01*
X28228Y-48885D01*
Y-48393D01*
G02X28534Y-45952I1172J1093D01*
G03X28554Y-45293I-216J336D01*
G02X30034Y-42490I946J1293D01*
G03X30568Y-42113I134J377D01*
G01Y-42020D01*
X40433D01*
G03X40866Y-42404I400J15D01*
G02X42200Y-42939I134J-1596D01*
G03X42800I300J265D01*
G02X44534Y-42490I1200J-1061D01*
G03X45068Y-42113I134J377D01*
G01Y-42020D01*
X54933D01*
G03X55366Y-42404I400J15D01*
G02Y-45596I134J-1596D01*
G03X54933Y-45980I-33J-399D01*
G01X45068D01*
Y-45887D01*
G03X44534Y-45510I-400J0D01*
G02X42800Y-45061I-534J1510D01*
G03X42200I-300J-265D01*
G02X40866Y-45596I-1200J1061D01*
G03X40433Y-45980I-33J-399D01*
G01X31178D01*
G03X30823Y-46564I0J-400D01*
G02X31002Y-47318I-1423J-736D01*
G01Y-47520D01*
X40433D01*
G03X40866Y-47904I400J15D01*
G02X42200Y-48439I134J-1596D01*
G03X42800I300J265D01*
G02X44534Y-47990I1200J-1061D01*
G03X45068Y-47613I134J377D01*
G01Y-47520D01*
X54932D01*
Y-48328D01*
X55515D01*
X59515Y-44328D01*
X66407D01*
G02Y-46672I1093J-1172D01*
G01X60485D01*
X56485Y-50672D01*
X54932D01*
Y-51480D01*
X45068D01*
Y-51387D01*
G03X44534Y-51010I-400J0D01*
G02X42800Y-50561I-534J1510D01*
G03X42200I-300J-265D01*
G02X40866Y-51096I-1200J1061D01*
G03X40433Y-51480I-33J-399D01*
G37*
G36*
G01X-71438Y-58164D02*
G02X-73648I-1105J-3068D01*
G03Y-57411I-135J377D01*
G02X-71438I1105J3068D01*
G03Y-58164I135J-377D01*
G37*
G36*
G01X-2939Y-92300D02*
G02X-5061I-1061J-1200D01*
G03Y-91700I-265J300D01*
G02X-5596Y-90366I1061J1200D01*
G03X-5980Y-89932I-399J34D01*
G01Y-80068D01*
X-5887D01*
G03X-5510Y-79535I0J400D01*
G02X-2490I1510J535D01*
G03X-2113Y-80068I377J-133D01*
G01X-2020D01*
Y-89932D01*
G03X-2404Y-90366I15J-400D01*
G02X-2939Y-91700I-1596J-134D01*
G03Y-92300I265J-300D01*
G37*
G36*
G01X-8439D02*
G02X-10561I-1061J-1200D01*
G03Y-91700I-265J300D01*
G02X-11096Y-90366I1061J1200D01*
G03X-11480Y-89932I-399J34D01*
G01Y-80068D01*
X-11387D01*
G03X-11010Y-79535I0J400D01*
G02X-7990I1510J535D01*
G03X-7613Y-80068I377J-133D01*
G01X-7520D01*
Y-89932D01*
G03X-7904Y-90366I15J-400D01*
G02X-8439Y-91700I-1596J-134D01*
G03Y-92300I265J-300D01*
G37*
G36*
G01X-40904Y-104366D02*
G02X-44096I-1596J-134D01*
G03X-44480Y-103932I-399J34D01*
G01Y-94068D01*
G03X-44096Y-93634I-15J400D01*
G02X-43561Y-92300I1596J134D01*
G03Y-91700I-265J300D01*
G02X-44096Y-90366I1061J1200D01*
G03X-44480Y-89932I-399J34D01*
G01Y-84380D01*
G03X-44979Y-83993I-400J0D01*
G02Y-80889I-399J1552D01*
G03X-44480Y-80502I99J387D01*
G01Y-80068D01*
X-40520D01*
Y-89932D01*
G03X-40904Y-90366I15J-400D01*
G02X-41439Y-91700I-1596J-134D01*
G03Y-92300I265J-300D01*
G02X-40904Y-93634I-1061J-1200D01*
G03X-40520Y-94068I399J-34D01*
G01Y-103932D01*
G03X-40904Y-104366I15J-400D01*
G37*
G36*
G01X-13425Y-104405D02*
G02X-16575I-1575J-295D01*
G03X-16968Y-103932I-393J73D01*
G01X-16980D01*
Y-94068D01*
G03X-16596Y-93634I-15J400D01*
G02X-16061Y-92300I1596J134D01*
G03Y-91700I-265J300D01*
G02X-16596Y-90366I1061J1200D01*
G03X-16980Y-89932I-399J34D01*
G01Y-80068D01*
X-16887D01*
G03X-16510Y-79535I0J400D01*
G02X-13490I1510J535D01*
G03X-13113Y-80068I377J-133D01*
G01X-13020D01*
Y-89932D01*
G03X-13404Y-90366I15J-400D01*
G02X-13939Y-91700I-1596J-134D01*
G03Y-92300I265J-300D01*
G02X-13404Y-93634I-1061J-1200D01*
G03X-13020Y-94068I399J-34D01*
G01Y-103932D01*
X-13032D01*
G03X-13425Y-104405I0J-400D01*
G37*
G36*
G01X68485Y-104328D02*
X79325D01*
G03X79629Y-103669I-1J400D01*
G02X82371I1371J1169D01*
G03X82675Y-104328I305J-259D01*
G01X113615D01*
X115447Y-102496D01*
X115453Y-102423D01*
G02X116923Y-100953I1597J-127D01*
G01X116996Y-100947D01*
X119698Y-98245D01*
Y-91651D01*
X116332D01*
Y-84149D01*
X125408D01*
Y-91651D01*
X122042D01*
Y-99215D01*
X118653Y-102604D01*
X118647Y-102677D01*
G02X117177Y-104147I-1597J127D01*
G01X117104Y-104153D01*
X114585Y-106672D01*
X67515D01*
X64446Y-103603D01*
X64373Y-103597D01*
G02X66097Y-101873I127J1597D01*
G01X66103Y-101946D01*
X68485Y-104328D01*
G37*
G36*
G01X172439Y-119556D02*
G02X176561I2061J4556D01*
G02X172439I-2061J56D01*
G37*
G36*
G01X132866Y-108886D02*
X135806Y-105946D01*
X155214D01*
X158382Y-109113D01*
G02X155077Y-112496I1618J-4887D01*
G01X155112Y-112381D01*
X153300Y-110568D01*
X137720D01*
X136134Y-112154D01*
G02X132866Y-108886I-1634J1634D01*
G37*
G36*
G01X106081Y-98161D02*
X106128Y-98105D01*
Y-97685D01*
X104495Y-96052D01*
X69995D01*
X63546Y-89603D01*
X63473Y-89597D01*
G02X65197Y-87873I127J1597D01*
G01X65203Y-87946D01*
X70965Y-93708D01*
X105465D01*
X108472Y-96715D01*
Y-98107D01*
G02X106081Y-98161I-1171J-1093D01*
G37*
G36*
G01X167387Y-90930D02*
X168309D01*
G03X168658Y-90336I-1J400D01*
G02X171363Y-90490I1401J777D01*
G01X171326Y-90542D01*
Y-90930D01*
X172921D01*
Y-96070D01*
X167387D01*
Y-90930D01*
G37*
G36*
G01X178658Y-83123D02*
Y-90930D01*
X179613D01*
Y-96070D01*
X174079D01*
Y-90930D01*
X175034D01*
Y-84648D01*
G02X178658Y-83123I-33J5148D01*
G37*
G36*
G01X-42999Y-62671D02*
Y-67001D01*
G03X-42579Y-67400I400J1D01*
G02X-40975Y-68510I79J-1600D01*
G03X-40475Y-68770I381J122D01*
G02X-41525Y-70790I475J-1530D01*
G03X-42025Y-70530I-381J-122D01*
G02X-43024Y-70514I-475J1530D01*
G01X-43142Y-70473D01*
X-44671Y-72002D01*
X-50498D01*
Y-79329D01*
X-52998Y-81829D01*
Y-83929D01*
X-54671Y-85602D01*
X-62229D01*
X-62952Y-84878D01*
G03X-63616Y-85038I-283J-283D01*
G02X-68167Y-79796I-3854J1250D01*
G01X-68002Y-79767D01*
Y-67171D01*
X-66329Y-65498D01*
X-63002D01*
Y-63171D01*
X-61529Y-61698D01*
X-54529D01*
X-51829Y-58998D01*
X-46671D01*
X-42999Y-62671D01*
G37*
G36*
G01X-80532Y-75438D02*
Y-71118D01*
X-83478Y-68171D01*
Y-51418D01*
G02X-77356I3061J1997D01*
G01Y-65635D01*
X-74408Y-68582D01*
Y-75438D01*
G02X-74658Y-76650I-3063J0D01*
G01Y-79736D01*
X-73418D01*
Y-87840D01*
X-81522D01*
Y-79736D01*
X-80282D01*
Y-76650D01*
G02X-80532Y-75438I2813J1212D01*
G37*
G36*
G01X30034Y-73010D02*
G02Y-69990I-534J1510D01*
G03X30568Y-69613I134J377D01*
G01Y-69520D01*
X40433D01*
G03X40866Y-69904I400J15D01*
G02X42200Y-70439I134J-1596D01*
G03X42800I300J265D01*
G02X44534Y-69990I1200J-1061D01*
G03X45068Y-69613I134J377D01*
G01Y-69520D01*
X54933D01*
G03X55366Y-69904I400J15D01*
G02Y-73096I134J-1596D01*
G03X54933Y-73480I-33J-399D01*
G01X45068D01*
Y-73387D01*
G03X44534Y-73010I-400J0D01*
G02X42800Y-72561I-534J1510D01*
G03X42200I-300J-265D01*
G02X40866Y-73096I-1200J1061D01*
G03X40433Y-73480I-33J-399D01*
G01X30568D01*
Y-73387D01*
G03X30034Y-73010I-400J0D01*
G37*
G36*
G01Y-67510D02*
G02Y-64490I-534J1510D01*
G03X30568Y-64113I134J377D01*
G01Y-64020D01*
X40433D01*
G03X40866Y-64404I400J15D01*
G02X42200Y-64939I134J-1596D01*
G03X42800I300J265D01*
G02X44534Y-64490I1200J-1061D01*
G03X45068Y-64113I134J377D01*
G01Y-64020D01*
X54933D01*
G03X55366Y-64404I400J15D01*
G02Y-67596I134J-1596D01*
G03X54933Y-67980I-33J-399D01*
G01X45068D01*
Y-67887D01*
G03X44534Y-67510I-400J0D01*
G02X42800Y-67061I-534J1510D01*
G03X42200I-300J-265D01*
G02X40866Y-67596I-1200J1061D01*
G03X40433Y-67980I-33J-399D01*
G01X30568D01*
Y-67887D01*
G03X30034Y-67510I-400J0D01*
G37*
G36*
G01X63307Y-64972D02*
X60815D01*
X57515Y-61672D01*
X54932D01*
Y-62480D01*
X45068D01*
Y-62387D01*
G03X44534Y-62010I-400J0D01*
G02X42800Y-61561I-534J1510D01*
G03X42200I-300J-265D01*
G02X40866Y-62096I-1200J1061D01*
G03X40433Y-62480I-33J-399D01*
G01X30568D01*
Y-62387D01*
G03X30034Y-62010I-400J0D01*
G02Y-58990I-534J1510D01*
G03X30568Y-58613I134J377D01*
G01Y-58520D01*
X40433D01*
G03X40866Y-58904I400J15D01*
G02X42200Y-59439I134J-1596D01*
G03X42800I300J265D01*
G02X44534Y-58990I1200J-1061D01*
G03X45068Y-58613I134J377D01*
G01Y-58520D01*
X54932D01*
Y-59328D01*
X58485D01*
X61785Y-62628D01*
X63307D01*
G02Y-64972I1093J-1172D01*
G37*
G36*
G01X89560Y-62060D02*
X89468D01*
Y-58100D01*
X94214D01*
Y-62060D01*
X93160D01*
G03X92761Y-62445I1J-400D01*
G02X89959I-1401J49D01*
G03X89560Y-62060I-400J-15D01*
G37*
G36*
G01X111495Y-61994D02*
G02X108809I-1343J-402D01*
G03X108426Y-61480I-383J114D01*
G01X107686D01*
Y-57520D01*
X108248D01*
Y-56739D01*
X108871Y-56115D01*
G02X111962Y-57328I1281J-1281D01*
G01X111969Y-57520D01*
X112432D01*
Y-61480D01*
X111878D01*
G03X111495Y-61994I0J-400D01*
G37*
G36*
G01X146361Y-59469D02*
X146365Y-59448D01*
Y-59228D01*
X146146D01*
Y-53890D01*
X149710D01*
Y-59228D01*
X149491D01*
Y-59448D01*
X149495Y-59469D01*
G02X146361I-1567J-331D01*
G37*
G36*
G01X153841D02*
X153845Y-59448D01*
Y-59228D01*
X153626D01*
Y-53890D01*
X157190D01*
Y-59228D01*
X156971D01*
Y-59448D01*
X156975Y-59469D01*
G02X153841I-1567J-331D01*
G37*
G36*
G01X45068Y-56980D02*
Y-56919D01*
G03X44554Y-56536I-400J-1D01*
G02X42679Y-55740I-454J1536D01*
G03X42160Y-55560I-355J-185D01*
G02X41580Y-55700I-659J1460D01*
G01X41503Y-55704D01*
X41035Y-56172D01*
X40432D01*
Y-56980D01*
X30568D01*
Y-56172D01*
X30015D01*
X28446Y-54603D01*
X28373Y-54597D01*
G02X30097Y-52873I127J1597D01*
G01X30103Y-52946D01*
X30321Y-53164D01*
X30568Y-53062D01*
Y-53020D01*
X40317D01*
G02X42921Y-53360I1183J-1080D01*
G03X43440Y-53540I355J185D01*
G02X44554Y-53464I659J-1460D01*
G03X45068Y-53081I114J384D01*
G01Y-53020D01*
X54932D01*
Y-53828D01*
X57485D01*
X61054Y-57397D01*
X61127Y-57403D01*
G02X59403Y-59127I-127J-1597D01*
G01X59397Y-59054D01*
X56515Y-56172D01*
X54932D01*
Y-56980D01*
X45068D01*
G37*
G36*
G01X82520Y-60432D02*
Y-59029D01*
G03X81952Y-58667I-400J-1D01*
G02Y-56125I-592J1271D01*
G03X82520Y-55763I168J363D01*
G01Y-55686D01*
X85761D01*
X85792Y-55676D01*
G02X87641Y-58677I568J-1720D01*
G01X86480Y-59838D01*
Y-60432D01*
X82520D01*
G37*
G36*
G01X104980Y-50186D02*
Y-50385D01*
G03X105177Y-50585I200J0D01*
G02X106433Y-53677I-25J-1811D01*
G01X105739Y-54370D01*
X104980D01*
Y-54932D01*
X101020D01*
Y-50186D01*
X104980D01*
G37*
G36*
G01X89567Y-52651D02*
X89542Y-52480D01*
X89068D01*
Y-48520D01*
X93814D01*
Y-52480D01*
X93252D01*
Y-53065D01*
X92641Y-53677D01*
G02X89567Y-52651I-1281J1281D01*
G37*
G36*
G01X7418Y-44627D02*
X6768Y-43977D01*
G02X8424Y-42321I828J828D01*
G01X8731Y-42628D01*
X8733D01*
X8958Y-42853D01*
G03X9614Y-42714I283J283D01*
G02X10745Y-41938I1131J-436D01*
G01X16124D01*
X16147Y-41932D01*
G02Y-44366I294J-1217D01*
G01X16124Y-44360D01*
X10745D01*
G02X10630Y-44355I-5J1211D01*
G03X10413Y-44577I-18J-199D01*
G02X10421Y-44727I-1244J-142D01*
G03X10802Y-45128I400J-1D01*
G02X11573Y-45470I-58J-1170D01*
G01X12726Y-46623D01*
Y-46624D01*
X14172Y-48071D01*
Y-50557D01*
X14183Y-50589D01*
G02X11817I-1183J-411D01*
G01X11828Y-50557D01*
Y-49041D01*
X10384Y-47594D01*
Y-47593D01*
X9917Y-47126D01*
G02X9575Y-46355I828J829D01*
G03X9174Y-45974I-400J-19D01*
G02X8042Y-45267I-5J1252D01*
G01X8027Y-45237D01*
X7447Y-44655D01*
X7444Y-44653D01*
G02X7418Y-44627I815J841D01*
G37*
G36*
G01X82520Y-49932D02*
Y-49029D01*
G03X81952Y-48667I-400J-1D01*
G02Y-46125I-592J1271D01*
G03X82520Y-45763I168J363D01*
G01Y-45186D01*
X86480D01*
Y-45580D01*
X86648Y-45607D01*
G02X87641Y-48677I-288J-1789D01*
G01X86947Y-49370D01*
X86480D01*
Y-49932D01*
X82520D01*
G37*
G36*
G01X113980Y-49024D02*
Y-49814D01*
X110020D01*
Y-49252D01*
X109447D01*
X108871Y-48677D01*
G02X109853Y-45609I1281J1281D01*
G01X110020Y-45581D01*
Y-45068D01*
X113980D01*
Y-45768D01*
G03X114551Y-46129I400J0D01*
G02Y-48663I601J-1267D01*
G03X113980Y-49024I-171J-361D01*
G37*
G36*
G01X90079Y-43677D02*
X89430Y-43027D01*
Y-42580D01*
X88868D01*
Y-38620D01*
X93614D01*
Y-42580D01*
X93170D01*
X93138Y-42741D01*
G02X90079Y-43677I-1778J345D01*
G37*
G36*
G01X103871D02*
X103130Y-42935D01*
Y-42480D01*
X102568D01*
Y-38520D01*
X107314D01*
Y-42480D01*
X106970D01*
X106945Y-42651D01*
G02X103871Y-43677I-1793J255D01*
G37*
G36*
G01X40866Y-40096D02*
G03X40433Y-40480I-33J-399D01*
G01X30568D01*
Y-40387D01*
G03X30034Y-40010I-400J0D01*
G02Y-36990I-534J1510D01*
G03X30568Y-36613I134J377D01*
G01Y-36520D01*
X40433D01*
G03X40866Y-36904I400J15D01*
G02X42200Y-37439I134J-1596D01*
G03X42800I300J265D01*
G02X44534Y-36990I1200J-1061D01*
G03X45068Y-36613I134J377D01*
G01Y-36520D01*
X54933D01*
G03X55366Y-36904I400J15D01*
G02Y-40096I134J-1596D01*
G03X54933Y-40480I-33J-399D01*
G01X45068D01*
Y-40387D01*
G03X44534Y-40010I-400J0D01*
G02X42800Y-39561I-534J1510D01*
G03X42200I-300J-265D01*
G02X40866Y-40096I-1200J1061D01*
G37*
G36*
G01X108568Y-36517D02*
Y-32520D01*
X113314D01*
Y-36480D01*
X112752D01*
Y-37357D01*
X111433Y-38677D01*
G02X108568Y-36517I-1281J1281D01*
G37*
G36*
G01X40866Y-34596D02*
G03X40433Y-34980I-33J-399D01*
G01X30568D01*
Y-34887D01*
G03X30034Y-34510I-400J0D01*
G02Y-31490I-534J1510D01*
G03X30568Y-31113I134J377D01*
G01Y-31020D01*
X40433D01*
G03X40866Y-31404I400J15D01*
G02X42200Y-31939I134J-1596D01*
G03X42800I300J265D01*
G02X44534Y-31490I1200J-1061D01*
G03X45068Y-31113I134J377D01*
G01Y-31020D01*
X54933D01*
G03X55366Y-31404I400J15D01*
G02Y-34596I134J-1596D01*
G03X54933Y-34980I-33J-399D01*
G01X45068D01*
Y-34887D01*
G03X44534Y-34510I-400J0D01*
G02X42800Y-34061I-534J1510D01*
G03X42200I-300J-265D01*
G02X40866Y-34596I-1200J1061D01*
G37*
G36*
G01X106935Y-28923D02*
X106932Y-28941D01*
Y-32980D01*
X102186D01*
Y-29020D01*
X102748D01*
Y-28447D01*
X103871Y-27323D01*
G02X106935Y-28923I1281J-1281D01*
G37*
G36*
G01X92320Y-27068D02*
X95480D01*
Y-31814D01*
X91520D01*
Y-31326D01*
X90079Y-29885D01*
G02X92320Y-27068I1281J1281D01*
G37*
G36*
G01X40866Y-29096D02*
G03X40433Y-29480I-33J-399D01*
G01X30568D01*
Y-29387D01*
G03X30034Y-29010I-400J0D01*
G02Y-25990I-534J1510D01*
G03X30568Y-25613I134J377D01*
G01Y-25520D01*
X40433D01*
G03X40866Y-25904I400J15D01*
G02X42200Y-26439I134J-1596D01*
G03X42800I300J265D01*
G02X44534Y-25990I1200J-1061D01*
G03X45068Y-25613I134J377D01*
G01Y-25520D01*
X54933D01*
G03X55366Y-25904I400J15D01*
G02Y-29096I134J-1596D01*
G03X54933Y-29480I-33J-399D01*
G01X45068D01*
Y-29387D01*
G03X44534Y-29010I-400J0D01*
G02X42800Y-28561I-534J1510D01*
G03X42200I-300J-265D01*
G02X40866Y-29096I-1200J1061D01*
G37*
G36*
G01X-86162Y-26350D02*
Y-22900D01*
X-84312Y-21050D01*
Y-18432D01*
X-84480D01*
Y-13686D01*
X-80520D01*
Y-18432D01*
X-80688D01*
Y-22550D01*
X-82538Y-24400D01*
Y-26350D01*
G02X-86162I-1812J0D01*
G37*
G36*
G01X108871Y-22323D02*
X109565Y-21630D01*
X110020D01*
Y-21068D01*
X113980D01*
Y-21976D01*
G03X114551Y-22337I400J0D01*
G02Y-24871I601J-1267D01*
G03X113980Y-25232I-171J-361D01*
G01Y-25814D01*
X110020D01*
Y-25419D01*
X109853Y-25391D01*
G02X108871Y-22323I299J1787D01*
G37*
G36*
G01X40866Y-23596D02*
G03X40433Y-23980I-33J-399D01*
G01X30568D01*
Y-23887D01*
G03X30034Y-23510I-400J0D01*
G02Y-20490I-534J1510D01*
G03X30568Y-20113I134J377D01*
G01Y-20020D01*
X40433D01*
G03X40866Y-20404I400J15D01*
G02X42200Y-20939I134J-1596D01*
G03X42800I300J265D01*
G02X44534Y-20490I1200J-1061D01*
G03X45068Y-20113I134J377D01*
G01Y-20020D01*
X54933D01*
G03X55366Y-20404I400J15D01*
G02Y-23596I134J-1596D01*
G03X54933Y-23980I-33J-399D01*
G01X45068D01*
Y-23887D01*
G03X44534Y-23510I-400J0D01*
G02X42800Y-23061I-534J1510D01*
G03X42200I-300J-265D01*
G02X40866Y-23596I-1200J1061D01*
G37*
G36*
G01X162568Y-12520D02*
X167998D01*
Y-11059D01*
G02X172120I2061J0D01*
G01Y-12520D01*
X172432D01*
Y-16480D01*
X170634D01*
X170607Y-16487D01*
G02X169511I-548J1987D01*
G01X169484Y-16480D01*
X166112D01*
Y-18020D01*
X167314D01*
Y-21980D01*
X162568D01*
Y-21092D01*
X158607D01*
X158590Y-21095D01*
G02X158386Y-21113I-206J1174D01*
G01X156416D01*
G02X155574Y-19078I1J1192D01*
G03Y-18796I-141J141D01*
G02X156416Y-16761I843J843D01*
G01X156854D01*
X156891Y-16745D01*
G02X157402Y-16642I509J-1208D01*
G01X159432D01*
X159477Y-16503D01*
G02X161934Y-15699I1523J-497D01*
G03X162568Y-15374I234J325D01*
G01Y-12520D01*
G37*
G36*
G01X104519Y-16907D02*
G02X106433Y-19885I633J-1697D01*
G01X105565Y-20752D01*
X103980D01*
Y-21314D01*
X100020D01*
Y-16568D01*
X103981D01*
G03X104519Y-16907I398J36D01*
G37*
G36*
G01X91520Y-20814D02*
Y-20615D01*
G03X91324Y-20415I-200J0D01*
G02X90079Y-17323I36J1811D01*
G01X90773Y-16630D01*
X91520D01*
Y-16068D01*
X95480D01*
Y-20814D01*
X91520D01*
G37*
G36*
G01X-44802Y-8368D02*
X-44754Y-8498D01*
X-42893D01*
X-42854Y-8348D01*
G02X-39288Y-8800I1754J-452D01*
G01Y-10607D01*
X-38008Y-11887D01*
X-35130D01*
Y-16011D01*
G03X-34684Y-16409I400J-1D01*
G02X-36096Y-17857I184J-1591D01*
G03X-36494Y-17421I-398J36D01*
G01X-40270D01*
Y-14749D01*
X-40816Y-14203D01*
G03X-41498Y-14486I-282J-283D01*
G01Y-18002D01*
X-45171D01*
X-45671Y-18502D01*
X-49329D01*
X-51002Y-16829D01*
Y-16400D01*
X-56054D01*
Y-14412D01*
X-58245D01*
X-59554Y-13103D01*
X-59627Y-13097D01*
G02X-57903Y-11373I127J1597D01*
G01X-57897Y-11446D01*
X-57275Y-12068D01*
X-56054D01*
Y-10080D01*
X-50910D01*
X-50346Y-9516D01*
X-50941Y-8920D01*
X-56054D01*
Y-2600D01*
X-48946D01*
Y-5793D01*
X-47550Y-7188D01*
X-46500D01*
G02X-44802Y-8368I0J-1812D01*
G37*
G36*
G01X108871Y-12323D02*
X110020Y-11174D01*
Y-10068D01*
X113980D01*
Y-11976D01*
G03X114551Y-12337I400J0D01*
G02X114486Y-14838I601J-1267D01*
G01X114442Y-14814D01*
X111504D01*
X111433Y-14885D01*
G02X108871Y-12323I-1281J1281D01*
G37*
G36*
G01X158387Y-15208D02*
X156417D01*
G02X155575Y-13173I1J1192D01*
G03Y-12890I-142J141D01*
G02X155574Y-11204I842J843D01*
G03Y-10922I-141J141D01*
G02X156416Y-8887I843J843D01*
G01X156854D01*
X156891Y-8871D01*
G02X157402Y-8768I509J-1208D01*
G01X159764D01*
G02X160164Y-11675I1236J-1311D01*
G03X159578Y-12034I-186J-354D01*
G02X159229Y-12890I-1192J-13D01*
G03Y-13173I142J-141D01*
G02X158387Y-15208I-843J-843D01*
G37*
G36*
G01X139328Y9407D02*
G02X141672I1172J1093D01*
G01Y-15D01*
X142485Y-828D01*
X144426D01*
X144918Y-1320D01*
G03X145600Y-1037I282J283D01*
G01Y-243D01*
X151397Y5554D01*
X151403Y5627D01*
G02X153778Y4100I1597J-127D01*
G03Y3400I194J-350D01*
G02X154304Y1070I-778J-1400D01*
G01X154206Y932D01*
X154467Y671D01*
X155020Y1224D01*
Y4314D01*
X158980D01*
Y-432D01*
X156678D01*
X154938Y-2172D01*
X153485D01*
X153030Y-2627D01*
G03X153153Y-3277I283J-283D01*
G02X153520Y-3527I-476J-1093D01*
G03X153803I141J142D01*
G02X155838Y-4369I843J-843D01*
G01Y-6339D01*
G02X153803Y-7181I-1192J1D01*
G03X153520I-141J-142D01*
G02X151834Y-7182I-843J842D01*
G03X151552I-141J-141D01*
G02X149866Y-7181I-843J843D01*
G03X149583I-142J-142D01*
G02X147897Y-7182I-843J842D01*
G03X147615I-141J-141D01*
G02X145929Y-7181I-843J843D01*
G03X145646I-141J-142D01*
G02X143960Y-7182I-843J842D01*
G03X143678I-141J-141D01*
G02X142286Y-7396I-842J844D01*
G03X141702Y-7751I-184J-355D01*
G01Y-9229D01*
X140229Y-10702D01*
X140111D01*
G02X139938Y-10922I-1017J622D01*
G03Y-11204I141J-141D01*
G02X139096Y-13239I-843J-843D01*
G01X137125D01*
G02X135971Y-11750I0J1192D01*
G03X135584Y-11250I-387J100D01*
G01X125976D01*
X119887Y-5162D01*
X119814Y-5156D01*
G02X121538Y-3432I127J1597D01*
G01X121544Y-3505D01*
X126946Y-8908D01*
X127094D01*
G03X127236Y-8566I0J200D01*
G01X127098Y-8429D01*
Y-2371D01*
X129344Y-126D01*
X129206Y15D01*
G02X132076Y396I1294J1255D01*
G03X132425Y-198I349J-194D01*
G01X138429D01*
X138646Y-415D01*
G03X139328Y-132I282J283D01*
G01Y9407D01*
G37*
G36*
G01X104438Y-10269D02*
X104400Y-10252D01*
X103980D01*
Y-10814D01*
X100020D01*
Y-6068D01*
X103980D01*
Y-6630D01*
X105739D01*
X106433Y-7323D01*
G02X104438Y-10269I-1281J-1281D01*
G37*
G36*
G01X90079Y-7323D02*
X91520Y-5882D01*
Y-5068D01*
X95480D01*
Y-9814D01*
X92712D01*
X92641Y-9885D01*
G02X90079Y-7323I-1281J1281D01*
G37*
G36*
G01X44907Y-172D02*
X41485D01*
X39230Y-2426D01*
Y-3520D01*
X40432D01*
Y-7480D01*
X30568D01*
Y-7387D01*
G03X30034Y-7010I-400J0D01*
G02Y-3990I-534J1510D01*
G03X30568Y-3613I134J377D01*
G01Y-3520D01*
X36888D01*
Y-1456D01*
X40515Y2172D01*
X44907D01*
G02Y-172I1093J-1172D01*
G37*
G36*
G01X109980Y-870D02*
X111433Y-2323D01*
G02X108871Y-4885I-1281J-1281D01*
G01X107800Y-3814D01*
X106020D01*
Y-344D01*
G03X105517Y42I-400J0D01*
G02X106553Y1346I-365J1354D01*
G03X106953Y932I400J-14D01*
G01X108351D01*
G03X108751Y1346I0J400D01*
G02X110176Y-6I1401J50D01*
G03X109980Y-205I4J-200D01*
G01Y-870D01*
G37*
G36*
G01X126079Y-67502D02*
X119911D01*
X117998Y-65589D01*
Y-39521D01*
X120021Y-37498D01*
X126069D01*
X128002Y-39431D01*
Y-65579D01*
X126079Y-67502D01*
G37*
G54D59*
X161000Y15700D03*
X168500Y-71800D03*
X165500Y-97000D03*
X160000Y-67500D03*
X166000Y-75500D03*
X160500Y-75000D03*
X156100Y28600D03*
X52300Y-90800D03*
X-67583Y-6082D03*
X-43500Y-5000D03*
X-38500Y0D03*
X-59000Y-5000D03*
Y9000D03*
Y0D03*
X-38500Y9000D03*
X-129700Y-26500D03*
X-99700Y-35700D03*
X-121700Y-32500D03*
X-134700Y-15500D03*
X-121700Y-38500D03*
X-119700Y-15500D03*
X-129700D03*
X-124700D03*
X-117100Y-34600D03*
X-95600Y-44500D03*
X-134700Y-21000D03*
X-127700Y-38500D03*
X-114700Y-26500D03*
X-109700Y-21000D03*
Y-26500D03*
Y-15500D03*
X-99800Y-41900D03*
X-95600Y-48700D03*
X-121100Y-46300D03*
X-116900Y-42300D03*
X-134700Y-26500D03*
X-119700D03*
X-129700Y-21000D03*
X-124700D03*
X-114700D03*
Y-15500D03*
X-124700Y-26500D03*
X-127700Y-32500D03*
X-95600Y-38900D03*
X-119700Y-21000D03*
X-110260Y-60160D03*
X-121500Y-62500D03*
X-98630Y-58150D03*
X-104630D03*
X-110260Y-66160D03*
G54D63*
X-88291Y-39579D03*
X-80417D03*
G54D61*
X53244Y-106500D03*
X93000Y-88000D03*
X110500D03*
G54D58*
X176000Y5500D03*
X48800Y-82524D03*
X-132000Y8500D03*
G54D60*
X115152Y-8604D03*
Y1396D03*
X86360Y-3604D03*
X81360Y-42396D03*
Y-52396D03*
X86360Y1396D03*
X91360D03*
X115152Y-37396D03*
Y-42396D03*
Y-52396D03*
Y-3604D03*
Y-18604D03*
X91360Y-72396D03*
X81360Y-62396D03*
X91360Y-67396D03*
X105152D03*
Y-72396D03*
X110152D03*
X86360D03*
X81360D03*
X86360Y-67396D03*
Y-62396D03*
X115152Y-57396D03*
X105152Y-62396D03*
X115152D03*
X110152Y-67396D03*
X115152D03*
Y-72396D03*
X81360Y-67396D03*
G54D66*
X162960Y-3560D03*
X-33340Y-72860D03*
G54D62*
X107500Y-137744D03*
X-72500Y-127744D03*
X-62500Y-137744D03*
Y-127744D03*
X-52500Y-137744D03*
Y-127744D03*
X67500D03*
X77500D03*
G54D67*
X152000Y18256D03*
X153500Y-125000D03*
G54D57*
X176000Y15500D03*
X38800Y-82524D03*
X-132000Y-1500D03*
G54D64*
X-98960Y-20799D03*
G54D65*
X168500Y31756D03*
Y-133244D03*
X-123500Y31756D03*
Y-133244D03*
%LPD*%
G75*
G36*
G01X-101300Y35298D02*
Y44600D01*
X-100649Y45251D01*
X-59451D01*
X-58500Y44300D01*
Y21500D01*
X-59500Y20500D01*
X-63000D01*
X-64000Y19500D01*
Y11500D01*
X-66000Y9500D01*
X-76500D01*
X-78500Y11500D01*
Y24300D01*
X-80400Y26200D01*
X-93300D01*
X-94500Y27400D01*
Y32400D01*
X-96600Y34500D01*
X-100001D01*
G03X-101140Y35266I-1499J-1000D01*
G01X-101300Y35298D01*
G37*
G36*
G01X-115500Y-9500D02*
X-116500Y-8500D01*
Y-6500D01*
X-116000Y-6000D01*
X-108500D01*
X-108000Y-5500D01*
Y2600D01*
X-108400Y3000D01*
X-113500D01*
X-113900Y3400D01*
Y6500D01*
X-113300Y7100D01*
X-103100D01*
X-97500Y1500D01*
Y-8400D01*
X-98600Y-9500D01*
X-115500D01*
G37*
G36*
G01X-102600Y18800D02*
X-90600D01*
X-90000Y18200D01*
Y14400D01*
X-90800Y13600D01*
X-102600D01*
X-103100Y14100D01*
Y18300D01*
X-102600Y18800D01*
G37*
G36*
G01X-51000Y-61000D02*
X-47500D01*
X-45000Y-63500D01*
Y-69500D01*
X-45500Y-70000D01*
X-59500D01*
X-61000Y-68500D01*
Y-64000D01*
X-60700Y-63700D01*
X-53700D01*
X-51000Y-61000D01*
G37*
G36*
G01X-61400Y-83600D02*
X-66000Y-79000D01*
Y-68000D01*
X-65500Y-67500D01*
X-63500D01*
X-63002Y-67998D01*
Y-69329D01*
X-63000Y-69331D01*
Y-70500D01*
X-61500Y-72000D01*
X-60331D01*
X-60329Y-72002D01*
X-52500D01*
Y-78500D01*
X-55000Y-81000D01*
Y-83100D01*
X-55500Y-83600D01*
X-61400D01*
G37*
G36*
G01X9684Y-23816D02*
X9715Y-23801D01*
G03X8042Y-22128I-546J1127D01*
G01X8027Y-22159D01*
X7838Y-22348D01*
G02X7184Y-22212I-282J283D01*
G03X5309Y-21643I-1164J-462D01*
G02X4682Y-21314I-227J329D01*
G01Y-20750D01*
X5621Y-19812D01*
X11443D01*
X12753Y-18502D01*
X14727D01*
X15688Y-19463D01*
Y-27688D01*
X13957D01*
X12404Y-29242D01*
X10745D01*
G03X10636Y-29246I-6J-1311D01*
G02X10419Y-29037I-17J199D01*
G03X10421Y-28974I-1250J71D01*
G02X10802Y-28574I400J0D01*
G03X11573Y-28232I-58J1170D01*
G01X11998Y-27808D01*
X12028Y-27793D01*
G03X10891Y-25563I-547J1126D01*
G02X10331Y-25359I-189J353D01*
G03X9367Y-24589I-1162J-466D01*
G01X9304Y-24579D01*
X9116Y-24391D01*
X9356Y-24152D01*
Y-24144D01*
X9684Y-23816D01*
G37*
G36*
G01X-2265Y-25363D02*
G03X-2933Y-24676I-1163J-463D01*
G02X-3057Y-24025I158J367D01*
G01X-2068Y-23037D01*
Y-21287D01*
X-2063Y-21264D01*
G03X-3627Y-19767I-1217J294D01*
G01X-3646Y-19773D01*
X-3866Y-19790D01*
X-3888Y-19506D01*
Y-17420D01*
G03X-4566Y-15786I-2311J-1D01*
G01X-7163Y-13188D01*
X-29043D01*
X-29630Y-12602D01*
Y-9480D01*
X-29568D01*
Y-5520D01*
X-29630D01*
Y13198D01*
X-32427Y15996D01*
G02X-32144Y16678I283J282D01*
G01X-29625D01*
X-24775Y11828D01*
X-21306D01*
G02X-21001Y11170I0J-400D01*
G03X-20901Y8716I1381J-1173D01*
G01X-19893Y7708D01*
X-7089D01*
X-5628Y6248D01*
X-3980D01*
Y5686D01*
X-1449D01*
X818Y3419D01*
Y-7226D01*
X3100Y-9507D01*
Y-14054D01*
X8498D01*
Y-16188D01*
X4121D01*
X1060Y-19250D01*
Y-22639D01*
X371Y-23328D01*
G03X-12Y-24196I927J-927D01*
G02X-380Y-24577I-400J18D01*
G03X-1407Y-25279I100J-1248D01*
G01X-1422Y-25310D01*
X-1611Y-25499D01*
G02X-2265Y-25363I-282J283D01*
G37*
G36*
G01X11000Y-6500D02*
X16500D01*
X17000Y-7000D01*
Y-15500D01*
X16000Y-16500D01*
X11500D01*
X10500Y-15500D01*
Y-7000D01*
X11000Y-6500D01*
G37*
G36*
G01X-48500Y-16500D02*
X-48946Y-16054D01*
Y-10945D01*
X-48811Y-10812D01*
X-46500D01*
G03X-45484Y-10500I0J1812D01*
G01X-43500D01*
Y-16000D01*
X-46000D01*
X-46500Y-16500D01*
X-48500D01*
G37*
G36*
G01X120850Y-39500D02*
X125240D01*
X126000Y-40260D01*
Y-64750D01*
X125250Y-65500D01*
X120740D01*
X120000Y-64760D01*
Y-40350D01*
X120850Y-39500D01*
G37*
G36*
G01X91088Y29115D02*
Y22635D01*
X93525Y20198D01*
X94946D01*
G02X95229Y19516I0J-400D01*
G01X94108Y18395D01*
Y14244D01*
G02X93608Y13857I-400J0D01*
G03X93592Y13861I-348J-1358D01*
G01X93538Y13874D01*
X88541Y18872D01*
X82774D01*
G02X82491Y19554I0J400D01*
G01X83612Y20675D01*
Y29415D01*
X84245Y30048D01*
X90155D01*
X91088Y29115D01*
G37*
G36*
G01X123160Y16386D02*
X119230Y20316D01*
X102039D01*
G02X101756Y20999I0J400D01*
G01X103612Y22855D01*
Y29205D01*
X104615Y30208D01*
X115449D01*
G02X115649Y29462I0J-400D01*
G03X119351I1851J-3206D01*
G02X119551Y30208I200J346D01*
G01X121285D01*
X122408Y29085D01*
Y20985D01*
X125078Y18315D01*
Y17015D01*
X124450Y16386D01*
X123160D01*
G37*
G36*
G01X139700Y-8400D02*
X139400Y-8700D01*
X130200D01*
X129100Y-7600D01*
Y-3200D01*
X130100Y-2200D01*
X137600D01*
X139500Y-4100D01*
Y-7400D01*
X139700Y-7600D01*
Y-8400D01*
G37*
%LPC*%
G75*
G36*
G01X-4016Y-7134D02*
Y-11094D01*
X-8762D01*
Y-10890D01*
G03X-9347Y-10535I-400J0D01*
G02Y-7693I-739J1421D01*
G03X-8762Y-7338I185J355D01*
G01Y-7134D01*
X-7560D01*
Y2963D01*
X-7849Y3251D01*
G03X-8190Y3110I-141J-141D01*
G01Y1989D01*
X-14118D01*
Y7129D01*
X-8190D01*
Y5730D01*
X-7015D01*
X-5218Y3933D01*
Y-7134D01*
X-4016D01*
G37*
G36*
G01X-15898Y-10286D02*
Y-11094D01*
X-20644D01*
Y-7134D01*
X-19476D01*
Y-3129D01*
X-20810D01*
Y2011D01*
X-14882D01*
Y-3129D01*
X-17132D01*
Y-7134D01*
X-15898D01*
Y-7942D01*
X-15381D01*
X-15325Y-7895D01*
G02Y-10333I1039J-1219D01*
G01X-15381Y-10286D01*
X-15898D01*
G37*
G54D59*
X-75000Y19000D03*
G54D62*
X-72500Y36256D03*
G54D68*
Y26256D03*
%LPD*%
G75*
G54D10*
X-127500Y-87500D03*
Y-105500D03*
G54D11*
X-99230Y-96500D03*
G54D20*
X-77512Y-106000D03*
X-66488D03*
G54D12*
X-115690Y-96500D03*
G54D30*
X-72543Y-61232D03*
Y-44500D03*
Y-54343D03*
Y-34657D03*
Y-27768D03*
G54D21*
X-132000Y8500D03*
X-67470Y-83788D03*
X48800Y-82524D03*
X176000Y5500D03*
G54D31*
X32941Y-60500D03*
X38059D03*
X32941Y-66000D03*
X38059D03*
X32941Y-71500D03*
X38059D03*
X32941Y-5500D03*
X38059D03*
X32941Y-16500D03*
X38059D03*
X32941Y-33000D03*
X38059D03*
X32941Y-22000D03*
X38059D03*
X32941Y-27500D03*
X38059D03*
X32941Y-38500D03*
X38059D03*
X32941Y-55000D03*
X38059D03*
X-31941Y-7500D03*
X-37059D03*
X-1271Y-9114D03*
X-6389D03*
X-18271D03*
X-23389D03*
X32941Y-49500D03*
X38059D03*
X32941Y-44000D03*
X38059D03*
X32941Y-11000D03*
X38059D03*
X-34941Y-44075D03*
X-40059D03*
X-34941Y-39075D03*
X-40059D03*
X96959Y-60080D03*
X91841D03*
X47441Y-71500D03*
X52559D03*
X47441Y-66000D03*
X52559D03*
X110059Y-59500D03*
X47441Y-60500D03*
X52559D03*
X104941Y-59500D03*
X47441Y-5500D03*
X52559D03*
X47441Y-16500D03*
X52559D03*
X47441Y-22000D03*
X52559D03*
X47441Y-27500D03*
X52559D03*
X47441Y-38500D03*
X52559D03*
X47441Y-44000D03*
X52559D03*
X47441Y-33000D03*
X52559D03*
X47441Y-11000D03*
X52559D03*
X104559Y-31000D03*
X99441D03*
X110941Y-34500D03*
X116059D03*
X91441Y-50500D03*
X96559D03*
X123941Y-44000D03*
X129059D03*
X91241Y-40600D03*
X96359D03*
X47441Y-49500D03*
X52559D03*
X47441Y-55000D03*
X52559D03*
X104941Y-40500D03*
X110059D03*
X170059Y-20000D03*
X164941D03*
Y-14500D03*
X170059D03*
G54D40*
X147756Y-15000D03*
G54D13*
X-85852Y-121158D03*
X147000Y9000D03*
G54D22*
X-80417Y-39579D03*
X-88291Y-49421D03*
X-80417D03*
X-88291Y-39579D03*
G54D50*
G01X143400Y-37759D02*
Y-41500D01*
G01X174500Y-115000D02*
Y-119500D01*
G01X170059Y-14500D02*
Y-11059D01*
G54D23*
X-98760Y40000D03*
X-106240D03*
X13740Y-10500D03*
X6260D03*
G54D32*
X7596Y-52596D03*
Y-55745D03*
X4447Y-52596D03*
Y-49447D03*
Y-55745D03*
X1298Y-52596D03*
Y-49447D03*
X-1851Y-52596D03*
Y-49447D03*
X-5000D03*
Y-52596D03*
X-8149Y-55745D03*
X-11298D03*
Y-52596D03*
Y-49447D03*
X-14447Y-55745D03*
Y-52596D03*
X-17596Y-49447D03*
X-20745D03*
X-17596Y-52596D03*
X-20745D03*
Y-55745D03*
X1298D03*
X-14447Y-49447D03*
X10745D03*
X-8149D03*
X-17596Y-55745D03*
X-8149Y-52596D03*
X-1851Y-55745D03*
X7596Y-49447D03*
X10745Y-52596D03*
Y-55745D03*
X-5000D03*
X7596Y-33702D03*
Y-36851D03*
Y-43149D03*
X4447D03*
X1298D03*
X4447Y-36851D03*
X1298D03*
X-1851D03*
Y-40000D03*
X7596D03*
X1298Y-33702D03*
X-1851Y-43149D03*
X1298Y-40000D03*
X-5000Y-27404D03*
Y-30553D03*
X7596Y-24255D03*
X10745Y-27404D03*
X7596D03*
Y-30553D03*
X4447Y-33702D03*
X-1851D03*
X-5000Y-36851D03*
X-1851Y-27404D03*
Y-30553D03*
X-5000Y-33702D03*
X1298Y-27404D03*
Y-30553D03*
X4447Y-27404D03*
Y-30553D03*
X10745Y-33702D03*
X4447Y-40000D03*
X-1851Y-46298D03*
X1298D03*
X10745D03*
X-14447Y-43149D03*
X4447Y-46298D03*
X-5000D03*
Y-43149D03*
X-8149D03*
Y-46298D03*
X-14447D03*
X-11298D03*
Y-43149D03*
X-20745Y-27404D03*
Y-30553D03*
Y-24255D03*
X-14447Y-30553D03*
Y-33702D03*
X-20745Y-46298D03*
Y-40000D03*
Y-43149D03*
X-8149Y-24255D03*
X-11298Y-36851D03*
Y-40000D03*
X-17596Y-46298D03*
X-8149Y-40000D03*
X-14447D03*
Y-36851D03*
X-5000Y-40000D03*
X-8149Y-36851D03*
X-14447Y-27404D03*
X-8149Y-33702D03*
X-17596Y-24255D03*
X-20745Y-36851D03*
X-17596D03*
Y-40000D03*
Y-30553D03*
Y-33702D03*
Y-43149D03*
X-8149Y-27404D03*
X10745Y-36851D03*
X-11298Y-30553D03*
Y-27404D03*
X-14447Y-24255D03*
X-1851D03*
X10745Y-40000D03*
X-11298Y-33702D03*
X-20745D03*
X7596Y-46298D03*
X10745Y-24255D03*
X4447D03*
X10745Y-43149D03*
X-5000Y-24255D03*
X-8149Y-30553D03*
X1298Y-24255D03*
X10745Y-30553D03*
X-17596Y-27404D03*
X-11298Y-24255D03*
G54D41*
X140866Y-5354D03*
X154646D03*
X152677D03*
X148740Y-24646D03*
X142835Y-5354D03*
X150709D03*
X148740D03*
X146772D03*
X144803D03*
X140866Y-24646D03*
X142835D03*
X144803D03*
X152677D03*
X150709D03*
X154646D03*
X146772D03*
G54D14*
X-77470Y-83788D03*
X-132000Y-1500D03*
X38800Y-82524D03*
X176000Y15500D03*
G54D51*
G01X-77470Y-75438D02*
Y-69850D01*
X-80417Y-66903D01*
Y-49421D01*
G54D24*
X-100000Y16488D03*
Y27512D03*
G54D33*
X-47500Y-66760D03*
Y-74240D03*
X-55500Y-66760D03*
Y-74240D03*
X-52500Y-5760D03*
Y-13240D03*
G54D15*
X-123500Y-133244D03*
Y31756D03*
X168500Y-133244D03*
Y31756D03*
G54D42*
X157402Y-14016D03*
Y-12047D03*
X138110Y-10079D03*
Y-12047D03*
Y-15984D03*
Y-17953D03*
Y-19921D03*
Y-21890D03*
X157402Y-17953D03*
X138110Y-8110D03*
X157402Y-10079D03*
Y-8110D03*
X138110Y-14016D03*
X157402Y-21890D03*
Y-15984D03*
Y-19921D03*
G54D52*
G01X-125400Y-243244D02*
G03I-12600J0D01*
G01X-138000D02*
Y-258204D01*
G01X-130520Y-243244D02*
G03I-7480J0D01*
G01X-135640D02*
G03I-2360J0D01*
G01X-138000D02*
X-152960D01*
G01X-138000D02*
Y-228284D01*
G01Y-243244D02*
X-123040D01*
G01X-121900Y52600D02*
Y55400D01*
X-122460Y54840D01*
G01Y52600D02*
X-121340D01*
G01X-82487Y53667D02*
X-82160Y53993D01*
X-81880Y54180D01*
X-81507Y54273D01*
X-81180Y54180D01*
X-80947Y53993D01*
X-80760Y53713D01*
X-80713Y53387D01*
X-80760Y53107D01*
X-80947Y52827D01*
X-81227Y52593D01*
X-81553Y52500D01*
X-81927Y52593D01*
X-82253Y52873D01*
X-82440Y53293D01*
X-82487Y53760D01*
X-82393Y54367D01*
X-82253Y54693D01*
X-82020Y55020D01*
X-81693Y55253D01*
X-81367Y55300D01*
X-81040Y55207D01*
X-80807Y54973D01*
G01X-78300Y55300D02*
X-78673Y55207D01*
X-78953Y54973D01*
X-79140Y54693D01*
X-79280Y54320D01*
X-79327Y53900D01*
X-79280Y53480D01*
X-79140Y53107D01*
X-78953Y52827D01*
X-78673Y52593D01*
X-78300Y52500D01*
X-77927Y52593D01*
X-77647Y52827D01*
X-77460Y53107D01*
X-77320Y53480D01*
X-77273Y53900D01*
X-77320Y54320D01*
X-77460Y54693D01*
X-77647Y54973D01*
X-77927Y55207D01*
X-78300Y55300D01*
G01X-75000D02*
X-75373Y55207D01*
X-75653Y54973D01*
X-75840Y54693D01*
X-75980Y54320D01*
X-76027Y53900D01*
X-75980Y53480D01*
X-75840Y53107D01*
X-75653Y52827D01*
X-75373Y52593D01*
X-75000Y52500D01*
X-74627Y52593D01*
X-74347Y52827D01*
X-74160Y53107D01*
X-74020Y53480D01*
X-73973Y53900D01*
X-74020Y54320D01*
X-74160Y54693D01*
X-74347Y54973D01*
X-74627Y55207D01*
X-75000Y55300D01*
G01X-72307Y53433D02*
X-71093D01*
G01X-69287Y53667D02*
X-68960Y53993D01*
X-68680Y54180D01*
X-68307Y54273D01*
X-67980Y54180D01*
X-67747Y53993D01*
X-67560Y53713D01*
X-67513Y53387D01*
X-67560Y53107D01*
X-67747Y52827D01*
X-68027Y52593D01*
X-68353Y52500D01*
X-68727Y52593D01*
X-69053Y52873D01*
X-69240Y53293D01*
X-69287Y53760D01*
X-69193Y54367D01*
X-69053Y54693D01*
X-68820Y55020D01*
X-68493Y55253D01*
X-68167Y55300D01*
X-67840Y55207D01*
X-67607Y54973D01*
G01X-65100Y55300D02*
X-65473Y55207D01*
X-65753Y54973D01*
X-65940Y54693D01*
X-66080Y54320D01*
X-66127Y53900D01*
X-66080Y53480D01*
X-65940Y53107D01*
X-65753Y52827D01*
X-65473Y52593D01*
X-65100Y52500D01*
X-64727Y52593D01*
X-64447Y52827D01*
X-64260Y53107D01*
X-64120Y53480D01*
X-64073Y53900D01*
X-64120Y54320D01*
X-64260Y54693D01*
X-64447Y54973D01*
X-64727Y55207D01*
X-65100Y55300D01*
G01X-61800Y52500D02*
Y55300D01*
X-62360Y54740D01*
G01Y52500D02*
X-61240D01*
G01X-59293Y52827D02*
X-58967Y52593D01*
X-58593Y52500D01*
X-58220Y52593D01*
X-57893Y52873D01*
X-57660Y53293D01*
X-57567Y53713D01*
Y54227D01*
X-57660Y54647D01*
X-57893Y55020D01*
X-58173Y55207D01*
X-58500Y55300D01*
X-58873Y55207D01*
X-59153Y55020D01*
X-59340Y54740D01*
X-59433Y54367D01*
X-59340Y54040D01*
X-59107Y53713D01*
X-58827Y53527D01*
X-58500Y53480D01*
X-58127Y53573D01*
X-57847Y53807D01*
X-57567Y54227D01*
G01X-55200Y52500D02*
X-54873Y52547D01*
X-54500Y52687D01*
X-54267Y52920D01*
X-54173Y53247D01*
X-54267Y53573D01*
X-54547Y53853D01*
X-54967Y53993D01*
X-55433D01*
X-55713Y54087D01*
X-55947Y54320D01*
X-56040Y54647D01*
X-55900Y54973D01*
X-55573Y55207D01*
X-55200Y55300D01*
X-54827Y55207D01*
X-54500Y54973D01*
X-54360Y54647D01*
X-54453Y54320D01*
X-54687Y54087D01*
X-54967Y53993D01*
X-55433D01*
X-55853Y53853D01*
X-56133Y53573D01*
X-56227Y53247D01*
X-56133Y52920D01*
X-55900Y52687D01*
X-55527Y52547D01*
X-55200Y52500D01*
G01X-52507Y53433D02*
X-51293D01*
G01X-48600Y55300D02*
X-48973Y55207D01*
X-49253Y54973D01*
X-49440Y54693D01*
X-49580Y54320D01*
X-49627Y53900D01*
X-49580Y53480D01*
X-49440Y53107D01*
X-49253Y52827D01*
X-48973Y52593D01*
X-48600Y52500D01*
X-48227Y52593D01*
X-47947Y52827D01*
X-47760Y53107D01*
X-47620Y53480D01*
X-47573Y53900D01*
X-47620Y54320D01*
X-47760Y54693D01*
X-47947Y54973D01*
X-48227Y55207D01*
X-48600Y55300D01*
G01X-45300Y52500D02*
Y55300D01*
X-45860Y54740D01*
G01Y52500D02*
X-44740D01*
G01X-39633D02*
Y55300D01*
X-38467D01*
X-38093Y55160D01*
X-37860Y54973D01*
X-37767Y54600D01*
X-37860Y54227D01*
X-38140Y53993D01*
X-38467Y53853D01*
X-39633D01*
G01X-38467D02*
X-37767Y52500D01*
G01X-34467D02*
X-36333D01*
Y55300D01*
X-34467D01*
G01X-35213Y53947D02*
X-36333D01*
G01X-33267Y55300D02*
X-32100Y52500D01*
X-30933Y55300D01*
G01X-28800D02*
X-29173Y55207D01*
X-29453Y54973D01*
X-29640Y54693D01*
X-29780Y54320D01*
X-29827Y53900D01*
X-29780Y53480D01*
X-29640Y53107D01*
X-29453Y52827D01*
X-29173Y52593D01*
X-28800Y52500D01*
X-28427Y52593D01*
X-28147Y52827D01*
X-27960Y53107D01*
X-27820Y53480D01*
X-27773Y53900D01*
X-27820Y54320D01*
X-27960Y54693D01*
X-28147Y54973D01*
X-28427Y55207D01*
X-28800Y55300D01*
G01X-24940Y52500D02*
Y55300D01*
X-26667Y53293D01*
X-24333D01*
G01X-128400Y95256D02*
G03I-12600J0D01*
G01X-133520D02*
G03I-7480J0D01*
G01X-138640D02*
G03I-2360J0D01*
G01X-141000D02*
X-155960D01*
G01X-141000D02*
Y80296D01*
G01Y95256D02*
Y110216D01*
G01Y95256D02*
X-126040D01*
G01X2871Y-22682D02*
Y-22674D01*
G01X200600Y95256D02*
G03I-12600J0D01*
G01X188000D02*
Y80296D01*
G01X195480Y95256D02*
G03I-7480J0D01*
G01X190360D02*
G03I-2360J0D01*
G01X188000D02*
X173040D01*
G01X188000D02*
Y110216D01*
G01Y95256D02*
X202960D01*
G54D25*
X-82500Y-16059D03*
Y-10941D03*
X-84000Y-1559D03*
Y3559D03*
X29000Y-82441D03*
Y-87559D03*
X18000Y-96441D03*
Y-101559D03*
Y-82441D03*
Y-87559D03*
X23500Y-82441D03*
Y-87559D03*
X12500Y-96441D03*
Y-101559D03*
X7000Y-96441D03*
Y-101559D03*
X12500Y-82441D03*
Y-87559D03*
X-15000Y-96441D03*
Y-101559D03*
X1500Y-96441D03*
Y-101559D03*
Y-82441D03*
Y-87559D03*
X-4000Y-82441D03*
Y-87559D03*
X-31500Y-96441D03*
Y-101559D03*
X-9500Y-82441D03*
Y-87559D03*
X-42500Y-82441D03*
Y-87559D03*
X-31500Y-82441D03*
Y-87559D03*
X23500Y-96441D03*
Y-101559D03*
X-15000Y-82441D03*
Y-87559D03*
X-26000Y-96441D03*
Y-101559D03*
X-20500Y-96441D03*
Y-101559D03*
X-37000Y-82441D03*
Y-87559D03*
X-26000Y-82441D03*
Y-87559D03*
X-42500Y-96441D03*
Y-101559D03*
X-37000Y-96441D03*
Y-101559D03*
X-44500Y-19559D03*
Y-14441D03*
X-2000Y2941D03*
Y8059D03*
X19000Y2941D03*
Y8059D03*
X24500Y2941D03*
Y8059D03*
X6000Y2941D03*
Y8059D03*
X12500Y2941D03*
Y8059D03*
X84500Y-58059D03*
Y-42441D03*
X112000Y-23441D03*
Y-28559D03*
X93500Y-18441D03*
Y-23559D03*
X108000Y-1441D03*
Y-6559D03*
X103000Y-52559D03*
Y-47441D03*
X112000Y-12441D03*
Y-17559D03*
Y-47441D03*
Y-52559D03*
X157000Y1941D03*
Y7059D03*
X84500Y-47559D03*
X143400Y-32641D03*
X84500Y-24559D03*
Y-19441D03*
X102000Y-8441D03*
Y-13559D03*
X84500Y-36059D03*
Y-30941D03*
X93500Y-12559D03*
Y-7441D03*
Y-29441D03*
X84500Y-52941D03*
X102000Y-24059D03*
X84500Y-8441D03*
X93500Y-34559D03*
X102000Y-18941D03*
X84500Y-13559D03*
X143400Y-37759D03*
G54D43*
X178791Y-50244D03*
G54D34*
G01X-77470Y-83788D02*
Y-75438D01*
X-33340Y-72860D03*
X22500Y-6500D03*
X160000Y-114000D03*
X133760Y-29260D03*
X175000Y-79500D03*
X174500Y-115000D03*
X162960Y-3560D03*
G54D16*
G01X-84000Y3559D02*
Y4000D01*
X-86000Y6000D01*
G01X-84350Y-26350D02*
Y-23650D01*
X-82500Y-21800D01*
Y-16059D01*
G01X-23389Y-9114D02*
Y-11889D01*
X-23500Y-12000D01*
G01X-46500Y-9000D02*
X-48300D01*
X-51540Y-5760D01*
X-52500D01*
G01X-41100Y-8800D02*
Y-11357D01*
X-38000Y-14457D01*
X-37700Y-14654D01*
G01X13740Y-14953D02*
X17500Y-18713D01*
Y-29000D01*
G01X13740Y-10500D02*
Y-14953D01*
G01D02*
X10693Y-18000D01*
X4871D01*
X2871Y-20000D01*
Y-22674D01*
G01X6260Y-10500D02*
Y-10106D01*
X2630Y-6476D01*
Y4169D01*
X-1293Y8092D01*
X-1300Y8098D01*
X-2000Y8059D01*
G01X-19620Y9997D02*
X-19143Y9520D01*
X-6339D01*
X-4878Y8059D01*
X-2000D01*
G01X96360Y-57396D02*
Y-59481D01*
X96959Y-60080D01*
G01X84500Y-58059D02*
X85697D01*
X86360Y-57396D01*
G01X110059Y-59500D02*
Y-57489D01*
X110152Y-57396D01*
G01X124000Y-64000D02*
X124059Y-64059D01*
G01X102000Y-8441D02*
X104989D01*
X105152Y-8604D01*
G01X84500Y-24559D02*
X85405D01*
X86360Y-23604D01*
G01X93500Y-18441D02*
X91523D01*
X91360Y-18604D01*
G01X84500Y-13559D02*
X86315D01*
X86360Y-13604D01*
G01X93500Y-7441D02*
X92523D01*
X91360Y-8604D01*
G01X102000Y-18941D02*
X104815D01*
X105152Y-18604D01*
G01X112000Y-23441D02*
X110315D01*
X110152Y-23604D01*
G01X108000Y-1441D02*
Y-1452D01*
X110152Y-3604D01*
G01X112000Y-12441D02*
X111315D01*
X110152Y-13604D01*
G01X84500Y-36059D02*
X85023D01*
X86360Y-37396D01*
G01X91441Y-50500D02*
Y-52315D01*
X91360Y-52396D01*
G01X91241Y-40600D02*
Y-42277D01*
X91360Y-42396D01*
G01X93500Y-29441D02*
X92197D01*
X91360Y-28604D01*
G01X84500Y-47559D02*
X86197D01*
X86360Y-47396D01*
G01X104559Y-31000D02*
Y-29197D01*
X105152Y-28604D01*
G01X110941Y-34500D02*
Y-36607D01*
X110152Y-37396D01*
G01X104941Y-40500D02*
Y-42185D01*
X105152Y-42396D01*
G01X112000Y-47441D02*
X110197D01*
X110152Y-47396D01*
G01X103000Y-52559D02*
X104989D01*
X105152Y-52396D01*
G01X151668Y-45929D02*
Y-42832D01*
G01X176846Y-93500D02*
Y-89654D01*
G01X175000Y-79500D02*
X176846Y-81346D01*
Y-89654D01*
X-122500Y-79000D03*
X-131000Y-117000D03*
X-125000Y-111500D03*
X-131500Y-112000D03*
X-103000Y-121500D03*
X-102600Y-115200D03*
X-122500Y-75500D03*
X-124500Y-117000D03*
X-90600Y-126800D03*
Y-131300D03*
X-84600Y-143300D03*
Y-137300D03*
Y-126800D03*
Y-131300D03*
X-93700Y-116400D03*
Y-111400D03*
X-81700D03*
X-90600Y-143300D03*
X-87700Y-111400D03*
Y-116400D03*
X-81700D03*
X-113500Y-106500D03*
X-99230Y-96500D03*
X-99250Y-100000D03*
Y-93000D03*
X-92500Y-96500D03*
X-93500Y-87000D03*
X-96000Y-96500D03*
X-104500Y-106000D03*
X-94000D03*
X-99250Y-87000D03*
X-109500Y-91500D03*
Y-87000D03*
Y-96500D03*
Y-101500D03*
Y-106000D03*
X-113500Y-91500D03*
X-106000Y-96500D03*
X-105000Y-87000D03*
X-102500Y-96500D03*
X-99250Y-103000D03*
X-89000Y-91500D03*
Y-87000D03*
Y-96500D03*
Y-101500D03*
Y-106000D03*
X-113500Y-86500D03*
X-99250Y-90000D03*
X-113500Y-101500D03*
X-89500Y-74500D03*
X-110260Y-66160D03*
X-125410Y-72500D03*
X-104630Y-58150D03*
X-98630D03*
X-85344Y-74676D03*
X-125410Y-69000D03*
X-121500Y-62500D03*
X-110260Y-60160D03*
X-99250Y-106000D03*
X-91400Y15400D03*
X-80900Y4400D03*
X-78129Y2871D03*
X-80900Y650D03*
X-94500Y18000D03*
X-93000Y41000D03*
X-88500D03*
Y36500D03*
X-84582Y-7112D03*
X-88500Y27500D03*
X-84100Y41000D03*
Y36500D03*
Y32000D03*
Y27500D03*
X-88500Y32000D03*
X-93000Y36500D03*
X-84350Y-26350D03*
X-119700Y-21000D03*
X-95600Y-38900D03*
X-127700Y-32500D03*
X-124700Y-26500D03*
X-114700Y-15500D03*
Y-21000D03*
X-124700D03*
X-129700D03*
X-119700Y-26500D03*
X-134700D03*
X-116900Y-42300D03*
X-121100Y-46300D03*
X-124449Y-10500D03*
X-95600Y-48700D03*
X-99800Y-41900D03*
X-109700Y-15500D03*
Y-26500D03*
Y-21000D03*
X-114700Y-26500D03*
X-127700Y-38500D03*
X-134700Y-21000D03*
X-95600Y-44500D03*
X-117100Y-34600D03*
X-124700Y-15500D03*
X-129700D03*
X-119700D03*
X-121700Y-38500D03*
X-134700Y-15500D03*
X-121700Y-32500D03*
X-99700Y-35700D03*
X-129700Y-26500D03*
X10500Y-76500D03*
X-55000Y-62000D03*
X-49000D03*
X-60000D03*
X-42500Y-69000D03*
X-40000Y-70300D03*
X-31500Y-104600D03*
X-15000Y-104700D03*
X-38500Y-57500D03*
X-52500Y-81500D03*
X-48500D03*
X18000Y-90500D03*
X12500D03*
X7000D03*
X1500D03*
X-4000D03*
X-9500D03*
X-15000D03*
X-20500D03*
X-26000D03*
X-31500D03*
X-37000D03*
X-26000Y-93500D03*
X-20500D03*
X-15000D03*
X-9500D03*
X-4000D03*
X1500D03*
X7000D03*
X12500D03*
X18000D03*
X23500D03*
X29000D03*
X-42500D03*
X-37000D03*
X-31500D03*
X29000Y-79000D03*
X23500D03*
X-9500Y-104500D03*
X29000D03*
X18000Y-79000D03*
X13000D03*
X6666Y-78500D03*
X-42500Y-90500D03*
X29500Y-71500D03*
Y-66000D03*
Y-60500D03*
X29000Y-90500D03*
X23500D03*
X-20500Y-79000D03*
X-42500Y-104500D03*
X-31500Y-79000D03*
X-4000D03*
X-15000D03*
X-34200Y-79160D03*
X-26000Y-79000D03*
X-9500D03*
X1500D03*
X-45378Y-82441D03*
X-59500Y-11500D03*
X-47000Y-12500D03*
X-45500Y4500D03*
X-38500Y9000D03*
X-59000Y0D03*
X-48750Y1500D03*
X-52000Y4500D03*
X-59000D03*
Y9000D03*
Y-5000D03*
X-38500Y4500D03*
Y0D03*
X-48750Y10500D03*
X-42000Y4500D03*
X-55500D03*
X-43500Y-5000D03*
X-47500Y-16000D03*
X-48750Y7500D03*
X-19620Y9997D03*
X-48750Y4500D03*
X-67583Y-6082D03*
X-34500Y-18000D03*
X-54299Y-23790D03*
X-44975Y-43575D03*
Y-39575D03*
X-43500Y-25500D03*
X-38500Y-53298D03*
X-44975Y-35575D03*
X-48750Y-46000D03*
X6000Y-4000D03*
X2559Y8059D03*
X16122Y2941D03*
X29400Y-47300D03*
X-31300Y-46800D03*
X9559Y8059D03*
X28500Y-53000D03*
X29500Y-44000D03*
Y-38500D03*
Y-33000D03*
Y-27500D03*
Y-22000D03*
Y-16500D03*
Y-11000D03*
Y-5500D03*
X16059Y8059D03*
X-38500Y-49500D03*
X9500Y2941D03*
X-44975Y-47575D03*
X24500Y-500D03*
X-75000Y19000D03*
X-50299Y-23790D03*
X-45831D03*
X-14286Y-9114D03*
X-10086D03*
X117050Y-102550D03*
X134500Y-110520D03*
X64500Y-102000D03*
X140000Y-114000D03*
X55500Y-71500D03*
X44000D03*
X55500Y-66000D03*
X122000Y-77500D03*
X41000Y-66000D03*
Y-71500D03*
Y-60500D03*
X44000D03*
X61000Y-59000D03*
X64400Y-63800D03*
X44000Y-66000D03*
X119400Y-74060D03*
X147928Y-59800D03*
X86970Y-116960D03*
X63600Y-88000D03*
X81500Y-117000D03*
X107300Y-99200D03*
X155408Y-59800D03*
X90500Y-117000D03*
X98000D03*
X103000Y-116000D03*
X109000Y-117400D03*
X114500D03*
X101659Y-97159D03*
X128500Y-97000D03*
X66000Y-79500D03*
X128500Y-102500D03*
X80500Y-109500D03*
X84500Y-103000D03*
X52300Y-90800D03*
X153000Y5500D03*
Y2000D03*
X156100Y28600D03*
X55500Y-44000D03*
Y-27500D03*
X44000D03*
X62000Y-16500D03*
X44000D03*
X119941Y-3559D03*
X55500Y-22000D03*
X44000D03*
X67500Y-45500D03*
X41500Y-54100D03*
X41000Y-44000D03*
Y-38500D03*
Y-33000D03*
Y-27500D03*
Y-22000D03*
Y-16500D03*
Y-11000D03*
X46000Y1000D03*
X44000Y-11000D03*
X62450Y-5500D03*
Y-11000D03*
X41000Y-49500D03*
X44000Y-33000D03*
X47183Y8059D03*
X55500Y-38500D03*
X44000D03*
X44100Y-55000D03*
X55500Y-33000D03*
X44000Y-5500D03*
Y-44000D03*
X157000Y10500D03*
X140500D03*
X137900Y-41300D03*
X156000Y-27500D03*
X125441Y-31441D03*
Y-25941D03*
Y-14941D03*
X151668Y-42832D03*
X44000Y-49500D03*
X146772Y-32641D03*
X125441Y-20441D03*
X160500Y-75000D03*
X166000Y-75500D03*
X160000Y-67500D03*
X165500Y-97000D03*
X165000Y-68000D03*
X172500Y-68600D03*
X170059Y-89559D03*
X168500Y-71800D03*
X161000Y15700D03*
Y-17000D03*
X161240Y-49290D03*
Y-53758D03*
G54D53*
G01X-107300Y51691D02*
X-103100D01*
Y56191D01*
X-107300D01*
Y51691D01*
G01X-111500D02*
X-107300D01*
Y56191D01*
X-111500D01*
Y51691D01*
G01X-115700D02*
X-111500D01*
Y56191D01*
X-115700D01*
Y51691D01*
G01X-119900D02*
X-115700D01*
Y56191D01*
X-119900D01*
Y51691D01*
G01X-124100D02*
X-119900D01*
Y56191D01*
X-124100D01*
Y51691D01*
G01X-94700Y51700D02*
X-90500D01*
Y56200D01*
X-94700D01*
Y51700D01*
G01X-98900D02*
X-94700D01*
Y56200D01*
X-98900D01*
Y51700D01*
G01X-103100Y51691D02*
X-98900D01*
Y56191D01*
X-103100D01*
Y51691D01*
G54D35*
X-17846Y-559D03*
X-11154D03*
X-17846Y4559D03*
X-11154D03*
G54D44*
X180169Y-62941D03*
Y-37547D03*
G54D17*
X-135500Y-85500D03*
Y-92000D03*
X-94003Y-121150D03*
X-77700Y-143200D03*
X-80264Y-120904D03*
X-90903Y-121150D03*
X-130500Y-72000D03*
X-134500Y-81500D03*
X-135500Y-72000D03*
X-113500Y-81500D03*
X-110000Y-74000D03*
X-132346Y-67346D03*
X-132700Y-59200D03*
X-86000Y6000D03*
X-134200Y17600D03*
X-114500Y43700D03*
X-119100Y600D03*
X-111500Y4500D03*
X-105500Y-5000D03*
X-85500Y23000D03*
X-99000Y-8000D03*
X-101500Y33500D03*
X-105500Y-8500D03*
X-130000Y17500D03*
X-118800Y15400D03*
X-121500Y-4000D03*
X-90000Y23000D03*
X-113500Y-8000D03*
X-88240Y-12900D03*
X-94970Y-30240D03*
X-88138Y-7112D03*
X-84300Y-35500D03*
X-111100Y-47200D03*
X-111200Y-43000D03*
X-111600Y-52000D03*
X-108300Y-39100D03*
X-109000Y-35600D03*
X-104400Y-35500D03*
Y-30400D03*
X-129000Y-52100D03*
X-9500Y-119500D03*
X-68500Y-75500D03*
Y-94000D03*
X-67400Y-143300D03*
X-72800Y-120900D03*
X-59500Y-96900D03*
Y-102900D03*
X-53700Y-96300D03*
X-67900Y-132800D03*
X-72400Y-143300D03*
X-76900Y-132800D03*
X-59500Y-108900D03*
X-61500Y-115900D03*
Y-120900D03*
X-55500Y-114900D03*
X-53848Y-102870D03*
X-67500Y-115900D03*
Y-120900D03*
X-55500Y-108900D03*
X-68580Y-71882D03*
X-1600Y-114800D03*
X-42600Y-113800D03*
X-23200Y-112800D03*
X4900Y-111100D03*
X-46500Y-59500D03*
X-50580Y-56950D03*
X-13800Y-113000D03*
X33500Y-90500D03*
X-56500Y-82000D03*
X-64200Y-68800D03*
X-28500Y-64000D03*
X-74400Y-65400D03*
X-63100Y-58500D03*
X-68100Y-62400D03*
X-75600Y-57900D03*
X-64200Y-73500D03*
X-60500Y-82000D03*
X9000Y-70500D03*
X-20578Y-71200D03*
X-46500Y-9000D03*
X-41100Y-8800D03*
X-11800Y-12000D03*
X-69570Y-9690D03*
X-57180Y-33260D03*
X-60280Y-18090D03*
X-49270Y-34120D03*
X-52900Y-36940D03*
X-35000Y-35000D03*
X-55470Y-52090D03*
X-62200Y-52240D03*
X-75200Y-38400D03*
X-75000Y-50400D03*
X-74900Y-23500D03*
X-75700Y-31200D03*
X-68000Y-44500D03*
X-67700Y-25000D03*
X-62700Y-29500D03*
X-23500Y-12000D03*
X-61990Y-36990D03*
X-12100Y-6574D03*
X-270Y-5760D03*
X135500Y-61500D03*
X81000Y-102500D03*
X110500Y-88000D03*
X93000D03*
X130500Y-64000D03*
X124000D03*
X148693Y-90701D03*
X53244Y-106500D03*
X148693Y-99307D03*
Y-80307D03*
X48500Y-100500D03*
X141500Y-95000D03*
X134500Y14000D03*
X130500Y1270D03*
Y-55500D03*
Y-47500D03*
Y-41000D03*
X143400Y-41500D03*
X130500Y-4000D03*
X147000Y-37559D03*
X135500Y-6500D03*
X124000Y-41000D03*
X152756Y-15000D03*
X142756Y-10000D03*
X152756D03*
X147756D03*
X142756Y-20000D03*
X152756D03*
X147756D03*
X142756Y-15000D03*
X150700Y-51500D03*
X124000Y-47500D03*
Y-55500D03*
X147756Y-15000D03*
X174500Y-119500D03*
X173740Y-97850D03*
X163300Y-58600D03*
X176846Y-89654D03*
X180000Y-104000D03*
X165500Y-80000D03*
X172315Y-55362D03*
X163000Y-45500D03*
X172315Y-47685D03*
X167000Y-24000D03*
X159500Y-38500D03*
X173500Y-20000D03*
X179000D03*
X170059Y-11059D03*
X161000Y-10079D03*
X167000Y-30000D03*
G54D26*
X-113330Y-1600D03*
X-92070D03*
X120870Y-87900D03*
X142130D03*
G54D54*
G01X-227625Y-183334D02*
X-226750Y-182167D01*
X-226000Y-181500D01*
X-225000Y-181167D01*
X-224125Y-181500D01*
X-223500Y-182167D01*
X-223000Y-183167D01*
X-222875Y-184333D01*
X-223000Y-185333D01*
X-223500Y-186334D01*
X-224250Y-187167D01*
X-225125Y-187500D01*
X-226125Y-187167D01*
X-227000Y-186167D01*
X-227500Y-184667D01*
X-227625Y-183000D01*
X-227375Y-180834D01*
X-227000Y-179667D01*
X-226375Y-178500D01*
X-225500Y-177667D01*
X-224625Y-177500D01*
X-223750Y-177833D01*
X-223125Y-178667D01*
G01X-215250Y-177500D02*
X-216250Y-177833D01*
X-217000Y-178667D01*
X-217500Y-179667D01*
X-217875Y-181000D01*
X-218000Y-182500D01*
X-217875Y-184000D01*
X-217500Y-185333D01*
X-217000Y-186334D01*
X-216250Y-187167D01*
X-215250Y-187500D01*
X-214250Y-187167D01*
X-213500Y-186334D01*
X-213000Y-185333D01*
X-212625Y-184000D01*
X-212500Y-182500D01*
X-212625Y-181000D01*
X-213000Y-179667D01*
X-213500Y-178667D01*
X-214250Y-177833D01*
X-215250Y-177500D01*
G01X-205250D02*
X-206250Y-177833D01*
X-207000Y-178667D01*
X-207500Y-179667D01*
X-207875Y-181000D01*
X-208000Y-182500D01*
X-207875Y-184000D01*
X-207500Y-185333D01*
X-207000Y-186334D01*
X-206250Y-187167D01*
X-205250Y-187500D01*
X-204250Y-187167D01*
X-203500Y-186334D01*
X-203000Y-185333D01*
X-202625Y-184000D01*
X-202500Y-182500D01*
X-202625Y-181000D01*
X-203000Y-179667D01*
X-203500Y-178667D01*
X-204250Y-177833D01*
X-205250Y-177500D01*
G01X-196875Y-184167D02*
X-193625D01*
G01X-187625Y-183334D02*
X-186750Y-182167D01*
X-186000Y-181500D01*
X-185000Y-181167D01*
X-184125Y-181500D01*
X-183500Y-182167D01*
X-183000Y-183167D01*
X-182875Y-184333D01*
X-183000Y-185333D01*
X-183500Y-186334D01*
X-184250Y-187167D01*
X-185125Y-187500D01*
X-186125Y-187167D01*
X-187000Y-186167D01*
X-187500Y-184667D01*
X-187625Y-183000D01*
X-187375Y-180834D01*
X-187000Y-179667D01*
X-186375Y-178500D01*
X-185500Y-177667D01*
X-184625Y-177500D01*
X-183750Y-177833D01*
X-183125Y-178667D01*
G01X-175250Y-177500D02*
X-176250Y-177833D01*
X-177000Y-178667D01*
X-177500Y-179667D01*
X-177875Y-181000D01*
X-178000Y-182500D01*
X-177875Y-184000D01*
X-177500Y-185333D01*
X-177000Y-186334D01*
X-176250Y-187167D01*
X-175250Y-187500D01*
X-174250Y-187167D01*
X-173500Y-186334D01*
X-173000Y-185333D01*
X-172625Y-184000D01*
X-172500Y-182500D01*
X-172625Y-181000D01*
X-173000Y-179667D01*
X-173500Y-178667D01*
X-174250Y-177833D01*
X-175250Y-177500D01*
G01X-165250Y-187500D02*
Y-177500D01*
X-166750Y-179500D01*
G01Y-187500D02*
X-163750D01*
G01X-157375Y-186334D02*
X-156500Y-187167D01*
X-155500Y-187500D01*
X-154500Y-187167D01*
X-153625Y-186167D01*
X-153000Y-184667D01*
X-152750Y-183167D01*
Y-181333D01*
X-153000Y-179833D01*
X-153625Y-178500D01*
X-154375Y-177833D01*
X-155250Y-177500D01*
X-156250Y-177833D01*
X-157000Y-178500D01*
X-157500Y-179500D01*
X-157750Y-180834D01*
X-157500Y-182000D01*
X-156875Y-183167D01*
X-156125Y-183834D01*
X-155250Y-184000D01*
X-154250Y-183667D01*
X-153500Y-182833D01*
X-152750Y-181333D01*
G01X-145250Y-187500D02*
X-144375Y-187333D01*
X-143375Y-186833D01*
X-142750Y-186000D01*
X-142500Y-184833D01*
X-142750Y-183667D01*
X-143500Y-182667D01*
X-144625Y-182167D01*
X-145875D01*
X-146625Y-181833D01*
X-147250Y-181000D01*
X-147500Y-179833D01*
X-147125Y-178667D01*
X-146250Y-177833D01*
X-145250Y-177500D01*
X-144250Y-177833D01*
X-143375Y-178667D01*
X-143000Y-179833D01*
X-143250Y-181000D01*
X-143875Y-181833D01*
X-144625Y-182167D01*
X-145875D01*
X-147000Y-182667D01*
X-147750Y-183667D01*
X-148000Y-184833D01*
X-147750Y-186000D01*
X-147125Y-186833D01*
X-146125Y-187333D01*
X-145250Y-187500D01*
G01X-136875Y-184167D02*
X-133625D01*
G01X-125250Y-177500D02*
X-126250Y-177833D01*
X-127000Y-178667D01*
X-127500Y-179667D01*
X-127875Y-181000D01*
X-128000Y-182500D01*
X-127875Y-184000D01*
X-127500Y-185333D01*
X-127000Y-186334D01*
X-126250Y-187167D01*
X-125250Y-187500D01*
X-124250Y-187167D01*
X-123500Y-186334D01*
X-123000Y-185333D01*
X-122625Y-184000D01*
X-122500Y-182500D01*
X-122625Y-181000D01*
X-123000Y-179667D01*
X-123500Y-178667D01*
X-124250Y-177833D01*
X-125250Y-177500D01*
G01X-115250Y-187500D02*
Y-177500D01*
X-116750Y-179500D01*
G01Y-187500D02*
X-113750D01*
G01X-97875Y-186167D02*
X-96875Y-187000D01*
X-95750Y-187500D01*
X-94750D01*
X-93750Y-187000D01*
X-93000Y-186167D01*
X-92625Y-185000D01*
X-92875Y-183834D01*
X-93500Y-182833D01*
X-94625Y-182167D01*
X-96125Y-181833D01*
X-97000Y-181167D01*
X-97375Y-180000D01*
X-97125Y-178833D01*
X-96500Y-178000D01*
X-95625Y-177500D01*
X-94750D01*
X-93875Y-177833D01*
X-93125Y-178667D01*
G01X-88000Y-177500D02*
Y-184667D01*
X-87500Y-186167D01*
X-86500Y-187167D01*
X-85250Y-187500D01*
X-84000Y-187167D01*
X-83000Y-186167D01*
X-82500Y-184667D01*
Y-177500D01*
G01X-77750Y-187500D02*
Y-177500D01*
X-74750D01*
X-73750Y-178000D01*
X-73000Y-179167D01*
X-72750Y-180500D01*
X-73000Y-181833D01*
X-73625Y-182833D01*
X-74750Y-183334D01*
X-77750D01*
G01X-62750Y-187500D02*
X-67750D01*
Y-177500D01*
X-62750D01*
G01X-64750Y-182333D02*
X-67750D01*
G01X-57750Y-187500D02*
Y-177500D01*
X-54625D01*
X-53625Y-178000D01*
X-53000Y-178667D01*
X-52750Y-180000D01*
X-53000Y-181333D01*
X-53750Y-182167D01*
X-54625Y-182667D01*
X-57750D01*
G01X-54625D02*
X-52750Y-187500D01*
G01X-47875Y-186167D02*
X-46875Y-187000D01*
X-45750Y-187500D01*
X-44750D01*
X-43750Y-187000D01*
X-43000Y-186167D01*
X-42625Y-185000D01*
X-42875Y-183834D01*
X-43500Y-182833D01*
X-44625Y-182167D01*
X-46125Y-181833D01*
X-47000Y-181167D01*
X-47375Y-180000D01*
X-47125Y-178833D01*
X-46500Y-178000D01*
X-45625Y-177500D01*
X-44750D01*
X-43875Y-177833D01*
X-43125Y-178667D01*
G01X-37750Y-187500D02*
Y-177500D01*
X-34750D01*
X-33750Y-178000D01*
X-33000Y-179167D01*
X-32750Y-180500D01*
X-33000Y-181833D01*
X-33625Y-182833D01*
X-34750Y-183334D01*
X-37750D01*
G01X-22750Y-187500D02*
X-27750D01*
Y-177500D01*
X-22750D01*
G01X-24750Y-182333D02*
X-27750D01*
G01X-12750Y-187500D02*
X-17750D01*
Y-177500D01*
X-12750D01*
G01X-14750Y-182333D02*
X-17750D01*
G01X-8000Y-187500D02*
Y-177500D01*
X-5500D01*
X-4500Y-178000D01*
X-3750Y-178667D01*
X-3125Y-179667D01*
X-2625Y-180834D01*
X-2500Y-182500D01*
X-2625Y-184167D01*
X-3125Y-185333D01*
X-3750Y-186334D01*
X-4500Y-187000D01*
X-5500Y-187500D01*
X-8000D01*
G01X17250D02*
X12250D01*
Y-177500D01*
X17250D01*
G01X15250Y-182333D02*
X12250D01*
G01X22125Y-187500D02*
X27375Y-177500D01*
G01X22125D02*
X27375Y-187500D01*
G01X32250D02*
Y-177500D01*
X35250D01*
X36250Y-178000D01*
X37000Y-179167D01*
X37250Y-180500D01*
X37000Y-181833D01*
X36375Y-182833D01*
X35250Y-183334D01*
X32250D01*
G01X42250Y-177500D02*
Y-187500D01*
X47250D01*
G01X54750D02*
X53750Y-187333D01*
X52875Y-186667D01*
X52125Y-185667D01*
X51625Y-184500D01*
X51375Y-183167D01*
Y-181833D01*
X51625Y-180500D01*
X52125Y-179333D01*
X52875Y-178333D01*
X53750Y-177667D01*
X54750Y-177500D01*
X55750Y-177667D01*
X56625Y-178333D01*
X57375Y-179333D01*
X57875Y-180500D01*
X58125Y-181833D01*
Y-183167D01*
X57875Y-184500D01*
X57375Y-185667D01*
X56625Y-186667D01*
X55750Y-187333D01*
X54750Y-187500D01*
G01X62250D02*
Y-177500D01*
X65375D01*
X66375Y-178000D01*
X67000Y-178667D01*
X67250Y-180000D01*
X67000Y-181333D01*
X66250Y-182167D01*
X65375Y-182667D01*
X62250D01*
G01X65375D02*
X67250Y-187500D01*
G01X77250D02*
X72250D01*
Y-177500D01*
X77250D01*
G01X75250Y-182333D02*
X72250D01*
G01X82250Y-187500D02*
Y-177500D01*
X85375D01*
X86375Y-178000D01*
X87000Y-178667D01*
X87250Y-180000D01*
X87000Y-181333D01*
X86250Y-182167D01*
X85375Y-182667D01*
X82250D01*
G01X85375D02*
X87250Y-187500D01*
G01X102000D02*
Y-177500D01*
G01X106750D02*
X102000Y-183667D01*
G01X107500Y-187500D02*
X104125Y-180834D01*
G01X113250Y-177500D02*
X116250D01*
G01X114750D02*
Y-187500D01*
G01X113250D02*
X116250D01*
G01X124750Y-177500D02*
Y-187500D01*
G01X121875Y-177500D02*
X127625D01*
G01X142250Y-187500D02*
Y-177500D01*
X145375D01*
X146375Y-178000D01*
X147000Y-178667D01*
X147250Y-180000D01*
X147000Y-181333D01*
X146250Y-182167D01*
X145375Y-182667D01*
X142250D01*
G01X145375D02*
X147250Y-187500D01*
G01X157250D02*
X152250D01*
Y-177500D01*
X157250D01*
G01X155250Y-182333D02*
X152250D01*
G01X161625Y-177500D02*
X164750Y-187500D01*
X167875Y-177500D01*
G01X174750D02*
X173750Y-177833D01*
X173000Y-178667D01*
X172500Y-179667D01*
X172125Y-181000D01*
X172000Y-182500D01*
X172125Y-184000D01*
X172500Y-185333D01*
X173000Y-186334D01*
X173750Y-187167D01*
X174750Y-187500D01*
X175750Y-187167D01*
X176500Y-186334D01*
X177000Y-185333D01*
X177375Y-184000D01*
X177500Y-182500D01*
X177375Y-181000D01*
X177000Y-179667D01*
X176500Y-178667D01*
X175750Y-177833D01*
X174750Y-177500D01*
G01X186250Y-187500D02*
Y-177500D01*
X181625Y-184667D01*
X187875D01*
G01X202250Y-187500D02*
Y-177500D01*
X205250D01*
X206250Y-178000D01*
X207000Y-179167D01*
X207250Y-180500D01*
X207000Y-181833D01*
X206375Y-182833D01*
X205250Y-183334D01*
X202250D01*
G01X212250Y-187500D02*
Y-177500D01*
X215375D01*
X216375Y-178000D01*
X217000Y-178667D01*
X217250Y-180000D01*
X217000Y-181333D01*
X216250Y-182167D01*
X215375Y-182667D01*
X212250D01*
G01X215375D02*
X217250Y-187500D01*
G01X223250Y-177500D02*
X226250D01*
G01X224750D02*
Y-187500D01*
G01X223250D02*
X226250D01*
G01X231500D02*
Y-177500D01*
X234750Y-185833D01*
X238000Y-177500D01*
Y-187500D01*
G01X241625D02*
X244750Y-177500D01*
X247875Y-187500D01*
G01X246750Y-184000D02*
X242750D01*
G01X252250Y-187500D02*
Y-177500D01*
X255375D01*
X256375Y-178000D01*
X257000Y-178667D01*
X257250Y-180000D01*
X257000Y-181333D01*
X256250Y-182167D01*
X255375Y-182667D01*
X252250D01*
G01X255375D02*
X257250Y-187500D01*
G01X264750D02*
Y-183000D01*
X262250Y-177500D01*
G01X267250D02*
X264750Y-183000D01*
G01X282125Y-186167D02*
X283125Y-187000D01*
X284250Y-187500D01*
X285250D01*
X286250Y-187000D01*
X287000Y-186167D01*
X287375Y-185000D01*
X287125Y-183834D01*
X286500Y-182833D01*
X285375Y-182167D01*
X283875Y-181833D01*
X283000Y-181167D01*
X282625Y-180000D01*
X282875Y-178833D01*
X283500Y-178000D01*
X284375Y-177500D01*
X285250D01*
X286125Y-177833D01*
X286875Y-178667D01*
G01X293250Y-177500D02*
X296250D01*
G01X294750D02*
Y-187500D01*
G01X293250D02*
X296250D01*
G01X302000D02*
Y-177500D01*
X304500D01*
X305500Y-178000D01*
X306250Y-178667D01*
X306875Y-179667D01*
X307375Y-180834D01*
X307500Y-182500D01*
X307375Y-184167D01*
X306875Y-185333D01*
X306250Y-186334D01*
X305500Y-187000D01*
X304500Y-187500D01*
X302000D01*
G01X317250D02*
X312250D01*
Y-177500D01*
X317250D01*
G01X315250Y-182333D02*
X312250D01*
G01X-20745Y-55745D02*
X-22500Y-57500D01*
Y-58200D01*
G01X-28500Y-64000D02*
X-28350Y-63850D01*
Y-57179D01*
G02X-27038Y-54012I4479J0D01*
G01X-24763Y-51737D01*
G01X2500Y-60500D02*
Y-56947D01*
X1298Y-55745D01*
G01X-5000D02*
Y-62100D01*
G01X-18220Y-37466D02*
X-18211D01*
X-17596Y-36851D01*
G01X-19176Y-38423D02*
X-18220Y-37466D01*
G01X-23000Y-38000D02*
X-25000D01*
X-25500Y-37500D01*
G01X-19176Y-38423D02*
X-22577D01*
X-23000Y-38000D01*
G01X10745Y-24255D02*
X11845D01*
X12600Y-23500D01*
G01X-11298Y-33702D02*
X-12877Y-32123D01*
G01X-17596Y-30553D02*
X-18332Y-29817D01*
X-18333D01*
G01X-17596Y-33702D02*
X-17605D01*
X-19177Y-35274D01*
G01D02*
X-20745Y-33706D01*
Y-33702D01*
G01X9169Y-47871D02*
X10745Y-49447D01*
G01X7596Y-46298D02*
X9169Y-47871D01*
G01X-1851Y-55745D02*
Y-55750D01*
X-280Y-57321D01*
G01X7596Y-49447D02*
X9170Y-51021D01*
G01X12320Y-57320D02*
X10745Y-55745D01*
G01Y-52596D02*
X12320Y-54171D01*
G01X-8149Y-52596D02*
X-8651Y-53098D01*
X-8655D01*
X-9728Y-54171D01*
G01X6100Y-41600D02*
X9145D01*
X10745Y-40000D01*
G01X-300Y-19849D02*
Y-22704D01*
X-1851Y-24255D01*
G01X-25500Y-55000D02*
X-23096Y-52596D01*
X-20745D01*
G01X-15441Y-20000D02*
Y-23261D01*
X-14447Y-24255D01*
G01X-17596Y-55745D02*
X-18319Y-56468D01*
X-18325D01*
X-19177Y-57320D01*
G01X10745Y-33702D02*
X10753D01*
X11455Y-33000D01*
X15900D01*
X16523Y-33623D01*
X16538D01*
G01X-25500Y-35000D02*
X-22596D01*
X-20745Y-36851D01*
G01X-7000Y-23106D02*
X-8149Y-24255D01*
G01X-3280Y-20970D02*
Y-22535D01*
X-5000Y-24255D01*
G01X-14447Y-49447D02*
X-14448Y-49446D01*
X-14453D01*
X-16028Y-51021D01*
G01X10745Y-43149D02*
X16441D01*
G01X13600Y-35244D02*
X13400D01*
X11793Y-36851D01*
X10745D01*
G01X-17596Y-27404D02*
X-18332Y-26668D01*
X-18333D01*
G01X-8149Y-30553D02*
X-9728Y-28974D01*
G01X-17596Y-40000D02*
X-18220Y-40624D01*
X-18229D01*
X-19177Y-41572D01*
G01X-8149Y-49447D02*
X-6575Y-51021D01*
Y-51027D01*
G54D18*
X-98960Y-68201D03*
Y-20799D03*
G54D36*
X-27300Y-44500D03*
X81360Y-67396D03*
X115152Y-72396D03*
Y-67396D03*
X110152D03*
X115152Y-62396D03*
X105152D03*
X110152D03*
X105152Y-57396D03*
X110152D03*
X115152D03*
X86360Y-62396D03*
X91360D03*
X86360Y-67396D03*
X81360Y-72396D03*
X86360D03*
X110152D03*
X105152D03*
Y-67396D03*
X91360D03*
Y-57396D03*
X96360D03*
X81360Y-62396D03*
X91360Y-72396D03*
X81360Y-57396D03*
X86360D03*
X115152Y-18604D03*
Y-13604D03*
X81360Y11396D03*
X115152Y-3604D03*
X110152Y-52396D03*
X105152D03*
X115152D03*
X105152Y-47396D03*
X110152D03*
X115152D03*
X110152Y-42396D03*
X105152D03*
X115152D03*
X105152Y-37396D03*
X110152D03*
X115152D03*
X110152Y-28604D03*
X115152Y-23604D03*
X88256Y12500D03*
X110152Y6396D03*
X115152D03*
X91360D03*
X110152Y-13604D03*
X105152D03*
X93256Y12500D03*
X110152Y-3604D03*
Y-23604D03*
X91360Y-47396D03*
X96360Y-37396D03*
X91360Y-23604D03*
X105152Y-18604D03*
Y-28604D03*
Y1396D03*
X96360Y-18604D03*
X81360Y6396D03*
X91360Y1396D03*
X81360D03*
Y-8604D03*
X91360D03*
X96360D03*
X86360Y-13604D03*
X91360D03*
X86360Y-47396D03*
X105152Y-23604D03*
X96360Y-52396D03*
X81360Y-23604D03*
X86360Y1396D03*
X96360Y-13604D03*
X86360Y-42396D03*
X81360Y-47396D03*
X96360D03*
X110152Y11396D03*
X105152D03*
Y6396D03*
X81360Y-52396D03*
X91360Y-28604D03*
X86360Y-18604D03*
X110152Y1396D03*
X96360Y-28604D03*
X81360Y-42396D03*
Y-13604D03*
X86360Y-8604D03*
Y-52396D03*
X81360Y-18604D03*
X91360D03*
X81360Y-3604D03*
X86360D03*
X91360Y-37396D03*
X110152Y-8604D03*
X98256Y12500D03*
X115152Y1396D03*
X91360Y-42396D03*
X96360D03*
X110152Y-18604D03*
X91360Y-52396D03*
X115790Y10340D03*
X105152Y-3604D03*
X115152Y-8604D03*
X86360Y6396D03*
X96360Y-3604D03*
X91360D03*
X96360Y-23604D03*
X86360D03*
X81360Y-37396D03*
X86360D03*
Y-28604D03*
X105152Y-8604D03*
G54D27*
X-111000Y14756D03*
X-32500Y-127744D03*
X-22500Y-137744D03*
Y-127744D03*
X-12500Y-137744D03*
Y-127744D03*
X-2500Y-137744D03*
Y-127744D03*
X7500Y-137744D03*
Y-127744D03*
X17500Y-137744D03*
X-72500Y-127744D03*
X17500D03*
X27500Y-137744D03*
Y-127744D03*
X37500Y-137744D03*
Y-127744D03*
X-62500Y-137744D03*
Y-127744D03*
X-52500Y-137744D03*
Y-127744D03*
X-42500Y-137744D03*
Y-127744D03*
X-32500Y-137744D03*
X-52500Y36256D03*
Y26256D03*
X-62500Y36256D03*
Y26256D03*
X37500D03*
Y36256D03*
X27500D03*
Y26256D03*
X-72500Y36256D03*
X17500D03*
Y26256D03*
X7500Y36256D03*
X-2500D03*
X7500Y26256D03*
X-12500Y36256D03*
X-2500Y26256D03*
X-22500Y36256D03*
X-12500Y26256D03*
X-32500Y36256D03*
X-22500Y26256D03*
X-32500D03*
X-42500Y36256D03*
Y26256D03*
X47500Y-137744D03*
Y-127744D03*
X57500Y-137744D03*
Y-127744D03*
X67500Y-137744D03*
Y-127744D03*
X77500Y-137744D03*
Y-127744D03*
X87500Y-137744D03*
Y-127744D03*
X97500Y-137744D03*
Y-127744D03*
X107500Y-137744D03*
Y-127744D03*
X117500Y-137744D03*
Y-127744D03*
X153500Y-125000D03*
X117500Y36256D03*
Y26256D03*
X107500Y36256D03*
Y26256D03*
X97500Y36256D03*
X87500D03*
X97500Y26256D03*
X87500D03*
X77500Y36256D03*
X67500D03*
X77500Y26256D03*
X67500D03*
X57500D03*
Y36256D03*
X47500D03*
Y26256D03*
X152000Y18256D03*
G54D45*
X169343Y-61858D03*
Y-38630D03*
G54D55*
G01X-84000Y-1559D02*
X-86297D01*
X-86338Y-1600D01*
X-92070D01*
G01X-84582Y-7112D02*
Y-5052D01*
X-84000Y-4470D01*
Y-1559D01*
G01X77500Y-137744D02*
X73244Y-142000D01*
X-15760D01*
X-17850Y-139910D01*
Y-125270D01*
X-22130Y-120990D01*
X-32410D01*
X-34130Y-119270D01*
Y-110300D01*
X-32250Y-108420D01*
X-24900D01*
X-20500Y-104020D01*
Y-101559D01*
G01X87500Y-137744D02*
X81244Y-144000D01*
X-24910D01*
X-27690Y-141220D01*
Y-124780D01*
X-29810Y-122660D01*
X-33750D01*
X-35800Y-120610D01*
Y-108470D01*
X-34080Y-106750D01*
X-28930D01*
X-26000Y-103820D01*
Y-101559D01*
G01X-15000Y-87559D02*
Y-90500D01*
G01X38059Y-66000D02*
X41000D01*
G01X38059Y-60500D02*
X41000D01*
G01X29000Y-104500D02*
Y-93500D01*
G01X6666Y-78500D02*
Y-80790D01*
X7000Y-81124D01*
Y-90500D01*
G01X38059Y-71500D02*
X41000D01*
G01X87500Y-127744D02*
Y-131670D01*
X88680Y-132850D01*
X100830D01*
X102560Y-131120D01*
Y-123320D01*
X101080Y-121840D01*
X58457D01*
X49657Y-113040D01*
X47900D01*
X46837Y-114103D01*
Y-119460D01*
X46177Y-120120D01*
X44737D01*
X43957Y-119340D01*
Y-113100D01*
X43237Y-112380D01*
X41797D01*
X41077Y-113100D01*
Y-119350D01*
X40437Y-119990D01*
X38997D01*
X38197Y-119190D01*
Y-113100D01*
X37477Y-112380D01*
X36037D01*
X35317Y-113100D01*
Y-119350D01*
X34677Y-119990D01*
X33150D01*
X32190Y-119030D01*
Y-112650D01*
X30710Y-111170D01*
X20370D01*
X18000Y-108800D01*
Y-101559D01*
G01Y-87559D02*
Y-90500D01*
G01X23500Y-87559D02*
Y-90500D01*
G01X57500Y-127744D02*
X53086Y-123330D01*
X32930D01*
X30600Y-121000D01*
X3160D01*
X2170Y-120010D01*
Y-118450D01*
X2970Y-117650D01*
X21490D01*
X22280Y-116860D01*
Y-115250D01*
X21260Y-114230D01*
X9350D01*
X8460Y-113340D01*
Y-111530D01*
X9340Y-110650D01*
X14360D01*
X15280Y-109730D01*
Y-107440D01*
X12500Y-104660D01*
Y-101559D01*
G01X47500Y-127744D02*
X49314Y-125930D01*
X51300D01*
X53410Y-128040D01*
Y-132080D01*
X52180Y-133310D01*
X33690D01*
X31970Y-131590D01*
Y-125750D01*
X29720Y-123500D01*
X-5230D01*
X-6225Y-122505D01*
Y-121355D01*
X-5240Y-120370D01*
X-650D01*
X-60Y-119780D01*
Y-118220D01*
X-760Y-117520D01*
X-6390D01*
X-9340Y-114570D01*
Y-110730D01*
X-6975Y-108365D01*
X5465D01*
X7000Y-106830D01*
Y-101559D01*
G01X12500Y-87559D02*
Y-90500D01*
G01X-15000Y-104700D02*
Y-101559D01*
G01X17500Y-127744D02*
Y-130850D01*
X15610Y-132740D01*
X-6080D01*
X-7940Y-130880D01*
Y-124600D01*
X-16510Y-116030D01*
X-26240D01*
X-28160Y-117950D01*
X-31000D01*
X-32380Y-116570D01*
Y-112060D01*
X-30700Y-110380D01*
X-15480D01*
X-11670Y-106570D01*
X310D01*
X1500Y-105380D01*
Y-101559D01*
G01Y-87559D02*
Y-90500D01*
G01X-4000Y-87559D02*
Y-90500D01*
G01X-31500Y-101559D02*
Y-104600D01*
G01X-9500Y-87559D02*
Y-90500D01*
G01X-42500Y-87559D02*
Y-90500D01*
G01X-31500Y-87559D02*
Y-90500D01*
G01X-37000Y-87559D02*
Y-90500D01*
G01X-20500D02*
Y-79000D01*
G01X-26000Y-87559D02*
Y-90500D01*
G01X-42500Y-101559D02*
Y-104500D01*
G01X23500Y-101559D02*
Y-103730D01*
X26710Y-106940D01*
X39650D01*
X43000Y-110290D01*
X52770D01*
X61950Y-119470D01*
X135470D01*
X136500Y-120500D01*
Y-131760D01*
X135780Y-132480D01*
X129107D01*
X128387Y-133200D01*
Y-137780D01*
X127667Y-138500D01*
X126227D01*
X125507Y-137780D01*
Y-133200D01*
X124787Y-132480D01*
X110890D01*
X107500Y-129090D01*
Y-127744D01*
G01X29000Y-87559D02*
Y-90500D01*
G01X97500Y-137744D02*
X89244Y-146000D01*
X-31800D01*
X-37880Y-139920D01*
Y-104830D01*
X-36970Y-103920D01*
Y-101589D01*
X-37000Y-101559D01*
G01X-42500Y-96441D02*
Y-93500D01*
G01X-20500Y-96441D02*
Y-93500D01*
G01X-26000Y-82441D02*
Y-79000D01*
G01X-34200Y-79160D02*
X-36351D01*
X-37000Y-79809D01*
Y-82441D01*
G01X-15000D02*
Y-79000D01*
G01X-37000Y-96441D02*
Y-93500D01*
G01X-26000Y-96441D02*
Y-93500D01*
G01X18000Y-82441D02*
Y-79000D01*
G01X7000Y-96441D02*
Y-93500D01*
G01X1500Y-82441D02*
Y-79000D01*
G01X12500Y-82441D02*
Y-79500D01*
X13000Y-79000D01*
G01X32941Y-71500D02*
X29500D01*
G01X32941Y-60500D02*
X29500D01*
G01X32941Y-66000D02*
X29500D01*
G01X18000Y-96441D02*
Y-93500D01*
G01X-4000Y-82441D02*
Y-79000D01*
G01X-9500Y-82441D02*
Y-79000D01*
G01X23500Y-96441D02*
Y-93500D01*
G01X-31500Y-96441D02*
Y-93500D01*
G01X1500Y-96441D02*
Y-93500D01*
G01X-42500Y-82441D02*
X-45378D01*
G01X-31500D02*
Y-79000D01*
G01X12500Y-96441D02*
Y-93500D01*
G01X23500Y-82441D02*
Y-79000D01*
G01X-15000Y-96441D02*
Y-93500D01*
G01X29000Y-82441D02*
Y-79000D01*
G01X-19200Y-44700D02*
X-17649Y-43149D01*
X-17596D01*
G01X-14447Y-40000D02*
X-15050Y-39397D01*
X-15052D01*
X-16027Y-38422D01*
G01X-18271Y-9114D02*
X-14286D01*
G01X-17846Y-559D02*
X-18304Y-1017D01*
Y-9081D01*
X-18271Y-9114D01*
G01X-8149Y-40000D02*
X-8665Y-39484D01*
X-8667D01*
X-9728Y-38423D01*
G01X-17596Y-46298D02*
X-18317Y-47019D01*
X-18325D01*
X-19177Y-47871D01*
G01X-17596Y-52596D02*
X-17602D01*
X-19177Y-54171D01*
G01X-14447Y-36851D02*
X-15241Y-36057D01*
X-15243D01*
X-16027Y-35273D01*
G01X-6389Y-9114D02*
X-10086D01*
G01X-11154Y4559D02*
X-7500D01*
X-6389Y3448D01*
Y-9114D01*
G01X105152Y6396D02*
X101048Y10500D01*
X87000D01*
X84000Y13500D01*
X80140D01*
X77050Y10410D01*
Y-38040D01*
X75470Y-39620D01*
X63310D01*
X61690Y-38000D01*
Y-23440D01*
X66500Y-18630D01*
Y-1410D01*
X63990Y1100D01*
X53250D01*
X51830Y2520D01*
Y10460D01*
X48790Y13500D01*
X-17494D01*
X-19850Y15856D01*
Y17410D01*
X-22730Y20290D01*
X-36090D01*
X-37240Y21440D01*
Y26550D01*
X-35980Y27810D01*
X-33710D01*
X-32500Y26600D01*
Y26256D01*
G01X110152Y6396D02*
X112116Y8360D01*
X133160D01*
X140120Y15320D01*
Y38980D01*
X134820Y44280D01*
X-36020D01*
X-37500Y42800D01*
Y31790D01*
X-36418Y30708D01*
X-26952D01*
X-22500Y26256D01*
G01X-12500D02*
X-17430Y31186D01*
Y40080D01*
X-18810Y41460D01*
X-26180D01*
X-27570Y40070D01*
Y34200D01*
X-24890Y31520D01*
X-21450D01*
X-17430Y27500D01*
Y18420D01*
X-14588Y15578D01*
X50400D01*
X53680Y12298D01*
Y5400D01*
X55810Y3270D01*
X65180D01*
X68710Y-260D01*
Y-19490D01*
X63680Y-24520D01*
Y-35170D01*
X66180Y-37670D01*
X72450D01*
X75250Y-34870D01*
Y11510D01*
X79318Y15578D01*
X85178D01*
X88256Y12500D01*
G01X12500Y8059D02*
X9559D01*
G01X-2500Y26256D02*
Y29600D01*
X2380Y34480D01*
Y39800D01*
X870Y41310D01*
X-6340D01*
X-8030Y39620D01*
Y22700D01*
X-8920Y21810D01*
X-12850D01*
X-13900Y20760D01*
Y18680D01*
X-12920Y17700D01*
X52210D01*
X55870Y14040D01*
Y7600D01*
X57950Y5520D01*
X66420D01*
X70710Y1230D01*
Y-20360D01*
X65400Y-25670D01*
Y-33810D01*
X67450Y-35860D01*
X71310D01*
X73410Y-33760D01*
Y12630D01*
X78480Y17700D01*
X88056D01*
X93256Y12500D01*
G01X7500Y26256D02*
Y30500D01*
X6510Y31490D01*
X3190D01*
X1930Y30230D01*
Y20710D01*
X3020Y19620D01*
X59150D01*
X59870Y18900D01*
Y9080D01*
X60590Y8360D01*
X62030D01*
X62750Y9080D01*
Y18900D01*
X63470Y19620D01*
X64910D01*
X65630Y18900D01*
Y9080D01*
X66350Y8360D01*
X67790D01*
X68510Y9080D01*
Y18900D01*
X69310Y19700D01*
X80980D01*
X82440Y21160D01*
Y29900D01*
X83760Y31220D01*
X90640D01*
X92260Y29600D01*
Y23120D01*
X94010Y21370D01*
X100470D01*
X102440Y23340D01*
Y29690D01*
X104130Y31380D01*
X121770D01*
X123580Y29570D01*
Y21470D01*
X126250Y18800D01*
Y16530D01*
X124935Y15215D01*
X122675D01*
X118745Y19145D01*
X96515D01*
X95280Y17910D01*
Y13570D01*
X96350Y12500D01*
X98256D01*
G01X17500Y26256D02*
X22056Y21700D01*
X70710D01*
X72990Y23980D01*
Y28950D01*
X71040Y30900D01*
X34380D01*
X32190Y33090D01*
Y38370D01*
X34470Y40650D01*
X124360D01*
X125840Y39170D01*
Y23650D01*
X128190Y21300D01*
Y14520D01*
X125850Y12180D01*
X122600D01*
X117760Y17020D01*
X104230D01*
X102900Y15690D01*
Y13000D01*
X104504Y11396D01*
X105152D01*
G01X41500Y-54100D02*
X41450D01*
X40550Y-55000D01*
X38059D01*
G01X13000Y-51000D02*
Y-48556D01*
X11555Y-47109D01*
Y-47108D01*
X10745Y-46298D01*
G01X1298D02*
X-275Y-44725D01*
G01X-1851Y-46298D02*
X-1165Y-46984D01*
Y-46985D01*
X-280Y-47871D01*
G01X91360Y6396D02*
X89256Y8500D01*
X80770D01*
X78790Y6520D01*
Y-40130D01*
X77050Y-41870D01*
X61580D01*
X59770Y-40060D01*
Y-22630D01*
X64740Y-17660D01*
Y-2960D01*
X62670Y-890D01*
X51570D01*
X49990Y690D01*
Y9020D01*
X47180Y11830D01*
X-18186D01*
X-19356Y13000D01*
X-24290D01*
X-29140Y17850D01*
X-51700D01*
X-52800Y18950D01*
Y20570D01*
X-51530Y21840D01*
X-46916D01*
X-42500Y26256D01*
G01X27500D02*
Y29740D01*
X26510Y30730D01*
X14080D01*
X12120Y32690D01*
Y40400D01*
X14070Y42350D01*
X133540D01*
X134770Y41120D01*
Y39761D01*
X133830Y38821D01*
X128480D01*
X127760Y38101D01*
Y36661D01*
X128480Y35941D01*
X137340D01*
X138280Y35001D01*
Y34001D01*
X137340Y33061D01*
X128480D01*
X127760Y32341D01*
Y30901D01*
X128480Y30181D01*
X137210D01*
X138230Y29161D01*
Y28260D01*
X137420Y27450D01*
X128670D01*
X127880Y26660D01*
Y25100D01*
X128700Y24280D01*
X137660D01*
X138430Y23510D01*
Y21710D01*
X137485Y20765D01*
X131285D01*
X130020Y19500D01*
Y16310D01*
X131490Y14840D01*
Y11790D01*
X129930Y10230D01*
X121000D01*
X118070Y13160D01*
X111916D01*
X110152Y11396D01*
G01X38059Y-44000D02*
X41000D01*
G01X38059Y-49500D02*
X41000D01*
G01X38059Y-11000D02*
X41000D01*
G01X-11298Y-27404D02*
X-12877Y-25825D01*
G01X-11298Y-30553D02*
X-12877Y-28974D01*
G01X4447Y-24255D02*
X5035Y-23667D01*
Y-23659D01*
X6020Y-22674D01*
G01X-14447Y-55745D02*
X-14452D01*
X-16027Y-57320D01*
G01X19000Y8059D02*
X16059D01*
G01X38059Y-5500D02*
Y-1941D01*
X41000Y1000D01*
X46000D01*
G01X24500Y8059D02*
X47183D01*
G01X38059Y-16500D02*
X41000D01*
G01X38059Y-33000D02*
X41000D01*
G01X38059Y-22000D02*
X41000D01*
G01X38059Y-27500D02*
X41000D01*
G01X38059Y-38500D02*
X41000D01*
G01X6000Y8059D02*
X2559D01*
G01X-11298Y-43149D02*
X-12038Y-43889D01*
X-12044D01*
X-12877Y-44722D01*
G01X-11298Y-49447D02*
Y-49450D01*
X-9727Y-51021D01*
G01X-14447Y-52596D02*
X-14452D01*
X-16027Y-54171D01*
G01X7596Y-36851D02*
X8345Y-36102D01*
Y-36098D01*
X9169Y-35274D01*
G01X29400Y-47300D02*
Y-48400D01*
X30500Y-49500D01*
X32941D01*
G01X-1851Y-36851D02*
X-1088Y-36088D01*
Y-36084D01*
X-278Y-35274D01*
G01X32941Y-11000D02*
X29500D01*
G01X1298Y-36851D02*
X2000Y-36149D01*
Y-36144D01*
X2871Y-35273D01*
G01X32941Y-44000D02*
X29500D01*
G01X-17596Y-49447D02*
X-17597Y-49446D01*
X-17602D01*
X-19177Y-51021D01*
G01X-14447Y-33702D02*
Y-33701D01*
X-16025Y-32123D01*
X-16026D01*
G01X4447Y-36851D02*
X5210Y-36088D01*
Y-36084D01*
X6020Y-35274D01*
G01X4447Y-40000D02*
X5270Y-39177D01*
Y-39173D01*
X6020Y-38423D01*
G01X7596Y-33702D02*
X8215Y-33083D01*
Y-33078D01*
X9170Y-32123D01*
G01X-11298Y-46298D02*
X-12084Y-47084D01*
X-12090D01*
X-12877Y-47871D01*
G01X-11298Y-55745D02*
X-11302D01*
X-12877Y-57320D01*
G01X-14447Y-43149D02*
X-15050Y-43752D01*
Y-43754D01*
X-16025Y-44729D01*
G01X-14447Y-46298D02*
X-15078Y-46929D01*
X-15085D01*
X-16027Y-47871D01*
G01X-11298Y-52596D02*
X-11302D01*
X-12877Y-54171D01*
G01X-59500Y-11500D02*
X-57760Y-13240D01*
X-52500D01*
G01X-5000Y-40000D02*
X-4380Y-39380D01*
Y-39374D01*
X-3429Y-38423D01*
G01X-8149Y-36851D02*
X-8918Y-36082D01*
X-8919D01*
X-9728Y-35274D01*
G01X-14447Y-27404D02*
X-16027Y-25824D01*
G01X-8149Y-33702D02*
X-6570Y-35281D01*
G01X-19900Y-20900D02*
X-18554Y-22246D01*
Y-23297D01*
X-17596Y-24255D01*
G01X4447Y-52596D02*
X5185Y-53334D01*
Y-53336D01*
X6020Y-54171D01*
G01X1298Y-52596D02*
X2007Y-51887D01*
X2009D01*
X2873Y-51023D01*
G01X-1851Y-49447D02*
X-1163Y-50135D01*
Y-50137D01*
X-279Y-51021D01*
G01X1298Y-49447D02*
X1986Y-48759D01*
X1988D01*
X2872Y-47875D01*
G01X-5000Y-30553D02*
X-4169Y-29722D01*
Y-29714D01*
X-3429Y-28974D01*
G01X1298Y-43149D02*
X2871Y-44722D01*
G01Y-38422D02*
Y-38427D01*
X1298Y-40000D01*
G01Y-33702D02*
X2010Y-32990D01*
Y-32984D01*
X2871Y-32123D01*
G01X7596Y-43149D02*
X8246Y-43799D01*
X8247D01*
X9169Y-44722D01*
G01X-1851Y-43149D02*
X-2558Y-42442D01*
Y-42440D01*
X-3422Y-41576D01*
G01X12500Y2941D02*
X9500D01*
G01X-5000Y-36851D02*
X-4324Y-36175D01*
Y-36169D01*
X-3429Y-35274D01*
G01X19000Y2941D02*
X16122D01*
G01X7596Y-27404D02*
X8420Y-26580D01*
Y-26574D01*
X9169Y-25825D01*
G01X32941Y-27500D02*
X29500D01*
G01X4447Y-33702D02*
X5190Y-32959D01*
Y-32954D01*
X6021Y-32123D01*
G01X32941Y-38500D02*
X29500D01*
G01X1298Y-27404D02*
X2056Y-26646D01*
Y-26639D01*
X2871Y-25824D01*
G01X-1851Y-27404D02*
X-1019Y-26572D01*
Y-26564D01*
X-280Y-25825D01*
G01X7596Y-24255D02*
X8184Y-23667D01*
Y-23659D01*
X9169Y-22674D01*
G01X32941Y-22000D02*
X29500D01*
G01X32941Y-5500D02*
X29500D01*
G01X-1851Y-30553D02*
Y-30545D01*
X-280Y-28974D01*
G01X4447Y-43149D02*
X3722Y-42424D01*
Y-42422D01*
X2872Y-41572D01*
G01X1298Y-30553D02*
X2090Y-29761D01*
Y-29754D01*
X2871Y-28973D01*
G01X32941Y-16500D02*
X29500D01*
G01X-5000Y-27404D02*
X-4259Y-26663D01*
Y-26655D01*
X-3429Y-25825D01*
G01X32941Y-33000D02*
X29500D01*
G01X4447Y-30553D02*
X5165Y-29835D01*
Y-29829D01*
X6020Y-28974D01*
G01X7596Y-30553D02*
X8415Y-29734D01*
Y-29728D01*
X9169Y-28974D01*
G01Y-38423D02*
Y-38427D01*
X7596Y-40000D01*
G01X28500Y-53000D02*
X30500Y-55000D01*
X32941D01*
G01X-1851Y-40000D02*
X-1108Y-40743D01*
Y-40744D01*
X-280Y-41572D01*
G01X4447Y-27404D02*
X5166Y-26685D01*
Y-26679D01*
X6020Y-25825D01*
G01X7596Y-55745D02*
X8334Y-56483D01*
Y-56485D01*
X9169Y-57320D01*
G01X-5000Y-49447D02*
X-4187Y-50260D01*
Y-50262D01*
X-3428Y-51021D01*
G01X-5000Y-33702D02*
X-4269Y-32971D01*
Y-32964D01*
X-3428Y-32123D01*
G01X24500Y2941D02*
Y-500D01*
G01X11481Y-26667D02*
Y-26668D01*
X10745Y-27404D01*
G01X-1851Y-33702D02*
X-279Y-32123D01*
G01X6000Y2941D02*
Y-4000D01*
G01X-8149Y-55745D02*
X-8153D01*
X-9728Y-57320D01*
G01X7596Y-52596D02*
X8406Y-53406D01*
Y-53407D01*
X9169Y-54171D01*
G01X-5000Y-43149D02*
X-4232Y-43917D01*
Y-43918D01*
X-3429Y-44722D01*
G01X-1851Y-52596D02*
X-280Y-54171D01*
G01X-8149Y-43149D02*
X-8804Y-43804D01*
X-8810D01*
X-9728Y-44722D01*
G01X-8149Y-46298D02*
X-8914Y-47063D01*
X-8920D01*
X-9728Y-47871D01*
G01X4447Y-55745D02*
X5185Y-56483D01*
Y-56485D01*
X6020Y-57320D01*
G01X4447Y-49447D02*
X6021Y-51021D01*
G01X-3429Y-47871D02*
X-4192Y-47107D01*
Y-47106D01*
X-5000Y-46298D01*
G01X4447D02*
X5143Y-46994D01*
X5144D01*
X6020Y-47871D01*
G01X-5000Y-52596D02*
X-3429Y-54171D01*
G01X52559Y-66000D02*
X55500D01*
G01X64400Y-63800D02*
X61300D01*
X58000Y-60500D01*
X52559D01*
G01Y-71500D02*
X55500D01*
G01X52559Y-55000D02*
X57000D01*
X61000Y-59000D01*
G01X107300Y-99200D02*
Y-97200D01*
X104980Y-94880D01*
X70480D01*
X63600Y-88000D01*
G01X47441Y-60500D02*
X44000D01*
G01X47441Y-66000D02*
X44000D01*
G01X47441Y-71500D02*
X44000D01*
G01X91841Y-60080D02*
X91360Y-60561D01*
Y-62396D01*
G01X117050Y-102550D02*
X114100Y-105500D01*
X68000D01*
X64500Y-102000D01*
G01X120870Y-87900D02*
Y-98730D01*
X117050Y-102550D01*
G01X52559Y-33000D02*
X55500D01*
G01X67500Y-45500D02*
X60000D01*
X56000Y-49500D01*
X52559D01*
G01X153000Y5500D02*
X146772Y-728D01*
Y-5354D01*
G01X153000Y2000D02*
X148740Y-2260D01*
Y-5354D01*
G01X119941Y-3559D02*
X126461Y-10079D01*
X138110D01*
G01X140500Y10500D02*
Y-500D01*
X142000Y-2000D01*
X143941D01*
X144803Y-2862D01*
Y-5354D01*
G01X52559Y-11000D02*
X62450D01*
G01X52559Y-5500D02*
X62450D01*
G01X52559Y-16500D02*
X62000D01*
G01X52559Y-22000D02*
X55500D01*
G01X52559Y-27500D02*
X55500D01*
G01X52559Y-38500D02*
X55500D01*
G01X52559Y-44000D02*
X55500D01*
G01X154646Y-24646D02*
Y-26146D01*
X156000Y-27500D01*
G01X143400Y-32641D02*
X146772D01*
G01D02*
Y-24646D01*
G01X157000Y1941D02*
Y1547D01*
X154453Y-1000D01*
X153000D01*
X150709Y-3291D01*
Y-5354D01*
G01X47441Y-55000D02*
X44100D01*
G01X47441Y-49500D02*
X44000D01*
G01X125441Y-31441D02*
X127900Y-28982D01*
Y-28500D01*
X134510Y-21890D01*
X138110D01*
G01X125441Y-20441D02*
X127929Y-17953D01*
X138110D01*
G01X125441Y-14941D02*
X133441D01*
X134484Y-15984D01*
X138110D01*
G01X125441Y-25941D02*
X128059D01*
X134079Y-19921D01*
X138110D01*
G01X137900Y-41300D02*
Y-39240D01*
X138583Y-38557D01*
Y-28783D01*
X140866Y-26500D01*
Y-24646D01*
G01X47441Y-5500D02*
X44000D01*
G01X47441Y-33000D02*
X44000D01*
G01X47441Y-22000D02*
X44000D01*
G01X47441Y-16500D02*
X44000D01*
G01X47441Y-11000D02*
X44000D01*
G01X47441Y-44000D02*
X44000D01*
G01X47441Y-27500D02*
X44000D01*
G01X47441Y-38500D02*
X44000D01*
G01X170154Y-93500D02*
Y-89654D01*
X170059Y-89559D01*
G01X164941Y-20000D02*
Y-14500D01*
G01X157402Y-19921D02*
X164862D01*
X164941Y-20000D01*
G54D19*
X-132746Y-77100D03*
X-126054D03*
X123910Y-60500D03*
X130602D03*
X123910Y-51500D03*
X130602D03*
X170154Y-93500D03*
X176846D03*
G54D46*
X168260Y-50244D03*
Y-47685D03*
Y-45126D03*
Y-55362D03*
Y-52803D03*
G54D37*
X-71100Y13112D03*
Y2088D03*
G54D28*
X-5000Y-62100D03*
X2500Y-60500D03*
X-22500Y-58200D03*
X-6575Y-51027D03*
X17500Y-29000D03*
X2871Y-22674D03*
X-25500Y-37500D03*
X-24763Y-51737D03*
X-23710Y-25550D03*
X6100Y-41600D03*
X-9500Y-18500D03*
X6020Y-22674D03*
X9169Y-25825D03*
Y-22674D03*
X11481Y-26667D03*
X6020Y-25825D03*
X2871Y-25824D03*
X-280Y-25825D03*
X-300Y-19849D03*
X12600Y-23500D03*
X16538Y-33623D03*
X-279Y-32123D03*
X6021D03*
X9169Y-28974D03*
X6020D03*
X2871Y-28973D03*
X-280Y-28974D03*
X2871Y-32123D03*
X9170D03*
X-3280Y-20970D03*
X-3428Y-32123D03*
X-3429Y-28974D03*
Y-25825D03*
X-9728Y-28974D03*
X-15441Y-20000D03*
X-19900Y-20900D03*
X-18333Y-26668D03*
X-12877Y-28974D03*
Y-25825D03*
X-16026Y-32123D03*
X-16027Y-25824D03*
Y-35273D03*
Y-38422D03*
X-12877Y-38423D03*
X-19176D03*
X-12877Y-32123D03*
X-18333Y-29817D03*
X-25500Y-35000D03*
X-19177Y-35274D03*
X-16025Y-44729D03*
X-16027Y-47871D03*
X-12877Y-44722D03*
Y-47871D03*
X-19177D03*
Y-41572D03*
X-19200Y-44700D03*
X-3429Y-54171D03*
X-3428Y-51021D03*
X-279D03*
X-280Y-54171D03*
X-3429Y-47871D03*
X2872Y-47875D03*
X2873Y-51023D03*
X6020Y-57320D03*
X6021Y-51021D03*
X6020Y-54171D03*
X9169Y-57320D03*
X6020Y-47871D03*
X9169Y-54171D03*
X13600Y-35244D03*
X16441Y-43149D03*
X-3429Y-44722D03*
X-9728Y-47871D03*
Y-44722D03*
X-3429Y-35274D03*
X13000Y-51000D03*
X-275Y-44725D03*
X-280Y-47871D03*
X2871Y-44722D03*
X2872Y-41572D03*
X-3422Y-41576D03*
X2871Y-38422D03*
X9169Y-44722D03*
Y-38423D03*
X-280Y-41572D03*
X2871Y-35273D03*
X-278Y-35274D03*
X9169D03*
X6020Y-38423D03*
Y-35274D03*
X-3429Y-38423D03*
X-9728Y-35274D03*
X-6570Y-35281D03*
X-9728Y-38423D03*
X9169Y-47871D03*
X-280Y-57321D03*
X9170Y-51021D03*
X12320Y-57320D03*
Y-54171D03*
X-19177Y-57320D03*
X-16028Y-51021D03*
X-9728Y-57320D03*
X-16027Y-54171D03*
Y-57320D03*
X-9727Y-51021D03*
X-12877Y-54171D03*
Y-57320D03*
X-19177Y-51021D03*
Y-54171D03*
X-25500Y-55000D03*
X-9728Y-54171D03*
G54D56*
G01X-40059Y-44075D02*
X-40582Y-43551D01*
G03X-43000Y-42550I-2417J-2418D01*
G01X-43500D01*
G03X-44975Y-43575I0J-1574D01*
G01X-20745Y-49447D02*
X-21050Y-49142D01*
G03X-21760Y-48848I-710J-710D01*
G01X-23000D01*
G03X-27862Y-50862I0J-6876D01*
G01X-29250Y-52250D01*
X-31518Y-54517D01*
G02X-35999Y-56374I-4483J4482D01*
G01X-37500D01*
G03X-38500Y-57374I0J-1000D01*
G01Y-57500D01*
G01X-50299Y-23790D02*
G02X-49040Y-25049I0J-1259D01*
G01Y-26334D01*
G03X-45420Y-29954I3620J0D01*
G01X-22191D01*
G02X-20745Y-30553I0J-2045D01*
G01X-45831Y-23790D02*
G03X-47090Y-25049I0J-1259D01*
G01Y-26334D01*
G03X-45420Y-28004I1670J0D01*
G01X-22194D01*
G03X-20745Y-27404I0J2049D01*
G01Y-46298D02*
X-21080Y-46633D01*
G02X-21720Y-46898I-640J640D01*
G01X-23000D01*
G03X-29241Y-49483I0J-8826D01*
G01X-30629Y-50871D01*
X-32897Y-53138D01*
G02X-36000Y-54424I-3104J3103D01*
G01X-37500D01*
G02X-38500Y-53424I0J1000D01*
G01Y-53298D01*
G01X-44975Y-39575D02*
G03X-43500Y-40600I1475J549D01*
G01X-43000D01*
G03X-40582Y-39599I1J3419D01*
G01X-40059Y-39075D01*
G01X-34941D02*
X-34418Y-39599D01*
G03X-32000Y-40600I2417J2418D01*
G01X-22000D01*
G03X-20882Y-40137I0J1581D01*
G01X-20745Y-40000D01*
G01Y-43149D02*
X-20880Y-43014D01*
G03X-22000Y-42550I-1120J-1120D01*
G01X-32000D01*
G03X-34418Y-43551I-1J-3419D01*
G01X-34941Y-44075D01*
G01X155408Y-56559D02*
Y-59800D01*
G01X147928Y-56559D02*
Y-59800D01*
G01X155408Y-45929D02*
Y-43008D01*
X152668Y-40268D01*
Y-26100D01*
G02X152677Y-24646I117455J0D01*
G01X147928Y-45929D02*
Y-43172D01*
X150718Y-40382D01*
Y-26100D01*
G03X150709Y-24646I-117455J0D01*
G01X161240Y-53758D02*
Y-53659D01*
X162400Y-52499D01*
X165099D01*
X165403Y-52803D01*
X168260D01*
G01X161240Y-49290D02*
Y-49389D01*
X162400Y-50549D01*
X165000D01*
X165305Y-50244D01*
X168260D01*
G54D47*
G01X-27300Y-44500D02*
G03X-30202Y-45702I0J-4104D01*
G01D02*
X-31300Y-46800D01*
G01X1298Y-24255D02*
X2871Y-22682D01*
G01X17500Y-29000D02*
X14500D01*
X12947Y-30553D01*
X10745D01*
G01X157402Y-15984D02*
X153740D01*
X152756Y-15000D01*
G01X157402Y-21890D02*
X154646D01*
X152756Y-20000D01*
G01X157402Y-8110D02*
X154646D01*
X152756Y-10000D01*
G01X138110Y-14016D02*
X141772D01*
X142756Y-15000D01*
G01X138110Y-8110D02*
X137110D01*
X135500Y-6500D01*
G01X157402Y-10079D02*
X161000D01*
G01X157402Y-17953D02*
X160047D01*
X161000Y-17000D01*
G54D38*
X-37700Y-14654D03*
Y-21346D03*
G54D29*
X-72500Y-137744D03*
Y26256D03*
G54D48*
G01X-31941Y-7500D02*
Y-13559D01*
X-30000Y-15500D01*
X-8120D01*
X-6200Y-17420D01*
Y-19578D01*
X-6196Y-19648D01*
X-6190Y-19723D01*
Y-20110D01*
X-6200Y-20160D01*
G01X-31941Y-7500D02*
Y12241D01*
X-34100Y14400D01*
X-58300D01*
X-62500Y18600D01*
Y26256D01*
G01X160000Y-114000D02*
X154257Y-108257D01*
X136763D01*
X134500Y-110520D01*
G54D39*
X151668Y-56559D03*
X147928D03*
X155408D03*
X147928Y-45929D03*
X155408D03*
X151668D03*
G54D49*
G01X-6200Y-20160D02*
Y-22306D01*
X-7000Y-23106D01*
G01X163300Y-58600D02*
Y-57200D01*
X165138Y-55362D01*
X168260D01*
G01Y-47685D02*
X172315D01*
G01X168260D02*
X165185D01*
X163000Y-45500D01*
G01X168260Y-55362D02*
X172315D01*
M02*
