G04 ================== begin FILE IDENTIFICATION RECORD ==================*
G04 Layout Name:  FX3_DVK_PROTO_REV3_PD14-0048_PCB_20140612_16p3.brd*
G04 Film Name:    L03_SIG1*
G04 File Format:  Gerber RS274X*
G04 File Origin:  Cadence Allegro 16.3-p003*
G04 Origin Date:  Wed Jul 23 11:09:01 2014*
G04 *
G04 Layer:  VIA CLASS/L03_SIG1*
G04 Layer:  PIN/L03_SIG1*
G04 Layer:  PACKAGE GEOMETRY/PCBNO*
G04 Layer:  MANUFACTURING/TITLE_BLOCK*
G04 Layer:  ETCH/L03_SIG1*
G04 Layer:  BOARD GEOMETRY/TITTLE_SIG1*
G04 Layer:  BOARD GEOMETRY/S1*
G04 Layer:  BOARD GEOMETRY/TARGET*
G04 *
G04 Offset:    (0.00 0.00)*
G04 Mirror:    No*
G04 Mode:      Positive*
G04 Rotation:  0*
G04 FullContactRelief:  No*
G04 UndefLineWidth:     5.00*
G04 ================== end FILE IDENTIFICATION RECORD ====================*
%FSLAX25Y25*MOIN*%
%IR0*IPPOS*OFA0.00000B0.00000*MIA0B0*SFA1.00000B1.00000*%
%ADD10C,.02*%
%ADD13C,.014*%
%ADD12C,.06*%
%ADD14C,.016*%
%ADD11C,.067*%
%ADD15C,.01*%
%ADD16C,.03*%
%ADD17C,.005*%
%ADD18C,.006*%
%ADD19C,.008*%
%ADD20C,.03204*%
%ADD25C,.0731*%
%ADD23C,.08104*%
%ADD21C,.03604*%
%ADD24C,.07404*%
%ADD22C,.14396*%
G75*
%LPD*%
G75*
G36*
G01X-106500Y-146500D02*
X-110000Y-143000D01*
Y-125600D01*
X-116100Y-119500D01*
X-135500D01*
X-136999Y-118001D01*
Y-93907D01*
G02X-136399Y-93561I400J-1D01*
G03Y-90439I899J1561D01*
G02X-136999Y-90093I-200J347D01*
G01Y-87407D01*
G02X-136399Y-87061I400J-1D01*
G03Y-83939I899J1561D01*
G02X-136999Y-83593I-200J347D01*
G01Y-73907D01*
G02X-136399Y-73561I400J-1D01*
G03Y-70439I899J1561D01*
G02X-136999Y-70093I-200J347D01*
G01Y-13999D01*
X-135000Y-12000D01*
X-125013D01*
X-124980Y-12011D01*
G03X-123918I531J1511D01*
G01X-123885Y-12000D01*
X-90384D01*
G02X-89995Y-12491I0J-400D01*
G03X-87589Y-14580I1755J-409D01*
G01X-87467Y-14533D01*
X-75535Y-26465D01*
X-75582Y-26587D01*
G03X-75609Y-28880I3039J-1182D01*
G02X-75933Y-29413I-376J-137D01*
G03X-75926Y-32988I233J-1787D01*
G02X-75601Y-33524I-50J-397D01*
G03X-75463Y-36109I3058J-1133D01*
G02X-75708Y-36671I-358J-178D01*
G03X-76744Y-37471I508J-1729D01*
G02X-77415Y-37493I-343J206D01*
G03X-81966Y-36269I-3001J-2086D01*
G02X-82529Y-35833I-170J362D01*
G03X-86061Y-35880I-1771J333D01*
G02X-86634Y-36321I-391J-85D01*
G03X-85070Y-37851I-1657J-3258D01*
G02X-84642Y-37269I352J189D01*
G03X-84055Y-37285I342J1769D01*
G02X-83647Y-37869I55J-396D01*
G03X-76810Y-40171I3230J-1710D01*
G02X-76195Y-39903I394J-65D01*
G03X-73400Y-38309I995J1503D01*
G02X-72951Y-37892I399J20D01*
G03X-71438Y-31589I407J3235D01*
G02Y-30836I135J377D01*
G03X-71365Y-30807I-1167J3044D01*
G01X-71242Y-30758D01*
X-69500Y-32500D01*
X-59352D01*
G02X-58958Y-32965I-1J-400D01*
G03X-55402I1778J-295D01*
G02X-55008Y-32500I395J65D01*
G01X-51500D01*
X-50812Y-33188D01*
G03X-48338Y-35662I1542J-932D01*
G01X-48000Y-36000D01*
Y-44029D01*
G02X-48470Y-44423I-400J0D01*
G03Y-47577I-280J-1577D01*
G02X-48000Y-47971I70J-394D01*
G01Y-58501D01*
G03X-48249Y-59935I1500J-999D01*
G02X-48709Y-60425I-388J-97D01*
G03X-48520Y-63528I-292J-1575D01*
G02X-48000Y-63909I120J-382D01*
G01Y-79501D01*
G02X-48420Y-79900I-400J0D01*
G03Y-83100I-80J-1600D01*
G02X-48000Y-83499I20J-399D01*
G01Y-93000D01*
X-50000Y-95000D01*
X-52452D01*
G03X-54948I-1248J-1300D01*
G01X-60000D01*
Y-95163D01*
X-60130Y-95212D01*
G03Y-98588I630J-1688D01*
G01X-60000Y-98637D01*
Y-101163D01*
X-60130Y-101212D01*
G03Y-104588I630J-1688D01*
G01X-60000Y-104637D01*
Y-107163D01*
X-60130Y-107212D01*
G03Y-110588I630J-1688D01*
G01X-60000Y-110637D01*
Y-113993D01*
G02X-60600Y-114339I-400J0D01*
G03Y-117461I-900J-1561D01*
G02X-60000Y-117807I200J-346D01*
G01Y-118993D01*
G02X-60600Y-119339I-400J0D01*
G03Y-122461I-900J-1561D01*
G02X-60000Y-122807I200J-346D01*
G01Y-124221D01*
G02X-60605Y-124564I-400J1D01*
G03Y-130924I-1895J-3180D01*
G02X-60000Y-131267I205J-344D01*
G01Y-134221D01*
G02X-60605Y-134564I-400J1D01*
G03Y-140924I-1895J-3180D01*
G02X-60000Y-141267I205J-344D01*
G01Y-145000D01*
X-61500Y-146500D01*
X-106500D01*
G37*
G36*
G01X-99000Y3000D02*
X-93500Y-2500D01*
X-69908D01*
X-67056Y-5352D01*
Y-8128D01*
X-67564Y-8636D01*
X-68108D01*
G03X-71032I-1462J-1054D01*
G01X-83270D01*
Y-8034D01*
X-83238Y-7984D01*
G03X-85910Y-6216I-1344J872D01*
G02X-86586Y-6196I-332J223D01*
G03X-89688Y-8032I-1552J-916D01*
G02X-90031Y-8636I-344J-204D01*
G01X-96811D01*
G02X-97208Y-8193I1J400D01*
G03X-100792I-1792J193D01*
G02X-101189Y-8636I-398J-43D01*
G01X-103693D01*
X-103699Y-8442D01*
G03X-104406Y-7068I-1801J-58D01*
G02Y-6432I242J318D01*
G03X-106594I-1094J1432D01*
G02Y-7068I-242J-318D01*
G03X-107301Y-8442I1094J-1432D01*
G01X-107307Y-8636D01*
X-111311D01*
G02X-111708Y-8193I1J400D01*
G03X-115292I-1792J193D01*
G02X-115689Y-8636I-398J-43D01*
G01X-134864D01*
X-136000Y-7500D01*
Y2500D01*
X-135500Y3000D01*
X-112499D01*
G03X-110501I999J1500D01*
G01X-99000D01*
G37*
G36*
G01X-113236Y5002D02*
X-134502D01*
X-136000Y6500D01*
Y13000D01*
X-135000Y14000D01*
X-119935D01*
G03X-117665I1135J1400D01*
G01X-92179D01*
G03X-90621I779J1400D01*
G01X-86500D01*
X-77000Y4500D01*
Y500D01*
X-77998Y-498D01*
X-92671D01*
X-98171Y5002D01*
X-109764D01*
X-109812Y5132D01*
G03X-113188I-1688J-632D01*
G01X-113236Y5002D01*
G37*
G36*
G01X173991Y-18266D02*
G03Y-21734I-491J-1734D01*
G02X174500Y-22119I109J-385D01*
G01Y-46396D01*
G02X173776Y-46630I-400J0D01*
G03Y-48740I-1461J-1055D01*
G02X174500Y-48974I324J-234D01*
G01Y-54073D01*
G02X173776Y-54307I-400J0D01*
G03Y-56417I-1461J-1055D01*
G02X174500Y-56651I324J-234D01*
G01Y-75000D01*
X173000Y-76500D01*
X144000D01*
X140700Y-73200D01*
Y-25200D01*
X142000Y-23900D01*
X154600D01*
X156500Y-22000D01*
Y-15500D01*
X157500Y-14500D01*
X173500D01*
X174500Y-15500D01*
Y-17881D01*
G02X173991Y-18266I-400J0D01*
G37*
G36*
G01X85000Y-72500D02*
Y-62500D01*
X86000Y-61500D01*
X110500D01*
X111500Y-62500D01*
Y-72500D01*
X110500Y-73500D01*
X86000D01*
X85000Y-72500D01*
G37*
G36*
G01X84300Y500D02*
Y7500D01*
X84700Y7900D01*
X89100D01*
X89400Y7600D01*
Y4100D01*
X90350Y3150D01*
X111650D01*
X112800Y2000D01*
Y-200D01*
X111400Y-1600D01*
X86400D01*
X84300Y500D01*
G37*
%LPC*%
G75*
G36*
G01X-107679Y-36825D02*
G03X-107551Y-37461I294J-272D01*
G02X-109621Y-37875I-749J-1639D01*
G03X-109749Y-37239I-294J272D01*
G02X-107679Y-36825I749J1639D01*
G37*
G36*
G01X-69088Y-45936D02*
G03X-69681Y-46063I-242J-319D01*
G02Y-42937I-2862J1563D01*
G03X-69088Y-43064I351J192D01*
G02Y-45936I1088J-1436D01*
G37*
G36*
G01X-72610Y-66619D02*
G03X-73120Y-66668I-226J-330D01*
G02X-76158Y-65797I-1280J1268D01*
G03X-76564Y-65485I-390J-88D01*
G02X-76862Y-65369I-16J399D01*
G01X-78106Y-64126D01*
Y-52997D01*
G03X-78694Y-52645I-400J-1D01*
G02X-76817Y-48789I-1723J3224D01*
G03X-76165Y-49025I394J69D01*
G02X-73214Y-50639I1165J-1375D01*
G03X-72788Y-51091I396J-53D01*
G02X-71438Y-57411I245J-3252D01*
G03Y-58164I135J-377D01*
G02X-69371Y-60475I-1105J-3068D01*
G03X-68822Y-60749I389J93D01*
G02X-68283Y-64193I722J-1651D01*
G03X-68708Y-64478I-41J-398D01*
G02X-68809Y-64649I-384J111D01*
G01X-70848Y-66688D01*
X-72385D01*
G02X-72610Y-66619I0J400D01*
G37*
G36*
G01X-88544Y-118348D02*
G03X-88596Y-117728I-276J289D01*
G02X-86142Y-116775I896J1328D01*
G03X-85763Y-117268I389J-93D01*
G02X-82283Y-119608I-89J-3890D01*
G03X-81616Y-119713I367J159D01*
G02X-81503Y-122213I1352J-1191D01*
G03X-82157Y-122378I-274J-291D01*
G02X-89362Y-122837I-3695J1220D01*
G03X-89937Y-122671I-361J-172D01*
G02X-92171Y-122430I-966J1521D01*
G03X-92735I-282J-284D01*
G02Y-119870I-1268J1280D01*
G03X-92171I282J284D01*
G02X-89933Y-119632I1268J-1280D01*
G03X-89357Y-119468I215J337D01*
G02X-88544Y-118348I3505J-1689D01*
G37*
G36*
G01X-124632Y-71100D02*
G02X-126188I-778J-1400D01*
G03Y-70400I-194J350D01*
G02X-124632I778J1400D01*
G03Y-71100I194J-350D01*
G37*
G36*
G01X-67506Y-73997D02*
G02X-69559Y-74042I-994J-1503D01*
G03X-69574Y-73385I-236J323D01*
G02X-67521Y-73340I994J1503D01*
G03X-67506Y-73997I236J-323D01*
G37*
G36*
G01X-121722Y-77600D02*
G02X-123278I-778J-1400D01*
G03Y-76900I-194J350D01*
G02X-121722I778J1400D01*
G03Y-77600I194J-350D01*
G37*
G36*
G01X-58863Y-82754D02*
G02Y-81246I-1637J754D01*
G03X-58137I363J167D01*
G02Y-82754I1637J-754D01*
G03X-58863I-363J-167D01*
G37*
G36*
G01X-71281Y-141888D02*
G02X-73569Y-141929I-1119J-1412D01*
G03X-73699Y-141246I-260J304D01*
G02X-71175Y-141201I1200J3502D01*
G03X-71281Y-141888I143J-374D01*
G37*
G36*
G01X-98189Y-104800D02*
G02X-100311I-1061J-1200D01*
G03Y-104200I-265J300D01*
G02Y-101800I1061J1200D01*
G03Y-101200I-265J300D01*
G02X-100020Y-98595I1061J1200D01*
G03X-100016Y-97896I-192J351D01*
G02X-100538Y-97424I787J1395D01*
G03X-101192I-327J-231D01*
G02X-103900Y-97278I-1308J924D01*
G03X-104600I-350J-194D01*
G02X-107400I-1400J778D01*
G03X-108100I-350J-194D01*
G02Y-95722I-1400J778D01*
G03X-107400I350J194D01*
G02X-104600I1400J-778D01*
G03X-103900I350J194D01*
G02X-101192Y-95576I1400J-778D01*
G03X-100538I327J231D01*
G02X-100016Y-95104I1309J-923D01*
G03X-100020Y-94405I-196J348D01*
G02X-100311Y-91800I770J1405D01*
G03Y-91200I-265J300D01*
G02Y-88800I1061J1200D01*
G03Y-88200I-265J300D01*
G02X-98189I1061J1200D01*
G03Y-88800I265J-300D01*
G02Y-91200I-1061J-1200D01*
G03Y-91800I265J-300D01*
G02X-98464Y-94396I-1061J-1200D01*
G03X-98460Y-95095I196J-348D01*
G02X-97938Y-95553I-770J-1405D01*
G03X-97292I323J236D01*
G02X-94600Y-95722I1292J-947D01*
G03X-93900I350J194D01*
G02X-91100I1400J-778D01*
G03X-90400I350J194D01*
G02Y-97278I1400J-778D01*
G03X-91100I-350J-194D01*
G02X-93900I-1400J778D01*
G03X-94600I-350J-194D01*
G02X-97292Y-97447I-1400J778D01*
G03X-97938I-323J-236D01*
G02X-98460Y-97905I-1292J947D01*
G03X-98464Y-98604I192J-351D01*
G02X-98189Y-101200I-786J-1396D01*
G03Y-101800I265J-300D01*
G02Y-104200I-1061J-1200D01*
G03Y-104800I265J-300D01*
G37*
G54D20*
X-89000Y-101500D03*
Y-106000D03*
X-94000D03*
X-104500D03*
X-113500Y-86500D03*
Y-91500D03*
X-110260Y-66160D03*
X-104630Y-58150D03*
X-121500Y-62500D03*
X-110260Y-60160D03*
X-93700Y-116400D03*
Y-111400D03*
X-81700D03*
X-87700D03*
X-81700Y-116400D03*
X-55000Y-62000D03*
X-60000D03*
X-84350Y-26350D03*
X-89500Y-74500D03*
X-98630Y-58150D03*
X-85344Y-74676D03*
X-52500Y-81500D03*
X-95600Y-38900D03*
Y-48700D03*
X-99800Y-41900D03*
X-95600Y-44500D03*
X-99700Y-35700D03*
X-105000Y-87000D03*
X-109500D03*
Y-91500D03*
X-89000D03*
Y-87000D03*
X-93500D03*
X-109500Y-106000D03*
Y-101500D03*
X-113500D03*
Y-106500D03*
X146772Y-32641D03*
X161240Y-53758D03*
X155408Y-59800D03*
X147928D03*
X161240Y-49290D03*
X156000Y-27500D03*
G54D25*
X-88291Y-49421D03*
G54D23*
X-77470Y-83788D03*
X-67470D03*
G54D21*
X-134500Y-81500D03*
X-113500D03*
X-130500Y-72000D03*
X-110000Y-74000D03*
X-111100Y-47200D03*
X-111200Y-43000D03*
X-111600Y-52000D03*
X-132346Y-67346D03*
X-104400Y-35500D03*
Y-30400D03*
X-132700Y-59200D03*
X-129000Y-52100D03*
X-68500Y-94000D03*
X-67400Y-143300D03*
X-72800Y-120900D03*
X-77700Y-143200D03*
X-67900Y-132800D03*
X-76900D03*
X-67500Y-115900D03*
Y-120900D03*
X-94970Y-30240D03*
X-52900Y-36940D03*
X-50580Y-56950D03*
X-55470Y-52090D03*
X-62200Y-52240D03*
X-64200Y-68800D03*
X-63100Y-58500D03*
X-64200Y-73500D03*
X-61990Y-36990D03*
X-121500Y-4000D03*
X-119100Y600D03*
X-86000Y6000D03*
X167000Y-30000D03*
X150700Y-51500D03*
X159500Y-38500D03*
X147000Y-37559D03*
X167000Y-24000D03*
X143400Y-41500D03*
X163000Y-45500D03*
X163300Y-58600D03*
G54D24*
X-72500Y-127744D03*
G54D22*
X-98960Y-20799D03*
Y-68201D03*
%LPD*%
G75*
G54D10*
X-131000Y-117000D03*
X-125000Y-111500D03*
X-131500Y-112000D03*
X-103000Y-121500D03*
X-102600Y-115200D03*
X-124500Y-117000D03*
X-90600Y-126800D03*
Y-131300D03*
X-84600Y-143300D03*
Y-137300D03*
Y-126800D03*
Y-131300D03*
X-90600Y-143300D03*
X-80900Y4400D03*
X-78129Y2871D03*
X-80900Y650D03*
X-84582Y-7112D03*
X-119700Y-21000D03*
X-127700Y-32500D03*
X-124700Y-26500D03*
X-114700Y-15500D03*
Y-21000D03*
X-124700D03*
X-129700D03*
X-119700Y-26500D03*
X-134700D03*
X-116900Y-42300D03*
X-121100Y-46300D03*
X-109700Y-15500D03*
Y-26500D03*
Y-21000D03*
X-114700Y-26500D03*
X-127700Y-38500D03*
X-134700Y-21000D03*
X-117100Y-34600D03*
X-124700Y-15500D03*
X-129700D03*
X-119700D03*
X-121700Y-38500D03*
X-134700Y-15500D03*
X-121700Y-32500D03*
X-129700Y-26500D03*
X-31500Y-104600D03*
X-15000Y-104700D03*
X18000Y-90500D03*
X12500D03*
X7000D03*
X1500D03*
X-15000D03*
X-26000Y-93500D03*
X-20500D03*
X-15000D03*
X-9500D03*
X-4000D03*
X23500D03*
X29000D03*
X-42500D03*
X-37000D03*
X-31500D03*
X29000Y-79000D03*
X23500D03*
X-9500Y-104500D03*
X29000D03*
X18000Y-79000D03*
X13000D03*
X6666Y-78500D03*
X-42500Y-90500D03*
X29500Y-71500D03*
Y-66000D03*
Y-60500D03*
X-42500Y-104500D03*
X-34200Y-79160D03*
X1500Y-79000D03*
X-67583Y-6082D03*
X-34500Y-18000D03*
X6000Y-4000D03*
X2559Y8059D03*
X16122Y2941D03*
X29400Y-47300D03*
X28500Y-53000D03*
X29500Y-44000D03*
Y-33000D03*
Y-27500D03*
Y-16500D03*
Y-11000D03*
Y-5500D03*
X9500Y2941D03*
X24500Y-500D03*
X-75000Y19000D03*
X55500Y-71500D03*
Y-66000D03*
X61000Y-59000D03*
X64400Y-63800D03*
X107300Y-99200D03*
X52300Y-90800D03*
X153000Y5500D03*
Y2000D03*
X156100Y28600D03*
X55500Y-44000D03*
Y-27500D03*
X62000Y-16500D03*
X119941Y-3559D03*
X55500Y-22000D03*
X67500Y-45500D03*
X62450Y-5500D03*
Y-11000D03*
X47183Y8059D03*
X55500Y-38500D03*
Y-33000D03*
X137900Y-41300D03*
X125441Y-31441D03*
Y-25941D03*
Y-14941D03*
X151668Y-42832D03*
X160500Y-75000D03*
X166000Y-75500D03*
X160000Y-67500D03*
X165000Y-68000D03*
X172500Y-68600D03*
X168500Y-71800D03*
X161000Y15700D03*
Y-17000D03*
G54D11*
X-132000Y8500D03*
Y-1500D03*
G54D12*
X-22500Y-137744D03*
Y-127744D03*
X7500D03*
X17500Y-137744D03*
X27500D03*
Y-127744D03*
X37500D03*
X-42500Y-137744D03*
Y-127744D03*
X-32500Y-137744D03*
X27500Y36256D03*
Y26256D03*
X-2500Y36256D03*
X7500Y26256D03*
X-22500Y36256D03*
X-32500Y26256D03*
X-42500Y36256D03*
X77500Y-127744D03*
X107500Y-137744D03*
X117500Y36256D03*
Y26256D03*
X107500Y36256D03*
X97500D03*
Y26256D03*
X77500Y36256D03*
Y26256D03*
X57500D03*
Y36256D03*
X47500D03*
G54D13*
X9169Y-25825D03*
X-279Y-32123D03*
X6020Y-28974D03*
X2871Y-28973D03*
X-280Y-28974D03*
X-3428Y-32123D03*
X-19900Y-20900D03*
X-16026Y-32123D03*
X-16027Y-25824D03*
X-16025Y-44729D03*
X-16027Y-47871D03*
X-12877Y-44722D03*
Y-47871D03*
X-3429Y-54171D03*
X-279Y-51021D03*
X-3429Y-47871D03*
X2872Y-47875D03*
X6021Y-51021D03*
X6020Y-54171D03*
Y-47871D03*
X9169Y-54171D03*
X-3429Y-44722D03*
Y-35274D03*
X13000Y-51000D03*
X-275Y-44725D03*
X-280Y-47871D03*
X2871Y-44722D03*
X-3422Y-41576D03*
X2871Y-38422D03*
X9169Y-44722D03*
Y-38423D03*
X2871Y-35273D03*
X-278Y-35274D03*
X9169D03*
X-3429Y-38423D03*
X-9728Y-35274D03*
X-6570Y-35281D03*
X-9727Y-51021D03*
X-12877Y-54171D03*
G54D14*
X110152Y-67396D03*
X105152Y-62396D03*
X110152D03*
X86360D03*
X91360D03*
X86360Y-67396D03*
Y-72396D03*
X110152D03*
X105152D03*
Y-67396D03*
X91360D03*
Y-72396D03*
X105152Y1396D03*
X91360D03*
X86360D03*
X110152D03*
X86360Y6396D03*
G54D15*
G01X-84582Y-7112D02*
Y-12258D01*
X-78540Y-18300D01*
X-69500D01*
X-58800Y-29000D01*
X-45100D01*
X-32300Y-41800D01*
X-23750D01*
X-22400Y-43150D01*
X-20700D01*
G54D16*
G01X105152Y1396D02*
X101000Y-2756D01*
Y-58244D01*
X105152Y-62396D01*
G54D17*
G01X-125400Y-243244D02*
G03I-12600J0D01*
G01X-138000D02*
Y-258204D01*
G01X-130520Y-243244D02*
G03I-7480J0D01*
G01X-135640D02*
G03I-2360J0D01*
G01X-138000D02*
X-152960D01*
G01X-138000D02*
Y-228284D01*
G01Y-243244D02*
X-123040D01*
G01X-115127Y53260D02*
X-114847Y52933D01*
X-114473Y52747D01*
X-114053Y52700D01*
X-113680Y52747D01*
X-113307Y52980D01*
X-113073Y53260D01*
X-113027Y53540D01*
X-113120Y53867D01*
X-113447Y54100D01*
X-113773Y54193D01*
X-114193D01*
G01X-113773D02*
X-113493Y54333D01*
X-113260Y54567D01*
X-113167Y54847D01*
X-113260Y55127D01*
X-113493Y55360D01*
X-113913Y55500D01*
X-114333Y55453D01*
X-114753Y55267D01*
G01X-20700Y-43150D02*
X-17604D01*
X-16025Y-44729D01*
G01X-3429Y-38423D02*
X-6423D01*
X-8022Y-40022D01*
X-26300D01*
X-38872Y-27450D01*
X-57250D01*
X-65633Y-19067D01*
Y-5274D01*
X-79502Y8595D01*
Y39928D01*
X-74430Y45000D01*
X128936D01*
X162000Y11936D01*
Y2000D01*
X153000Y-7000D01*
X142500D01*
X131000Y-18500D01*
Y-25882D01*
X125441Y-31441D01*
G01X-128400Y95256D02*
G03I-12600J0D01*
G01X-133520D02*
G03I-7480J0D01*
G01X-138640D02*
G03I-2360J0D01*
G01X-141000D02*
X-155960D01*
G01X-141000D02*
Y80296D01*
G01Y95256D02*
Y110216D01*
G01Y95256D02*
X-126040D01*
G01X107500Y-137744D02*
Y-141500D01*
X103000Y-146000D01*
X-44122D01*
X-48000Y-142122D01*
Y-135450D01*
X-45320Y-132770D01*
X-40940D01*
X-38360Y-130190D01*
Y-125420D01*
X-45790Y-117990D01*
Y-104490D01*
X-41300Y-100000D01*
X-23360D01*
X-17560Y-94200D01*
Y-93060D01*
X-15000Y-90500D01*
G01X29000Y-93500D02*
X31350Y-91150D01*
Y-89109D01*
X31400Y-89059D01*
Y-76390D01*
X17820Y-62810D01*
Y-55820D01*
X13000Y-51000D01*
G01X-42500Y-137744D02*
X-36074Y-144170D01*
X18750D01*
X22825Y-140095D01*
Y-134895D01*
X24850Y-132870D01*
X29300D01*
X32680Y-129490D01*
Y-108180D01*
X29000Y-104500D01*
G01X6666Y-78500D02*
X5287Y-77121D01*
X5121D01*
X950Y-72950D01*
Y-58671D01*
X1271Y-58350D01*
Y-46329D01*
X1300Y-46300D01*
X-275Y-44725D01*
G01X-32500Y-137744D02*
X-28444D01*
X-26900Y-136200D01*
Y-123800D01*
X-28670Y-122030D01*
X-35360D01*
X-38550Y-118840D01*
Y-106355D01*
X-34310Y-102115D01*
X-22385D01*
X-16820Y-96550D01*
X-2760D01*
X-1070Y-94860D01*
Y-89420D01*
X-140Y-88490D01*
X4990D01*
X7000Y-90500D01*
G01X-22500Y-137744D02*
X-17500Y-132744D01*
Y-122000D01*
X-9500Y-114000D01*
Y-104500D01*
G01X-280Y-47871D02*
X-1880Y-49471D01*
X-4071D01*
X-5025Y-50425D01*
Y-57925D01*
X-7530Y-60430D01*
Y-91530D01*
X-9500Y-93500D01*
G01X77500Y-127744D02*
X73550Y-123794D01*
X43634D01*
X42750Y-122910D01*
Y-121730D01*
X43580Y-120900D01*
X54140D01*
X54930Y-120110D01*
Y-119130D01*
X54030Y-118230D01*
X43600D01*
X42840Y-117470D01*
Y-116510D01*
X43450Y-115900D01*
X50220D01*
X50920Y-115200D01*
Y-114230D01*
X50290Y-113600D01*
X43450D01*
X42690Y-112840D01*
Y-111920D01*
X43390Y-111220D01*
X48610D01*
X49480Y-110350D01*
Y-106180D01*
X42950Y-99650D01*
X40860D01*
X40050Y-100460D01*
Y-104490D01*
X39190Y-105350D01*
X37970D01*
X37100Y-104480D01*
Y-97860D01*
X45750Y-89210D01*
Y-88100D01*
X44755Y-87105D01*
X43365D01*
X30270Y-100200D01*
X26095D01*
X25595Y-99700D01*
Y-97640D01*
X25095Y-97140D01*
X24095D01*
X23595Y-97640D01*
Y-99700D01*
X23095Y-100200D01*
X22095D01*
X21595Y-99700D01*
Y-97640D01*
X21095Y-97140D01*
X20095D01*
X19595Y-97640D01*
Y-99700D01*
X19095Y-100200D01*
X16480D01*
X15120Y-98840D01*
Y-91530D01*
X16150Y-90500D01*
X18000D01*
G01X37500Y-127744D02*
X40630Y-124614D01*
Y-107940D01*
X39800Y-107110D01*
X38320D01*
X37500Y-107930D01*
Y-121500D01*
X36570Y-122430D01*
X35540D01*
X34750Y-121640D01*
Y-104870D01*
X31960Y-102080D01*
X26460D01*
X24980Y-103560D01*
X5820D01*
X5020Y-102760D01*
Y-101350D01*
X5990Y-100380D01*
X12030D01*
X12810Y-99600D01*
Y-98650D01*
X11960Y-97800D01*
X8740D01*
X8010Y-97070D01*
Y-95890D01*
X9610Y-94290D01*
Y-91660D01*
X10770Y-90500D01*
X12500D01*
G01X27500Y-127744D02*
Y-123990D01*
X26600Y-123090D01*
X11430D01*
X10570Y-122230D01*
Y-121260D01*
X11340Y-120490D01*
X22820D01*
X23290Y-120020D01*
Y-119020D01*
X22760Y-118490D01*
X11070D01*
X10570Y-117990D01*
Y-116990D01*
X11070Y-116490D01*
X22820D01*
X23290Y-116020D01*
Y-115020D01*
X22760Y-114490D01*
X11070D01*
X10570Y-113990D01*
Y-112990D01*
X11070Y-112490D01*
X22820D01*
X23290Y-112020D01*
Y-111020D01*
X22760Y-110490D01*
X11070D01*
X10570Y-109990D01*
Y-108990D01*
X11070Y-108490D01*
X25810D01*
X26310Y-107990D01*
Y-105850D01*
X25540Y-105080D01*
X980D01*
X-4220Y-99880D01*
X-12150D01*
X-15000Y-102730D01*
Y-104700D01*
G01X7500Y-127744D02*
X7650Y-127594D01*
Y-108110D01*
X6310Y-106770D01*
X-3880D01*
X-4620Y-107510D01*
Y-108600D01*
X-3580Y-109640D01*
X1860D01*
X2620Y-110400D01*
Y-111690D01*
X1830Y-112480D01*
X-3530D01*
X-4620Y-113570D01*
Y-119390D01*
X-3410Y-120600D01*
X1100D01*
X1800Y-119900D01*
Y-115280D01*
X2800Y-114280D01*
X4470D01*
X5460Y-115270D01*
Y-121830D01*
X4400Y-122890D01*
X-5170D01*
X-6700Y-121360D01*
Y-103160D01*
X-7980Y-101880D01*
X-10820D01*
X-12190Y-103250D01*
Y-105770D01*
X-13660Y-107240D01*
X-16510D01*
X-17850Y-105900D01*
Y-101260D01*
X-14860Y-98270D01*
X2950D01*
X4590Y-96630D01*
Y-92320D01*
X2770Y-90500D01*
X1500D01*
G01X-22500Y-127744D02*
X-20240Y-125484D01*
Y-107880D01*
X-21090Y-107030D01*
X-29930D01*
X-30430Y-107530D01*
Y-108530D01*
X-29930Y-109030D01*
X-26390D01*
X-25890Y-109530D01*
Y-110530D01*
X-26390Y-111030D01*
X-29930D01*
X-30430Y-111530D01*
Y-112530D01*
X-29930Y-113030D01*
X-26390D01*
X-25890Y-113530D01*
Y-114530D01*
X-26390Y-115030D01*
X-29930D01*
X-30430Y-115530D01*
Y-116530D01*
X-29930Y-117030D01*
X-26390D01*
X-25890Y-117530D01*
Y-119230D01*
X-26980Y-120320D01*
X-34720D01*
X-36580Y-118460D01*
Y-107300D01*
X-33880Y-104600D01*
X-31500D01*
G01X-42500Y-127744D02*
X-47256Y-132500D01*
X-56000D01*
X-57500Y-131000D01*
Y-124000D01*
X-48872Y-115372D01*
Y-98372D01*
X-47000Y-96500D01*
X-42000D01*
X-40000Y-98500D01*
X-24500D01*
X-24000Y-98000D01*
Y-96500D01*
X-24500Y-96000D01*
X-39090D01*
X-40090Y-95000D01*
Y-92910D01*
X-42500Y-90500D01*
G01X119941Y-3559D02*
X120059D01*
X121000Y-4500D01*
Y-33500D01*
X125500Y-38000D01*
X131000D01*
X138000Y-45000D01*
Y-116000D01*
X120500Y-133500D01*
X31744D01*
X27500Y-137744D01*
G01X17500D02*
X13044Y-142200D01*
X-34980D01*
X-36870Y-140310D01*
Y-123010D01*
X-40365Y-119515D01*
Y-106635D01*
X-42500Y-104500D01*
G01X-12877Y-44722D02*
X-14455Y-46300D01*
X-22400D01*
X-32200Y-56100D01*
Y-71700D01*
X-41500Y-81000D01*
Y-83100D01*
X-45110Y-86710D01*
Y-90890D01*
X-42500Y-93500D01*
G01X-20500D02*
X-18000Y-91000D01*
Y-74250D01*
X-11327Y-67577D01*
Y-52621D01*
X-9727Y-51021D01*
G01X-34200Y-79160D02*
Y-78700D01*
X-20727Y-65227D01*
Y-53528D01*
X-19820Y-52621D01*
X-18584D01*
X-17627Y-51664D01*
Y-50427D01*
X-16671Y-49471D01*
X-14477D01*
X-12877Y-47871D01*
G01X-16027D02*
X-16984D01*
X-18584Y-49471D01*
X-20371D01*
X-22400Y-51500D01*
Y-55200D01*
X-24200Y-57000D01*
Y-66200D01*
X-39200Y-81200D01*
Y-91300D01*
X-37000Y-93500D01*
G01X-26000D02*
X-23590Y-91090D01*
Y-77550D01*
X-14477Y-68437D01*
Y-55771D01*
X-12877Y-54171D01*
G01X18000Y-79000D02*
Y-76000D01*
X7619Y-65619D01*
Y-56619D01*
X6020Y-55020D01*
Y-54171D01*
G01X1500Y-79000D02*
X-1879Y-75621D01*
Y-52621D01*
X-279Y-51021D01*
G01X13000Y-79000D02*
X10000D01*
X4470Y-73470D01*
Y-49473D01*
X2872Y-47875D01*
G01X2871Y-44722D02*
X4293Y-43300D01*
X6800D01*
X7600Y-44100D01*
Y-48495D01*
X8555Y-49450D01*
X16950D01*
X19390Y-51890D01*
Y-61390D01*
X29500Y-71500D01*
G01X2871Y-38422D02*
Y-38471D01*
X4400Y-40000D01*
X8010D01*
X13010Y-45000D01*
X19680D01*
X24200Y-49520D01*
Y-55200D01*
X29500Y-60500D01*
G01Y-66000D02*
X37900D01*
X38500Y-65400D01*
Y-63500D01*
X37650Y-62650D01*
X35087D01*
X34587Y-62150D01*
Y-55500D01*
X34087Y-55000D01*
X33087D01*
X32587Y-55500D01*
Y-62150D01*
X32087Y-62650D01*
X23450D01*
X22050Y-61250D01*
Y-49950D01*
X19200Y-47100D01*
X11547D01*
X9169Y-44722D01*
G01X23500Y-93500D02*
X25750Y-91250D01*
Y-89153D01*
X26000Y-88903D01*
Y-77730D01*
X14190Y-65920D01*
Y-56997D01*
X12914Y-55721D01*
X11677D01*
X10127Y-54171D01*
X9169D01*
G01X-3429Y-44722D02*
X-5028Y-46321D01*
X-10371D01*
X-11278Y-47228D01*
Y-50379D01*
X-13520Y-52621D01*
X-16670D01*
X-17627Y-53578D01*
Y-65127D01*
X-28500Y-76000D01*
Y-90500D01*
X-31500Y-93500D01*
G01X23500Y-79000D02*
X10719Y-66219D01*
Y-56677D01*
X9812Y-55770D01*
X8526D01*
X7570Y-54814D01*
Y-53528D01*
X6021Y-51979D01*
Y-51021D01*
G01X-3429Y-47871D02*
X-6521D01*
X-8177Y-49527D01*
Y-51664D01*
X-8178Y-51665D01*
Y-57963D01*
X-9340Y-59125D01*
Y-69060D01*
X-12490Y-72210D01*
X-12500D01*
Y-91000D01*
X-15000Y-93500D01*
G01X6020Y-47871D02*
Y-48827D01*
X7620Y-50427D01*
Y-51664D01*
X8577Y-52621D01*
X12963D01*
X16190Y-55848D01*
Y-63560D01*
X29000Y-76370D01*
Y-79000D01*
G01X-3429Y-54171D02*
Y-63329D01*
X-5950Y-65850D01*
Y-91550D01*
X-4000Y-93500D01*
G01X-32500Y26256D02*
Y16080D01*
X-31010Y14590D01*
X-6420D01*
X-2110Y10280D01*
X17220D01*
X32910Y-5410D01*
Y-51760D01*
X39560Y-58410D01*
X45870D01*
X47910Y-60450D01*
Y-69180D01*
X49090Y-70360D01*
X52600D01*
X53550Y-69410D01*
Y-66530D01*
X54080Y-66000D01*
X55500D01*
G01X7500Y26256D02*
Y30000D01*
X6370Y31130D01*
X3040D01*
X1910Y30000D01*
Y23050D01*
X-860Y20280D01*
Y17300D01*
X695Y15745D01*
X20755D01*
X37410Y-910D01*
Y-45430D01*
X38940Y-46960D01*
X45040D01*
X46670Y-45330D01*
Y-34060D01*
X47470Y-33260D01*
X49590D01*
X50330Y-34000D01*
Y-38250D01*
X50930Y-38850D01*
X52170D01*
X55110Y-35910D01*
X56600D01*
X57870Y-37180D01*
Y-40550D01*
X58370Y-41050D01*
X60020D01*
X60580Y-40490D01*
Y-36980D01*
X56600Y-33000D01*
X55500D01*
G01X27500Y26256D02*
X23076Y30680D01*
X14700D01*
X12400Y28380D01*
Y24160D01*
X9360Y21120D01*
Y19150D01*
X10950Y17560D01*
X21490D01*
X38910Y140D01*
Y-29170D01*
X40240Y-30500D01*
X56600D01*
X62090Y-35990D01*
Y-41510D01*
X54210Y-49390D01*
Y-60710D01*
X57580Y-64080D01*
Y-69420D01*
X55500Y-71500D01*
G01X27500Y36256D02*
Y36130D01*
X32410Y31220D01*
Y23230D01*
X31260Y22080D01*
X13420D01*
X12520Y21180D01*
Y19960D01*
X13260Y19220D01*
X29190D01*
X29930Y18480D01*
Y11440D01*
X30700Y10670D01*
X31500D01*
X32350Y11520D01*
Y20620D01*
X32940Y21210D01*
X33970D01*
X34650Y20530D01*
Y6790D01*
X35410Y6030D01*
X36360D01*
X37150Y6820D01*
Y20670D01*
X38040Y21560D01*
X39050D01*
X40610Y20000D01*
Y-2532D01*
X40620Y-2542D01*
Y-7550D01*
X42050Y-8980D01*
X45040D01*
X46210Y-10150D01*
Y-27060D01*
X48040Y-28890D01*
X54110D01*
X55500Y-27500D01*
G01X-2500Y36256D02*
X-1660Y35416D01*
Y32610D01*
X-2930Y31340D01*
X-16480D01*
X-17350Y30470D01*
Y23160D01*
X-18400Y22110D01*
X-24580D01*
X-25570Y21120D01*
Y19190D01*
X-24810Y18430D01*
X-4550D01*
X-165Y14045D01*
X19955D01*
X35910Y-1910D01*
Y-49300D01*
X38240Y-51630D01*
X47140D01*
X49580Y-49190D01*
Y-43970D01*
X55050Y-38500D01*
X55500D01*
G01X-22500Y36256D02*
X-26694D01*
X-28370Y34580D01*
Y18570D01*
X-26400Y16600D01*
X-5760D01*
X-1095Y11935D01*
X19065D01*
X34410Y-3410D01*
Y-50400D01*
X41000Y-56990D01*
X47050D01*
X49670Y-59610D01*
X51550D01*
X52560Y-58600D01*
Y-44800D01*
X53360Y-44000D01*
X55500D01*
G01X2559Y8059D02*
X-2259D01*
X-7100Y12900D01*
X-11737D01*
X-12237Y12400D01*
Y8600D01*
X-12737Y8100D01*
X-13737D01*
X-14237Y8600D01*
Y12400D01*
X-14737Y12900D01*
X-22446D01*
X-22946Y12400D01*
Y9900D01*
X-23446Y9400D01*
X-24446D01*
X-24946Y9900D01*
Y12400D01*
X-25446Y12900D01*
X-28086D01*
X-28586Y12400D01*
Y5700D01*
X-29086Y5200D01*
X-30086D01*
X-30586Y5700D01*
Y12400D01*
X-31086Y12900D01*
X-35600D01*
X-37040Y14340D01*
Y17790D01*
X-37850Y18600D01*
X-64700D01*
X-65400Y19300D01*
Y20800D01*
X-64600Y21600D01*
X-39600D01*
X-37500Y23700D01*
Y34720D01*
X-39036Y36256D01*
X-42500D01*
G01X9169Y-35274D02*
X11370D01*
X12890Y-36794D01*
X16114D01*
X26620Y-47300D01*
X29400D01*
G01X-278Y-35274D02*
X1310Y-33686D01*
Y-25060D01*
X2146Y-24224D01*
X3514D01*
X4421Y-23317D01*
Y-21728D01*
X4450Y-21699D01*
Y-21610D01*
X15060Y-11000D01*
X29500D01*
G01Y-44000D02*
X20739Y-35239D01*
X15788D01*
X14222Y-33673D01*
X4471D01*
X2871Y-35273D01*
G01X-34500Y-18000D02*
X-35879Y-19379D01*
Y-21121D01*
X-27000Y-30000D01*
X-21500D01*
X-19377Y-32123D01*
X-16026D01*
G01X-75000Y19000D02*
X-70500Y14500D01*
Y5500D01*
X-61500Y-3500D01*
Y-6500D01*
X-49000Y-19000D01*
X-41500D01*
X-29000Y-31500D01*
X-23100D01*
X-20927Y-33673D01*
X-11329D01*
X-9728Y-35274D01*
G01X-16027Y-25824D02*
X-16851Y-25000D01*
X-20000D01*
X-22200Y-27200D01*
X-24300D01*
X-31000Y-20500D01*
Y-11501D01*
X-40001Y-2500D01*
X-59258D01*
X-69000Y7242D01*
Y17169D01*
X-76450Y24619D01*
Y38050D01*
X-72500Y42000D01*
X128258D01*
X159014Y11244D01*
Y2692D01*
X152722Y-3600D01*
X141900D01*
X130559Y-14941D01*
X125441D01*
G01Y-25941D02*
X128000Y-23382D01*
Y-19500D01*
X142000Y-5500D01*
X152661D01*
X160314Y2153D01*
Y11783D01*
X128797Y43300D01*
X-73699D01*
X-77750Y39249D01*
Y8682D01*
X-64333Y-4735D01*
Y-17467D01*
X-61500Y-20300D01*
X-42200D01*
X-29500Y-33000D01*
X-23900D01*
X-20028Y-36872D01*
X-15384D01*
X-15383Y-36873D01*
X-8162D01*
X-6570Y-35281D01*
G01X137900Y-41300D02*
Y-39900D01*
X133000Y-35000D01*
X125500D01*
X123491Y-32991D01*
Y-30633D01*
X123500Y-30624D01*
Y-26758D01*
X123491Y-26749D01*
Y-25133D01*
X123500Y-25124D01*
Y-21258D01*
X123491Y-21249D01*
Y-19633D01*
X123500Y-19624D01*
Y-15758D01*
X123491Y-15749D01*
Y-14133D01*
X135324Y-2300D01*
X152000D01*
X156250Y1950D01*
Y8492D01*
X155050Y9692D01*
Y13128D01*
X127561Y40617D01*
X-65583D01*
X-67700Y38500D01*
Y18200D01*
X-63700Y14200D01*
X-40172D01*
X-36000Y10028D01*
Y9000D01*
X-18500Y-8500D01*
Y-19500D01*
X-19900Y-20900D01*
G01X9500Y2941D02*
X8251Y4190D01*
X560D01*
X-5850Y-2220D01*
Y-11080D01*
X-11270Y-16500D01*
Y-23314D01*
X-12231Y-24275D01*
X-13520D01*
X-14427Y-25182D01*
Y-29617D01*
X-13471Y-30573D01*
X-12177D01*
X-9030Y-33720D01*
X-5636D01*
X-4979Y-34377D01*
Y-35966D01*
X-4072Y-36873D01*
X-2786D01*
X-1879Y-37780D01*
Y-40033D01*
X-3422Y-41576D01*
G01X16122Y2941D02*
X13801Y620D01*
X230D01*
X-3940Y-3550D01*
Y-13060D01*
X-7850Y-16970D01*
Y-21450D01*
X-11327Y-24927D01*
Y-29568D01*
X-8275Y-32620D01*
X-5180D01*
X-3429Y-34371D01*
Y-35274D01*
G01X29500Y-27500D02*
X27090Y-25090D01*
X9904D01*
X9169Y-25825D01*
G01X-280Y-28974D02*
X-1850Y-27404D01*
Y-24330D01*
X350Y-22130D01*
Y-21401D01*
X1901Y-19850D01*
X2630D01*
X16900Y-5580D01*
X29420D01*
X29500Y-5500D01*
G01Y-16500D02*
X11945D01*
X7590Y-20855D01*
Y-23640D01*
X6960Y-24270D01*
X5360D01*
X4470Y-25160D01*
Y-27374D01*
X2871Y-28973D01*
G01X29500Y-33000D02*
X27150Y-30650D01*
X16816D01*
X16696Y-30530D01*
X7576D01*
X6020Y-28974D01*
G01X9169Y-38423D02*
X15323D01*
X25875Y-48975D01*
Y-50375D01*
X28500Y-53000D01*
G01X-3428Y-32123D02*
X-4021D01*
X-4471Y-31673D01*
X-4483D01*
X-7669Y-28487D01*
Y-28475D01*
X-8372Y-27772D01*
Y-23700D01*
X-6350Y-21678D01*
Y-17850D01*
X-2580Y-14080D01*
Y-4520D01*
X810Y-1130D01*
X23870D01*
X24500Y-500D01*
G01X6000Y-4000D02*
X11681D01*
X12500Y-4819D01*
Y-8083D01*
X11881Y-8702D01*
X100D01*
X-400Y-9202D01*
Y-9910D01*
X100Y-10410D01*
X5500D01*
X6000Y-10910D01*
Y-14200D01*
X3405Y-16795D01*
X-2205D01*
X-5020Y-19610D01*
Y-29580D01*
X-4027Y-30573D01*
X-1829D01*
X-279Y-32123D01*
G01X97500Y26256D02*
X100250Y23506D01*
Y10740D01*
X98480Y8970D01*
X81390D01*
X79340Y6920D01*
Y-48790D01*
X64400Y-63730D01*
Y-63800D01*
G01X57500Y26256D02*
X60764D01*
X65930Y21090D01*
Y17230D01*
X55800Y7100D01*
Y-18800D01*
X58115Y-21115D01*
Y-29795D01*
X63950Y-35630D01*
Y-60470D01*
X61995Y-62425D01*
Y-75995D01*
X59250Y-78740D01*
Y-90500D01*
X58750Y-91000D01*
X56490D01*
X55990Y-90500D01*
Y-77640D01*
X59180Y-74450D01*
Y-60820D01*
X61000Y-59000D01*
G01X153000Y5500D02*
X151500Y4000D01*
X121500D01*
X116000Y-1500D01*
X114500D01*
X112500Y-3500D01*
Y-30122D01*
X119479Y-37101D01*
Y-46979D01*
X126439Y-53939D01*
Y-75317D01*
X124439Y-77317D01*
Y-101461D01*
X120400Y-105500D01*
X109000D01*
X107000Y-103500D01*
Y-99500D01*
X107300Y-99200D01*
G01X153000Y2000D02*
X150000Y-1000D01*
X119000D01*
X117500Y-2500D01*
Y-28742D01*
X116500Y-29742D01*
Y-32000D01*
X120979Y-36479D01*
Y-41020D01*
X127939Y-47980D01*
Y-75939D01*
X125939Y-77939D01*
Y-120121D01*
X124060Y-122000D01*
X63890D01*
X51000Y-109110D01*
Y-92100D01*
X52300Y-90800D01*
G01X67500Y-45500D02*
X66121Y-46879D01*
Y-55861D01*
X66780Y-56520D01*
X69420D01*
X77495Y-48445D01*
Y-29565D01*
X76730Y-28800D01*
X75440D01*
X74620Y-29620D01*
Y-48050D01*
X73680Y-48990D01*
X72380D01*
X71440Y-48050D01*
Y-10950D01*
X69965Y-9475D01*
X66765D01*
X62830Y-13410D01*
X61090D01*
X59710Y-12030D01*
Y4710D01*
X77500Y22500D01*
Y26256D01*
G01X117500D02*
X138244D01*
X152450Y12050D01*
Y8614D01*
X153000Y8064D01*
Y5500D01*
G01X117500Y36256D02*
X130083D01*
X153750Y12589D01*
Y9153D01*
X154950Y7953D01*
Y3950D01*
X153000Y2000D01*
G01X107500Y36256D02*
X113090Y30666D01*
Y5820D01*
X111660Y4390D01*
X103920D01*
X102600Y5710D01*
Y29900D01*
X101244Y31256D01*
X95326D01*
X92500Y28430D01*
Y23320D01*
X94060Y21760D01*
X96940D01*
X98170Y20530D01*
Y15700D01*
X97090Y14620D01*
X81280D01*
X77090Y10430D01*
Y1590D01*
X68830Y-6670D01*
X66780D01*
X62450Y-11000D01*
G01X97500Y36256D02*
X92244Y31000D01*
X84500D01*
X82000Y28500D01*
Y23500D01*
X72140Y13640D01*
Y12680D01*
X72735Y12085D01*
X73645D01*
X81620Y20060D01*
X92040D01*
X93010Y19090D01*
Y17630D01*
X92220Y16840D01*
X81090D01*
X73270Y9020D01*
Y2040D01*
X72470Y1240D01*
X71480D01*
X70800Y1920D01*
Y9590D01*
X70025Y10365D01*
X68865D01*
X67960Y9460D01*
Y-2680D01*
X67125Y-3515D01*
X65975D01*
X65280Y-2820D01*
Y3980D01*
X64450Y4810D01*
X63310D01*
X62450Y3950D01*
Y-5500D01*
G01X77500Y36256D02*
X73726D01*
X72244Y34774D01*
Y20844D01*
X57810Y6410D01*
Y-17240D01*
X60000Y-19430D01*
Y-29330D01*
X60890Y-30220D01*
X62100D01*
X63070Y-29250D01*
Y-19860D01*
X63970Y-18960D01*
X65510D01*
X66430Y-19880D01*
Y-41730D01*
X67560Y-42860D01*
X68820D01*
X69850Y-41830D01*
Y-13060D01*
X68535Y-11745D01*
X66755D01*
X62000Y-16500D01*
G01X57500Y36256D02*
X61744D01*
X62790Y35210D01*
Y32130D01*
X61540Y30880D01*
X54830D01*
X52300Y28350D01*
Y24340D01*
X48390Y20430D01*
X44590D01*
X43940Y19780D01*
Y18680D01*
X44520Y18100D01*
X48540D01*
X53430Y22990D01*
X54340D01*
X54730Y22600D01*
Y21590D01*
X49530Y16390D01*
X44540D01*
X43830Y15680D01*
Y14150D01*
X44485Y13495D01*
X49315D01*
X57870Y22050D01*
X62670D01*
X64390Y20330D01*
Y18970D01*
X63390Y17970D01*
X62330D01*
X60795Y19505D01*
X58295D01*
X49840Y11050D01*
X45420D01*
X43830Y9460D01*
Y-430D01*
X45060Y-1660D01*
X47330D01*
X48720Y-270D01*
Y6522D01*
X47183Y8059D01*
G01X55500Y-22000D02*
Y-24130D01*
X54700Y-24930D01*
X53780D01*
X53070Y-24220D01*
Y7010D01*
X60515Y14455D01*
Y15885D01*
X59485Y16915D01*
X58135D01*
X50420Y9200D01*
Y-25580D01*
X49910Y-26090D01*
X48660D01*
X48090Y-25520D01*
Y-4880D01*
X46450Y-3240D01*
X43440D01*
X42110Y-1910D01*
Y34930D01*
X43436Y36256D01*
X47500D01*
G01X161000Y15700D02*
X159050Y17650D01*
X158950D01*
X156100Y20500D01*
Y28600D01*
G01X200600Y95256D02*
G03I-12600J0D01*
G01X188000D02*
Y80296D01*
G01X195480Y95256D02*
G03I-7480J0D01*
G01X190360D02*
G03I-2360J0D01*
G01X188000D02*
X173040D01*
G01X188000D02*
Y110216D01*
G01Y95256D02*
X202960D01*
G54D18*
G01X-107300Y51691D02*
X-103100D01*
Y56191D01*
X-107300D01*
Y51691D01*
G01X-111500D02*
X-107300D01*
Y56191D01*
X-111500D01*
Y51691D01*
G01X-115700D02*
X-111500D01*
Y56191D01*
X-115700D01*
Y51691D01*
G01X-119900D02*
X-115700D01*
Y56191D01*
X-119900D01*
Y51691D01*
G01X-124100D02*
X-119900D01*
Y56191D01*
X-124100D01*
Y51691D01*
G01X-94700Y51700D02*
X-90500D01*
Y56200D01*
X-94700D01*
Y51700D01*
G01X-98900D02*
X-94700D01*
Y56200D01*
X-98900D01*
Y51700D01*
G01X-103100Y51691D02*
X-98900D01*
Y56191D01*
X-103100D01*
Y51691D01*
G54D19*
G01X-205125Y-181834D02*
X-204250Y-180667D01*
X-203500Y-180000D01*
X-202500Y-179667D01*
X-201625Y-180000D01*
X-201000Y-180667D01*
X-200500Y-181667D01*
X-200375Y-182833D01*
X-200500Y-183833D01*
X-201000Y-184834D01*
X-201750Y-185667D01*
X-202625Y-186000D01*
X-203625Y-185667D01*
X-204500Y-184667D01*
X-205000Y-183167D01*
X-205125Y-181500D01*
X-204875Y-179334D01*
X-204500Y-178167D01*
X-203875Y-177000D01*
X-203000Y-176167D01*
X-202125Y-176000D01*
X-201250Y-176333D01*
X-200625Y-177167D01*
G01X-192750Y-176000D02*
X-193750Y-176333D01*
X-194500Y-177167D01*
X-195000Y-178167D01*
X-195375Y-179500D01*
X-195500Y-181000D01*
X-195375Y-182500D01*
X-195000Y-183833D01*
X-194500Y-184834D01*
X-193750Y-185667D01*
X-192750Y-186000D01*
X-191750Y-185667D01*
X-191000Y-184834D01*
X-190500Y-183833D01*
X-190125Y-182500D01*
X-190000Y-181000D01*
X-190125Y-179500D01*
X-190500Y-178167D01*
X-191000Y-177167D01*
X-191750Y-176333D01*
X-192750Y-176000D01*
G01X-182750D02*
X-183750Y-176333D01*
X-184500Y-177167D01*
X-185000Y-178167D01*
X-185375Y-179500D01*
X-185500Y-181000D01*
X-185375Y-182500D01*
X-185000Y-183833D01*
X-184500Y-184834D01*
X-183750Y-185667D01*
X-182750Y-186000D01*
X-181750Y-185667D01*
X-181000Y-184834D01*
X-180500Y-183833D01*
X-180125Y-182500D01*
X-180000Y-181000D01*
X-180125Y-179500D01*
X-180500Y-178167D01*
X-181000Y-177167D01*
X-181750Y-176333D01*
X-182750Y-176000D01*
G01X-174375Y-182667D02*
X-171125D01*
G01X-165125Y-181834D02*
X-164250Y-180667D01*
X-163500Y-180000D01*
X-162500Y-179667D01*
X-161625Y-180000D01*
X-161000Y-180667D01*
X-160500Y-181667D01*
X-160375Y-182833D01*
X-160500Y-183833D01*
X-161000Y-184834D01*
X-161750Y-185667D01*
X-162625Y-186000D01*
X-163625Y-185667D01*
X-164500Y-184667D01*
X-165000Y-183167D01*
X-165125Y-181500D01*
X-164875Y-179334D01*
X-164500Y-178167D01*
X-163875Y-177000D01*
X-163000Y-176167D01*
X-162125Y-176000D01*
X-161250Y-176333D01*
X-160625Y-177167D01*
G01X-152750Y-176000D02*
X-153750Y-176333D01*
X-154500Y-177167D01*
X-155000Y-178167D01*
X-155375Y-179500D01*
X-155500Y-181000D01*
X-155375Y-182500D01*
X-155000Y-183833D01*
X-154500Y-184834D01*
X-153750Y-185667D01*
X-152750Y-186000D01*
X-151750Y-185667D01*
X-151000Y-184834D01*
X-150500Y-183833D01*
X-150125Y-182500D01*
X-150000Y-181000D01*
X-150125Y-179500D01*
X-150500Y-178167D01*
X-151000Y-177167D01*
X-151750Y-176333D01*
X-152750Y-176000D01*
G01X-142750Y-186000D02*
Y-176000D01*
X-144250Y-178000D01*
G01Y-186000D02*
X-141250D01*
G01X-134875Y-184834D02*
X-134000Y-185667D01*
X-133000Y-186000D01*
X-132000Y-185667D01*
X-131125Y-184667D01*
X-130500Y-183167D01*
X-130250Y-181667D01*
Y-179833D01*
X-130500Y-178333D01*
X-131125Y-177000D01*
X-131875Y-176333D01*
X-132750Y-176000D01*
X-133750Y-176333D01*
X-134500Y-177000D01*
X-135000Y-178000D01*
X-135250Y-179334D01*
X-135000Y-180500D01*
X-134375Y-181667D01*
X-133625Y-182334D01*
X-132750Y-182500D01*
X-131750Y-182167D01*
X-131000Y-181333D01*
X-130250Y-179833D01*
G01X-122750Y-186000D02*
X-121875Y-185833D01*
X-120875Y-185333D01*
X-120250Y-184500D01*
X-120000Y-183333D01*
X-120250Y-182167D01*
X-121000Y-181167D01*
X-122125Y-180667D01*
X-123375D01*
X-124125Y-180333D01*
X-124750Y-179500D01*
X-125000Y-178333D01*
X-124625Y-177167D01*
X-123750Y-176333D01*
X-122750Y-176000D01*
X-121750Y-176333D01*
X-120875Y-177167D01*
X-120500Y-178333D01*
X-120750Y-179500D01*
X-121375Y-180333D01*
X-122125Y-180667D01*
X-123375D01*
X-124500Y-181167D01*
X-125250Y-182167D01*
X-125500Y-183333D01*
X-125250Y-184500D01*
X-124625Y-185333D01*
X-123625Y-185833D01*
X-122750Y-186000D01*
G01X-114375Y-182667D02*
X-111125D01*
G01X-102750Y-176000D02*
X-103750Y-176333D01*
X-104500Y-177167D01*
X-105000Y-178167D01*
X-105375Y-179500D01*
X-105500Y-181000D01*
X-105375Y-182500D01*
X-105000Y-183833D01*
X-104500Y-184834D01*
X-103750Y-185667D01*
X-102750Y-186000D01*
X-101750Y-185667D01*
X-101000Y-184834D01*
X-100500Y-183833D01*
X-100125Y-182500D01*
X-100000Y-181000D01*
X-100125Y-179500D01*
X-100500Y-178167D01*
X-101000Y-177167D01*
X-101750Y-176333D01*
X-102750Y-176000D01*
G01X-92750Y-186000D02*
Y-176000D01*
X-94250Y-178000D01*
G01Y-186000D02*
X-91250D01*
G01X-75375Y-184667D02*
X-74375Y-185500D01*
X-73250Y-186000D01*
X-72250D01*
X-71250Y-185500D01*
X-70500Y-184667D01*
X-70125Y-183500D01*
X-70375Y-182334D01*
X-71000Y-181333D01*
X-72125Y-180667D01*
X-73625Y-180333D01*
X-74500Y-179667D01*
X-74875Y-178500D01*
X-74625Y-177333D01*
X-74000Y-176500D01*
X-73125Y-176000D01*
X-72250D01*
X-71375Y-176333D01*
X-70625Y-177167D01*
G01X-65500Y-176000D02*
Y-183167D01*
X-65000Y-184667D01*
X-64000Y-185667D01*
X-62750Y-186000D01*
X-61500Y-185667D01*
X-60500Y-184667D01*
X-60000Y-183167D01*
Y-176000D01*
G01X-55250Y-186000D02*
Y-176000D01*
X-52250D01*
X-51250Y-176500D01*
X-50500Y-177667D01*
X-50250Y-179000D01*
X-50500Y-180333D01*
X-51125Y-181333D01*
X-52250Y-181834D01*
X-55250D01*
G01X-40250Y-186000D02*
X-45250D01*
Y-176000D01*
X-40250D01*
G01X-42250Y-180833D02*
X-45250D01*
G01X-35250Y-186000D02*
Y-176000D01*
X-32125D01*
X-31125Y-176500D01*
X-30500Y-177167D01*
X-30250Y-178500D01*
X-30500Y-179833D01*
X-31250Y-180667D01*
X-32125Y-181167D01*
X-35250D01*
G01X-32125D02*
X-30250Y-186000D01*
G01X-25375Y-184667D02*
X-24375Y-185500D01*
X-23250Y-186000D01*
X-22250D01*
X-21250Y-185500D01*
X-20500Y-184667D01*
X-20125Y-183500D01*
X-20375Y-182334D01*
X-21000Y-181333D01*
X-22125Y-180667D01*
X-23625Y-180333D01*
X-24500Y-179667D01*
X-24875Y-178500D01*
X-24625Y-177333D01*
X-24000Y-176500D01*
X-23125Y-176000D01*
X-22250D01*
X-21375Y-176333D01*
X-20625Y-177167D01*
G01X-15250Y-186000D02*
Y-176000D01*
X-12250D01*
X-11250Y-176500D01*
X-10500Y-177667D01*
X-10250Y-179000D01*
X-10500Y-180333D01*
X-11125Y-181333D01*
X-12250Y-181834D01*
X-15250D01*
G01X-250Y-186000D02*
X-5250D01*
Y-176000D01*
X-250D01*
G01X-2250Y-180833D02*
X-5250D01*
G01X9750Y-186000D02*
X4750D01*
Y-176000D01*
X9750D01*
G01X7750Y-180833D02*
X4750D01*
G01X14500Y-186000D02*
Y-176000D01*
X17000D01*
X18000Y-176500D01*
X18750Y-177167D01*
X19375Y-178167D01*
X19875Y-179334D01*
X20000Y-181000D01*
X19875Y-182667D01*
X19375Y-183833D01*
X18750Y-184834D01*
X18000Y-185500D01*
X17000Y-186000D01*
X14500D01*
G01X39750D02*
X34750D01*
Y-176000D01*
X39750D01*
G01X37750Y-180833D02*
X34750D01*
G01X44625Y-186000D02*
X49875Y-176000D01*
G01X44625D02*
X49875Y-186000D01*
G01X54750D02*
Y-176000D01*
X57750D01*
X58750Y-176500D01*
X59500Y-177667D01*
X59750Y-179000D01*
X59500Y-180333D01*
X58875Y-181333D01*
X57750Y-181834D01*
X54750D01*
G01X64750Y-176000D02*
Y-186000D01*
X69750D01*
G01X77250D02*
X76250Y-185833D01*
X75375Y-185167D01*
X74625Y-184167D01*
X74125Y-183000D01*
X73875Y-181667D01*
Y-180333D01*
X74125Y-179000D01*
X74625Y-177833D01*
X75375Y-176833D01*
X76250Y-176167D01*
X77250Y-176000D01*
X78250Y-176167D01*
X79125Y-176833D01*
X79875Y-177833D01*
X80375Y-179000D01*
X80625Y-180333D01*
Y-181667D01*
X80375Y-183000D01*
X79875Y-184167D01*
X79125Y-185167D01*
X78250Y-185833D01*
X77250Y-186000D01*
G01X84750D02*
Y-176000D01*
X87875D01*
X88875Y-176500D01*
X89500Y-177167D01*
X89750Y-178500D01*
X89500Y-179833D01*
X88750Y-180667D01*
X87875Y-181167D01*
X84750D01*
G01X87875D02*
X89750Y-186000D01*
G01X99750D02*
X94750D01*
Y-176000D01*
X99750D01*
G01X97750Y-180833D02*
X94750D01*
G01X104750Y-186000D02*
Y-176000D01*
X107875D01*
X108875Y-176500D01*
X109500Y-177167D01*
X109750Y-178500D01*
X109500Y-179833D01*
X108750Y-180667D01*
X107875Y-181167D01*
X104750D01*
G01X107875D02*
X109750Y-186000D01*
G01X124500D02*
Y-176000D01*
G01X129250D02*
X124500Y-182167D01*
G01X130000Y-186000D02*
X126625Y-179334D01*
G01X135750Y-176000D02*
X138750D01*
G01X137250D02*
Y-186000D01*
G01X135750D02*
X138750D01*
G01X147250Y-176000D02*
Y-186000D01*
G01X144375Y-176000D02*
X150125D01*
G01X164750Y-186000D02*
Y-176000D01*
X167875D01*
X168875Y-176500D01*
X169500Y-177167D01*
X169750Y-178500D01*
X169500Y-179833D01*
X168750Y-180667D01*
X167875Y-181167D01*
X164750D01*
G01X167875D02*
X169750Y-186000D01*
G01X179750D02*
X174750D01*
Y-176000D01*
X179750D01*
G01X177750Y-180833D02*
X174750D01*
G01X184125Y-176000D02*
X187250Y-186000D01*
X190375Y-176000D01*
G01X197250D02*
X196250Y-176333D01*
X195500Y-177167D01*
X195000Y-178167D01*
X194625Y-179500D01*
X194500Y-181000D01*
X194625Y-182500D01*
X195000Y-183833D01*
X195500Y-184834D01*
X196250Y-185667D01*
X197250Y-186000D01*
X198250Y-185667D01*
X199000Y-184834D01*
X199500Y-183833D01*
X199875Y-182500D01*
X200000Y-181000D01*
X199875Y-179500D01*
X199500Y-178167D01*
X199000Y-177167D01*
X198250Y-176333D01*
X197250Y-176000D01*
G01X208750Y-186000D02*
Y-176000D01*
X204125Y-183167D01*
X210375D01*
G01X224750Y-176000D02*
Y-186000D01*
X229750D01*
G01X237250Y-176000D02*
X236250Y-176333D01*
X235500Y-177167D01*
X235000Y-178167D01*
X234625Y-179500D01*
X234500Y-181000D01*
X234625Y-182500D01*
X235000Y-183833D01*
X235500Y-184834D01*
X236250Y-185667D01*
X237250Y-186000D01*
X238250Y-185667D01*
X239000Y-184834D01*
X239500Y-183833D01*
X239875Y-182500D01*
X240000Y-181000D01*
X239875Y-179500D01*
X239500Y-178167D01*
X239000Y-177167D01*
X238250Y-176333D01*
X237250Y-176000D01*
G01X244500Y-184000D02*
X245250Y-185167D01*
X246250Y-185833D01*
X247375Y-186000D01*
X248375Y-185833D01*
X249375Y-185000D01*
X250000Y-184000D01*
X250125Y-183000D01*
X249875Y-181834D01*
X249000Y-181000D01*
X248125Y-180667D01*
X247000D01*
G01X248125D02*
X248875Y-180167D01*
X249500Y-179334D01*
X249750Y-178333D01*
X249500Y-177333D01*
X248875Y-176500D01*
X247750Y-176000D01*
X246625Y-176167D01*
X245500Y-176833D01*
G01X255625Y-182667D02*
X258875D01*
G01X264625Y-184667D02*
X265625Y-185500D01*
X266750Y-186000D01*
X267750D01*
X268750Y-185500D01*
X269500Y-184667D01*
X269875Y-183500D01*
X269625Y-182334D01*
X269000Y-181333D01*
X267875Y-180667D01*
X266375Y-180333D01*
X265500Y-179667D01*
X265125Y-178500D01*
X265375Y-177333D01*
X266000Y-176500D01*
X266875Y-176000D01*
X267750D01*
X268625Y-176333D01*
X269375Y-177167D01*
G01X275750Y-176000D02*
X278750D01*
G01X277250D02*
Y-186000D01*
G01X275750D02*
X278750D01*
G01X288000Y-181000D02*
X290500D01*
Y-184000D01*
X289750Y-185000D01*
X288875Y-185667D01*
X287625Y-186000D01*
X286375Y-185667D01*
X285500Y-185000D01*
X284750Y-184000D01*
X284250Y-182833D01*
X284000Y-181500D01*
Y-180333D01*
X284250Y-179334D01*
X284750Y-178167D01*
X285500Y-177167D01*
X286250Y-176500D01*
X287250Y-176000D01*
X288125D01*
X289125Y-176333D01*
X289875Y-177000D01*
G01X297250Y-186000D02*
Y-176000D01*
X295750Y-178000D01*
G01Y-186000D02*
X298750D01*
M02*
