G04 ================== begin FILE IDENTIFICATION RECORD ==================*
G04 Layout Name:  FX3_DVK_PROTO_REV3_PD14-0048_PCB_20140612_16p3.brd*
G04 Film Name:    L04_PWR1*
G04 File Format:  Gerber RS274X*
G04 File Origin:  Cadence Allegro 16.3-p003*
G04 Origin Date:  Wed Jul 23 11:09:01 2014*
G04 *
G04 Layer:  VIA CLASS/L04_PWR1*
G04 Layer:  PIN/L04_PWR1*
G04 Layer:  PACKAGE GEOMETRY/PCBNO*
G04 Layer:  MANUFACTURING/TITLE_BLOCK*
G04 Layer:  ETCH/L04_PWR1*
G04 Layer:  BOARD GEOMETRY/TITTLE_PWR1*
G04 Layer:  BOARD GEOMETRY/P1*
G04 Layer:  BOARD GEOMETRY/TARGET*
G04 *
G04 Offset:    (0.00 0.00)*
G04 Mirror:    No*
G04 Mode:      Positive*
G04 Rotation:  0*
G04 FullContactRelief:  No*
G04 UndefLineWidth:     5.00*
G04 ================== end FILE IDENTIFICATION RECORD ====================*
%FSLAX25Y25*MOIN*%
%IR0*IPPOS*OFA0.00000B0.00000*MIA0B0*SFA1.00000B1.00000*%
%ADD11C,.02*%
%ADD12C,.014*%
%ADD13C,.06*%
%ADD10C,.024*%
%ADD14C,.016*%
%ADD15C,.005*%
%ADD16C,.006*%
%ADD17C,.008*%
%ADD19C,.03204*%
%ADD26C,.0731*%
%ADD24C,.02504*%
%ADD20C,.08104*%
%ADD18C,.03604*%
%ADD21C,.02804*%
%ADD22C,.07404*%
%ADD23C,.07782*%
%ADD25C,.14396*%
%ADD27C,.19688*%
G75*
%LPD*%
G75*
G36*
G01X-129500Y-158554D02*
G02X-136999Y-151055I0J7499D01*
G01Y-93907D01*
G02X-136399Y-93561I400J-1D01*
G03Y-90439I899J1561D01*
G02X-136999Y-90093I-200J347D01*
G01Y-87407D01*
G02X-136399Y-87061I400J-1D01*
G03Y-83939I899J1561D01*
G02X-136999Y-83593I-200J347D01*
G01Y-73907D01*
G02X-136399Y-73561I400J-1D01*
G03Y-70439I899J1561D01*
G02X-136999Y-70093I-200J347D01*
G01Y49567D01*
G02X-129500Y57066I7499J0D01*
G01X-125502D01*
Y50498D01*
X-88998D01*
Y57066D01*
X174500D01*
G02X181999Y49567I0J-7499D01*
G01Y-33942D01*
G02X181572Y-34341I-400J0D01*
G03X181350Y-34334I-212J-3206D01*
G01X178987D01*
G03Y-40760I1J-3213D01*
G01X181350D01*
G03X181572Y-40753I10J3213D01*
G02X181999Y-41152I27J-399D01*
G01Y-59336D01*
G02X181572Y-59735I-400J0D01*
G03X181350Y-59728I-212J-3206D01*
G01X178987D01*
G03Y-66154I1J-3213D01*
G01X181350D01*
G03X181572Y-66147I10J3213D01*
G02X181999Y-66546I27J-399D01*
G01Y-102486D01*
G02X181309Y-102761I-400J0D01*
G03Y-105239I-1309J-1239D01*
G02X181999Y-105514I290J-275D01*
G01Y-151055D01*
G02X174500Y-158554I-7499J0D01*
G01X-129500D01*
G37*
%LPC*%
G75*
G36*
G01X-59192Y-136081D02*
G02X-64438Y-134590I-3308J-1663D01*
G03X-64364Y-133966I-209J341D01*
G01X-68002Y-130329D01*
Y-125171D01*
X-64829Y-121998D01*
X-60329D01*
X-52829Y-114498D01*
X-44782D01*
G03X-44385Y-114044I1J400D01*
G02X-40815I1785J244D01*
G03X-40418Y-114498I396J-54D01*
G01X-24978D01*
G03X-24655Y-113863I0J400D01*
G02X-21745I1455J1063D01*
G03X-21422Y-114498I323J-235D01*
G01X-15708D01*
G03X-15362Y-113899I-1J400D01*
G02X-12238I1562J899D01*
G03X-11892Y-114498I347J-199D01*
G01X-9002D01*
Y-106500D01*
G03X-9421Y-106100I-400J1D01*
G02Y-102900I-79J1600D01*
G03X-9002Y-102500I19J399D01*
G01Y-95500D01*
G03X-9421Y-95100I-400J1D01*
G02X-10561Y-92300I-79J1600D01*
G03Y-91700I-265J300D01*
G02X-9421Y-88900I1061J1200D01*
G03X-9002Y-88500I19J399D01*
G01Y-81000D01*
G03X-9421Y-80600I-400J1D01*
G02Y-77400I-79J1600D01*
G03X-9002Y-77000I19J399D01*
G01Y-58939D01*
G03X-9481Y-58547I-400J0D01*
G02Y-56093I-247J1227D01*
G03X-9002Y-55701I79J392D01*
G01Y-55324D01*
X-9239D01*
X-9274Y-55338D01*
G02X-9481Y-52944I-454J1167D01*
G03X-9002Y-52552I79J392D01*
G01Y-52175D01*
X-9239D01*
X-9274Y-52188D01*
G02X-9480Y-49794I-453J1167D01*
G03X-9002Y-49401I78J392D01*
G01Y-49024D01*
X-9239D01*
X-9274Y-49038D01*
G02X-9481Y-46644I-454J1167D01*
G03X-9002Y-46252I79J392D01*
G01Y-45875D01*
X-9239D01*
X-9274Y-45889D01*
G02X-9481Y-43495I-454J1167D01*
G03X-9002Y-43103I79J392D01*
G01Y-40042D01*
G03X-9481Y-39650I-400J0D01*
G02Y-37196I-247J1227D01*
G03X-9002Y-36804I79J392D01*
G01Y-36427D01*
X-9239D01*
X-9274Y-36441D01*
G02X-9481Y-34047I-454J1167D01*
G03X-9002Y-33655I79J392D01*
G01Y-30593D01*
G03X-9481Y-30201I-400J0D01*
G02Y-27747I-247J1227D01*
G03X-9002Y-27355I79J392D01*
G01Y-20149D01*
G03X-9425Y-19750I-400J0D01*
G02X-8416Y-17874I-75J1250D01*
G03X-7787Y-17956I346J201D01*
G01X-6329Y-16498D01*
X16529D01*
X21502Y-21471D01*
Y-77795D01*
G03X22221Y-78036I400J0D01*
G02Y-79964I1279J-964D01*
G03X21502Y-80205I-319J-241D01*
G01Y-89295D01*
G03X22221Y-89536I400J0D01*
G02X24561Y-91700I1280J-963D01*
G03Y-92300I265J-300D01*
G02X22221Y-94464I-1060J-1201D01*
G03X21502Y-94705I-319J-241D01*
G01Y-121329D01*
X19043Y-123788D01*
G03X19148Y-124429I283J-283D01*
G02X15354Y-124727I-1648J-3315D01*
G03X15122Y-124002I-232J325D01*
G01X9878D01*
G03X9646Y-124727I0J-400D01*
G02X5354I-2146J-3017D01*
G03X5122Y-124002I-232J325D01*
G01X-122D01*
G03X-354Y-124727I0J-400D01*
G02X-4646I-2146J-3017D01*
G03X-4878Y-124002I-232J325D01*
G01X-10122D01*
G03X-10354Y-124727I0J-400D01*
G02X-14646I-2146J-3017D01*
G03X-14878Y-124002I-232J325D01*
G01X-20122D01*
G03X-20354Y-124727I0J-400D01*
G02X-24646I-2146J-3017D01*
G03X-24878Y-124002I-232J325D01*
G01X-30122D01*
G03X-30354Y-124727I0J-400D01*
G02X-34646I-2146J-3017D01*
G03X-34878Y-124002I-232J325D01*
G01X-40122D01*
G03X-40354Y-124727I0J-400D01*
G02X-43943Y-131153I-2146J-3017D01*
G03X-44498Y-131522I-155J-369D01*
G01Y-133329D01*
X-46671Y-135502D01*
X-48835D01*
G03X-49192Y-136081I0J-400D01*
G02X-55808I-3308J-1663D01*
G03X-56165Y-135502I-357J179D01*
G01X-58835D01*
G03X-59192Y-136081I0J-400D01*
G37*
G36*
G01X-83992Y-125318D02*
G02X-85778Y-125714I-608J-1482D01*
G03X-86052Y-125044I-294J271D01*
G02X-89362Y-122837I200J3886D01*
G03X-89937Y-122671I-361J-172D01*
G02X-92171Y-122430I-966J1521D01*
G03X-92735I-282J-284D01*
G02Y-119870I-1268J1280D01*
G03X-92171I282J284D01*
G02X-89933Y-119632I1268J-1280D01*
G03X-89357Y-119468I215J337D01*
G02X-88544Y-118348I3505J-1689D01*
G03X-88596Y-117728I-276J289D01*
G02X-86142Y-116775I896J1328D01*
G03X-85763Y-117268I389J-93D01*
G02X-82283Y-119608I-89J-3890D01*
G03X-81616Y-119713I367J159D01*
G02X-81503Y-122213I1352J-1191D01*
G03X-82157Y-122378I-274J-291D01*
G02X-84027Y-124595I-3695J1220D01*
G03X-83992Y-125318I187J-353D01*
G37*
G36*
G01X89096Y-116228D02*
G02X89079Y-117740I1404J-772D01*
G03X88374Y-117732I-355J-185D01*
G02X88391Y-116220I-1404J772D01*
G03X89096Y-116228I355J185D01*
G37*
G36*
G01X-98189Y-104800D02*
G02X-100311I-1061J-1200D01*
G03Y-104200I-265J300D01*
G02Y-101800I1061J1200D01*
G03Y-101200I-265J300D01*
G02X-100020Y-98595I1061J1200D01*
G03X-100016Y-97896I-192J351D01*
G02X-100538Y-97424I787J1395D01*
G03X-101192I-327J-231D01*
G02X-103900Y-97278I-1308J924D01*
G03X-104600I-350J-194D01*
G02X-107400I-1400J778D01*
G03X-108100I-350J-194D01*
G02Y-95722I-1400J778D01*
G03X-107400I350J194D01*
G02X-104600I1400J-778D01*
G03X-103900I350J194D01*
G02X-101192Y-95576I1400J-778D01*
G03X-100538I327J231D01*
G02X-100016Y-95104I1309J-923D01*
G03X-100020Y-94405I-196J348D01*
G02X-100311Y-91800I770J1405D01*
G03Y-91200I-265J300D01*
G02Y-88800I1061J1200D01*
G03Y-88200I-265J300D01*
G02X-98189I1061J1200D01*
G03Y-88800I265J-300D01*
G02Y-91200I-1061J-1200D01*
G03Y-91800I265J-300D01*
G02X-98464Y-94396I-1061J-1200D01*
G03X-98460Y-95095I196J-348D01*
G02X-97938Y-95553I-770J-1405D01*
G03X-97292I323J236D01*
G02X-94600Y-95722I1292J-947D01*
G03X-93900I350J194D01*
G02X-91100I1400J-778D01*
G03X-90400I350J194D01*
G02Y-97278I1400J-778D01*
G03X-91100I-350J-194D01*
G02X-93900I-1400J778D01*
G03X-94600I-350J-194D01*
G02X-97292Y-97447I-1400J778D01*
G03X-97938I-323J-236D01*
G02X-98460Y-97905I-1292J947D01*
G03X-98464Y-98604I192J-351D01*
G02X-98189Y-101200I-786J-1396D01*
G03Y-101800I265J-300D01*
G02Y-104200I-1061J-1200D01*
G03Y-104800I265J-300D01*
G37*
G36*
G01X-46359Y-81174D02*
G02X-46895Y-82955I981J-1266D01*
G03X-47519Y-82767I-379J-128D01*
G02X-46983Y-80986I-981J1266D01*
G03X-46359Y-81174I379J128D01*
G37*
G36*
G01X-58863Y-82754D02*
G02Y-81246I-1637J754D01*
G03X-58137I363J167D01*
G02Y-82754I1637J-754D01*
G03X-58863I-363J-167D01*
G37*
G36*
G01X-121722Y-77600D02*
G02X-123278I-778J-1400D01*
G03Y-76900I-194J350D01*
G02X-121722I778J1400D01*
G03Y-77600I194J-350D01*
G37*
G36*
G01X-67506Y-73997D02*
G02X-69559Y-74042I-994J-1503D01*
G03X-69574Y-73385I-236J323D01*
G02X-67521Y-73340I994J1503D01*
G03X-67506Y-73997I236J-323D01*
G37*
G36*
G01X-124632Y-71100D02*
G02X-126188I-778J-1400D01*
G03Y-70400I-194J350D01*
G02X-124632I778J1400D01*
G03Y-71100I194J-350D01*
G37*
G36*
G01X-72649Y-64976D02*
G02X-75256Y-63814I-1751J-424D01*
G03X-75129Y-63219I-190J352D01*
G02X-75633Y-60191I2586J1986D01*
G03X-75937Y-59670I-379J128D01*
G02X-75873Y-56119I337J1770D01*
G03X-75563Y-55573I-61J395D01*
G02X-75354Y-52691I3020J1230D01*
G03X-75572Y-52109I-345J203D01*
G02X-76572Y-51280I573J1708D01*
G03X-77266Y-51273I-349J-196D01*
G02X-76817Y-48789I-3151J1852D01*
G03X-76165Y-49025I394J69D01*
G02X-73214Y-50639I1165J-1375D01*
G03X-72788Y-51091I396J-53D01*
G02X-71438Y-57411I245J-3252D01*
G03Y-58164I135J-377D01*
G02X-69371Y-60475I-1105J-3068D01*
G03X-68822Y-60749I389J93D01*
G02X-69540Y-63483I722J-1651D01*
G03X-70153Y-63451I-320J-240D01*
G02X-72291Y-64483I-2389J2219D01*
G03X-72649Y-64976I31J-399D01*
G37*
G36*
G01X-47425Y-61709D02*
G02X-48709Y-60425I-1575J-291D01*
G03X-48249Y-59935I72J393D01*
G02X-46935Y-61249I1749J435D01*
G03X-47425Y-61709I-97J-388D01*
G37*
G36*
G01X30346Y-46007D02*
G02X28534Y-45952I-946J-1293D01*
G03X28554Y-45293I-216J336D01*
G02X30366Y-45348I946J1293D01*
G03X30346Y-46007I216J-336D01*
G37*
G36*
G01X-85070Y-37851D02*
G02X-86634Y-36321I-3221J-1728D01*
G03X-86061Y-35880I182J356D01*
G02X-82529Y-35833I1761J380D01*
G03X-81966Y-36269I393J-74D01*
G02X-77415Y-37493I1550J-3310D01*
G03X-76744Y-37471I328J228D01*
G02X-75708Y-36671I1544J-929D01*
G03X-75463Y-36109I-113J384D01*
G02X-75601Y-33524I2920J1452D01*
G03X-75926Y-32988I-375J139D01*
G02X-75933Y-29413I226J1788D01*
G03X-75609Y-28880I-52J396D01*
G02X-75182Y-25852I3066J1112D01*
G03X-75395Y-25233I-324J235D01*
G02X-73170Y-24003I495J1733D01*
G03X-72759Y-24514I384J-112D01*
G02X-71438Y-30836I216J-3254D01*
G03Y-31589I135J-376D01*
G02X-72951Y-37892I-1106J-3068D01*
G03X-73400Y-38309I-50J-397D01*
G02X-76195Y-39903I-1800J-91D01*
G03X-76810Y-40171I-221J-333D01*
G02X-83647Y-37869I-3607J592D01*
G03X-84055Y-37285I-353J188D01*
G02X-84642Y-37269I-245J1785D01*
G03X-85070Y-37851I-76J-393D01*
G37*
G36*
G01X-46556Y-14706D02*
G02X-48044Y-14493I-944J-1294D01*
G03X-47944Y-13794I-136J376D01*
G02X-46456Y-14007I944J1294D01*
G03X-46556Y-14706I136J-376D01*
G37*
G36*
G01X-86586Y-8028D02*
G02Y-6196I-1552J916D01*
G03X-85910Y-6216I344J203D01*
G02Y-8008I1328J-896D01*
G03X-86586Y-8028I-332J-223D01*
G37*
G36*
G01X-79329Y961D02*
G02X-80254Y2116I-1571J-311D01*
G03X-79700Y2560I162J366D01*
G02X-79712Y2624I1568J327D01*
G03X-80265Y2929I-395J-62D01*
G02X-79317Y4647I-635J1471D01*
G03X-78764Y4342I395J62D01*
G02X-78775Y1405I635J-1471D01*
G03X-79329Y961I-162J-366D01*
G37*
G36*
G01X-47689Y2700D02*
G02X-49811I-1061J-1200D01*
G03Y3300I-265J300D01*
G02X-50050Y3564I1061J1200D01*
G03X-50700I-325J-233D01*
G02X-53400Y3722I-1300J936D01*
G03X-54100I-350J-194D01*
G02X-56900I-1400J778D01*
G03X-57600I-350J-194D01*
G02Y5278I-1400J778D01*
G03X-56900I350J194D01*
G02X-54100I1400J-778D01*
G03X-53400I350J194D01*
G02X-50700Y5436I1400J-778D01*
G03X-50050I325J233D01*
G02X-49811Y5700I1300J-936D01*
G03Y6300I-265J300D01*
G02Y8700I1061J1200D01*
G03Y9300I-265J300D01*
G02X-47689I1061J1200D01*
G03Y8700I265J-300D01*
G02Y6300I-1061J-1200D01*
G03Y5700I265J-300D01*
G02X-47450Y5436I-1061J-1200D01*
G03X-46800I325J233D01*
G02X-44100Y5278I1300J-936D01*
G03X-43400I350J194D01*
G02X-40600I1400J-778D01*
G03X-39900I350J194D01*
G02Y3722I1400J-778D01*
G03X-40600I-350J-194D01*
G02X-43400I-1400J778D01*
G03X-44100I-350J-194D01*
G02X-46800Y3564I-1400J778D01*
G03X-47450I-325J-233D01*
G02X-47689Y3300I-1300J936D01*
G03Y2700I265J-300D01*
G37*
G36*
G01X153778Y3400D02*
G02X152222I-778J-1400D01*
G03Y4100I-194J350D01*
G02X153778I778J1400D01*
G03Y3400I194J-350D01*
G37*
G36*
G01X-41439Y-91700D02*
G03Y-92300I265J-300D01*
G02X-43561I-1061J-1200D01*
G03Y-91700I-265J300D01*
G02X-41439I1061J1200D01*
G37*
G36*
G01X-35939D02*
G03Y-92300I265J-300D01*
G02X-38061I-1061J-1200D01*
G03Y-91700I-265J300D01*
G02X-35939I1061J1200D01*
G37*
G36*
G01X-30439D02*
G03Y-92300I265J-300D01*
G02X-32561I-1061J-1200D01*
G03Y-91700I-265J300D01*
G02X-30439I1061J1200D01*
G37*
G36*
G01X-24939D02*
G03Y-92300I265J-300D01*
G02X-27061I-1061J-1200D01*
G03Y-91700I-265J300D01*
G02X-24939I1061J1200D01*
G37*
G36*
G01X-19439D02*
G03Y-92300I265J-300D01*
G02X-21561I-1061J-1200D01*
G03Y-91700I-265J300D01*
G02X-19439I1061J1200D01*
G37*
G36*
G01X-13939D02*
G03Y-92300I265J-300D01*
G02X-16061I-1061J-1200D01*
G03Y-91700I-265J300D01*
G02X-13939I1061J1200D01*
G37*
G36*
G01X30061D02*
G03Y-92300I265J-300D01*
G02X27939I-1061J-1200D01*
G03Y-91700I-265J300D01*
G02X30061I1061J1200D01*
G37*
G36*
G01X-32510Y-80243D02*
G03X-33050Y-80275I-253J-310D01*
G02X-33190Y-77917I-1150J1115D01*
G03X-32650Y-77885I253J310D01*
G02X-32510Y-80243I1150J-1115D01*
G37*
G36*
G01X42800Y-72561D02*
G03X42200I-300J-265D01*
G02Y-70439I-1200J1061D01*
G03X42800I300J265D01*
G02Y-72561I1200J-1061D01*
G37*
G36*
G01X-40975Y-68510D02*
G03X-40475Y-68770I381J122D01*
G02X-41525Y-70790I475J-1530D01*
G03X-42025Y-70530I-381J-122D01*
G02X-40975Y-68510I-475J1530D01*
G37*
G36*
G01X42800Y-67061D02*
G03X42200I-300J-265D01*
G02Y-64939I-1200J1061D01*
G03X42800I300J265D01*
G02Y-67061I1200J-1061D01*
G37*
G36*
G01Y-61561D02*
G03X42200I-300J-265D01*
G02Y-59439I-1200J1061D01*
G03X42800I300J265D01*
G02Y-61561I1200J-1061D01*
G37*
G36*
G01X42921Y-53360D02*
G03X43440Y-53540I355J185D01*
G02X42679Y-55740I660J-1460D01*
G03X42160Y-55560I-355J-185D01*
G02X42921Y-53360I-660J1460D01*
G37*
G36*
G01X42800Y-50561D02*
G03X42200I-300J-265D01*
G02Y-48439I-1200J1061D01*
G03X42800I300J265D01*
G02Y-50561I1200J-1061D01*
G37*
G36*
G01X-69088Y-45936D02*
G03X-69681Y-46063I-242J-319D01*
G02Y-42937I-2862J1563D01*
G03X-69088Y-43064I351J192D01*
G02Y-45936I1088J-1436D01*
G37*
G36*
G01X42800Y-45061D02*
G03X42200I-300J-265D01*
G02Y-42939I-1200J1061D01*
G03X42800I300J265D01*
G02Y-45061I1200J-1061D01*
G37*
G36*
G01X-107679Y-36825D02*
G03X-107551Y-37461I294J-272D01*
G02X-109621Y-37875I-749J-1639D01*
G03X-109749Y-37239I-294J272D01*
G02X-107679Y-36825I749J1639D01*
G37*
G36*
G01X42800Y-39561D02*
G03X42200I-300J-265D01*
G02Y-37439I-1200J1061D01*
G03X42800I300J265D01*
G02Y-39561I1200J-1061D01*
G37*
G36*
G01X-24681Y-35947D02*
G03Y-36553I261J-303D01*
G02X-26319I-819J-947D01*
G03Y-35947I-261J303D01*
G02X-24681I819J947D01*
G37*
G36*
G01X42800Y-34061D02*
G03X42200I-300J-265D01*
G02Y-31939I-1200J1061D01*
G03X42800I300J265D01*
G02Y-34061I1200J-1061D01*
G37*
G36*
G01Y-28561D02*
G03X42200I-300J-265D01*
G02Y-26439I-1200J1061D01*
G03X42800I300J265D01*
G02Y-28561I1200J-1061D01*
G37*
G36*
G01X-16613Y-26930D02*
G03X-17171Y-27135I-187J-354D01*
G02X-17747Y-25562I-1162J467D01*
G03X-17189Y-25357I187J354D01*
G02X-16613Y-26930I1162J-467D01*
G37*
G36*
G01X-44243Y-23581D02*
G03X-43777Y-23922I397J53D01*
G02X-45088Y-25709I277J-1578D01*
G03X-45554Y-25368I-397J-53D01*
G02X-44243Y-23581I-277J1578D01*
G37*
G36*
G01X42800Y-23061D02*
G03X42200I-300J-265D01*
G02Y-20939I-1200J1061D01*
G03X42800I300J265D01*
G02Y-23061I1200J-1061D01*
G37*
G36*
G01Y-17561D02*
G03X42200I-300J-265D01*
G02Y-15439I-1200J1061D01*
G03X42800I300J265D01*
G02Y-17561I1200J-1061D01*
G37*
G36*
G01X-9851Y-10699D02*
G03X-10157Y-11259I58J-395D01*
G02X-11935Y-10203I-1643J-741D01*
G03X-11590Y-9666I-30J399D01*
G02X-11665Y-8843I1504J552D01*
G03X-12067Y-8376I-394J67D01*
G02X-12276Y-8367I-27J1802D01*
G03X-12708Y-8835I-38J-398D01*
G02X-14245Y-7513I-1577J-279D01*
G03X-13847Y-7015I10J400D01*
G02X-10353Y-7017I1747J441D01*
G03X-9990Y-7515I388J-99D01*
G02X-9851Y-10699I-96J-1599D01*
G37*
G36*
G01X42800Y-12061D02*
G03X42200I-300J-265D01*
G02Y-9939I-1200J1061D01*
G03X42800I300J265D01*
G02Y-12061I1200J-1061D01*
G37*
G36*
G01X-104406Y-6432D02*
G03Y-7068I242J-318D01*
G02X-106594I-1094J-1432D01*
G03Y-6432I-242J318D01*
G02X-104406I1094J1432D01*
G37*
G54D19*
X161240Y-53758D03*
Y-49290D03*
X161000Y-17000D03*
Y15700D03*
X168500Y-71800D03*
X170059Y-89559D03*
X172500Y-68600D03*
X165000Y-68000D03*
X165500Y-97000D03*
X160000Y-67500D03*
X166000Y-75500D03*
X160500Y-75000D03*
X125441Y-20441D03*
X146772Y-32641D03*
X151668Y-42832D03*
X125441Y-14941D03*
Y-25941D03*
Y-31441D03*
X156000Y-27500D03*
X137900Y-41300D03*
X140500Y10500D03*
X157000D03*
X44000Y-5500D03*
X55500Y-33000D03*
Y-38500D03*
X47183Y8059D03*
X62450Y-11000D03*
Y-5500D03*
X46000Y1000D03*
X67500Y-45500D03*
X55500Y-22000D03*
X119941Y-3559D03*
X62000Y-16500D03*
X55500Y-27500D03*
Y-44000D03*
X156100Y28600D03*
X52300Y-90800D03*
X84500Y-103000D03*
X80500Y-109500D03*
X128500Y-102500D03*
X66000Y-79500D03*
X128500Y-97000D03*
X101659Y-97159D03*
X114500Y-117400D03*
X109000D03*
X103000Y-116000D03*
X98000Y-117000D03*
X155408Y-59800D03*
X107300Y-99200D03*
X81500Y-117000D03*
X63600Y-88000D03*
X147928Y-59800D03*
X119400Y-74060D03*
X64400Y-63800D03*
X61000Y-59000D03*
X122000Y-77500D03*
X55500Y-66000D03*
Y-71500D03*
X140000Y-114000D03*
X64500Y-102000D03*
X134500Y-110520D03*
X117050Y-102550D03*
X-50299Y-23790D03*
X-75000Y19000D03*
X24500Y-500D03*
X-44975Y-47575D03*
X9500Y2941D03*
X-38500Y-49500D03*
X16059Y8059D03*
X29500Y-5500D03*
Y-11000D03*
Y-16500D03*
Y-22000D03*
Y-27500D03*
Y-33000D03*
Y-38500D03*
X28500Y-53000D03*
X9559Y8059D03*
X-31300Y-46800D03*
X16122Y2941D03*
X2559Y8059D03*
X6000Y-4000D03*
X-48750Y-46000D03*
X-44975Y-35575D03*
X-38500Y-53298D03*
X-44975Y-39575D03*
Y-43575D03*
X-54299Y-23790D03*
X-34500Y-18000D03*
X-67583Y-6082D03*
X-19620Y9997D03*
X-43500Y-5000D03*
X-38500Y0D03*
X-59000Y-5000D03*
Y9000D03*
Y0D03*
X-38500Y9000D03*
X-59500Y-11500D03*
X-26000Y-79000D03*
X-15000D03*
X-42500Y-104500D03*
X-20500Y-79000D03*
X29500Y-60500D03*
Y-66000D03*
Y-71500D03*
X29000Y-104500D03*
Y-79000D03*
X-52500Y-81500D03*
X-38500Y-57500D03*
X-15000Y-104700D03*
X-31500Y-104600D03*
X-60000Y-62000D03*
X-55000D03*
X-129700Y-26500D03*
X-99700Y-35700D03*
X-121700Y-32500D03*
X-134700Y-15500D03*
X-121700Y-38500D03*
X-119700Y-15500D03*
X-129700D03*
X-124700D03*
X-117100Y-34600D03*
X-95600Y-44500D03*
X-134700Y-21000D03*
X-127700Y-38500D03*
X-114700Y-26500D03*
X-109700Y-21000D03*
Y-26500D03*
Y-15500D03*
X-99800Y-41900D03*
X-95600Y-48700D03*
X-124449Y-10500D03*
X-121100Y-46300D03*
X-116900Y-42300D03*
X-134700Y-26500D03*
X-119700D03*
X-129700Y-21000D03*
X-124700D03*
X-114700D03*
Y-15500D03*
X-124700Y-26500D03*
X-127700Y-32500D03*
X-95600Y-38900D03*
X-119700Y-21000D03*
X-84350Y-26350D03*
X-93000Y36500D03*
X-88500Y32000D03*
X-84100Y27500D03*
Y32000D03*
Y36500D03*
Y41000D03*
X-88500Y27500D03*
Y36500D03*
Y41000D03*
X-93000D03*
X-94500Y18000D03*
X-91400Y15400D03*
X-110260Y-60160D03*
X-121500Y-62500D03*
X-85344Y-74676D03*
X-98630Y-58150D03*
X-104630D03*
X-110260Y-66160D03*
X-89500Y-74500D03*
X-113500Y-101500D03*
Y-86500D03*
X-89000Y-106000D03*
Y-101500D03*
Y-87000D03*
Y-91500D03*
X-105000Y-87000D03*
X-113500Y-91500D03*
X-109500Y-106000D03*
Y-101500D03*
Y-87000D03*
Y-91500D03*
X-94000Y-106000D03*
X-104500D03*
X-93500Y-87000D03*
X-113500Y-106500D03*
X-81700Y-116400D03*
X-87700Y-111400D03*
X-90600Y-143300D03*
X-81700Y-111400D03*
X-93700D03*
Y-116400D03*
X-84600Y-131300D03*
Y-137300D03*
Y-143300D03*
X-90600Y-131300D03*
Y-126800D03*
X-124500Y-117000D03*
X-102600Y-115200D03*
X-103000Y-121500D03*
X-131500Y-112000D03*
X-125000Y-111500D03*
X-131000Y-117000D03*
G54D26*
X-88291Y-49421D03*
G54D24*
X-25500Y-55000D03*
X-19177Y-54171D03*
Y-51021D03*
X-12877Y-57320D03*
Y-54171D03*
X-16027Y-57320D03*
Y-54171D03*
X-16028Y-51021D03*
X-19200Y-44700D03*
X-19177Y-41572D03*
Y-47871D03*
X-12877D03*
Y-44722D03*
X-16027Y-47871D03*
X-16025Y-44729D03*
X-19177Y-35274D03*
X-18333Y-29817D03*
X-12877Y-32123D03*
X-19176Y-38423D03*
X-12877D03*
X-16027Y-38422D03*
Y-35273D03*
X-16026Y-32123D03*
X-12877Y-25825D03*
Y-28974D03*
X-19900Y-20900D03*
X-23710Y-25550D03*
X-24763Y-51737D03*
X-22500Y-58200D03*
G54D20*
X176000Y15500D03*
Y5500D03*
X48800Y-82524D03*
X38800D03*
X-67470Y-83788D03*
X-132000Y-1500D03*
Y8500D03*
X-77470Y-83788D03*
G54D18*
X167000Y-30000D03*
X179000Y-20000D03*
X173500D03*
X159500Y-38500D03*
X167000Y-24000D03*
X172315Y-47685D03*
X163000Y-45500D03*
X172315Y-55362D03*
X165500Y-80000D03*
X163300Y-58600D03*
X173740Y-97850D03*
X174500Y-119500D03*
X147756Y-15000D03*
X150700Y-51500D03*
X142756Y-15000D03*
X147756Y-20000D03*
X152756D03*
X142756D03*
X147756Y-10000D03*
X152756D03*
X142756D03*
X152756Y-15000D03*
X147000Y-37559D03*
X130500Y-41000D03*
Y-47500D03*
Y-55500D03*
X141500Y-95000D03*
X48500Y-100500D03*
X148693Y-80307D03*
Y-99307D03*
Y-90701D03*
X130500Y-64000D03*
X135500Y-61500D03*
X-270Y-5760D03*
X-61990Y-36990D03*
X-23500Y-12000D03*
X-62700Y-29500D03*
X-67700Y-25000D03*
X-62200Y-52240D03*
X-55470Y-52090D03*
X-35000Y-35000D03*
X-52900Y-36940D03*
X-49270Y-34120D03*
X-60280Y-18090D03*
X-57180Y-33260D03*
X-69570Y-9690D03*
X-41100Y-8800D03*
X-20578Y-71200D03*
X-64200Y-73500D03*
X-63100Y-58500D03*
X-28500Y-64000D03*
X-64200Y-68800D03*
X33500Y-90500D03*
X-50580Y-56950D03*
X-68500Y-94000D03*
X-129000Y-52100D03*
X-104400Y-30400D03*
Y-35500D03*
X-111600Y-52000D03*
X-111200Y-43000D03*
X-111100Y-47200D03*
X-94970Y-30240D03*
X-88240Y-12900D03*
X-113500Y-8000D03*
X-90000Y23000D03*
X-121500Y-4000D03*
X-118800Y15400D03*
X-130000Y17500D03*
X-101500Y33500D03*
X-99000Y-8000D03*
X-85500Y23000D03*
X-111500Y4500D03*
X-119100Y600D03*
X-114500Y43700D03*
X-134200Y17600D03*
X-132700Y-59200D03*
X-132346Y-67346D03*
X-110000Y-74000D03*
X-113500Y-81500D03*
X-134500D03*
X-130500Y-72000D03*
G54D21*
X86360Y-28604D03*
X81360Y-37396D03*
X96360Y-23604D03*
X91360Y-3604D03*
X96360D03*
X86360Y6396D03*
X115152Y-8604D03*
X105152Y-3604D03*
X115790Y10340D03*
X110152Y-18604D03*
X96360Y-42396D03*
X115152Y1396D03*
X98256Y12500D03*
X110152Y-8604D03*
X91360Y-37396D03*
X81360Y-3604D03*
Y-18604D03*
X86360Y-52396D03*
Y-8604D03*
X81360Y-13604D03*
Y-42396D03*
X96360Y-28604D03*
X110152Y1396D03*
X86360Y-18604D03*
X81360Y-52396D03*
X105152Y6396D03*
Y11396D03*
X110152D03*
X96360Y-47396D03*
X81360D03*
X86360Y-42396D03*
X96360Y-13604D03*
X86360Y1396D03*
X81360Y-23604D03*
X96360Y-52396D03*
X105152Y-23604D03*
X91360Y-13604D03*
X96360Y-8604D03*
X81360D03*
Y1396D03*
X91360D03*
X81360Y6396D03*
X96360Y-18604D03*
X105152Y1396D03*
X91360Y-23604D03*
X96360Y-37396D03*
X91360Y-47396D03*
X93256Y12500D03*
X105152Y-13604D03*
X91360Y6396D03*
X115152D03*
X110152D03*
X88256Y12500D03*
X115152Y-23604D03*
X110152Y-28604D03*
X115152Y-37396D03*
X105152D03*
X115152Y-42396D03*
X110152D03*
X115152Y-47396D03*
X105152D03*
X115152Y-52396D03*
X110152D03*
X115152Y-3604D03*
X81360Y11396D03*
X115152Y-13604D03*
Y-18604D03*
X81360Y-57396D03*
X91360Y-72396D03*
X81360Y-62396D03*
X96360Y-57396D03*
X91360D03*
Y-67396D03*
X105152D03*
Y-72396D03*
X110152D03*
X86360D03*
X81360D03*
X86360Y-67396D03*
X91360Y-62396D03*
X86360D03*
X115152Y-57396D03*
X105152D03*
X110152Y-62396D03*
X105152D03*
X115152D03*
X110152Y-67396D03*
X115152D03*
Y-72396D03*
X81360Y-67396D03*
X-27300Y-44500D03*
G54D22*
X47500Y26256D03*
Y36256D03*
X57500D03*
Y26256D03*
X67500D03*
X77500D03*
X67500Y36256D03*
X77500D03*
X87500Y26256D03*
X97500D03*
X87500Y36256D03*
X97500D03*
X107500Y26256D03*
Y36256D03*
X117500Y26256D03*
Y36256D03*
Y-127744D03*
Y-137744D03*
X107500Y-127744D03*
Y-137744D03*
X97500Y-127744D03*
Y-137744D03*
X87500Y-127744D03*
Y-137744D03*
X77500Y-127744D03*
Y-137744D03*
X67500Y-127744D03*
Y-137744D03*
X57500Y-127744D03*
Y-137744D03*
X47500Y-127744D03*
Y-137744D03*
X-42500Y26256D03*
Y36256D03*
X-32500Y26256D03*
X-22500D03*
X-32500Y36256D03*
X-12500Y26256D03*
X-22500Y36256D03*
X-2500Y26256D03*
X-12500Y36256D03*
X7500Y26256D03*
X-2500Y36256D03*
X7500D03*
X17500Y26256D03*
Y36256D03*
X-72500D03*
X27500Y26256D03*
Y36256D03*
X37500D03*
Y26256D03*
X-62500D03*
Y36256D03*
X-52500Y26256D03*
Y36256D03*
X-32500Y-137744D03*
X-42500D03*
X37500Y-127744D03*
Y-137744D03*
X27500Y-127744D03*
Y-137744D03*
X-72500Y-127744D03*
X17500Y-137744D03*
X7500D03*
X-2500D03*
X-12500D03*
X-22500D03*
G54D23*
X147000Y9000D03*
G54D25*
X-98960Y-20799D03*
Y-68201D03*
G54D27*
X168500Y31756D03*
Y-133244D03*
X-123500Y31756D03*
Y-133244D03*
%LPD*%
G75*
G36*
G01X-62000Y-133500D02*
X-66000Y-129500D01*
Y-126000D01*
X-64000Y-124000D01*
X-59500D01*
X-52000Y-116500D01*
X-8000D01*
X-7000Y-115500D01*
Y-36933D01*
G02X-6593Y-36533I400J0D01*
G03Y-34029I23J1252D01*
G02X-7000Y-33629I-7J400D01*
G01Y-20000D01*
X-5500Y-18500D01*
X-1652D01*
G02X-1325Y-19130I0J-400D01*
G03X725I1025J-719D01*
G02X1052Y-18500I327J230D01*
G01X15700D01*
X19500Y-22300D01*
Y-77327D01*
G02X18880Y-77662I-400J-1D01*
G03Y-80338I-880J-1338D01*
G02X19500Y-80673I220J-334D01*
G01Y-88827D01*
G02X18880Y-89162I-400J-1D01*
G03X16939Y-91700I-880J-1338D01*
G02Y-92300I-265J-300D01*
G03X18880Y-94838I1061J-1200D01*
G02X19500Y-95173I220J-334D01*
G01Y-120500D01*
X18000Y-122000D01*
X-42500D01*
X-46500Y-126000D01*
Y-132500D01*
X-47500Y-133500D01*
X-62000D01*
G37*
%LPC*%
G75*
G36*
G01X10331Y-25359D02*
G03X10891Y-25563I371J149D01*
G02X10319Y-27133I590J-1104D01*
G03X9759Y-26929I-371J-149D01*
G02X10331Y-25359I-590J1104D01*
G37*
G36*
G01X13561Y-91700D02*
G03Y-92300I265J-300D01*
G02X11439I-1061J-1200D01*
G03Y-91700I-265J300D01*
G02X13561I1061J1200D01*
G37*
G36*
G01X8061D02*
G03Y-92300I265J-300D01*
G02X5939I-1061J-1200D01*
G03Y-91700I-265J300D01*
G02X8061I1061J1200D01*
G37*
G36*
G01X2561D02*
G03Y-92300I265J-300D01*
G02X439I-1061J-1200D01*
G03Y-91700I-265J300D01*
G02X2561I1061J1200D01*
G37*
G36*
G01X-2939D02*
G03Y-92300I265J-300D01*
G02X-5061I-1061J-1200D01*
G03Y-91700I-265J300D01*
G02X-2939I1061J1200D01*
G37*
G54D19*
X13000Y-79000D03*
X6666Y-78500D03*
X-4000Y-79000D03*
X1500D03*
G54D24*
X6100Y-41600D03*
X6020Y-22674D03*
X9169D03*
X6020Y-25825D03*
X2871Y-25824D03*
X-280Y-25825D03*
X12600Y-23500D03*
X-279Y-32123D03*
X6021D03*
X9169Y-28974D03*
X6020D03*
X2871Y-28973D03*
X-280Y-28974D03*
X2871Y-32123D03*
X9170D03*
X-3280Y-20970D03*
X-3428Y-32123D03*
X-3429Y-28974D03*
Y-25825D03*
Y-54171D03*
X-3428Y-51021D03*
X-279D03*
X-280Y-54171D03*
X-3429Y-47871D03*
X2872Y-47875D03*
X2873Y-51023D03*
X6020Y-57320D03*
X6021Y-51021D03*
X6020Y-54171D03*
X9169Y-57320D03*
X6020Y-47871D03*
X9169Y-54171D03*
X13600Y-35244D03*
X2500Y-60500D03*
X-3429Y-44722D03*
Y-35274D03*
X13000Y-51000D03*
X-275Y-44725D03*
X-280Y-47871D03*
X2871Y-44722D03*
X2872Y-41572D03*
X-3422Y-41576D03*
X2871Y-38422D03*
X9169Y-44722D03*
Y-38423D03*
X-280Y-41572D03*
X2871Y-35273D03*
X-278Y-35274D03*
X9169D03*
X6020Y-38423D03*
Y-35274D03*
X-3429Y-38423D03*
X9169Y-47871D03*
X-280Y-57321D03*
X9170Y-51021D03*
X12320Y-57320D03*
Y-54171D03*
X16538Y-33623D03*
X16441Y-43149D03*
G54D18*
X-1600Y-114800D03*
X4900Y-111100D03*
X9000Y-70500D03*
G54D22*
X-52500Y-127744D03*
%LPD*%
G75*
G54D10*
X-77700Y-143200D03*
X-86000Y6000D03*
X-9500Y-119500D03*
X-67400Y-143300D03*
X-72800Y-120900D03*
X-59500Y-96900D03*
Y-102900D03*
X-53700Y-96300D03*
X-67900Y-132800D03*
X-72400Y-143300D03*
X-76900Y-132800D03*
X-59500Y-108900D03*
X-61500Y-115900D03*
Y-120900D03*
X-55500Y-114900D03*
X-53848Y-102870D03*
X-67500Y-115900D03*
Y-120900D03*
X-55500Y-108900D03*
X-46500Y-9000D03*
X81000Y-102500D03*
X110500Y-88000D03*
X93000D03*
X124000Y-64000D03*
X53244Y-106500D03*
X134500Y14000D03*
X130500Y1270D03*
X143400Y-41500D03*
X130500Y-4000D03*
X135500Y-6500D03*
X124000Y-41000D03*
Y-47500D03*
Y-55500D03*
X176846Y-89654D03*
X170059Y-11059D03*
X161000Y-10079D03*
G54D11*
X10500Y-76500D03*
G54D12*
X-5000Y-62100D03*
X-6575Y-51027D03*
X17500Y-29000D03*
X2871Y-22674D03*
X-15441Y-20000D03*
X-19177Y-57320D03*
G54D13*
X-72500Y-137744D03*
X-62500Y-127744D03*
X-72500Y26256D03*
G54D14*
X110152Y-57396D03*
X86360D03*
X105152Y-52396D03*
X110152Y-47396D03*
X105152Y-42396D03*
X110152Y-37396D03*
Y-13604D03*
Y-3604D03*
Y-23604D03*
X105152Y-18604D03*
Y-28604D03*
X91360Y-8604D03*
X86360Y-13604D03*
Y-47396D03*
X91360Y-28604D03*
Y-18604D03*
X86360Y-3604D03*
X91360Y-42396D03*
Y-52396D03*
X86360Y-23604D03*
Y-37396D03*
X105152Y-8604D03*
G54D15*
G01X-125400Y-243244D02*
G03I-12600J0D01*
G01X-138000D02*
Y-258204D01*
G01X-130520Y-243244D02*
G03I-7480J0D01*
G01X-135640D02*
G03I-2360J0D01*
G01X-138000D02*
X-152960D01*
G01X-138000D02*
Y-228284D01*
G01Y-243244D02*
X-123040D01*
G01X-108840Y52700D02*
Y55500D01*
X-110567Y53493D01*
X-108233D01*
G01X-128400Y95256D02*
G03I-12600J0D01*
G01X-133520D02*
G03I-7480J0D01*
G01X-138640D02*
G03I-2360J0D01*
G01X-141000D02*
X-155960D01*
G01X-141000D02*
Y80296D01*
G01Y95256D02*
Y110216D01*
G01Y95256D02*
X-126040D01*
G01X200600D02*
G03I-12600J0D01*
G01X188000D02*
Y80296D01*
G01X195480Y95256D02*
G03I-7480J0D01*
G01X190360D02*
G03I-2360J0D01*
G01X188000D02*
X173040D01*
G01X188000D02*
Y110216D01*
G01Y95256D02*
X202960D01*
G54D16*
G01X-107300Y51691D02*
X-103100D01*
Y56191D01*
X-107300D01*
Y51691D01*
G01X-111500D02*
X-107300D01*
Y56191D01*
X-111500D01*
Y51691D01*
G01X-115700D02*
X-111500D01*
Y56191D01*
X-115700D01*
Y51691D01*
G01X-119900D02*
X-115700D01*
Y56191D01*
X-119900D01*
Y51691D01*
G01X-124100D02*
X-119900D01*
Y56191D01*
X-124100D01*
Y51691D01*
G01X-94700Y51700D02*
X-90500D01*
Y56200D01*
X-94700D01*
Y51700D01*
G01X-98900D02*
X-94700D01*
Y56200D01*
X-98900D01*
Y51700D01*
G01X-103100Y51691D02*
X-98900D01*
Y56191D01*
X-103100D01*
Y51691D01*
G54D17*
G01X-211625Y-189334D02*
X-210750Y-188167D01*
X-210000Y-187500D01*
X-209000Y-187167D01*
X-208125Y-187500D01*
X-207500Y-188167D01*
X-207000Y-189167D01*
X-206875Y-190333D01*
X-207000Y-191333D01*
X-207500Y-192334D01*
X-208250Y-193167D01*
X-209125Y-193500D01*
X-210125Y-193167D01*
X-211000Y-192167D01*
X-211500Y-190667D01*
X-211625Y-189000D01*
X-211375Y-186834D01*
X-211000Y-185667D01*
X-210375Y-184500D01*
X-209500Y-183667D01*
X-208625Y-183500D01*
X-207750Y-183833D01*
X-207125Y-184667D01*
G01X-199250Y-183500D02*
X-200250Y-183833D01*
X-201000Y-184667D01*
X-201500Y-185667D01*
X-201875Y-187000D01*
X-202000Y-188500D01*
X-201875Y-190000D01*
X-201500Y-191333D01*
X-201000Y-192334D01*
X-200250Y-193167D01*
X-199250Y-193500D01*
X-198250Y-193167D01*
X-197500Y-192334D01*
X-197000Y-191333D01*
X-196625Y-190000D01*
X-196500Y-188500D01*
X-196625Y-187000D01*
X-197000Y-185667D01*
X-197500Y-184667D01*
X-198250Y-183833D01*
X-199250Y-183500D01*
G01X-189250D02*
X-190250Y-183833D01*
X-191000Y-184667D01*
X-191500Y-185667D01*
X-191875Y-187000D01*
X-192000Y-188500D01*
X-191875Y-190000D01*
X-191500Y-191333D01*
X-191000Y-192334D01*
X-190250Y-193167D01*
X-189250Y-193500D01*
X-188250Y-193167D01*
X-187500Y-192334D01*
X-187000Y-191333D01*
X-186625Y-190000D01*
X-186500Y-188500D01*
X-186625Y-187000D01*
X-187000Y-185667D01*
X-187500Y-184667D01*
X-188250Y-183833D01*
X-189250Y-183500D01*
G01X-180875Y-190167D02*
X-177625D01*
G01X-171625Y-189334D02*
X-170750Y-188167D01*
X-170000Y-187500D01*
X-169000Y-187167D01*
X-168125Y-187500D01*
X-167500Y-188167D01*
X-167000Y-189167D01*
X-166875Y-190333D01*
X-167000Y-191333D01*
X-167500Y-192334D01*
X-168250Y-193167D01*
X-169125Y-193500D01*
X-170125Y-193167D01*
X-171000Y-192167D01*
X-171500Y-190667D01*
X-171625Y-189000D01*
X-171375Y-186834D01*
X-171000Y-185667D01*
X-170375Y-184500D01*
X-169500Y-183667D01*
X-168625Y-183500D01*
X-167750Y-183833D01*
X-167125Y-184667D01*
G01X-159250Y-183500D02*
X-160250Y-183833D01*
X-161000Y-184667D01*
X-161500Y-185667D01*
X-161875Y-187000D01*
X-162000Y-188500D01*
X-161875Y-190000D01*
X-161500Y-191333D01*
X-161000Y-192334D01*
X-160250Y-193167D01*
X-159250Y-193500D01*
X-158250Y-193167D01*
X-157500Y-192334D01*
X-157000Y-191333D01*
X-156625Y-190000D01*
X-156500Y-188500D01*
X-156625Y-187000D01*
X-157000Y-185667D01*
X-157500Y-184667D01*
X-158250Y-183833D01*
X-159250Y-183500D01*
G01X-149250Y-193500D02*
Y-183500D01*
X-150750Y-185500D01*
G01Y-193500D02*
X-147750D01*
G01X-141375Y-192334D02*
X-140500Y-193167D01*
X-139500Y-193500D01*
X-138500Y-193167D01*
X-137625Y-192167D01*
X-137000Y-190667D01*
X-136750Y-189167D01*
Y-187333D01*
X-137000Y-185833D01*
X-137625Y-184500D01*
X-138375Y-183833D01*
X-139250Y-183500D01*
X-140250Y-183833D01*
X-141000Y-184500D01*
X-141500Y-185500D01*
X-141750Y-186834D01*
X-141500Y-188000D01*
X-140875Y-189167D01*
X-140125Y-189834D01*
X-139250Y-190000D01*
X-138250Y-189667D01*
X-137500Y-188833D01*
X-136750Y-187333D01*
G01X-129250Y-193500D02*
X-128375Y-193333D01*
X-127375Y-192833D01*
X-126750Y-192000D01*
X-126500Y-190833D01*
X-126750Y-189667D01*
X-127500Y-188667D01*
X-128625Y-188167D01*
X-129875D01*
X-130625Y-187833D01*
X-131250Y-187000D01*
X-131500Y-185833D01*
X-131125Y-184667D01*
X-130250Y-183833D01*
X-129250Y-183500D01*
X-128250Y-183833D01*
X-127375Y-184667D01*
X-127000Y-185833D01*
X-127250Y-187000D01*
X-127875Y-187833D01*
X-128625Y-188167D01*
X-129875D01*
X-131000Y-188667D01*
X-131750Y-189667D01*
X-132000Y-190833D01*
X-131750Y-192000D01*
X-131125Y-192833D01*
X-130125Y-193333D01*
X-129250Y-193500D01*
G01X-120875Y-190167D02*
X-117625D01*
G01X-109250Y-183500D02*
X-110250Y-183833D01*
X-111000Y-184667D01*
X-111500Y-185667D01*
X-111875Y-187000D01*
X-112000Y-188500D01*
X-111875Y-190000D01*
X-111500Y-191333D01*
X-111000Y-192334D01*
X-110250Y-193167D01*
X-109250Y-193500D01*
X-108250Y-193167D01*
X-107500Y-192334D01*
X-107000Y-191333D01*
X-106625Y-190000D01*
X-106500Y-188500D01*
X-106625Y-187000D01*
X-107000Y-185667D01*
X-107500Y-184667D01*
X-108250Y-183833D01*
X-109250Y-183500D01*
G01X-99250Y-193500D02*
Y-183500D01*
X-100750Y-185500D01*
G01Y-193500D02*
X-97750D01*
G01X-81875Y-192167D02*
X-80875Y-193000D01*
X-79750Y-193500D01*
X-78750D01*
X-77750Y-193000D01*
X-77000Y-192167D01*
X-76625Y-191000D01*
X-76875Y-189834D01*
X-77500Y-188833D01*
X-78625Y-188167D01*
X-80125Y-187833D01*
X-81000Y-187167D01*
X-81375Y-186000D01*
X-81125Y-184833D01*
X-80500Y-184000D01*
X-79625Y-183500D01*
X-78750D01*
X-77875Y-183833D01*
X-77125Y-184667D01*
G01X-72000Y-183500D02*
Y-190667D01*
X-71500Y-192167D01*
X-70500Y-193167D01*
X-69250Y-193500D01*
X-68000Y-193167D01*
X-67000Y-192167D01*
X-66500Y-190667D01*
Y-183500D01*
G01X-61750Y-193500D02*
Y-183500D01*
X-58750D01*
X-57750Y-184000D01*
X-57000Y-185167D01*
X-56750Y-186500D01*
X-57000Y-187833D01*
X-57625Y-188833D01*
X-58750Y-189334D01*
X-61750D01*
G01X-46750Y-193500D02*
X-51750D01*
Y-183500D01*
X-46750D01*
G01X-48750Y-188333D02*
X-51750D01*
G01X-41750Y-193500D02*
Y-183500D01*
X-38625D01*
X-37625Y-184000D01*
X-37000Y-184667D01*
X-36750Y-186000D01*
X-37000Y-187333D01*
X-37750Y-188167D01*
X-38625Y-188667D01*
X-41750D01*
G01X-38625D02*
X-36750Y-193500D01*
G01X-31875Y-192167D02*
X-30875Y-193000D01*
X-29750Y-193500D01*
X-28750D01*
X-27750Y-193000D01*
X-27000Y-192167D01*
X-26625Y-191000D01*
X-26875Y-189834D01*
X-27500Y-188833D01*
X-28625Y-188167D01*
X-30125Y-187833D01*
X-31000Y-187167D01*
X-31375Y-186000D01*
X-31125Y-184833D01*
X-30500Y-184000D01*
X-29625Y-183500D01*
X-28750D01*
X-27875Y-183833D01*
X-27125Y-184667D01*
G01X-21750Y-193500D02*
Y-183500D01*
X-18750D01*
X-17750Y-184000D01*
X-17000Y-185167D01*
X-16750Y-186500D01*
X-17000Y-187833D01*
X-17625Y-188833D01*
X-18750Y-189334D01*
X-21750D01*
G01X-6750Y-193500D02*
X-11750D01*
Y-183500D01*
X-6750D01*
G01X-8750Y-188333D02*
X-11750D01*
G01X3250Y-193500D02*
X-1750D01*
Y-183500D01*
X3250D01*
G01X1250Y-188333D02*
X-1750D01*
G01X8000Y-193500D02*
Y-183500D01*
X10500D01*
X11500Y-184000D01*
X12250Y-184667D01*
X12875Y-185667D01*
X13375Y-186834D01*
X13500Y-188500D01*
X13375Y-190167D01*
X12875Y-191333D01*
X12250Y-192334D01*
X11500Y-193000D01*
X10500Y-193500D01*
X8000D01*
G01X33250D02*
X28250D01*
Y-183500D01*
X33250D01*
G01X31250Y-188333D02*
X28250D01*
G01X38125Y-193500D02*
X43375Y-183500D01*
G01X38125D02*
X43375Y-193500D01*
G01X48250D02*
Y-183500D01*
X51250D01*
X52250Y-184000D01*
X53000Y-185167D01*
X53250Y-186500D01*
X53000Y-187833D01*
X52375Y-188833D01*
X51250Y-189334D01*
X48250D01*
G01X58250Y-183500D02*
Y-193500D01*
X63250D01*
G01X70750D02*
X69750Y-193333D01*
X68875Y-192667D01*
X68125Y-191667D01*
X67625Y-190500D01*
X67375Y-189167D01*
Y-187833D01*
X67625Y-186500D01*
X68125Y-185333D01*
X68875Y-184333D01*
X69750Y-183667D01*
X70750Y-183500D01*
X71750Y-183667D01*
X72625Y-184333D01*
X73375Y-185333D01*
X73875Y-186500D01*
X74125Y-187833D01*
Y-189167D01*
X73875Y-190500D01*
X73375Y-191667D01*
X72625Y-192667D01*
X71750Y-193333D01*
X70750Y-193500D01*
G01X78250D02*
Y-183500D01*
X81375D01*
X82375Y-184000D01*
X83000Y-184667D01*
X83250Y-186000D01*
X83000Y-187333D01*
X82250Y-188167D01*
X81375Y-188667D01*
X78250D01*
G01X81375D02*
X83250Y-193500D01*
G01X93250D02*
X88250D01*
Y-183500D01*
X93250D01*
G01X91250Y-188333D02*
X88250D01*
G01X98250Y-193500D02*
Y-183500D01*
X101375D01*
X102375Y-184000D01*
X103000Y-184667D01*
X103250Y-186000D01*
X103000Y-187333D01*
X102250Y-188167D01*
X101375Y-188667D01*
X98250D01*
G01X101375D02*
X103250Y-193500D01*
G01X118000D02*
Y-183500D01*
G01X122750D02*
X118000Y-189667D01*
G01X123500Y-193500D02*
X120125Y-186834D01*
G01X129250Y-183500D02*
X132250D01*
G01X130750D02*
Y-193500D01*
G01X129250D02*
X132250D01*
G01X140750Y-183500D02*
Y-193500D01*
G01X137875Y-183500D02*
X143625D01*
G01X158250Y-193500D02*
Y-183500D01*
X161375D01*
X162375Y-184000D01*
X163000Y-184667D01*
X163250Y-186000D01*
X163000Y-187333D01*
X162250Y-188167D01*
X161375Y-188667D01*
X158250D01*
G01X161375D02*
X163250Y-193500D01*
G01X173250D02*
X168250D01*
Y-183500D01*
X173250D01*
G01X171250Y-188333D02*
X168250D01*
G01X177625Y-183500D02*
X180750Y-193500D01*
X183875Y-183500D01*
G01X190750D02*
X189750Y-183833D01*
X189000Y-184667D01*
X188500Y-185667D01*
X188125Y-187000D01*
X188000Y-188500D01*
X188125Y-190000D01*
X188500Y-191333D01*
X189000Y-192334D01*
X189750Y-193167D01*
X190750Y-193500D01*
X191750Y-193167D01*
X192500Y-192334D01*
X193000Y-191333D01*
X193375Y-190000D01*
X193500Y-188500D01*
X193375Y-187000D01*
X193000Y-185667D01*
X192500Y-184667D01*
X191750Y-183833D01*
X190750Y-183500D01*
G01X202250Y-193500D02*
Y-183500D01*
X197625Y-190667D01*
X203875D01*
G01X218250Y-183500D02*
Y-193500D01*
X223250D01*
G01X230750Y-183500D02*
X229750Y-183833D01*
X229000Y-184667D01*
X228500Y-185667D01*
X228125Y-187000D01*
X228000Y-188500D01*
X228125Y-190000D01*
X228500Y-191333D01*
X229000Y-192334D01*
X229750Y-193167D01*
X230750Y-193500D01*
X231750Y-193167D01*
X232500Y-192334D01*
X233000Y-191333D01*
X233375Y-190000D01*
X233500Y-188500D01*
X233375Y-187000D01*
X233000Y-185667D01*
X232500Y-184667D01*
X231750Y-183833D01*
X230750Y-183500D01*
G01X242250Y-193500D02*
Y-183500D01*
X237625Y-190667D01*
X243875D01*
G01X249125Y-190167D02*
X252375D01*
G01X258250Y-193500D02*
Y-183500D01*
X261250D01*
X262250Y-184000D01*
X263000Y-185167D01*
X263250Y-186500D01*
X263000Y-187833D01*
X262375Y-188833D01*
X261250Y-189334D01*
X258250D01*
G01X267000Y-183500D02*
X268750Y-193500D01*
X270750Y-183500D01*
X272750Y-193500D01*
X274500Y-183500D01*
G01X278250Y-193500D02*
Y-183500D01*
X281375D01*
X282375Y-184000D01*
X283000Y-184667D01*
X283250Y-186000D01*
X283000Y-187333D01*
X282250Y-188167D01*
X281375Y-188667D01*
X278250D01*
G01X281375D02*
X283250Y-193500D01*
G01X290750D02*
Y-183500D01*
X289250Y-185500D01*
G01Y-193500D02*
X292250D01*
M02*
