G04 ================== begin FILE IDENTIFICATION RECORD ==================*
G04 Layout Name:  FX3_DVK_PROTO_REV3_PD14-0048_PCB_20140612_16p3.brd*
G04 Film Name:    L05_PWR2*
G04 File Format:  Gerber RS274X*
G04 File Origin:  Cadence Allegro 16.3-p003*
G04 Origin Date:  Wed Jul 23 11:09:01 2014*
G04 *
G04 Layer:  VIA CLASS/L05_PWR2*
G04 Layer:  PIN/L05_PWR2*
G04 Layer:  PACKAGE GEOMETRY/PCBNO*
G04 Layer:  MANUFACTURING/TITLE_BLOCK*
G04 Layer:  ETCH/L05_PWR2*
G04 Layer:  BOARD GEOMETRY/TITTLE_PWR2*
G04 Layer:  BOARD GEOMETRY/P2*
G04 Layer:  BOARD GEOMETRY/TARGET*
G04 *
G04 Offset:    (0.00 0.00)*
G04 Mirror:    No*
G04 Mode:      Positive*
G04 Rotation:  0*
G04 FullContactRelief:  No*
G04 UndefLineWidth:     5.00*
G04 ================== end FILE IDENTIFICATION RECORD ====================*
%FSLAX25Y25*MOIN*%
%IR0*IPPOS*OFA0.00000B0.00000*MIA0B0*SFA1.00000B1.00000*%
%ADD10C,.02*%
%ADD13C,.014*%
%ADD12C,.06*%
%ADD11C,.024*%
%ADD14C,.005*%
%ADD15C,.006*%
%ADD16C,.008*%
%ADD18C,.03204*%
%ADD26C,.0731*%
%ADD23C,.02504*%
%ADD19C,.08104*%
%ADD17C,.03604*%
%ADD20C,.02804*%
%ADD21C,.07404*%
%ADD22C,.07782*%
%ADD25C,.14396*%
%ADD24C,.19688*%
G75*
%LPD*%
G75*
G36*
G01X-129500Y-158554D02*
G02X-136999Y-151055I0J7499D01*
G01Y-93907D01*
G02X-136399Y-93561I400J-1D01*
G03X-133797Y-91412I899J1561D01*
G02X-133419Y-90882I378J130D01*
G01X-115489D01*
G02X-115092Y-91325I-1J-400D01*
G03X-111908I1592J-175D01*
G02X-111510Y-90882I398J43D01*
G01X-111490D01*
G02X-111092Y-91325I0J-400D01*
G03X-107908I1592J-175D01*
G02X-107511Y-90882I398J43D01*
G01X-100588D01*
G03X-100311Y-91200I1336J884D01*
G02Y-91800I-265J-300D01*
G03X-100020Y-94405I1061J-1200D01*
G02X-100016Y-95104I-192J-351D01*
G03X-100538Y-95576I787J-1395D01*
G02X-101192I-327J231D01*
G03X-103900Y-95722I-1308J-924D01*
G02X-104600I-350J194D01*
G03X-107400I-1400J-778D01*
G02X-108100I-350J194D01*
G03Y-97278I-1400J-778D01*
G02X-107400I350J-194D01*
G03X-104600I1400J778D01*
G02X-103900I350J-194D01*
G03X-101192Y-97424I1400J778D01*
G02X-100538I327J-231D01*
G03X-100016Y-97896I1309J923D01*
G02X-100020Y-98595I-196J-348D01*
G03X-100311Y-101200I770J-1405D01*
G02Y-101800I-265J-300D01*
G03Y-104200I1061J-1200D01*
G02Y-104800I-265J-300D01*
G03X-98189I1061J-1200D01*
G02Y-104200I265J300D01*
G03Y-101800I-1061J1200D01*
G02Y-101200I265J300D01*
G03X-98464Y-98604I-1061J1200D01*
G02X-98460Y-97905I196J348D01*
G03X-97938Y-97447I-770J1405D01*
G02X-97292I323J-236D01*
G03X-94600Y-97278I1292J947D01*
G02X-93900I350J-194D01*
G03X-91100I1400J778D01*
G02X-90400I350J-194D01*
G03Y-95722I1400J778D01*
G02X-91100I-350J194D01*
G03X-93900I-1400J-778D01*
G02X-94600I-350J194D01*
G03X-97292Y-95553I-1400J-778D01*
G02X-97938I-323J236D01*
G03X-98460Y-95095I-1292J-947D01*
G02X-98464Y-94396I192J351D01*
G03X-98189Y-91800I-786J1396D01*
G02Y-91200I265J300D01*
G03X-97912Y-90882I-1059J1202D01*
G01X-90989D01*
G02X-90592Y-91325I-1J-400D01*
G03X-87408I1592J-175D01*
G02X-87011Y-90882I398J43D01*
G01X-78028D01*
Y-88236D01*
G02X-77614Y-87837I400J-1D01*
G03Y-79739I144J4049D01*
G02X-78028Y-79340I-14J400D01*
G01Y-52188D01*
G03X-77266Y-51273I-2390J2765D01*
G02X-76572Y-51280I345J-203D01*
G03X-75572Y-52109I1573J879D01*
G02X-75354Y-52691I-127J-379D01*
G03X-75563Y-55573I2811J-1652D01*
G02X-75873Y-56119I-371J-151D01*
G03X-75937Y-59670I273J-1781D01*
G02X-75633Y-60191I-75J-393D01*
G03X-75129Y-63219I3090J-1042D01*
G02X-75256Y-63814I-317J-243D01*
G03X-72649Y-64976I856J-1586D01*
G02X-72291Y-64483I389J94D01*
G03X-70153Y-63451I-251J3251D01*
G02X-69540Y-63483I293J-272D01*
G03X-68822Y-60749I1440J1083D01*
G02X-69371Y-60475I-160J367D01*
G03X-71438Y-58164I-3172J-757D01*
G02Y-57411I135J377D01*
G03X-72788Y-51091I-1105J3068D01*
G02X-73214Y-50639I-30J399D01*
G03X-76165Y-49025I-1786J239D01*
G02X-76817Y-48789I-258J305D01*
G03X-78028Y-46654I-3600J-631D01*
G01Y-42346D01*
G03X-76810Y-40171I-2389J2766D01*
G02X-76195Y-39903I394J-65D01*
G03X-73400Y-38309I995J1503D01*
G02X-72951Y-37892I399J20D01*
G03X-71438Y-31589I407J3235D01*
G02Y-30836I135J377D01*
G03X-72759Y-24514I-1105J3068D01*
G02X-73170Y-24003I-27J399D01*
G03X-75395Y-25233I-1730J503D01*
G02X-75182Y-25852I-111J-384D01*
G03X-75609Y-28880I2639J-1916D01*
G02X-75933Y-29413I-376J-137D01*
G03X-75926Y-32988I233J-1787D01*
G02X-75601Y-33524I-50J-397D01*
G03X-75463Y-36109I3058J-1133D01*
G02X-75708Y-36671I-358J-178D01*
G03X-76744Y-37471I508J-1729D01*
G02X-77415Y-37493I-343J206D01*
G03X-78028Y-36812I-3002J-2086D01*
G01Y-22178D01*
X-91426D01*
G02X-91822Y-21727I0J400D01*
G03X-106098I-7138J928D01*
G02X-106494Y-22178I-396J-51D01*
G01X-107856D01*
G02X-108224Y-21623I0J400D01*
G03X-111176I-1476J623D01*
G02X-111544Y-22178I-368J-155D01*
G01X-112856D01*
G02X-113224Y-21623I0J400D01*
G03X-116176I-1476J623D01*
G02X-116544Y-22178I-368J-155D01*
G01X-117856D01*
G02X-118224Y-21623I0J400D01*
G03X-121176I-1476J623D01*
G02X-121544Y-22178I-368J-155D01*
G01X-122856D01*
G02X-123224Y-21623I0J400D01*
G03X-126176I-1476J623D01*
G02X-126544Y-22178I-368J-155D01*
G01X-127856D01*
G02X-128224Y-21623I0J400D01*
G03X-131176I-1476J623D01*
G02X-131544Y-22178I-368J-155D01*
G01X-132856D01*
G02X-133224Y-21623I0J400D01*
G03X-136176I-1476J623D01*
G02X-136544Y-22178I-368J-155D01*
G01X-136999D01*
Y49567D01*
G02X-129500Y57066I7499J0D01*
G01X-125502D01*
Y50498D01*
X-88998D01*
Y57066D01*
X174500D01*
G02X181999Y49567I0J-7499D01*
G01Y-33942D01*
G02X181572Y-34341I-400J0D01*
G03X181350Y-34334I-212J-3206D01*
G01X178987D01*
G03Y-40760I1J-3213D01*
G01X181350D01*
G03X181572Y-40753I10J3213D01*
G02X181999Y-41152I27J-399D01*
G01Y-59336D01*
G02X181572Y-59735I-400J0D01*
G03X181350Y-59728I-212J-3206D01*
G01X178987D01*
G03Y-66154I1J-3213D01*
G01X181350D01*
G03X181572Y-66147I10J3213D01*
G02X181999Y-66546I27J-399D01*
G01Y-102486D01*
G02X181309Y-102761I-400J0D01*
G03Y-105239I-1309J-1239D01*
G02X181999Y-105514I290J-275D01*
G01Y-151055D01*
G02X174500Y-158554I-7499J0D01*
G01X-129500D01*
G37*
G36*
G01X-136996Y-88880D02*
Y-87410D01*
G02X-136397Y-87063I400J0D01*
G03Y-83937I897J1563D01*
G02X-136996Y-83590I-199J347D01*
G01Y-73910D01*
G02X-136397Y-73563I400J0D01*
G03Y-70437I897J1563D01*
G02X-136996Y-70090I-199J347D01*
G01Y-24180D01*
X-105315D01*
G03X-92605I6355J3381D01*
G01X-80030D01*
Y-35524D01*
G02X-80429Y-35924I-400J0D01*
G03X-81966Y-36269I13J-3655D01*
G02X-82529Y-35833I-170J362D01*
G03X-86061Y-35880I-1771J333D01*
G02X-86634Y-36321I-391J-85D01*
G03X-85070Y-37851I-1657J-3258D01*
G02X-84642Y-37269I352J189D01*
G03X-84055Y-37285I342J1769D01*
G02X-83647Y-37869I55J-396D01*
G03X-80429Y-43234I3230J-1710D01*
G02X-80030Y-43634I-1J-400D01*
G01Y-45366D01*
G02X-80429Y-45766I-400J0D01*
G03Y-53076I12J-3655D01*
G02X-80030Y-53476I-1J-400D01*
G01Y-80647D01*
G03Y-86929I2560J-3141D01*
G01Y-88880D01*
X-87652D01*
G02X-87921Y-88184I0J400D01*
G03X-90079I-1079J1184D01*
G02X-90348Y-88880I-269J-296D01*
G01X-92152D01*
G02X-92421Y-88184I0J400D01*
G03X-94579I-1079J1184D01*
G02X-94848Y-88880I-269J-296D01*
G01X-98105D01*
G03X-98189Y-88800I-1146J-1119D01*
G02Y-88200I265J300D01*
G03X-100311I-1061J1200D01*
G02Y-88800I-265J-300D01*
G03X-100395Y-88880I1062J-1199D01*
G01X-103652D01*
G02X-103921Y-88184I0J400D01*
G03X-106079I-1079J1184D01*
G02X-106348Y-88880I-269J-296D01*
G01X-108152D01*
G02X-108421Y-88184I0J400D01*
G03X-110579I-1079J1184D01*
G02X-110848Y-88880I-269J-296D01*
G01X-136996D01*
G37*
%LPC*%
G75*
G36*
G01X-71281Y-141888D02*
G02X-73569Y-141929I-1119J-1412D01*
G03X-73699Y-141246I-260J304D01*
G02X-71175Y-141201I1200J3502D01*
G03X-71281Y-141888I143J-374D01*
G37*
G36*
G01X-83992Y-125318D02*
G02X-85778Y-125714I-608J-1482D01*
G03X-86052Y-125044I-294J271D01*
G02X-89362Y-122837I200J3886D01*
G03X-89937Y-122671I-361J-172D01*
G02X-92171Y-122430I-966J1521D01*
G03X-92735I-282J-284D01*
G02Y-119870I-1268J1280D01*
G03X-92171I282J284D01*
G02X-89933Y-119632I1268J-1280D01*
G03X-89357Y-119468I215J337D01*
G02X-88544Y-118348I3505J-1689D01*
G03X-88596Y-117728I-276J289D01*
G02X-86142Y-116775I896J1328D01*
G03X-85763Y-117268I389J-93D01*
G02X-82283Y-119608I-89J-3890D01*
G03X-81616Y-119713I367J159D01*
G02X-81503Y-122213I1352J-1191D01*
G03X-82157Y-122378I-274J-291D01*
G02X-84027Y-124595I-3695J1220D01*
G03X-83992Y-125318I187J-353D01*
G37*
G36*
G01X89096Y-116228D02*
G02X89079Y-117740I1404J-772D01*
G03X88374Y-117732I-355J-185D01*
G02X88391Y-116220I-1404J772D01*
G03X89096Y-116228I355J185D01*
G37*
G36*
G01X-57863Y-109654D02*
G02Y-108146I-1637J754D01*
G03X-57137I363J167D01*
G02Y-109654I1637J-754D01*
G03X-57863I-363J-167D01*
G37*
G36*
G01X83322Y-101914D02*
G02X83065Y-103713I1178J-1086D01*
G03X82397Y-103638I-358J-178D01*
G02X82660Y-101799I-1397J1138D01*
G03X83322Y-101914I368J156D01*
G37*
G36*
G01X-46359Y-81174D02*
G02X-46895Y-82955I981J-1266D01*
G03X-47519Y-82767I-379J-128D01*
G02X-46983Y-80986I-981J1266D01*
G03X-46359Y-81174I379J128D01*
G37*
G36*
G01X12531Y-77468D02*
G02X11468Y-78531I469J-1532D01*
G03X10969Y-78032I-382J117D01*
G02X12032Y-76969I-469J1532D01*
G03X12531Y-77468I382J-117D01*
G37*
G36*
G01X-67506Y-73997D02*
G02X-69559Y-74042I-994J-1503D01*
G03X-69574Y-73385I-236J323D01*
G02X-67521Y-73340I994J1503D01*
G03X-67506Y-73997I236J-323D01*
G37*
G36*
G01X-47425Y-61709D02*
G02X-48709Y-60425I-1575J-291D01*
G03X-48249Y-59935I72J393D01*
G02X-46935Y-61249I1749J435D01*
G03X-47425Y-61709I-97J-388D01*
G37*
G36*
G01X30346Y-46007D02*
G02X28534Y-45952I-946J-1293D01*
G03X28554Y-45293I-216J336D01*
G02X30366Y-45348I946J1293D01*
G03X30346Y-46007I216J-336D01*
G37*
G36*
G01X-46556Y-14706D02*
G02X-48044Y-14493I-944J-1294D01*
G03X-47944Y-13794I-136J376D01*
G02X-47713Y-11065I944J1294D01*
G03X-47638Y-10397I-178J358D01*
G02X-45799Y-10660I1138J1397D01*
G03X-45914Y-11322I156J-368D01*
G02X-46456Y-14007I-1086J-1178D01*
G03X-46556Y-14706I136J-376D01*
G37*
G36*
G01X-86586Y-8028D02*
G02Y-6196I-1552J916D01*
G03X-85910Y-6216I344J203D01*
G02Y-8008I1328J-896D01*
G03X-86586Y-8028I-332J-223D01*
G37*
G36*
G01X-79329Y961D02*
G02X-80254Y2116I-1571J-311D01*
G03X-79700Y2560I162J366D01*
G02X-79712Y2624I1568J327D01*
G03X-80265Y2929I-395J-62D01*
G02X-79317Y4647I-635J1471D01*
G03X-78764Y4342I395J62D01*
G02X-78775Y1405I635J-1471D01*
G03X-79329Y961I-162J-366D01*
G37*
G36*
G01X-47689Y2700D02*
G02X-49811I-1061J-1200D01*
G03Y3300I-265J300D01*
G02X-50050Y3564I1061J1200D01*
G03X-50700I-325J-233D01*
G02X-53400Y3722I-1300J936D01*
G03X-54100I-350J-194D01*
G02X-56900I-1400J778D01*
G03X-57600I-350J-194D01*
G02Y5278I-1400J778D01*
G03X-56900I350J194D01*
G02X-54100I1400J-778D01*
G03X-53400I350J194D01*
G02X-50700Y5436I1400J-778D01*
G03X-50050I325J233D01*
G02X-49811Y5700I1300J-936D01*
G03Y6300I-265J300D01*
G02Y8700I1061J1200D01*
G03Y9300I-265J300D01*
G02X-47689I1061J1200D01*
G03Y8700I265J-300D01*
G02Y6300I-1061J-1200D01*
G03Y5700I265J-300D01*
G02X-47450Y5436I-1061J-1200D01*
G03X-46800I325J233D01*
G02X-44100Y5278I1300J-936D01*
G03X-43400I350J194D01*
G02X-40600I1400J-778D01*
G03X-39900I350J194D01*
G02Y3722I1400J-778D01*
G03X-40600I-350J-194D01*
G02X-43400I-1400J778D01*
G03X-44100I-350J-194D01*
G02X-46800Y3564I-1400J778D01*
G03X-47450I-325J-233D01*
G02X-47689Y3300I-1300J936D01*
G03Y2700I265J-300D01*
G37*
G36*
G01X153778Y3400D02*
G02X152222I-778J-1400D01*
G03Y4100I-194J350D01*
G02X153778I778J1400D01*
G03Y3400I194J-350D01*
G37*
G36*
G01X-41439Y-91700D02*
G03Y-92300I265J-300D01*
G02X-43561I-1061J-1200D01*
G03Y-91700I-265J300D01*
G02X-41439I1061J1200D01*
G37*
G36*
G01X-35939D02*
G03Y-92300I265J-300D01*
G02X-38061I-1061J-1200D01*
G03Y-91700I-265J300D01*
G02X-35939I1061J1200D01*
G37*
G36*
G01X-30439D02*
G03Y-92300I265J-300D01*
G02X-32561I-1061J-1200D01*
G03Y-91700I-265J300D01*
G02X-30439I1061J1200D01*
G37*
G36*
G01X-24939D02*
G03Y-92300I265J-300D01*
G02X-27061I-1061J-1200D01*
G03Y-91700I-265J300D01*
G02X-24939I1061J1200D01*
G37*
G36*
G01X-19439D02*
G03Y-92300I265J-300D01*
G02X-21561I-1061J-1200D01*
G03Y-91700I-265J300D01*
G02X-19439I1061J1200D01*
G37*
G36*
G01X-13939D02*
G03Y-92300I265J-300D01*
G02X-16061I-1061J-1200D01*
G03Y-91700I-265J300D01*
G02X-13939I1061J1200D01*
G37*
G36*
G01X-8439D02*
G03Y-92300I265J-300D01*
G02X-10561I-1061J-1200D01*
G03Y-91700I-265J300D01*
G02X-8439I1061J1200D01*
G37*
G36*
G01X-2939D02*
G03Y-92300I265J-300D01*
G02X-5061I-1061J-1200D01*
G03Y-91700I-265J300D01*
G02X-2939I1061J1200D01*
G37*
G36*
G01X2561D02*
G03Y-92300I265J-300D01*
G02X439I-1061J-1200D01*
G03Y-91700I-265J300D01*
G02X2561I1061J1200D01*
G37*
G36*
G01X8061D02*
G03Y-92300I265J-300D01*
G02X5939I-1061J-1200D01*
G03Y-91700I-265J300D01*
G02X8061I1061J1200D01*
G37*
G36*
G01X13561D02*
G03Y-92300I265J-300D01*
G02X11439I-1061J-1200D01*
G03Y-91700I-265J300D01*
G02X13561I1061J1200D01*
G37*
G36*
G01X19061D02*
G03Y-92300I265J-300D01*
G02X16939I-1061J-1200D01*
G03Y-91700I-265J300D01*
G02X19061I1061J1200D01*
G37*
G36*
G01X24561D02*
G03Y-92300I265J-300D01*
G02X22439I-1061J-1200D01*
G03Y-91700I-265J300D01*
G02X24561I1061J1200D01*
G37*
G36*
G01X30061D02*
G03Y-92300I265J-300D01*
G02X27939I-1061J-1200D01*
G03Y-91700I-265J300D01*
G02X30061I1061J1200D01*
G37*
G36*
G01X-32510Y-80243D02*
G03X-33050Y-80275I-253J-310D01*
G02X-33190Y-77917I-1150J1115D01*
G03X-32650Y-77885I253J310D01*
G02X-32510Y-80243I1150J-1115D01*
G37*
G36*
G01X42800Y-72561D02*
G03X42200I-300J-265D01*
G02Y-70439I-1200J1061D01*
G03X42800I300J265D01*
G02Y-72561I1200J-1061D01*
G37*
G36*
G01X-40975Y-68510D02*
G03X-40475Y-68770I381J122D01*
G02X-41525Y-70790I475J-1530D01*
G03X-42025Y-70530I-381J-122D01*
G02X-40975Y-68510I-475J1530D01*
G37*
G36*
G01X42800Y-67061D02*
G03X42200I-300J-265D01*
G02Y-64939I-1200J1061D01*
G03X42800I300J265D01*
G02Y-67061I1200J-1061D01*
G37*
G36*
G01Y-61561D02*
G03X42200I-300J-265D01*
G02Y-59439I-1200J1061D01*
G03X42800I300J265D01*
G02Y-61561I1200J-1061D01*
G37*
G36*
G01X42921Y-53360D02*
G03X43440Y-53540I355J185D01*
G02X42679Y-55740I660J-1460D01*
G03X42160Y-55560I-355J-185D01*
G02X42921Y-53360I-660J1460D01*
G37*
G36*
G01X42800Y-50561D02*
G03X42200I-300J-265D01*
G02Y-48439I-1200J1061D01*
G03X42800I300J265D01*
G02Y-50561I1200J-1061D01*
G37*
G36*
G01X-69088Y-45936D02*
G03X-69681Y-46063I-242J-319D01*
G02Y-42937I-2862J1563D01*
G03X-69088Y-43064I351J192D01*
G02Y-45936I1088J-1436D01*
G37*
G36*
G01X42800Y-45061D02*
G03X42200I-300J-265D01*
G02Y-42939I-1200J1061D01*
G03X42800I300J265D01*
G02Y-45061I1200J-1061D01*
G37*
G36*
G01Y-39561D02*
G03X42200I-300J-265D01*
G02Y-37439I-1200J1061D01*
G03X42800I300J265D01*
G02Y-39561I1200J-1061D01*
G37*
G36*
G01X-24681Y-35947D02*
G03Y-36553I261J-303D01*
G02X-26319I-819J-947D01*
G03Y-35947I-261J303D01*
G02X-24681I819J947D01*
G37*
G36*
G01X42800Y-34061D02*
G03X42200I-300J-265D01*
G02Y-31939I-1200J1061D01*
G03X42800I300J265D01*
G02Y-34061I1200J-1061D01*
G37*
G36*
G01Y-28561D02*
G03X42200I-300J-265D01*
G02Y-26439I-1200J1061D01*
G03X42800I300J265D01*
G02Y-28561I1200J-1061D01*
G37*
G36*
G01X10331Y-25359D02*
G03X10891Y-25563I371J149D01*
G02X10319Y-27133I590J-1104D01*
G03X9759Y-26929I-371J-149D01*
G02X10331Y-25359I-590J1104D01*
G37*
G36*
G01X-44243Y-23581D02*
G03X-43777Y-23922I397J53D01*
G02X-45088Y-25709I277J-1578D01*
G03X-45554Y-25368I-397J-53D01*
G02X-44243Y-23581I-277J1578D01*
G37*
G36*
G01X42800Y-23061D02*
G03X42200I-300J-265D01*
G02Y-20939I-1200J1061D01*
G03X42800I300J265D01*
G02Y-23061I1200J-1061D01*
G37*
G36*
G01Y-17561D02*
G03X42200I-300J-265D01*
G02Y-15439I-1200J1061D01*
G03X42800I300J265D01*
G02Y-17561I1200J-1061D01*
G37*
G36*
G01X-9851Y-10699D02*
G03X-10157Y-11259I58J-395D01*
G02X-11935Y-10203I-1643J-741D01*
G03X-11590Y-9666I-30J399D01*
G02X-11665Y-8843I1504J552D01*
G03X-12067Y-8376I-394J67D01*
G02X-12276Y-8367I-27J1802D01*
G03X-12708Y-8835I-38J-398D01*
G02X-14245Y-7513I-1577J-279D01*
G03X-13847Y-7015I10J400D01*
G02X-10353Y-7017I1747J441D01*
G03X-9990Y-7515I388J-99D01*
G02X-9851Y-10699I-96J-1599D01*
G37*
G36*
G01X42800Y-12061D02*
G03X42200I-300J-265D01*
G02Y-9939I-1200J1061D01*
G03X42800I300J265D01*
G02Y-12061I1200J-1061D01*
G37*
G36*
G01X-107679Y-36825D02*
G03X-107551Y-37461I294J-272D01*
G02X-109621Y-37875I-749J-1639D01*
G03X-109749Y-37239I-294J272D01*
G02X-107679Y-36825I749J1639D01*
G37*
G36*
G01X-121722Y-77600D02*
G02X-123278I-778J-1400D01*
G03Y-76900I-194J350D01*
G02X-121722I778J1400D01*
G03Y-77600I194J-350D01*
G37*
G54D18*
X161240Y-53758D03*
Y-49290D03*
X161000Y-17000D03*
Y15700D03*
X168500Y-71800D03*
X170059Y-89559D03*
X172500Y-68600D03*
X165000Y-68000D03*
X165500Y-97000D03*
X160000Y-67500D03*
X166000Y-75500D03*
X160500Y-75000D03*
X125441Y-20441D03*
X146772Y-32641D03*
X151668Y-42832D03*
X125441Y-14941D03*
Y-25941D03*
Y-31441D03*
X156000Y-27500D03*
X137900Y-41300D03*
X140500Y10500D03*
X157000D03*
X44000Y-5500D03*
X55500Y-33000D03*
Y-38500D03*
X47183Y8059D03*
X62450Y-11000D03*
Y-5500D03*
X46000Y1000D03*
X67500Y-45500D03*
X55500Y-22000D03*
X119941Y-3559D03*
X62000Y-16500D03*
X55500Y-27500D03*
Y-44000D03*
X156100Y28600D03*
X52300Y-90800D03*
X80500Y-109500D03*
X128500Y-102500D03*
X66000Y-79500D03*
X128500Y-97000D03*
X101659Y-97159D03*
X114500Y-117400D03*
X109000D03*
X103000Y-116000D03*
X98000Y-117000D03*
X155408Y-59800D03*
X107300Y-99200D03*
X81500Y-117000D03*
X63600Y-88000D03*
X147928Y-59800D03*
X119400Y-74060D03*
X64400Y-63800D03*
X61000Y-59000D03*
X122000Y-77500D03*
X55500Y-66000D03*
Y-71500D03*
X140000Y-114000D03*
X64500Y-102000D03*
X134500Y-110520D03*
X117050Y-102550D03*
X-50299Y-23790D03*
X-75000Y19000D03*
X24500Y-500D03*
X-44975Y-47575D03*
X9500Y2941D03*
X-38500Y-49500D03*
X16059Y8059D03*
X29500Y-5500D03*
Y-11000D03*
Y-16500D03*
Y-22000D03*
Y-27500D03*
Y-33000D03*
Y-38500D03*
X28500Y-53000D03*
X9559Y8059D03*
X-31300Y-46800D03*
X16122Y2941D03*
X2559Y8059D03*
X6000Y-4000D03*
X-48750Y-46000D03*
X-44975Y-35575D03*
X-38500Y-53298D03*
X-44975Y-39575D03*
Y-43575D03*
X-54299Y-23790D03*
X-34500Y-18000D03*
X-67583Y-6082D03*
X-19620Y9997D03*
X-43500Y-5000D03*
X-38500Y0D03*
X-59000Y-5000D03*
Y9000D03*
Y0D03*
X-38500Y9000D03*
X-59500Y-11500D03*
X1500Y-79000D03*
X-9500D03*
X-26000D03*
X-15000D03*
X-4000D03*
X-42500Y-104500D03*
X-20500Y-79000D03*
X29500Y-60500D03*
Y-66000D03*
Y-71500D03*
X6666Y-78500D03*
X18000Y-79000D03*
X29000Y-104500D03*
X-9500D03*
X23500Y-79000D03*
X29000D03*
X-52500Y-81500D03*
X-38500Y-57500D03*
X-15000Y-104700D03*
X-31500Y-104600D03*
X-60000Y-62000D03*
X-55000D03*
X-134700Y-15500D03*
X-119700D03*
X-129700D03*
X-124700D03*
X-109700D03*
X-124449Y-10500D03*
X-114700Y-15500D03*
X-93000Y36500D03*
X-88500Y32000D03*
X-84100Y27500D03*
Y32000D03*
Y36500D03*
Y41000D03*
X-88500Y27500D03*
Y36500D03*
Y41000D03*
X-93000D03*
X-94500Y18000D03*
X-91400Y15400D03*
X-113500Y-101500D03*
X-89000Y-106000D03*
Y-101500D03*
X-109500Y-106000D03*
Y-101500D03*
X-94000Y-106000D03*
X-104500D03*
X-113500Y-106500D03*
X-81700Y-116400D03*
X-87700Y-111400D03*
X-90600Y-143300D03*
X-81700Y-111400D03*
X-93700D03*
Y-116400D03*
X-84600Y-131300D03*
Y-137300D03*
Y-143300D03*
X-90600Y-131300D03*
Y-126800D03*
X-124500Y-117000D03*
X-102600Y-115200D03*
X-103000Y-121500D03*
X-131500Y-112000D03*
X-125000Y-111500D03*
X-131000Y-117000D03*
X-113500Y-86500D03*
X-95600Y-38900D03*
X-127700Y-32500D03*
X-124700Y-26500D03*
X-119700D03*
X-134700D03*
X-116900Y-42300D03*
X-121100Y-46300D03*
X-95600Y-48700D03*
X-99800Y-41900D03*
X-109700Y-26500D03*
X-114700D03*
X-127700Y-38500D03*
X-95600Y-44500D03*
X-117100Y-34600D03*
X-121700Y-38500D03*
Y-32500D03*
X-99700Y-35700D03*
X-129700Y-26500D03*
G54D26*
X-88291Y-49421D03*
G54D23*
X-9728Y-54171D03*
X-25500Y-55000D03*
X-19177Y-54171D03*
Y-51021D03*
X-12877Y-57320D03*
Y-54171D03*
X-9727Y-51021D03*
X-16027Y-57320D03*
Y-54171D03*
X-9728Y-57320D03*
X-19177D03*
X12320Y-54171D03*
Y-57320D03*
X9170Y-51021D03*
X-280Y-57321D03*
X9169Y-47871D03*
X-9728Y-38423D03*
X-6570Y-35281D03*
X-9728Y-35274D03*
X-3429Y-38423D03*
X6020Y-35274D03*
Y-38423D03*
X9169Y-35274D03*
X-278D03*
X2871Y-35273D03*
X-280Y-41572D03*
X9169Y-38423D03*
Y-44722D03*
X2871Y-38422D03*
X-3422Y-41576D03*
X2872Y-41572D03*
X2871Y-44722D03*
X-280Y-47871D03*
X-275Y-44725D03*
X13000Y-51000D03*
X-3429Y-35274D03*
X-9728Y-44722D03*
Y-47871D03*
X-3429Y-44722D03*
X9169Y-54171D03*
X6020Y-47871D03*
X9169Y-57320D03*
X6020Y-54171D03*
X6021Y-51021D03*
X6020Y-57320D03*
X2873Y-51023D03*
X2872Y-47875D03*
X-3429Y-47871D03*
X-280Y-54171D03*
X-279Y-51021D03*
X-3428D03*
X-3429Y-54171D03*
X-19200Y-44700D03*
X-19177Y-41572D03*
Y-47871D03*
X-12877D03*
Y-44722D03*
X-16027Y-47871D03*
X-16025Y-44729D03*
X-19177Y-35274D03*
X-18333Y-29817D03*
X-12877Y-32123D03*
X-19176Y-38423D03*
X-12877D03*
X-16027Y-38422D03*
Y-35273D03*
Y-25824D03*
X-16026Y-32123D03*
X-12877Y-25825D03*
Y-28974D03*
X-19900Y-20900D03*
X-15441Y-20000D03*
X-3429Y-25825D03*
Y-28974D03*
X-3428Y-32123D03*
X9170D03*
X2871D03*
X-280Y-28974D03*
X2871Y-28973D03*
X6020Y-28974D03*
X9169D03*
X6021Y-32123D03*
X-279D03*
X16538Y-33623D03*
X12600Y-23500D03*
X-300Y-19849D03*
X-280Y-25825D03*
X2871Y-25824D03*
X6020Y-25825D03*
X9169Y-22674D03*
X-9500Y-18500D03*
X6100Y-41600D03*
X-23710Y-25550D03*
X-24763Y-51737D03*
X2871Y-22674D03*
X17500Y-29000D03*
X-6575Y-51027D03*
X-22500Y-58200D03*
X-5000Y-62100D03*
G54D19*
X176000Y15500D03*
Y5500D03*
X48800Y-82524D03*
X38800D03*
X-67470Y-83788D03*
X-132000Y-1500D03*
Y8500D03*
G54D17*
X167000Y-30000D03*
X161000Y-10079D03*
X170059Y-11059D03*
X179000Y-20000D03*
X173500D03*
X159500Y-38500D03*
X167000Y-24000D03*
X172315Y-47685D03*
X163000Y-45500D03*
X172315Y-55362D03*
X165500Y-80000D03*
X176846Y-89654D03*
X163300Y-58600D03*
X173740Y-97850D03*
X147756Y-15000D03*
X124000Y-55500D03*
Y-47500D03*
X150700Y-51500D03*
X142756Y-15000D03*
X147756Y-20000D03*
X152756D03*
X142756D03*
X147756Y-10000D03*
X152756D03*
X142756D03*
X152756Y-15000D03*
X124000Y-41000D03*
X135500Y-6500D03*
X147000Y-37559D03*
X130500Y-4000D03*
X143400Y-41500D03*
X130500Y-41000D03*
Y-47500D03*
Y-55500D03*
Y1270D03*
X134500Y14000D03*
X141500Y-95000D03*
X48500Y-100500D03*
X148693Y-80307D03*
Y-99307D03*
X53244Y-106500D03*
X148693Y-90701D03*
X124000Y-64000D03*
X130500D03*
X93000Y-88000D03*
X110500D03*
X135500Y-61500D03*
X-270Y-5760D03*
X-61990Y-36990D03*
X-23500Y-12000D03*
X-62700Y-29500D03*
X-67700Y-25000D03*
X-62200Y-52240D03*
X-55470Y-52090D03*
X-35000Y-35000D03*
X-52900Y-36940D03*
X-49270Y-34120D03*
X-60280Y-18090D03*
X-57180Y-33260D03*
X-69570Y-9690D03*
X-41100Y-8800D03*
X-20578Y-71200D03*
X9000Y-70500D03*
X-63100Y-58500D03*
X-28500Y-64000D03*
X33500Y-90500D03*
X-13800Y-113000D03*
X-50580Y-56950D03*
X4900Y-111100D03*
X-23200Y-112800D03*
X-42600Y-113800D03*
X-1600Y-114800D03*
X-67500Y-120900D03*
Y-115900D03*
X-53848Y-102870D03*
X-55500Y-114900D03*
X-61500Y-120900D03*
Y-115900D03*
X-76900Y-132800D03*
X-67900D03*
X-53700Y-96300D03*
X-59500Y-102900D03*
Y-96900D03*
X-72800Y-120900D03*
X-67400Y-143300D03*
X-68500Y-94000D03*
X-9500Y-119500D03*
X-88240Y-12900D03*
X-90000Y23000D03*
X-121500Y-4000D03*
X-118800Y15400D03*
X-130000Y17500D03*
X-101500Y33500D03*
X-85500Y23000D03*
X-119100Y600D03*
X-114500Y43700D03*
X-134200Y17600D03*
X-86000Y6000D03*
X-77700Y-143200D03*
X-130500Y-72000D03*
X-134500Y-81500D03*
X-113500D03*
X-110000Y-74000D03*
X-132346Y-67346D03*
X-132700Y-59200D03*
X-94970Y-30240D03*
X-111100Y-47200D03*
X-111200Y-43000D03*
X-111600Y-52000D03*
X-104400Y-35500D03*
Y-30400D03*
X-129000Y-52100D03*
G54D20*
X105152Y-8604D03*
X86360Y-28604D03*
Y-37396D03*
X81360D03*
X86360Y-23604D03*
X96360D03*
X91360Y-3604D03*
X96360D03*
X86360Y6396D03*
X115152Y-8604D03*
X105152Y-3604D03*
X115790Y10340D03*
X91360Y-52396D03*
X110152Y-18604D03*
X96360Y-42396D03*
X91360D03*
X115152Y1396D03*
X98256Y12500D03*
X110152Y-8604D03*
X91360Y-37396D03*
X86360Y-3604D03*
X81360D03*
X91360Y-18604D03*
X81360D03*
X86360Y-52396D03*
Y-8604D03*
X81360Y-13604D03*
Y-42396D03*
X96360Y-28604D03*
X110152Y1396D03*
X86360Y-18604D03*
X91360Y-28604D03*
X81360Y-52396D03*
X105152Y6396D03*
Y11396D03*
X110152D03*
X96360Y-47396D03*
X81360D03*
X86360Y-42396D03*
X96360Y-13604D03*
X86360Y1396D03*
X81360Y-23604D03*
X96360Y-52396D03*
X105152Y-23604D03*
X86360Y-47396D03*
X91360Y-13604D03*
X86360D03*
X96360Y-8604D03*
X91360D03*
X81360D03*
Y1396D03*
X91360D03*
X81360Y6396D03*
X96360Y-18604D03*
X105152Y1396D03*
Y-28604D03*
Y-18604D03*
X91360Y-23604D03*
X96360Y-37396D03*
X91360Y-47396D03*
X110152Y-23604D03*
Y-3604D03*
X93256Y12500D03*
X105152Y-13604D03*
X110152D03*
X91360Y6396D03*
X115152D03*
X110152D03*
X88256Y12500D03*
X115152Y-23604D03*
X110152Y-28604D03*
X115152Y-37396D03*
X110152D03*
X105152D03*
X115152Y-42396D03*
X105152D03*
X110152D03*
X115152Y-47396D03*
X110152D03*
X105152D03*
X115152Y-52396D03*
X105152D03*
X110152D03*
X115152Y-3604D03*
X81360Y11396D03*
X115152Y-13604D03*
Y-18604D03*
X86360Y-57396D03*
X81360D03*
X91360Y-72396D03*
X81360Y-62396D03*
X96360Y-57396D03*
X91360D03*
Y-67396D03*
X105152D03*
Y-72396D03*
X110152D03*
X86360D03*
X81360D03*
X86360Y-67396D03*
X91360Y-62396D03*
X86360D03*
X115152Y-57396D03*
X110152D03*
X105152D03*
X110152Y-62396D03*
X105152D03*
X115152D03*
X110152Y-67396D03*
X115152D03*
Y-72396D03*
X81360Y-67396D03*
X-27300Y-44500D03*
G54D21*
X47500Y26256D03*
Y36256D03*
X57500D03*
Y26256D03*
X67500D03*
X77500D03*
X67500Y36256D03*
X77500D03*
X87500Y26256D03*
X97500D03*
X87500Y36256D03*
X97500D03*
X107500Y26256D03*
Y36256D03*
X117500Y26256D03*
Y36256D03*
Y-127744D03*
Y-137744D03*
X107500Y-127744D03*
Y-137744D03*
X97500Y-127744D03*
Y-137744D03*
X87500Y-127744D03*
Y-137744D03*
X77500Y-127744D03*
Y-137744D03*
X67500Y-127744D03*
Y-137744D03*
X57500Y-127744D03*
Y-137744D03*
X47500Y-127744D03*
Y-137744D03*
X-42500Y26256D03*
Y36256D03*
X-32500Y26256D03*
X-72500D03*
X-22500D03*
X-32500Y36256D03*
X-12500Y26256D03*
X-22500Y36256D03*
X-2500Y26256D03*
X-12500Y36256D03*
X7500Y26256D03*
X-2500Y36256D03*
X7500D03*
X17500Y26256D03*
Y36256D03*
X27500Y26256D03*
Y36256D03*
X37500D03*
Y26256D03*
X-62500D03*
Y36256D03*
X-52500Y26256D03*
Y36256D03*
X-32500Y-137744D03*
X-42500Y-127744D03*
Y-137744D03*
X-52500Y-127744D03*
Y-137744D03*
X-62500Y-127744D03*
Y-137744D03*
X37500Y-127744D03*
Y-137744D03*
X27500Y-127744D03*
Y-137744D03*
X17500Y-127744D03*
Y-137744D03*
X7500Y-127744D03*
Y-137744D03*
X-2500Y-127744D03*
Y-137744D03*
X-12500Y-127744D03*
Y-137744D03*
X-22500Y-127744D03*
Y-137744D03*
X-32500Y-127744D03*
G54D22*
X147000Y9000D03*
G54D25*
X-98960Y-68201D03*
G54D24*
X168500Y31756D03*
Y-133244D03*
X-123500Y31756D03*
Y-133244D03*
%LPD*%
G75*
G54D10*
X-89500Y-74500D03*
X-110260Y-66160D03*
X-125410Y-72500D03*
X-104630Y-58150D03*
X-98630D03*
X-85344Y-74676D03*
X-125410Y-69000D03*
X-121500Y-62500D03*
X-110260Y-60160D03*
X-84350Y-26350D03*
G54D11*
X-111500Y4500D03*
X-105500Y-5000D03*
X-99000Y-8000D03*
X-105500Y-8500D03*
X-113500Y-8000D03*
X-56500Y-82000D03*
X-64200Y-68800D03*
Y-73500D03*
X-60500Y-82000D03*
X174500Y-119500D03*
G54D12*
X-72500Y-127744D03*
Y36256D03*
G54D13*
X2500Y-60500D03*
X6020Y-22674D03*
X-3280Y-20970D03*
X-9728Y-28974D03*
X-18333Y-26668D03*
X13600Y-35244D03*
X16441Y-43149D03*
X-16028Y-51021D03*
G54D14*
G01X-125400Y-243244D02*
G03I-12600J0D01*
G01X-138000D02*
Y-258204D01*
G01X-130520Y-243244D02*
G03I-7480J0D01*
G01X-135640D02*
G03I-2360J0D01*
G01X-138000D02*
X-152960D01*
G01X-138000D02*
Y-228284D01*
G01Y-243244D02*
X-123040D01*
G01X-106527Y52820D02*
X-106247Y52587D01*
X-105920Y52447D01*
X-105500Y52400D01*
X-105080Y52493D01*
X-104753Y52680D01*
X-104520Y53007D01*
X-104473Y53380D01*
X-104567Y53753D01*
X-104800Y53987D01*
X-105127Y54173D01*
X-105453Y54220D01*
X-105780Y54173D01*
X-106200Y53987D01*
X-106060Y55200D01*
X-104800D01*
G01X-128400Y95256D02*
G03I-12600J0D01*
G01X-133520D02*
G03I-7480J0D01*
G01X-138640D02*
G03I-2360J0D01*
G01X-141000D02*
X-155960D01*
G01X-141000D02*
Y80296D01*
G01Y95256D02*
Y110216D01*
G01Y95256D02*
X-126040D01*
G01X200600D02*
G03I-12600J0D01*
G01X188000D02*
Y80296D01*
G01X195480Y95256D02*
G03I-7480J0D01*
G01X190360D02*
G03I-2360J0D01*
G01X188000D02*
X173040D01*
G01X188000D02*
Y110216D01*
G01Y95256D02*
X202960D01*
G54D15*
G01X-107300Y51691D02*
X-103100D01*
Y56191D01*
X-107300D01*
Y51691D01*
G01X-111500D02*
X-107300D01*
Y56191D01*
X-111500D01*
Y51691D01*
G01X-115700D02*
X-111500D01*
Y56191D01*
X-115700D01*
Y51691D01*
G01X-119900D02*
X-115700D01*
Y56191D01*
X-119900D01*
Y51691D01*
G01X-124100D02*
X-119900D01*
Y56191D01*
X-124100D01*
Y51691D01*
G01X-94700Y51700D02*
X-90500D01*
Y56200D01*
X-94700D01*
Y51700D01*
G01X-98900D02*
X-94700D01*
Y56200D01*
X-98900D01*
Y51700D01*
G01X-103100Y51691D02*
X-98900D01*
Y56191D01*
X-103100D01*
Y51691D01*
G54D16*
G01X-203125Y-181334D02*
X-202250Y-180167D01*
X-201500Y-179500D01*
X-200500Y-179167D01*
X-199625Y-179500D01*
X-199000Y-180167D01*
X-198500Y-181167D01*
X-198375Y-182333D01*
X-198500Y-183333D01*
X-199000Y-184334D01*
X-199750Y-185167D01*
X-200625Y-185500D01*
X-201625Y-185167D01*
X-202500Y-184167D01*
X-203000Y-182667D01*
X-203125Y-181000D01*
X-202875Y-178834D01*
X-202500Y-177667D01*
X-201875Y-176500D01*
X-201000Y-175667D01*
X-200125Y-175500D01*
X-199250Y-175833D01*
X-198625Y-176667D01*
G01X-190750Y-175500D02*
X-191750Y-175833D01*
X-192500Y-176667D01*
X-193000Y-177667D01*
X-193375Y-179000D01*
X-193500Y-180500D01*
X-193375Y-182000D01*
X-193000Y-183333D01*
X-192500Y-184334D01*
X-191750Y-185167D01*
X-190750Y-185500D01*
X-189750Y-185167D01*
X-189000Y-184334D01*
X-188500Y-183333D01*
X-188125Y-182000D01*
X-188000Y-180500D01*
X-188125Y-179000D01*
X-188500Y-177667D01*
X-189000Y-176667D01*
X-189750Y-175833D01*
X-190750Y-175500D01*
G01X-180750D02*
X-181750Y-175833D01*
X-182500Y-176667D01*
X-183000Y-177667D01*
X-183375Y-179000D01*
X-183500Y-180500D01*
X-183375Y-182000D01*
X-183000Y-183333D01*
X-182500Y-184334D01*
X-181750Y-185167D01*
X-180750Y-185500D01*
X-179750Y-185167D01*
X-179000Y-184334D01*
X-178500Y-183333D01*
X-178125Y-182000D01*
X-178000Y-180500D01*
X-178125Y-179000D01*
X-178500Y-177667D01*
X-179000Y-176667D01*
X-179750Y-175833D01*
X-180750Y-175500D01*
G01X-172375Y-182167D02*
X-169125D01*
G01X-163125Y-181334D02*
X-162250Y-180167D01*
X-161500Y-179500D01*
X-160500Y-179167D01*
X-159625Y-179500D01*
X-159000Y-180167D01*
X-158500Y-181167D01*
X-158375Y-182333D01*
X-158500Y-183333D01*
X-159000Y-184334D01*
X-159750Y-185167D01*
X-160625Y-185500D01*
X-161625Y-185167D01*
X-162500Y-184167D01*
X-163000Y-182667D01*
X-163125Y-181000D01*
X-162875Y-178834D01*
X-162500Y-177667D01*
X-161875Y-176500D01*
X-161000Y-175667D01*
X-160125Y-175500D01*
X-159250Y-175833D01*
X-158625Y-176667D01*
G01X-150750Y-175500D02*
X-151750Y-175833D01*
X-152500Y-176667D01*
X-153000Y-177667D01*
X-153375Y-179000D01*
X-153500Y-180500D01*
X-153375Y-182000D01*
X-153000Y-183333D01*
X-152500Y-184334D01*
X-151750Y-185167D01*
X-150750Y-185500D01*
X-149750Y-185167D01*
X-149000Y-184334D01*
X-148500Y-183333D01*
X-148125Y-182000D01*
X-148000Y-180500D01*
X-148125Y-179000D01*
X-148500Y-177667D01*
X-149000Y-176667D01*
X-149750Y-175833D01*
X-150750Y-175500D01*
G01X-140750Y-185500D02*
Y-175500D01*
X-142250Y-177500D01*
G01Y-185500D02*
X-139250D01*
G01X-132875Y-184334D02*
X-132000Y-185167D01*
X-131000Y-185500D01*
X-130000Y-185167D01*
X-129125Y-184167D01*
X-128500Y-182667D01*
X-128250Y-181167D01*
Y-179333D01*
X-128500Y-177833D01*
X-129125Y-176500D01*
X-129875Y-175833D01*
X-130750Y-175500D01*
X-131750Y-175833D01*
X-132500Y-176500D01*
X-133000Y-177500D01*
X-133250Y-178834D01*
X-133000Y-180000D01*
X-132375Y-181167D01*
X-131625Y-181834D01*
X-130750Y-182000D01*
X-129750Y-181667D01*
X-129000Y-180833D01*
X-128250Y-179333D01*
G01X-120750Y-185500D02*
X-119875Y-185333D01*
X-118875Y-184833D01*
X-118250Y-184000D01*
X-118000Y-182833D01*
X-118250Y-181667D01*
X-119000Y-180667D01*
X-120125Y-180167D01*
X-121375D01*
X-122125Y-179833D01*
X-122750Y-179000D01*
X-123000Y-177833D01*
X-122625Y-176667D01*
X-121750Y-175833D01*
X-120750Y-175500D01*
X-119750Y-175833D01*
X-118875Y-176667D01*
X-118500Y-177833D01*
X-118750Y-179000D01*
X-119375Y-179833D01*
X-120125Y-180167D01*
X-121375D01*
X-122500Y-180667D01*
X-123250Y-181667D01*
X-123500Y-182833D01*
X-123250Y-184000D01*
X-122625Y-184833D01*
X-121625Y-185333D01*
X-120750Y-185500D01*
G01X-112375Y-182167D02*
X-109125D01*
G01X-100750Y-175500D02*
X-101750Y-175833D01*
X-102500Y-176667D01*
X-103000Y-177667D01*
X-103375Y-179000D01*
X-103500Y-180500D01*
X-103375Y-182000D01*
X-103000Y-183333D01*
X-102500Y-184334D01*
X-101750Y-185167D01*
X-100750Y-185500D01*
X-99750Y-185167D01*
X-99000Y-184334D01*
X-98500Y-183333D01*
X-98125Y-182000D01*
X-98000Y-180500D01*
X-98125Y-179000D01*
X-98500Y-177667D01*
X-99000Y-176667D01*
X-99750Y-175833D01*
X-100750Y-175500D01*
G01X-90750Y-185500D02*
Y-175500D01*
X-92250Y-177500D01*
G01Y-185500D02*
X-89250D01*
G01X-73375Y-184167D02*
X-72375Y-185000D01*
X-71250Y-185500D01*
X-70250D01*
X-69250Y-185000D01*
X-68500Y-184167D01*
X-68125Y-183000D01*
X-68375Y-181834D01*
X-69000Y-180833D01*
X-70125Y-180167D01*
X-71625Y-179833D01*
X-72500Y-179167D01*
X-72875Y-178000D01*
X-72625Y-176833D01*
X-72000Y-176000D01*
X-71125Y-175500D01*
X-70250D01*
X-69375Y-175833D01*
X-68625Y-176667D01*
G01X-63500Y-175500D02*
Y-182667D01*
X-63000Y-184167D01*
X-62000Y-185167D01*
X-60750Y-185500D01*
X-59500Y-185167D01*
X-58500Y-184167D01*
X-58000Y-182667D01*
Y-175500D01*
G01X-53250Y-185500D02*
Y-175500D01*
X-50250D01*
X-49250Y-176000D01*
X-48500Y-177167D01*
X-48250Y-178500D01*
X-48500Y-179833D01*
X-49125Y-180833D01*
X-50250Y-181334D01*
X-53250D01*
G01X-38250Y-185500D02*
X-43250D01*
Y-175500D01*
X-38250D01*
G01X-40250Y-180333D02*
X-43250D01*
G01X-33250Y-185500D02*
Y-175500D01*
X-30125D01*
X-29125Y-176000D01*
X-28500Y-176667D01*
X-28250Y-178000D01*
X-28500Y-179333D01*
X-29250Y-180167D01*
X-30125Y-180667D01*
X-33250D01*
G01X-30125D02*
X-28250Y-185500D01*
G01X-23375Y-184167D02*
X-22375Y-185000D01*
X-21250Y-185500D01*
X-20250D01*
X-19250Y-185000D01*
X-18500Y-184167D01*
X-18125Y-183000D01*
X-18375Y-181834D01*
X-19000Y-180833D01*
X-20125Y-180167D01*
X-21625Y-179833D01*
X-22500Y-179167D01*
X-22875Y-178000D01*
X-22625Y-176833D01*
X-22000Y-176000D01*
X-21125Y-175500D01*
X-20250D01*
X-19375Y-175833D01*
X-18625Y-176667D01*
G01X-13250Y-185500D02*
Y-175500D01*
X-10250D01*
X-9250Y-176000D01*
X-8500Y-177167D01*
X-8250Y-178500D01*
X-8500Y-179833D01*
X-9125Y-180833D01*
X-10250Y-181334D01*
X-13250D01*
G01X1750Y-185500D02*
X-3250D01*
Y-175500D01*
X1750D01*
G01X-250Y-180333D02*
X-3250D01*
G01X11750Y-185500D02*
X6750D01*
Y-175500D01*
X11750D01*
G01X9750Y-180333D02*
X6750D01*
G01X16500Y-185500D02*
Y-175500D01*
X19000D01*
X20000Y-176000D01*
X20750Y-176667D01*
X21375Y-177667D01*
X21875Y-178834D01*
X22000Y-180500D01*
X21875Y-182167D01*
X21375Y-183333D01*
X20750Y-184334D01*
X20000Y-185000D01*
X19000Y-185500D01*
X16500D01*
G01X41750D02*
X36750D01*
Y-175500D01*
X41750D01*
G01X39750Y-180333D02*
X36750D01*
G01X46625Y-185500D02*
X51875Y-175500D01*
G01X46625D02*
X51875Y-185500D01*
G01X56750D02*
Y-175500D01*
X59750D01*
X60750Y-176000D01*
X61500Y-177167D01*
X61750Y-178500D01*
X61500Y-179833D01*
X60875Y-180833D01*
X59750Y-181334D01*
X56750D01*
G01X66750Y-175500D02*
Y-185500D01*
X71750D01*
G01X79250D02*
X78250Y-185333D01*
X77375Y-184667D01*
X76625Y-183667D01*
X76125Y-182500D01*
X75875Y-181167D01*
Y-179833D01*
X76125Y-178500D01*
X76625Y-177333D01*
X77375Y-176333D01*
X78250Y-175667D01*
X79250Y-175500D01*
X80250Y-175667D01*
X81125Y-176333D01*
X81875Y-177333D01*
X82375Y-178500D01*
X82625Y-179833D01*
Y-181167D01*
X82375Y-182500D01*
X81875Y-183667D01*
X81125Y-184667D01*
X80250Y-185333D01*
X79250Y-185500D01*
G01X86750D02*
Y-175500D01*
X89875D01*
X90875Y-176000D01*
X91500Y-176667D01*
X91750Y-178000D01*
X91500Y-179333D01*
X90750Y-180167D01*
X89875Y-180667D01*
X86750D01*
G01X89875D02*
X91750Y-185500D01*
G01X101750D02*
X96750D01*
Y-175500D01*
X101750D01*
G01X99750Y-180333D02*
X96750D01*
G01X106750Y-185500D02*
Y-175500D01*
X109875D01*
X110875Y-176000D01*
X111500Y-176667D01*
X111750Y-178000D01*
X111500Y-179333D01*
X110750Y-180167D01*
X109875Y-180667D01*
X106750D01*
G01X109875D02*
X111750Y-185500D01*
G01X126500D02*
Y-175500D01*
G01X131250D02*
X126500Y-181667D01*
G01X132000Y-185500D02*
X128625Y-178834D01*
G01X137750Y-175500D02*
X140750D01*
G01X139250D02*
Y-185500D01*
G01X137750D02*
X140750D01*
G01X149250Y-175500D02*
Y-185500D01*
G01X146375Y-175500D02*
X152125D01*
G01X166750Y-185500D02*
Y-175500D01*
X169875D01*
X170875Y-176000D01*
X171500Y-176667D01*
X171750Y-178000D01*
X171500Y-179333D01*
X170750Y-180167D01*
X169875Y-180667D01*
X166750D01*
G01X169875D02*
X171750Y-185500D01*
G01X181750D02*
X176750D01*
Y-175500D01*
X181750D01*
G01X179750Y-180333D02*
X176750D01*
G01X186125Y-175500D02*
X189250Y-185500D01*
X192375Y-175500D01*
G01X199250D02*
X198250Y-175833D01*
X197500Y-176667D01*
X197000Y-177667D01*
X196625Y-179000D01*
X196500Y-180500D01*
X196625Y-182000D01*
X197000Y-183333D01*
X197500Y-184334D01*
X198250Y-185167D01*
X199250Y-185500D01*
X200250Y-185167D01*
X201000Y-184334D01*
X201500Y-183333D01*
X201875Y-182000D01*
X202000Y-180500D01*
X201875Y-179000D01*
X201500Y-177667D01*
X201000Y-176667D01*
X200250Y-175833D01*
X199250Y-175500D01*
G01X210750Y-185500D02*
Y-175500D01*
X206125Y-182667D01*
X212375D01*
G01X226750Y-175500D02*
Y-185500D01*
X231750D01*
G01X239250Y-175500D02*
X238250Y-175833D01*
X237500Y-176667D01*
X237000Y-177667D01*
X236625Y-179000D01*
X236500Y-180500D01*
X236625Y-182000D01*
X237000Y-183333D01*
X237500Y-184334D01*
X238250Y-185167D01*
X239250Y-185500D01*
X240250Y-185167D01*
X241000Y-184334D01*
X241500Y-183333D01*
X241875Y-182000D01*
X242000Y-180500D01*
X241875Y-179000D01*
X241500Y-177667D01*
X241000Y-176667D01*
X240250Y-175833D01*
X239250Y-175500D01*
G01X246500Y-184000D02*
X247250Y-184833D01*
X248125Y-185333D01*
X249250Y-185500D01*
X250375Y-185167D01*
X251250Y-184500D01*
X251875Y-183333D01*
X252000Y-182000D01*
X251750Y-180667D01*
X251125Y-179833D01*
X250250Y-179167D01*
X249375Y-179000D01*
X248500Y-179167D01*
X247375Y-179833D01*
X247750Y-175500D01*
X251125D01*
G01X257625Y-182167D02*
X260875D01*
G01X266750Y-185500D02*
Y-175500D01*
X269750D01*
X270750Y-176000D01*
X271500Y-177167D01*
X271750Y-178500D01*
X271500Y-179833D01*
X270875Y-180833D01*
X269750Y-181334D01*
X266750D01*
G01X275500Y-175500D02*
X277250Y-185500D01*
X279250Y-175500D01*
X281250Y-185500D01*
X283000Y-175500D01*
G01X286750Y-185500D02*
Y-175500D01*
X289875D01*
X290875Y-176000D01*
X291500Y-176667D01*
X291750Y-178000D01*
X291500Y-179333D01*
X290750Y-180167D01*
X289875Y-180667D01*
X286750D01*
G01X289875D02*
X291750Y-185500D01*
G01X296875Y-177167D02*
X297625Y-176167D01*
X298500Y-175667D01*
X299500Y-175500D01*
X300750Y-175833D01*
X301625Y-176667D01*
X301875Y-177667D01*
X301750Y-178667D01*
X301250Y-179500D01*
X298750Y-181167D01*
X297625Y-182333D01*
X296875Y-184000D01*
X296625Y-185500D01*
X301875D01*
M02*
