G04 ================== begin FILE IDENTIFICATION RECORD ==================*
G04 Layout Name:  FX3_DVK_PROTO_REV3_PD14-0048_PCB_20140612_16p3.brd*
G04 Film Name:    L08_BOTTOM*
G04 File Format:  Gerber RS274X*
G04 File Origin:  Cadence Allegro 16.3-p003*
G04 Origin Date:  Wed Jul 23 11:09:00 2014*
G04 *
G04 Layer:  VIA CLASS/BOTTOM*
G04 Layer:  PIN/BOTTOM*
G04 Layer:  PACKAGE GEOMETRY/PCBNO*
G04 Layer:  MANUFACTURING/TITLE_BLOCK*
G04 Layer:  ETCH/BOTTOM*
G04 Layer:  BOARD GEOMETRY/TITTLE_BOTTOM*
G04 Layer:  BOARD GEOMETRY/BOTTOM*
G04 Layer:  BOARD GEOMETRY/TARGET*
G04 *
G04 Offset:    (0.00 0.00)*
G04 Mirror:    No*
G04 Mode:      Positive*
G04 Rotation:  0*
G04 FullContactRelief:  No*
G04 UndefLineWidth:     5.00*
G04 ================== end FILE IDENTIFICATION RECORD ====================*
%FSLAX25Y25*MOIN*%
%IR0*IPPOS*OFA0.00000B0.00000*MIA0B0*SFA1.00000B1.00000*%
%ADD13C,.02*%
%ADD42C,.04*%
%ADD31C,.014*%
%ADD21R,.1181X.063*%
%ADD17C,.06*%
%ADD14C,.024*%
%ADD38C,.016*%
%ADD41C,.02362*%
%ADD32R,.06X.06*%
%ADD23C,.067*%
%ADD33C,.05118*%
%ADD27C,.05906*%
%ADD11R,.067X.067*%
%ADD16R,.1063X.06299*%
%ADD10C,.06378*%
%ADD36R,.0398X.0398*%
%ADD39R,.027X.011*%
%ADD12C,.118*%
%ADD40R,.0355X.016*%
%ADD29R,.02362X.04331*%
%ADD24R,.02362X.04134*%
%ADD20R,.04724X.06102*%
%ADD37R,.03543X.0374*%
%ADD15C,.12992*%
%ADD45O,.07387X.05024*%
%ADD44R,.03937X.04331*%
%ADD35R,.24409X.22835*%
%ADD18R,.04331X.03937*%
%ADD34R,.05906X.05118*%
%ADD19R,.02756X.03543*%
%ADD26R,.03543X.02756*%
%ADD25R,.05118X.05906*%
%ADD43R,.07087X.05118*%
%ADD22R,.02756X.04528*%
%ADD30R,.06299X.02362*%
%ADD28R,.04724X.07874*%
%ADD46C,.01*%
%ADD47C,.012*%
%ADD48C,.03*%
%ADD49C,.015*%
%ADD50C,.025*%
%ADD51C,.045*%
%ADD52C,.005*%
%ADD53C,.006*%
%ADD54C,.008*%
%ADD55C,.0072*%
%ADD56C,.0065*%
%ADD58C,.03204*%
%ADD62C,.0731*%
%ADD61C,.02504*%
%ADD65C,.08104*%
%ADD57C,.03604*%
%ADD68C,.0825*%
%ADD60C,.07404*%
%ADD59C,.03566*%
%ADD67C,.11004*%
%ADD64R,.08104X.08104*%
%ADD63C,.14396*%
%ADD66C,.19688*%
G75*
%LPD*%
G75*
G36*
G01X173998Y-51998D02*
X169671D01*
X166671Y-54998D01*
X163057D01*
G02X162694Y-54431I0J400D01*
G03X161320Y-52158I-1454J673D01*
G01X161243Y-52154D01*
X160613Y-51524D01*
X161243Y-50894D01*
X161320Y-50890D01*
G03X159640Y-49210I-80J1600D01*
G01X159636Y-49287D01*
X159510Y-49412D01*
X155821D01*
X149556Y-55677D01*
Y-58664D01*
X149060D01*
X149003Y-58612D01*
G03X148244Y-61370I-1075J-1188D01*
G01X148349Y-61349D01*
X150498Y-63498D01*
Y-76829D01*
X152171Y-78502D01*
X174329D01*
X176002Y-76829D01*
Y-68998D01*
X177000Y-68000D01*
X180999D01*
X181999Y-69000D01*
Y-151055D01*
G02X174500Y-158554I-7499J0D01*
G01X-129500D01*
G02X-136999Y-151055I0J7499D01*
G01Y-122600D01*
X-135800Y-121402D01*
X-117629D01*
X-111929Y-127102D01*
X-98571D01*
X-95598Y-124129D01*
Y-120198D01*
X-95102Y-119702D01*
X-78098D01*
G02X-77815Y-120384I0J-400D01*
G01X-80651Y-123220D01*
X-92015D01*
X-93752Y-124957D01*
Y-135021D01*
X-94379Y-135648D01*
X-95779D01*
X-95829Y-135698D01*
X-110129D01*
X-112002Y-137571D01*
Y-146029D01*
X-109829Y-148202D01*
X-82071D01*
X-81870Y-148001D01*
X-79781D01*
X-79780Y-148002D01*
X-65271D01*
X-62798Y-145529D01*
Y-141844D01*
G02X-62408Y-141445I400J-1D01*
G03X-59129Y-136213I-92J3701D01*
G01X-59186Y-136086D01*
X-59044Y-135945D01*
G02X-58362Y-136228I282J-283D01*
G01Y-144495D01*
X-56035Y-146822D01*
X-41225D01*
X-39618Y-145215D01*
Y-142935D01*
X-40888Y-141665D01*
G02X-40790Y-141027I283J283D01*
G03X-39658Y-140116I-1710J3283D01*
G02X-39068Y-140089I307J-256D01*
G01X-32065Y-147092D01*
X49809D01*
X55842Y-141058D01*
X55969Y-141115D01*
G03X54129Y-139275I1531J3371D01*
G01X54186Y-139402D01*
X48839Y-144748D01*
X33118D01*
G02X32835Y-144066I0J400D01*
G01X35842Y-141058D01*
X35969Y-141115D01*
G03X34129Y-139275I1531J3371D01*
G01X34186Y-139402D01*
X30599Y-142988D01*
X24878D01*
G02X24595Y-142306I0J400D01*
G01X25842Y-141058D01*
X25969Y-141115D01*
G03X24129Y-139275I1531J3371D01*
G01X24186Y-139402D01*
X22479Y-141108D01*
X20335D01*
G02X20059Y-140419I0J400D01*
G03X14941I-2559J2675D01*
G02X14665Y-141108I-276J-289D01*
G01X-14275D01*
X-16418Y-138965D01*
Y-129853D01*
G02X-15675Y-129647I400J0D01*
G03X-14031Y-124373I3175J1903D01*
G01X-14158Y-124430D01*
X-14888Y-123699D01*
Y-111545D01*
X-12015Y-108672D01*
X-11480D01*
Y-117932D01*
X-11312D01*
Y-119500D01*
G03X-7688I1812J0D01*
G01Y-117932D01*
X-7172D01*
Y-125017D01*
X-7732Y-125577D01*
Y-130425D01*
X-4485Y-133672D01*
X485D01*
X3172Y-130985D01*
Y-125485D01*
X4985Y-123672D01*
X5673D01*
G02X5851Y-124430I0J-400D01*
G03X9149I1649J-3314D01*
G02X9327Y-123672I178J358D01*
G01X15673D01*
G02X15851Y-124430I0J-400D01*
G03X19149I1649J-3314D01*
G02X19327Y-123672I178J358D01*
G01X25485D01*
X28657Y-120500D01*
X30683D01*
X33065Y-122882D01*
X93926D01*
G02X94209Y-123564I0J-400D01*
G01X91698Y-126075D01*
Y-128695D01*
X91234Y-129159D01*
X91008Y-128932D01*
X91043Y-128818D01*
G03X84717Y-130185I-3543J1074D01*
G02X84416Y-130848I-301J-263D01*
G01X80584D01*
G02X80283Y-130185I0J400D01*
G03X74717I-2783J2441D01*
G02X74416Y-130848I-301J-263D01*
G01X72261D01*
X70812Y-129399D01*
G03X69031Y-131115I-3312J1655D01*
G01X69158Y-131058D01*
X71291Y-133192D01*
X90515D01*
X93872Y-129835D01*
G02X94481Y-129886I283J-283D01*
G03X99031Y-131115I3020J2142D01*
G01X99158Y-131058D01*
X100688Y-132589D01*
Y-134736D01*
G02X100017Y-135029I-400J1D01*
G03Y-140459I-2517J-2715D01*
G02X100688Y-140752I271J-294D01*
G01Y-141745D01*
X103475Y-144532D01*
X125375D01*
X130022Y-139885D01*
Y-122765D01*
X126085Y-118828D01*
X45485D01*
X36000Y-109343D01*
Y-107782D01*
X41865D01*
Y-104218D01*
X34672D01*
Y-102782D01*
X41865D01*
Y-99218D01*
X34672D01*
Y-98145D01*
X34651Y-98124D01*
G02X34792Y-97782I141J142D01*
G01X41865D01*
Y-94218D01*
X34363D01*
Y-96871D01*
G02X33680Y-97153I-400J0D01*
G01X32672Y-96145D01*
Y-92515D01*
X30603Y-90446D01*
X30597Y-90372D01*
G03X30122Y-89357I-1597J-129D01*
G02X30402Y-88672I280J285D01*
G01X44284D01*
X46875Y-86092D01*
X47003Y-86156D01*
G03X45159Y-84303I1797J3632D01*
G01X45222Y-84432D01*
X43316Y-86328D01*
X42852D01*
Y-78472D01*
X34748D01*
Y-81347D01*
X21015Y-81328D01*
X13828Y-88515D01*
Y-88726D01*
G02X13243Y-89081I-400J-1D01*
G03X11439Y-91700I-742J-1419D01*
G02Y-92300I-265J-300D01*
G03X10946Y-93891I1061J-1201D01*
G02X10559Y-94388I-388J-97D01*
G01X8941D01*
G02X8554Y-93891I1J400D01*
G03X8061Y-92300I-1554J390D01*
G02Y-91700I265J300D01*
G03X8596Y-90366I-1061J1200D01*
G02X8980Y-89932I399J34D01*
G01Y-84252D01*
X10009D01*
X12112Y-82150D01*
Y-80941D01*
G02X12609Y-80554I400J-1D01*
G03X14472Y-78369I391J1554D01*
G02X14840Y-77812I368J157D01*
G01X16160D01*
G02X16528Y-78369I0J-400D01*
G03X19472I1472J-631D01*
G02X19840Y-77812I368J157D01*
G01X21660D01*
G02X22028Y-78369I0J-400D01*
G03X24972I1472J-631D01*
G02X25340Y-77812I368J157D01*
G01X27160D01*
G02X27528Y-78369I0J-400D01*
G03X30472I1472J-631D01*
G02X30840Y-77812I368J157D01*
G01X51543D01*
X56543Y-82812D01*
X61509D01*
X64777Y-86080D01*
X76311D01*
X103063Y-112832D01*
X142196D01*
X142396Y-112632D01*
X143480D01*
Y-111453D01*
G03Y-109065I-1980J1194D01*
G01Y-106312D01*
X145520D01*
Y-107514D01*
X149480D01*
Y-102768D01*
X145520D01*
Y-103970D01*
X143480D01*
Y-102768D01*
X142672D01*
Y-100515D01*
X140185Y-98028D01*
X119915D01*
X116996Y-100947D01*
X116922Y-100953D01*
G03X118647Y-102678I128J-1597D01*
G01X118653Y-102604D01*
X120885Y-100372D01*
X139215D01*
X140328Y-101485D01*
Y-102768D01*
X139520D01*
Y-108208D01*
X104977D01*
X78225Y-81456D01*
X66691D01*
X64200Y-78965D01*
Y-78300D01*
X64828Y-77672D01*
X76117D01*
X92617Y-94172D01*
X94680D01*
X94714Y-94205D01*
Y-97265D01*
X96120Y-98672D01*
X98530D01*
X99936Y-97265D01*
Y-94205D01*
X99970Y-94172D01*
X102984D01*
X105672Y-91484D01*
Y-86432D01*
X106480D01*
Y-80112D01*
X108520D01*
Y-86432D01*
X108688D01*
Y-88000D01*
G03X112312I1812J0D01*
G01Y-86432D01*
X112480D01*
Y-76568D01*
X108520D01*
Y-77770D01*
X106480D01*
Y-76568D01*
X105672D01*
Y-75015D01*
X105120Y-74463D01*
G02X105347Y-73784I283J283D01*
G03X105488Y-71035I-195J1388D01*
G01X105434Y-71022D01*
X105037Y-70624D01*
X105039Y-70539D01*
G03X102697Y-68807I-1783J39D01*
G02X102172Y-68428I-125J380D01*
G01Y-67759D01*
X100037Y-65624D01*
X100039Y-65539D01*
G03X98295Y-67283I-1783J39D01*
G01X98380Y-67281D01*
X99828Y-68729D01*
Y-69268D01*
X99548D01*
X99490Y-69213D01*
G03X97084Y-71844I-1234J-1287D01*
G01Y-76080D01*
X96888Y-76277D01*
Y-77020D01*
X90568D01*
Y-77828D01*
X84485D01*
X81137Y-74480D01*
G02X81406Y-73797I282J283D01*
G03X82721Y-72732I-46J1401D01*
G01X82734Y-72678D01*
X83132Y-72281D01*
X83217Y-72283D01*
G03X81473Y-70539I39J1783D01*
G01X81475Y-70624D01*
X81078Y-71022D01*
X81024Y-71035D01*
G03X80029Y-72837I336J-1361D01*
G01X80068Y-72954D01*
X79839Y-73183D01*
X79302Y-72645D01*
Y-65997D01*
X79000Y-65695D01*
Y-63149D01*
X79452Y-62697D01*
Y-60287D01*
X79000Y-59835D01*
Y-57389D01*
X79452Y-56937D01*
Y-54527D01*
X79000Y-54075D01*
Y-51629D01*
X79452Y-51177D01*
Y-48767D01*
X79000Y-48315D01*
Y-45669D01*
X79302Y-45367D01*
Y-40924D01*
X79000Y-40622D01*
Y-38376D01*
X79463Y-37913D01*
G02X80104Y-38018I283J-283D01*
G03X82721Y-37732I1256J622D01*
G01X82734Y-37678D01*
X83132Y-37281D01*
X83217Y-37283D01*
G03X81473Y-35539I39J1783D01*
G01X81475Y-35624D01*
X81078Y-36022D01*
X81024Y-36035D01*
G03X80459Y-36322I336J-1361D01*
G02X79802Y-36016I-257J306D01*
G01Y-35164D01*
X79000Y-34362D01*
Y-32616D01*
X79802Y-31814D01*
Y-29404D01*
X79000Y-28602D01*
Y-26856D01*
X79802Y-26054D01*
Y-24984D01*
G02X80459Y-24678I400J0D01*
G03X81024Y-24965I901J1074D01*
G01X81078Y-24978D01*
X81475Y-25376D01*
X81473Y-25461D01*
G03X83217Y-23717I1783J-39D01*
G01X83132Y-23719D01*
X82734Y-23322D01*
X82721Y-23268D01*
G03X80052Y-23099I-1361J-336D01*
G02X79396Y-23238I-373J144D01*
G01X79000Y-22842D01*
Y-21096D01*
X79802Y-20294D01*
Y-19984D01*
G02X80459Y-19678I400J0D01*
G03X81024Y-19965I901J1074D01*
G01X81078Y-19978D01*
X81475Y-20376D01*
X81473Y-20461D01*
G03X83217Y-18717I1783J-39D01*
G01X83132Y-18719D01*
X82734Y-18322D01*
X82721Y-18268D01*
G03X80268Y-17724I-1361J-336D01*
G02X79674Y-17756I-311J251D01*
G01X79000Y-17082D01*
Y-14836D01*
X79302Y-14534D01*
Y19335D01*
X79271Y19366D01*
G02X79554Y20048I283J282D01*
G01X80835D01*
X80868Y20015D01*
Y15115D01*
X82255Y13728D01*
X84685D01*
X85957Y15000D01*
X86863D01*
X87565Y14299D01*
G02X87498Y13679I-283J-283D01*
G03X87084Y11730I758J-1179D01*
G01Y10844D01*
G03X89428I1172J-1344D01*
G01Y11730D01*
G03X89458Y13222I-1172J770D01*
G02X89800Y13828I342J206D01*
G01X90445D01*
X91617Y15000D01*
X92623D01*
X93094Y14529D01*
G02X92910Y13859I-283J-283D01*
G03X92084Y11730I346J-1359D01*
G01Y10844D01*
G03X94428I1172J-1344D01*
G01Y11730D01*
G03X94458Y13222I-1172J770D01*
G02X94800Y13828I342J206D01*
G01X96205D01*
X96877Y14500D01*
X99383D01*
X99555Y14328D01*
X101965D01*
X103137Y15500D01*
X104543D01*
X104689Y15354D01*
G02X104406Y14672I-283J-282D01*
G01X103743D01*
X99674Y10603D01*
X99531Y10746D01*
X99530Y10747D01*
G03X99428Y10844I-1279J-1243D01*
G01Y11730D01*
G03X97084I-1172J770D01*
G01Y10844D01*
G03X98805Y7804I1172J-1344D01*
G02X99328Y7424I123J-381D01*
G01Y7229D01*
X98380Y6281D01*
X98295Y6283D01*
G03X100039Y4539I-39J-1783D01*
G01X100037Y4624D01*
X101672Y6259D01*
Y7667D01*
G02X102289Y8002I400J-1D01*
G03X105039Y9539I967J1498D01*
G01X105037Y9624D01*
X105434Y10022D01*
X105488Y10035D01*
G03X106491Y11810I-336J1361D01*
G02X106873Y12328I382J118D01*
G01X108431D01*
G02X108813Y11810I0J-400D01*
G03X108791Y11732I1338J-419D01*
G01X108778Y11678D01*
X108380Y11281D01*
X108295Y11283D01*
G03X110039Y9539I-39J-1783D01*
G01X110037Y9624D01*
X110434Y10022D01*
X110488Y10035D01*
G03X111491Y11810I-336J1361D01*
G02X111873Y12328I382J118D01*
G01X126032D01*
X128724Y15020D01*
X132748D01*
Y14442D01*
X132743Y14398D01*
G03X135653Y12615I1757J-398D01*
G03X136370Y14058I-1094J1443D01*
G01Y15020D01*
X136932D01*
Y19108D01*
X142965D01*
X146885Y23028D01*
X148037D01*
G02X148305Y22332I-1J-400D01*
G03X157192Y20076I3695J-4076D01*
G02X157852Y20491I377J132D01*
G01X160513Y17831D01*
G02X160384Y17179I-283J-283D01*
G03X159828Y14607I616J-1479D01*
G01Y11985D01*
X154828Y6985D01*
Y6902D01*
G02X154143Y6622I-400J0D01*
G03X152222Y4100I-1144J-1122D01*
G02Y3400I-194J-350D01*
G03X154143Y878I777J-1400D01*
G02X154828Y598I285J-280D01*
G01Y-21015D01*
X153515Y-22328D01*
X128985D01*
X127044Y-20387D01*
X127038Y-20313D01*
G03X125313Y-22038I-1597J-128D01*
G01X125387Y-22044D01*
X128015Y-24672D01*
X154485D01*
X157172Y-21985D01*
Y6015D01*
X162172Y11015D01*
Y14607D01*
G03X162479Y15084I-1173J1092D01*
G02X163131Y15213I369J-154D01*
G01X167515Y10828D01*
X168918D01*
X170774Y8972D01*
X170871D01*
X172427Y7416D01*
X172364Y7288D01*
G03X174212Y9136I3636J-1788D01*
G01X174084Y9073D01*
X172391Y10766D01*
G02X172674Y11448I283J282D01*
G01X180052D01*
Y19552D01*
X171948D01*
Y16672D01*
X168074D01*
X158782Y25964D01*
Y25965D01*
X157263Y27484D01*
X157370Y27623D01*
G03X157272Y29693I-1270J977D01*
G01Y32385D01*
X145485Y44172D01*
X-74985D01*
X-76816Y42341D01*
G02X-77498Y42624I-282J283D01*
G01Y43829D01*
X-80671Y47002D01*
X-110129D01*
X-112502Y44629D01*
Y26071D01*
X-110429Y23998D01*
X-103571D01*
X-102298Y25271D01*
Y33298D01*
X-100702D01*
Y25371D01*
X-99229Y23898D01*
X-84929D01*
X-84502Y23471D01*
Y11171D01*
X-83506Y10176D01*
Y9748D01*
X-83079D01*
X-82829Y9498D01*
X-70071D01*
X-60498Y19071D01*
Y20671D01*
X-56498Y24671D01*
Y29238D01*
X-45687D01*
G02X-45376Y28587I0J-400D01*
G03X-45871Y24725I2876J-2331D01*
G01X-45814Y24599D01*
X-47751Y22662D01*
X-55165D01*
X-56572Y21255D01*
Y18965D01*
X-55791Y18184D01*
G02X-56074Y17502I-283J-282D01*
G01X-60329D01*
X-61312Y16519D01*
X-61536D01*
Y16295D01*
X-62502Y15329D01*
Y9002D01*
X-68329D01*
X-69657Y7673D01*
G02X-69998Y7815I-141J142D01*
G01Y8002D01*
X-84502D01*
Y7908D01*
G02X-85101Y7562I-400J1D01*
G03Y4438I-899J-1562D01*
G02X-84502Y4092I199J-347D01*
G01Y-5315D01*
X-84686Y-5512D01*
X-84760Y-5520D01*
G03X-83456Y-8252I178J-1592D01*
G01X-70494D01*
Y-7002D01*
X-69998D01*
Y702D01*
G02X-69316Y985I400J0D01*
G01X-68329Y-2D01*
X-62502D01*
Y-8343D01*
G02X-63184Y-8626I-400J0D01*
G01X-66004Y-5807D01*
X-66016Y-5749D01*
G03X-67916Y-7649I-1567J-333D01*
G01X-67858Y-7661D01*
X-64482Y-11038D01*
Y-13373D01*
X-61365Y-16490D01*
X-59030D01*
X-58480Y-17040D01*
Y-19932D01*
X-54520D01*
Y-16002D01*
X-53502D01*
Y-21002D01*
X-47671D01*
X-45171Y-18502D01*
X-40671D01*
X-38498Y-16329D01*
Y-9002D01*
X-36171D01*
X-33998Y-6829D01*
Y1171D01*
X-33671Y1498D01*
X-21671D01*
X-19998Y3171D01*
Y8186D01*
X-19620D01*
G03X-17822Y9775I0J1812D01*
G01X-17800Y9950D01*
X-8587D01*
X4186Y-2823D01*
G02X4524Y-3377I-30J-399D01*
G03X7476I1476J-623D01*
G02X7844Y-2822I368J155D01*
G01X9765D01*
X18568Y-11625D01*
Y-26892D01*
G02X18048Y-27273I-400J0D01*
G03X17500Y-27188I-548J-1727D01*
G01X15251D01*
X14253Y-28186D01*
X12520D01*
Y-32932D01*
X14912D01*
G02X15306Y-33402I0J-400D01*
G03X15293Y-33493I1232J-222D01*
G02X14661Y-33776I-398J42D01*
G03X12319Y-33963I-1061J-1468D01*
G01X11188Y-35094D01*
Y-35468D01*
X11020D01*
Y-40214D01*
X14980D01*
Y-37602D01*
G02X15662Y-37319I400J0D01*
G01X23828Y-45485D01*
Y-64515D01*
X16675Y-71668D01*
X9913D01*
X9789Y-71792D01*
X8551D01*
X4575Y-75768D01*
X-5339D01*
X-7232Y-77661D01*
Y-79369D01*
X-7694Y-79831D01*
G02X-8020Y-79613I-141J142D01*
G03X-10928Y-79726I-1480J613D01*
G02X-11284Y-80308I-356J-182D01*
G01X-13216D01*
G02X-13572Y-79726I0J400D01*
G03X-16428I-1428J726D01*
G02X-16784Y-80308I-356J-182D01*
G01X-18716D01*
G02X-19072Y-79726I0J400D01*
G03X-21928I-1428J726D01*
G02X-22284Y-80308I-356J-182D01*
G01X-24216D01*
G02X-24572Y-79726I0J400D01*
G03X-27428I-1428J726D01*
G02X-27784Y-80308I-356J-182D01*
G01X-29716D01*
G02X-30072Y-79726I0J400D01*
G03X-32650Y-77885I-1428J726D01*
G02X-33190Y-77917I-287J278D01*
G03X-35686Y-79758I-1010J-1243D01*
G02X-36057Y-80308I-371J-150D01*
G01X-41520D01*
X-43194Y-81982D01*
X-43260Y-82024D01*
X-43610Y-82374D01*
X-43795Y-82189D01*
X-43807Y-82129D01*
G03X-45962Y-83933I-1571J-312D01*
G02X-45825Y-84588I-146J-372D01*
G01X-48172Y-86935D01*
Y-92332D01*
G02X-48854Y-92615I-400J0D01*
G01X-50871Y-90598D01*
X-68629D01*
X-68654Y-90624D01*
G02X-68998Y-90485I-144J139D01*
G01Y-88094D01*
G02X-68497Y-87708I400J-1D01*
G03X-63621Y-85055I1027J3920D01*
G02X-62958Y-84897I380J-125D01*
G01X-62829Y-85026D01*
X-62804D01*
X-62329Y-85502D01*
X-54671D01*
X-52998Y-83829D01*
Y-80171D01*
X-53385Y-79784D01*
G02X-53102Y-79102I283J282D01*
G01X-37598D01*
Y-71829D01*
X-36698Y-70929D01*
Y-67871D01*
X-38371Y-66198D01*
X-55471D01*
X-56301Y-65368D01*
X-65699D01*
X-67502Y-67171D01*
Y-78943D01*
G02X-67843Y-79085I-200J0D01*
G01X-67938Y-78990D01*
Y-77732D01*
X-71360Y-74310D01*
Y-69240D01*
X-71608Y-68992D01*
Y-66706D01*
X-76898D01*
Y-63671D01*
X-79571Y-60998D01*
X-87671D01*
X-94685Y-53984D01*
G02X-94402Y-53302I283J282D01*
G01X-94091D01*
X-92298Y-51509D01*
Y-41431D01*
G02X-91543Y-41248I400J0D01*
G03X-86954Y-36178I3252J1669D01*
G01Y-34984D01*
X-86308D01*
Y-29646D01*
X-89872D01*
Y-34984D01*
X-89226D01*
Y-36043D01*
X-89368Y-36086D01*
G03X-91543Y-37910I1077J-3493D01*
G02X-92298Y-37727I-355J183D01*
G01Y-34191D01*
X-94191Y-32298D01*
X-101999D01*
X-103902Y-34201D01*
Y-51569D01*
X-103814Y-51656D01*
G02X-103955Y-51998I-141J-142D01*
G01X-109729D01*
X-112974Y-55244D01*
X-118926D01*
X-122171Y-51998D01*
X-126829D01*
X-128502Y-53671D01*
Y-59371D01*
X-129802Y-60671D01*
Y-73529D01*
X-127829Y-75502D01*
X-126002D01*
Y-80329D01*
X-126000Y-80331D01*
Y-81669D01*
X-126002Y-81671D01*
Y-90671D01*
X-128529Y-93198D01*
X-136029D01*
X-136316Y-93486D01*
G02X-136999Y-93203I-283J283D01*
G01Y-44497D01*
G02X-136316Y-44214I400J0D01*
G01X-136069Y-44462D01*
X-134720D01*
Y-48748D01*
X-130760D01*
Y-48720D01*
X-130513Y-48618D01*
X-128329Y-50802D01*
X-113471D01*
X-111998Y-49329D01*
Y-40941D01*
X-113298Y-39641D01*
Y-30129D01*
X-112671Y-29502D01*
X-108431D01*
X-106598Y-27669D01*
Y-14371D01*
X-108571Y-12398D01*
X-136459D01*
X-136658Y-12597D01*
G02X-136999Y-12455I-141J142D01*
G01Y37500D01*
X-137000Y45000D01*
Y48000D01*
G02X-129500Y56500I8567J0D01*
G01X-125502D01*
Y50498D01*
X-88998D01*
Y56500D01*
X-84162D01*
Y51338D01*
X-23138D01*
Y56500D01*
X173000D01*
G02X182000Y47500I0J-9000D01*
G01Y47000D01*
X181995D01*
Y38001D01*
G02X181999Y37756I-7495J-245D01*
G01Y-21000D01*
X180999Y-22000D01*
X175000D01*
X174000Y-23000D01*
Y-23969D01*
X173998Y-23971D01*
Y-51998D01*
G37*
G36*
G01X-64800Y-134843D02*
G03Y-140645I2300J-2901D01*
G01Y-144700D01*
X-66100Y-146000D01*
X-79000D01*
X-79998Y-145002D01*
Y-125398D01*
X-74302Y-119702D01*
X-74271D01*
X-68998Y-114429D01*
Y-96200D01*
G02X-68581Y-95800I400J1D01*
G03X-66895Y-93182I81J1800D01*
G02X-66538Y-92600I356J182D01*
G01X-51700D01*
X-50400Y-93900D01*
Y-114900D01*
X-60278Y-124778D01*
X-60415Y-124685D01*
G03X-64800Y-130645I-2085J-3059D01*
G01Y-134843D01*
G37*
G36*
G01X-107950Y-82550D02*
X-111000Y-79500D01*
Y-76119D01*
G02X-110491Y-75734I400J0D01*
G03Y-72266I491J1734D01*
G02X-111000Y-71881I-109J385D01*
G01Y-61000D01*
X-112000Y-60000D01*
X-118000D01*
X-124500Y-66500D01*
Y-66669D01*
X-124502Y-66671D01*
Y-73002D01*
X-125000Y-73500D01*
X-127000D01*
X-127800Y-72700D01*
Y-61500D01*
X-126500Y-60200D01*
Y-54500D01*
X-126000Y-54000D01*
X-123000D01*
X-119755Y-57245D01*
X-112145D01*
X-108900Y-54000D01*
X-97500D01*
X-88500Y-63000D01*
X-80400D01*
X-78900Y-64500D01*
Y-79736D01*
X-81522D01*
Y-82550D01*
X-107950D01*
G37*
G36*
G01X-97600Y-112900D02*
Y-123300D01*
X-99400Y-125100D01*
X-111100D01*
X-116800Y-119400D01*
X-135200D01*
X-136400Y-118200D01*
Y-109900D01*
X-135400Y-108900D01*
X-116300D01*
X-115100Y-110100D01*
X-100400D01*
X-97600Y-112900D01*
G37*
G36*
G01X-95000Y-137700D02*
X-94950Y-137650D01*
X-93550D01*
X-91750Y-135850D01*
Y-125786D01*
X-91186Y-125222D01*
X-82804D01*
X-82000Y-126026D01*
Y-145300D01*
X-82900Y-146200D01*
X-109000D01*
X-110000Y-145200D01*
Y-138400D01*
X-109300Y-137700D01*
X-95000D01*
G37*
G36*
G01X-124000Y-79500D02*
Y-75500D01*
X-122500Y-74000D01*
Y-67500D01*
X-117500Y-62500D01*
X-114000D01*
X-113500Y-63000D01*
Y-65000D01*
X-114000Y-65500D01*
X-117000D01*
X-120500Y-69000D01*
Y-80000D01*
X-123500D01*
X-124000Y-79500D01*
G37*
G36*
G01X-113419Y-79700D02*
G03X-112942Y-83213I-82J-1800D01*
G01X-112825Y-83175D01*
X-111500Y-84500D01*
X-108831D01*
X-108779Y-84552D01*
X-81522D01*
Y-87840D01*
X-73418D01*
Y-86447D01*
G02X-72736Y-86164I400J0D01*
G01X-71000Y-87900D01*
Y-113600D01*
X-75100Y-117700D01*
X-84068D01*
G03X-87636I-1784J-3458D01*
G01X-94400D01*
X-95598Y-116502D01*
Y-112071D01*
X-95600Y-112069D01*
Y-111400D01*
X-99000Y-108000D01*
X-114100D01*
X-115200Y-106900D01*
X-115469D01*
X-115471Y-106898D01*
X-136102D01*
X-136300Y-106700D01*
Y-96300D01*
X-135200Y-95200D01*
X-127700D01*
X-124000Y-91500D01*
Y-82500D01*
X-123502Y-82002D01*
X-118498D01*
Y-82000D01*
X-118300D01*
X-118000Y-81700D01*
Y-69500D01*
X-116002Y-67502D01*
X-113498D01*
X-113002Y-67998D01*
Y-79301D01*
G02X-113419Y-79700I-400J0D01*
G37*
G36*
G01X-82000Y11500D02*
X-82500Y12000D01*
Y24300D01*
X-84100Y25900D01*
X-98400D01*
X-98700Y26200D01*
Y35000D01*
X-99000Y35300D01*
X-101296D01*
X-101307Y35301D01*
G03X-101693I-193J-1801D01*
G01X-101704Y35300D01*
X-103600D01*
X-104300Y34600D01*
Y26100D01*
X-104400Y26000D01*
X-109600D01*
X-110500Y26900D01*
Y43800D01*
X-109300Y45000D01*
X-81500D01*
X-79500Y43000D01*
Y19000D01*
X-77500Y17000D01*
X-71200D01*
X-65500Y22700D01*
Y38500D01*
X-64500Y39500D01*
X-60000D01*
X-58562Y38062D01*
Y31635D01*
X-58500Y31573D01*
Y25500D01*
X-62500Y21500D01*
Y19900D01*
X-70900Y11500D01*
X-82000D01*
G37*
G36*
G01X-114300Y-48800D02*
X-127500D01*
X-129400Y-46900D01*
Y-43600D01*
X-130540Y-42460D01*
X-135240D01*
X-136600Y-41100D01*
Y-15370D01*
X-135630Y-14400D01*
X-109400D01*
X-108600Y-15200D01*
Y-26840D01*
X-109260Y-27500D01*
X-113500D01*
X-115300Y-29300D01*
Y-40470D01*
X-114000Y-41770D01*
Y-48500D01*
X-114300Y-48800D01*
G37*
G36*
G01X-101340Y-51300D02*
X-101900Y-50740D01*
Y-35030D01*
X-101170Y-34300D01*
X-95020D01*
X-94300Y-35020D01*
Y-50680D01*
X-94920Y-51300D01*
X-101340D01*
G37*
G36*
G01X-82500Y6000D02*
X-72000D01*
Y-5000D01*
X-82500D01*
Y6000D01*
G37*
G36*
G01X-7520Y-108177D02*
X-2828Y-103485D01*
Y-94593D01*
G03X-2939Y-92300I-1172J1092D01*
G02Y-91700I265J300D01*
G03X-2829Y-89407I-1061J1200D01*
G01Y-85840D01*
X-2795Y-85806D01*
X-1765D01*
X-1732Y-85840D01*
Y-95715D01*
X805Y-98252D01*
X14469D01*
X15549Y-97172D01*
X19865D01*
X21328Y-98635D01*
Y-99572D01*
X20945Y-99956D01*
X2815D01*
X1198Y-101573D01*
Y-103562D01*
X2814Y-105178D01*
X6500D01*
Y-117236D01*
X218D01*
X-3672Y-121125D01*
Y-124232D01*
G03X-4240Y-124477I1177J-3510D01*
G02X-4828Y-124124I-188J353D01*
G01Y-110515D01*
X-6074Y-109270D01*
X-7520D01*
Y-108177D01*
G37*
G36*
G01X-24428Y-120796D02*
Y-102535D01*
X-26605Y-100358D01*
X-30845D01*
X-31108Y-100095D01*
Y-99705D01*
X-30875Y-99472D01*
X-27415D01*
X-25818Y-97875D01*
Y-95100D01*
X-25661Y-95066D01*
G03X-24939Y-92300I-339J1566D01*
G02Y-91700I265J300D01*
G03X-24403Y-90627I-1061J1200D01*
G01X-24397Y-90554D01*
X-22315Y-88472D01*
X-20155D01*
X-19901Y-88726D01*
X-20116Y-88941D01*
X-20219Y-88923D01*
G03X-22097Y-90373I-281J-1577D01*
G01X-22103Y-90446D01*
X-23742Y-92085D01*
Y-95945D01*
X-21352Y-98335D01*
Y-118685D01*
X-23746Y-121079D01*
G02X-24428Y-120796I-282J283D01*
G37*
G36*
G01X-45959Y-114616D02*
X-45828Y-114485D01*
Y-112154D01*
G02X-45146Y-111871I400J0D01*
G01X-44625Y-112392D01*
X-42468D01*
X-41512Y-113348D01*
Y-114725D01*
X-42085Y-115298D01*
X-45676D01*
G02X-45959Y-114616I0J400D01*
G37*
G36*
G01X-39200Y-68200D02*
X-38700Y-68700D01*
Y-70100D01*
X-39600Y-71000D01*
Y-77100D01*
X-53900D01*
Y-68800D01*
X-53300Y-68200D01*
X-39200D01*
G37*
G36*
G01X-62000Y-83025D02*
X-65500Y-79525D01*
Y-68000D01*
X-64870Y-67370D01*
X-57130D01*
X-56200Y-68300D01*
Y-79800D01*
X-55000Y-81000D01*
Y-83000D01*
X-55500Y-83500D01*
X-61500D01*
X-61975Y-83025D01*
X-62000D01*
G37*
G36*
G01X-55195Y31582D02*
X-56218Y32605D01*
Y38215D01*
X-54725Y39708D01*
X-45240D01*
G02X-44973Y39011I0J-400D01*
G03X-40027I2473J-2755D01*
G02X-39760Y39708I267J297D01*
G01X-35240D01*
G02X-34973Y39011I0J-400D01*
G03X-28990Y35078I2473J-2755D01*
G01X-27285D01*
X-26773Y35590D01*
G02X-26102Y35399I282J-283D01*
G03X-18971Y35138I3602J857D01*
G02X-18307Y35300I381J-121D01*
G01X-17985Y34978D01*
X-15975D01*
G03X-9731Y33799I3475J1278D01*
G02X-9032Y33534I299J-265D01*
G01Y33215D01*
X-8081Y32264D01*
G02X-8364Y31582I-283J-282D01*
G01X-55195D01*
G37*
G36*
G01X-57810Y-14000D02*
X-57944Y-13866D01*
X-58633D01*
X-58914Y-13586D01*
G02X-58805Y-12943I283J283D01*
G03X-59980Y-9972I-695J1443D01*
G02X-60500Y-9590I-120J382D01*
G01Y1800D01*
X-60700Y2000D01*
X-67500D01*
X-68000Y2500D01*
Y6500D01*
X-67500Y7000D01*
X-60700D01*
X-60500Y7200D01*
Y14500D01*
X-59500Y15500D01*
X-36000D01*
X-35000Y14500D01*
Y11500D01*
X-34000Y10500D01*
X-23000D01*
X-22000Y9500D01*
Y4000D01*
X-22500Y3500D01*
X-34500D01*
X-36000Y2000D01*
Y-6000D01*
X-37000Y-7000D01*
X-41019D01*
G03X-41181I-81J-1800D01*
G01X-48500D01*
X-50000Y-8500D01*
Y-10669D01*
X-50002Y-10671D01*
Y-13998D01*
X-53502D01*
Y-14000D01*
X-57810D01*
G37*
G36*
G01X-48000Y-15000D02*
Y-11500D01*
X-47500Y-11000D01*
X-40500D01*
Y-15500D01*
X-41500Y-16500D01*
X-46000D01*
X-48500Y-19000D01*
X-51500D01*
Y-16000D01*
X-49000D01*
X-48000Y-15000D01*
G37*
G36*
G01X104445Y-142188D02*
X103032Y-140775D01*
Y-132154D01*
G02X103714Y-131871I400J0D01*
G01X105245Y-133402D01*
X111665D01*
X113862Y-131205D01*
Y-122475D01*
X113241Y-121854D01*
G02X113524Y-121172I283J282D01*
G01X125115D01*
X127678Y-123735D01*
Y-138915D01*
X124405Y-142188D01*
X104445D01*
G37*
G36*
G01X174000Y-66780D02*
Y-76000D01*
X173500Y-76500D01*
X153000D01*
X152500Y-76000D01*
Y-64000D01*
X153000Y-63500D01*
X159500D01*
X162000Y-66000D01*
X173220D01*
X174000Y-66780D01*
G37*
G36*
G01X119683Y20340D02*
G02X119000Y20622I-283J282D01*
G01Y21000D01*
X117784D01*
X117766Y21181D01*
G03X117503Y21813I-1166J-114D01*
G01X117501Y21816D01*
X117436Y21899D01*
X116975Y22362D01*
X117180Y22567D01*
X117270Y22561D01*
G03X114868Y23653I231J3695D01*
G02X114584Y22972I-284J-281D01*
G01X113955D01*
X112483Y21500D01*
X111877D01*
X110605Y22772D01*
X108195D01*
X106923Y21500D01*
X105717D01*
X104845Y22372D01*
X102435D01*
X101563Y21500D01*
X99757D01*
X99085Y22172D01*
X97669D01*
Y22553D01*
X97850Y22571D01*
G03X97150I-350J3685D01*
G01X97331Y22553D01*
Y22172D01*
X96675D01*
X96003Y21500D01*
X93997D01*
X93325Y22172D01*
X90915D01*
X90243Y21500D01*
X87837D01*
X87565Y21772D01*
X85155D01*
X84883Y21500D01*
X82697D01*
X81805Y22392D01*
X79535D01*
X79416Y22510D01*
G02X79485Y23131I283J283D01*
G03X79397Y29435I-1985J3125D01*
G02X79602Y30178I205J343D01*
G01X90445D01*
X93352Y33085D01*
Y38865D01*
X91071Y41146D01*
G02X91354Y41828I283J282D01*
G01X144515D01*
X154928Y31415D01*
Y29693D01*
G03X154642Y27937I1172J-1092D01*
G02X154278Y27372I-364J-165D01*
G01X126715D01*
X119683Y20340D01*
G37*
G36*
G01X176500Y-65800D02*
X176000Y-65300D01*
Y-24800D01*
X176500Y-24300D01*
X181299D01*
X181999Y-25000D01*
Y-64901D01*
X181100Y-65800D01*
X176500D01*
G37*
G36*
G01X162998Y-63998D02*
X161500Y-62500D01*
Y-58400D01*
X162900Y-57000D01*
X167500D01*
X170500Y-54000D01*
X173000D01*
X173500Y-54500D01*
Y-62500D01*
X172002Y-63998D01*
X162998D01*
G37*
%LPC*%
G75*
G36*
G01X166593Y-98172D02*
G02X165634Y-95404I-1093J1172D01*
G03X166068Y-95005I34J399D01*
G01Y-91520D01*
X168806D01*
G03X169056Y-90808I0J400D01*
G02X171152Y-88388I1002J1250D01*
G01X173544D01*
X174456Y-89299D01*
G03X175121Y-89132I282J283D01*
G02X176426Y-91406I1725J-522D01*
G03X175932Y-91795I-94J-389D01*
G01Y-95480D01*
X169612D01*
Y-97044D01*
X168485Y-98172D01*
X166593D01*
G37*
G36*
G01X-15520Y-69314D02*
X-19480D01*
Y-64568D01*
X-18672D01*
Y-62744D01*
G02X-18578Y-62284I1173J0D01*
G01X-18562Y-62247D01*
Y-61735D01*
G03X-19244Y-61453I-400J-1D01*
G01X-20353Y-62562D01*
X-21068D01*
Y-62980D01*
X-21880D01*
Y-64764D01*
X-21068D01*
Y-68724D01*
X-25814D01*
Y-64764D01*
X-25002D01*
Y-62980D01*
X-25814D01*
Y-59020D01*
X-21229D01*
X-20738Y-58530D01*
Y-57320D01*
G02X-19496Y-55791I1562J0D01*
G01X-19437Y-55779D01*
X-19254Y-55596D01*
X-19457Y-55393D01*
X-19508Y-55379D01*
G02X-19551Y-52976I331J1208D01*
G03X-19388Y-52312I-120J381D01*
G01X-19457Y-52242D01*
X-19508Y-52228D01*
G02X-19732Y-52143I330J1207D01*
G01X-19774Y-52123D01*
X-20020D01*
Y-52314D01*
X-23980D01*
Y-47462D01*
X-26103D01*
X-26140Y-47478D01*
G02X-26600Y-47572I-460J1079D01*
G01X-28906D01*
X-31338Y-45140D01*
G03X-32020Y-45423I-282J-283D01*
G01Y-45432D01*
X-35980D01*
Y-40686D01*
X-32020D01*
Y-41888D01*
X-31277D01*
X-31162Y-42002D01*
G03X-30480Y-41719I282J283D01*
G01Y-38686D01*
X-26520D01*
Y-39648D01*
X-25914D01*
X-25362Y-40200D01*
G03X-24680Y-39917I282J283D01*
G01Y-38686D01*
X-20720D01*
Y-39498D01*
X-19043D01*
X-18520Y-40020D01*
X-17164D01*
G03X-16889Y-39330I0J400D01*
G02X-15165I862J908D01*
G03X-14890Y-40020I275J-290D01*
G01X-14586D01*
Y-44020D01*
G03X-14801Y-44464I176J-359D01*
G02X-15694Y-45937I-1224J-265D01*
G01X-15745Y-45951D01*
X-15809Y-46014D01*
G03X-15647Y-46678I283J-283D01*
G02X-15536Y-49023I-380J-1193D01*
G03X-15662Y-49674I157J-368D01*
G01X-15395Y-49940D01*
X-15375Y-49953D01*
G02X-14861Y-51474I-653J-1068D01*
G01X-14908Y-51596D01*
X-13452Y-53051D01*
X-13331Y-53004D01*
G02X-12982Y-55419I454J-1167D01*
G03X-13416Y-55817I-34J-399D01*
G01Y-56108D01*
X-13192D01*
X-13169Y-56103D01*
G02X-12594Y-58540I292J-1217D01*
G03X-12787Y-59212I90J-390D01*
G01X-10938Y-61060D01*
Y-62247D01*
X-10922Y-62284D01*
G02X-10828Y-62744I-1079J-460D01*
G01Y-64568D01*
X-10020D01*
Y-69314D01*
X-13980D01*
Y-64568D01*
X-13172D01*
Y-62744D01*
G02X-13078Y-62284I1173J0D01*
G01X-13062Y-62247D01*
Y-61940D01*
X-15538Y-59463D01*
Y-58970D01*
G03X-15960Y-58570I-400J0D01*
G02X-16036Y-58572I-71J1250D01*
G03X-16438Y-58972I-2J-400D01*
G01Y-62247D01*
X-16422Y-62284D01*
G02X-16328Y-62744I-1079J-460D01*
G01Y-64568D01*
X-15520D01*
Y-69314D01*
G37*
G36*
G01X-4520Y-55814D02*
X-8480D01*
Y-52439D01*
G03X-9085Y-52096I-400J0D01*
G02X-8791Y-50190I-642J1075D01*
G03X-8145Y-50124I299J266D01*
G02X-8080Y-50018I1576J-893D01*
G01Y-48953D01*
G03X-8782Y-48691I-400J0D01*
G02Y-47051I-946J820D01*
G03X-8080Y-46789I302J262D01*
G01Y-45186D01*
X-5080D01*
G03X-4680Y-44771I0J400D01*
G02X-3650Y-45954I1251J49D01*
G03X-4120Y-46348I-70J-394D01*
G01Y-46705D01*
X-3886D01*
X-3853Y-46693D01*
G02X-3650Y-49103I424J-1178D01*
G03X-4120Y-49497I-70J-394D01*
G01Y-49855D01*
X-3886D01*
X-3853Y-49843D01*
G02X-3953Y-52158I425J-1178D01*
G03X-4520Y-52521I-167J-363D01*
G01Y-52671D01*
G03X-3953Y-53034I400J0D01*
G02Y-55308I524J-1137D01*
G03X-4520Y-55671I-167J-363D01*
G01Y-55814D01*
G37*
G36*
G01X-8447Y-30255D02*
G02X-11299Y-29876I-1281J1281D01*
G03X-11944Y-29809I-347J-199D01*
G02X-12121Y-27976I-933J835D01*
G03X-11480Y-27657I241J319D01*
G01Y-27142D01*
G03X-12121Y-26823I-400J0D01*
G02Y-24827I-756J998D01*
G03X-11480Y-24508I241J319D01*
G01Y-23686D01*
X-7520D01*
Y-28432D01*
X-7688D01*
Y-29496D01*
X-8447Y-30255D01*
G37*
G36*
G01X6687Y-24765D02*
G02X5353I-667J-1060D01*
G03X5319Y-24070I-213J338D01*
G02X5046Y-23895I702J1395D01*
G03X4484Y-23958I-250J-312D01*
G02X3942Y-24436I-1614J1283D01*
G03X3840Y-25031I207J-342D01*
G02X1902I-969J-793D01*
G03X1800Y-24436I-309J253D01*
G02X810Y-22674I1071J1761D01*
G01Y-18334D01*
X1020Y-18123D01*
Y-16686D01*
X3107D01*
X7568Y-12225D01*
Y-11520D01*
X8272D01*
X8354Y-11438D01*
X9941D01*
G02X10491Y-11513I-1J-2062D01*
G01X10517Y-11520D01*
X12314D01*
Y-15480D01*
X10517D01*
X10491Y-15487D01*
G02X10136Y-15552I-547J1987D01*
G01X10064Y-15559D01*
X9286Y-16338D01*
G03X9569Y-17020I283J-282D01*
G01X12314D01*
Y-20980D01*
X7729D01*
X7582Y-21127D01*
Y-21526D01*
G03X8269Y-21804I400J0D01*
G02X8110Y-23342I900J-870D01*
G03X7415Y-23376I-338J-214D01*
G02X6721Y-24070I-1395J701D01*
G03X6687Y-24765I179J-357D01*
G37*
G36*
G01X56314Y-111020D02*
Y-114980D01*
X51568D01*
Y-111020D01*
X51795D01*
G03X51936Y-110679I0J200D01*
G01X51432Y-110175D01*
Y-106500D01*
G02X51963Y-105219I1811J0D01*
G01X52994Y-104188D01*
X59374D01*
G02X59680Y-104215I-6J-1812D01*
G01X59697Y-104218D01*
X63125D01*
Y-107782D01*
X59697D01*
X59680Y-107785D01*
G02X59374Y-107812I-312J1785D01*
G01X55056D01*
Y-108675D01*
X55752Y-109372D01*
Y-111020D01*
X56314D01*
G37*
G36*
G01X65203Y-87946D02*
X65542Y-88286D01*
X69442D01*
X71612Y-90456D01*
Y-93520D01*
X74984D01*
X75011Y-93513D01*
G02X76107I548J-1987D01*
G01X76134Y-93520D01*
X77932D01*
Y-97480D01*
X77620D01*
Y-99938D01*
X81354D01*
X82458Y-101042D01*
G02X79654Y-104062I-1458J-1458D01*
G01X75559D01*
G02X75011Y-103987I3J2062D01*
G01X74984Y-103980D01*
X68068D01*
Y-101677D01*
X63562Y-97172D01*
X63125D01*
Y-97782D01*
X55623D01*
Y-97172D01*
X53599D01*
X51128Y-94701D01*
Y-91893D01*
G02X53472I1172J1093D01*
G01Y-93731D01*
X54569Y-94828D01*
X55623D01*
Y-94218D01*
X63125D01*
Y-94828D01*
X64532D01*
X69724Y-100020D01*
X73498D01*
Y-97480D01*
X68068D01*
Y-93520D01*
X69270D01*
Y-91426D01*
X68472Y-90628D01*
X64572D01*
X63600Y-89657D01*
X63125Y-90132D01*
Y-92782D01*
X55623D01*
Y-89218D01*
X60726D01*
X61997Y-87946D01*
X62003Y-87873D01*
G02X65197I1597J-127D01*
G01X65203Y-87946D01*
G37*
G36*
G01X63125Y-100252D02*
G03X63720Y-100601I400J0D01*
G02X63102Y-102782I780J-1399D01*
G01X55623D01*
Y-99218D01*
X63125D01*
Y-100252D01*
G37*
G36*
G01X88217Y-72283D02*
X88132Y-72281D01*
X87734Y-72678D01*
X87721Y-72732D01*
G02X86024Y-71035I-1361J336D01*
G01X86078Y-71022D01*
X86475Y-70624D01*
X86473Y-70539D01*
G02X88217Y-72283I1783J39D01*
G37*
G36*
G01X93217D02*
X93132Y-72281D01*
X92734Y-72678D01*
X92721Y-72732D01*
G02X91024Y-71035I-1361J336D01*
G01X91078Y-71022D01*
X91475Y-70624D01*
X91473Y-70539D01*
G02X93217Y-72283I1783J39D01*
G37*
G36*
G01X108778Y-72678D02*
X108380Y-72281D01*
X108295Y-72283D01*
G02X110039Y-70539I-39J1783D01*
G01X110037Y-70624D01*
X110434Y-71022D01*
X110488Y-71035D01*
G02X108791Y-72732I-336J-1361D01*
G01X108778Y-72678D01*
G37*
G36*
G01X113778D02*
X113380Y-72281D01*
X113295Y-72283D01*
G02X115039Y-70539I-39J1783D01*
G01X115037Y-70624D01*
X115434Y-71022D01*
X115488Y-71035D01*
G02X113791Y-72732I-336J-1361D01*
G01X113778Y-72678D01*
G37*
G36*
G01X28Y-60467D02*
G03X707Y-60241I283J283D01*
G02X2500Y-58688I1793J-259D01*
G01X3068D01*
Y-58520D01*
X4575D01*
G03X4925Y-57927I0J400D01*
G02X7115I1095J607D01*
G03X7465Y-58520I350J-193D01*
G01X7814D01*
Y-62480D01*
X3068D01*
Y-62312D01*
X2500D01*
G02X2365Y-62306I13J1811D01*
G01X2274Y-62300D01*
X2068Y-62506D01*
X2252Y-62691D01*
Y-64020D01*
X2814D01*
Y-67980D01*
X2252D01*
Y-69520D01*
X2814D01*
Y-73480D01*
X-1932D01*
Y-69520D01*
X-1370D01*
Y-67980D01*
X-1932D01*
Y-63912D01*
X-5000D01*
G02Y-60288I0J1812D01*
G01X-150D01*
X28Y-60467D01*
G37*
G36*
G01X81078Y-66022D02*
X81475Y-65624D01*
X81473Y-65539D01*
G02X83217Y-67283I1783J39D01*
G01X83132Y-67281D01*
X82734Y-67678D01*
X82721Y-67732D01*
G02X81024Y-66035I-1361J336D01*
G01X81078Y-66022D01*
G37*
G36*
G01X88217Y-67283D02*
X88132Y-67281D01*
X87734Y-67678D01*
X87721Y-67732D01*
G02X86024Y-66035I-1361J336D01*
G01X86078Y-66022D01*
X86475Y-65624D01*
X86473Y-65539D01*
G02X88217Y-67283I1783J39D01*
G37*
G36*
G01X93217D02*
X93132Y-67281D01*
X92734Y-67678D01*
X92721Y-67732D01*
G02X91024Y-66035I-1361J336D01*
G01X91078Y-66022D01*
X91475Y-65624D01*
X91473Y-65539D01*
G02X93217Y-67283I1783J39D01*
G37*
G36*
G01X103778Y-67678D02*
X103380Y-67281D01*
X103295Y-67283D01*
G02X105039Y-65539I-39J1783D01*
G01X105037Y-65624D01*
X105434Y-66022D01*
X105488Y-66035D01*
G02X103791Y-67732I-336J-1361D01*
G01X103778Y-67678D01*
G37*
G36*
G01X108778D02*
X108380Y-67281D01*
X108295Y-67283D01*
G02X110039Y-65539I-39J1783D01*
G01X110037Y-65624D01*
X110434Y-66022D01*
X110488Y-66035D01*
G02X108791Y-67732I-336J-1361D01*
G01X108778Y-67678D01*
G37*
G36*
G01X113778D02*
X113380Y-67281D01*
X113295Y-67283D01*
G02X115039Y-65539I-39J1783D01*
G01X115037Y-65624D01*
X115434Y-66022D01*
X115488Y-66035D01*
G02X113791Y-67732I-336J-1361D01*
G01X113778Y-67678D01*
G37*
G36*
G01X-74236Y-30555D02*
G02X-69282Y-27824I1693J2787D01*
G02X-63364Y-33760I-18J-5936D01*
G01Y-38274D01*
X-58300D01*
G02X-58211Y-38275I18J-2326D01*
G03X-57000Y-38298I1203J31463D01*
G01X-46920D01*
G02X-42649Y-39519I1945J-1277D01*
G02X-43311Y-41600I-3351J-80D01*
G02X-42649Y-43518I-2689J-2001D01*
G02X-46886Y-44902I-2326J-57D01*
G01X-50494D01*
G03X-50728Y-45626I0J-400D01*
G02X-49755Y-46455I-4715J-6519D01*
G01X-44899Y-51311D01*
G03X-43000Y-52098I1899J1898D01*
G01X-40493D01*
G02X-36174Y-53298I1993J-1200D01*
G01Y-53424D01*
G02X-36823Y-55399I-3326J-1D01*
G02X-36174Y-57374I-2677J-1974D01*
G01Y-57500D01*
G02X-40493Y-58700I-2326J0D01*
G01X-43000D01*
G02X-49568Y-55980I0J9290D01*
G01X-54424Y-51124D01*
G03X-55443Y-50702I-1019J-1020D01*
G01X-57000D01*
G03X-58211Y-50725I-8J-31486D01*
G02X-58300Y-50726I-71J2325D01*
G01X-61700D01*
G02X-62161Y-50680I-1J2326D01*
G01X-62180Y-50676D01*
X-63654D01*
Y-55080D01*
G02X-69283Y-61159I-6097J0D01*
G02X-74217Y-58433I-3260J-73D01*
G02X-73696Y-57776I3489J-2232D01*
G02X-74158Y-57176I3298J3017D01*
G02X-70863Y-51548I1616J2833D01*
G03X-70256Y-51206I207J342D01*
G01Y-50490D01*
G02X-66891Y-44845I6416J1D01*
G03X-66889Y-44143I-190J352D01*
G02X-69966Y-38940I2859J5202D01*
G01Y-37601D01*
G03X-70604Y-37279I-400J0D01*
G02X-74158Y-31824I-1939J2622D01*
G02X-73691Y-31219I3759J-2418D01*
G02X-74236Y-30555I2730J2796D01*
G37*
G36*
G01X83132Y-62281D02*
X82734Y-62678D01*
X82721Y-62732D01*
G02X81024Y-61035I-1361J336D01*
G01X81078Y-61022D01*
X81475Y-60624D01*
X81473Y-60539D01*
G02X83217Y-62283I1783J39D01*
G01X83132Y-62281D01*
G37*
G36*
G01X88132D02*
X87734Y-62678D01*
X87721Y-62732D01*
G02X86024Y-61035I-1361J336D01*
G01X86078Y-61022D01*
X86475Y-60624D01*
X86473Y-60539D01*
G02X88217Y-62283I1783J39D01*
G01X88132Y-62281D01*
G37*
G36*
G01X93132D02*
X92734Y-62678D01*
X92721Y-62732D01*
G02X91024Y-61035I-1361J336D01*
G01X91078Y-61022D01*
X91475Y-60624D01*
X91473Y-60539D01*
G02X93217Y-62283I1783J39D01*
G01X93132Y-62281D01*
G37*
G36*
G01X105037Y-60624D02*
X105434Y-61022D01*
X105488Y-61035D01*
G02X103791Y-62732I-336J-1361D01*
G01X103778Y-62678D01*
X103380Y-62281D01*
X103295Y-62283D01*
G02X105039Y-60539I-39J1783D01*
G01X105037Y-60624D01*
G37*
G36*
G01X110037D02*
X110434Y-61022D01*
X110488Y-61035D01*
G02X108791Y-62732I-336J-1361D01*
G01X108778Y-62678D01*
X108380Y-62281D01*
X108295Y-62283D01*
G02X110039Y-60539I-39J1783D01*
G01X110037Y-60624D01*
G37*
G36*
G01X115037D02*
X115434Y-61022D01*
X115488Y-61035D01*
G02X113791Y-62732I-336J-1361D01*
G01X113778Y-62678D01*
X113380Y-62281D01*
X113295Y-62283D01*
G02X115039Y-60539I-39J1783D01*
G01X115037Y-60624D01*
G37*
G36*
G01X14068Y-49489D02*
Y-47020D01*
X14630D01*
Y-43149D01*
G02X18252I1811J0D01*
G01Y-47020D01*
X18814D01*
Y-49252D01*
X19812Y-50250D01*
Y-53100D01*
X21554D01*
Y-59420D01*
X14446D01*
Y-53100D01*
X16188D01*
Y-51750D01*
X15418Y-50980D01*
X14264D01*
X14242Y-51155D01*
G02X13506Y-49855I-1242J155D01*
G03X14068Y-49489I162J366D01*
G37*
G36*
G01X83132Y-57281D02*
X82734Y-57678D01*
X82721Y-57732D01*
G02X81024Y-56035I-1361J336D01*
G01X81078Y-56022D01*
X81475Y-55624D01*
X81473Y-55539D01*
G02X83217Y-57283I1783J39D01*
G01X83132Y-57281D01*
G37*
G36*
G01X88328Y-57283D02*
X87639Y-57972D01*
X87624Y-58003D01*
G02X85753Y-56132I-1264J607D01*
G01X85784Y-56117D01*
X86473Y-55428D01*
X86479Y-55355D01*
G02X88401Y-57277I1777J-145D01*
G01X88328Y-57283D01*
G37*
G36*
G01X110039Y-55428D02*
X110728Y-56117D01*
X110759Y-56132D01*
G02X108888Y-58003I-607J-1264D01*
G01X108873Y-57972D01*
X108184Y-57283D01*
X108111Y-57277D01*
G02X110033Y-55355I145J1777D01*
G01X110039Y-55428D01*
G37*
G36*
G01X115037Y-55624D02*
X115434Y-56022D01*
X115488Y-56035D01*
G02X113791Y-57732I-336J-1361D01*
G01X113778Y-57678D01*
X113380Y-57281D01*
X113295Y-57283D01*
G02X115039Y-55539I-39J1783D01*
G01X115037Y-55624D01*
G37*
G36*
G01X-26020Y-56870D02*
Y-57432D01*
X-29980D01*
Y-52686D01*
X-26020D01*
Y-52792D01*
G03X-25599Y-53191I400J0D01*
G02X-24219Y-56281I99J-1809D01*
G01X-24809Y-56870D01*
X-26020D01*
G37*
G36*
G01X83132Y-52281D02*
X82734Y-52678D01*
X82721Y-52732D01*
G02X81024Y-51035I-1361J336D01*
G01X81078Y-51022D01*
X81475Y-50624D01*
X81473Y-50539D01*
G02X83217Y-52283I1783J39D01*
G01X83132Y-52281D01*
G37*
G36*
G01X93328Y-52283D02*
X92639Y-52972D01*
X92624Y-53003D01*
G02X90753Y-51132I-1264J607D01*
G01X90784Y-51117D01*
X91473Y-50428D01*
X91479Y-50355D01*
G02X93401Y-52277I1777J-145D01*
G01X93328Y-52283D01*
G37*
G36*
G01X105039Y-50428D02*
X105728Y-51117D01*
X105759Y-51132D01*
G02X103888Y-53003I-607J-1264D01*
G01X103873Y-52972D01*
X103184Y-52283D01*
X103111Y-52277D01*
G02X105033Y-50355I145J1777D01*
G01X105039Y-50428D01*
G37*
G36*
G01X115037Y-50624D02*
X115434Y-51022D01*
X115488Y-51035D01*
G02X113791Y-52732I-336J-1361D01*
G01X113778Y-52678D01*
X113380Y-52281D01*
X113295Y-52283D01*
G02X115039Y-50539I-39J1783D01*
G01X115037Y-50624D01*
G37*
G36*
G01X83132Y-47281D02*
X82734Y-47678D01*
X82721Y-47732D01*
G02X81024Y-46035I-1361J336D01*
G01X81078Y-46022D01*
X81475Y-45624D01*
X81473Y-45539D01*
G02X83217Y-47283I1783J39D01*
G01X83132Y-47281D01*
G37*
G36*
G01X88328Y-47283D02*
X87639Y-47972D01*
X87624Y-48003D01*
G02X85753Y-46132I-1264J607D01*
G01X85784Y-46117D01*
X86473Y-45428D01*
X86479Y-45355D01*
G02X88401Y-47277I1777J-145D01*
G01X88328Y-47283D01*
G37*
G36*
G01X110039Y-45428D02*
X110728Y-46117D01*
X110759Y-46132D01*
G02X108888Y-48003I-607J-1264D01*
G01X108873Y-47972D01*
X108184Y-47283D01*
X108111Y-47277D01*
G02X110033Y-45355I145J1777D01*
G01X110039Y-45428D01*
G37*
G36*
G01X115037Y-45624D02*
X115434Y-46022D01*
X115488Y-46035D01*
G02X113791Y-47732I-336J-1361D01*
G01X113778Y-47678D01*
X113380Y-47281D01*
X113295Y-47283D01*
G02X115039Y-45539I-39J1783D01*
G01X115037Y-45624D01*
G37*
G36*
G01X150780Y-44852D02*
Y-45414D01*
X146820D01*
Y-40668D01*
X150780D01*
Y-40675D01*
G03X151268Y-41065I400J0D01*
G02X152949Y-44113I400J-1767D01*
G01X152209Y-44852D01*
X150780D01*
G37*
G36*
G01X83132Y-42281D02*
X82734Y-42678D01*
X82721Y-42732D01*
G02X81024Y-41035I-1361J336D01*
G01X81078Y-41022D01*
X81475Y-40624D01*
X81473Y-40539D01*
G02X83217Y-42283I1783J39D01*
G01X83132Y-42281D01*
G37*
G36*
G01X93328Y-42283D02*
X92639Y-42972D01*
X92624Y-43003D01*
G02X90753Y-41132I-1264J607D01*
G01X90784Y-41117D01*
X91473Y-40428D01*
X91479Y-40355D01*
G02X93401Y-42277I1777J-145D01*
G01X93328Y-42283D01*
G37*
G36*
G01X105039Y-40428D02*
X105728Y-41117D01*
X105759Y-41132D01*
G02X103888Y-43003I-607J-1264D01*
G01X103873Y-42972D01*
X103184Y-42283D01*
X103111Y-42277D01*
G02X105033Y-40355I145J1777D01*
G01X105039Y-40428D01*
G37*
G36*
G01X115037Y-40624D02*
X115434Y-41022D01*
X115488Y-41035D01*
G02X113791Y-42732I-336J-1361D01*
G01X113778Y-42678D01*
X113380Y-42281D01*
X113295Y-42283D01*
G02X115039Y-40539I-39J1783D01*
G01X115037Y-40624D01*
G37*
G36*
G01X-79474Y-34984D02*
Y-36045D01*
X-79333Y-36088D01*
G02X-81746Y-36174I-1084J-3491D01*
G01Y-34984D01*
X-82392D01*
Y-29646D01*
X-78828D01*
Y-34984D01*
X-79474D01*
G37*
G36*
G01X88328Y-37283D02*
X87639Y-37972D01*
X87624Y-38003D01*
G02X85753Y-36132I-1264J607D01*
G01X85784Y-36117D01*
X86473Y-35428D01*
X86479Y-35355D01*
G02X88401Y-37277I1777J-145D01*
G01X88328Y-37283D01*
G37*
G36*
G01X110039Y-35428D02*
X110728Y-36117D01*
X110759Y-36132D01*
G02X108888Y-38003I-607J-1264D01*
G01X108873Y-37972D01*
X108184Y-37283D01*
X108111Y-37277D01*
G02X110033Y-35355I145J1777D01*
G01X110039Y-35428D01*
G37*
G36*
G01X115037Y-35624D02*
X115434Y-36022D01*
X115488Y-36035D01*
G02X113791Y-37732I-336J-1361D01*
G01X113778Y-37678D01*
X113380Y-37281D01*
X113295Y-37283D01*
G02X115039Y-35539I-39J1783D01*
G01X115037Y-35624D01*
G37*
G36*
G01X-25853Y-30938D02*
X-23938Y-32853D01*
Y-35000D01*
G02X-27062I-1562J0D01*
G01Y-34147D01*
X-27147Y-34062D01*
X-31647D01*
X-33562Y-32147D01*
Y-31432D01*
X-33980D01*
Y-30620D01*
X-35446D01*
Y-33400D01*
X-42554D01*
Y-27080D01*
X-35446D01*
Y-27498D01*
X-33980D01*
Y-26686D01*
X-30020D01*
Y-30938D01*
X-25853D01*
G37*
G36*
G01X146557Y-30770D02*
X146826Y-31038D01*
X146899Y-31044D01*
G02X146058Y-34075I-127J-1597D01*
G03X145498Y-34314I-178J-358D01*
G01X141520D01*
Y-29568D01*
X145480D01*
Y-30770D01*
X146557D01*
G37*
G36*
G01X-59643Y-29867D02*
X-72090Y-17420D01*
G03X-73040Y-17026I-950J-948D01*
G01X-73333D01*
X-73377Y-17167D01*
G02X-77780Y-19593I-3463J1077D01*
G03X-78284Y-19979I-104J-386D01*
G01Y-21685D01*
G02X-78827Y-23179I-2327J0D01*
G01Y-24354D01*
X-82788D01*
Y-25991D01*
X-82784Y-26012D01*
G02X-85916I-1566J-338D01*
G01X-85912Y-25991D01*
Y-24354D01*
X-89873D01*
Y-23179D01*
G02X-90416Y-21685I1784J1494D01*
G01Y-19690D01*
G02X-87650Y-16254I3517J0D01*
G02X-81700Y-10424I5950J-121D01*
G01X-73040D01*
G02X-67421Y-12751I0J-7948D01*
G01X-54974Y-25198D01*
G03X-52740Y-26124I2234J2232D01*
G01X-52221D01*
G03X-51939Y-25440I0J400D01*
G02X-50299Y-21464I1640J1650D01*
G02X-48065Y-22245I0J-3586D01*
G02X-45831Y-21464I2234J-2805D01*
G02X-44764Y-25857I0J-2326D01*
G01Y-26969D01*
G02X-50521Y-32726I-5757J0D01*
G01X-52740D01*
G02X-59643Y-29867I0J9763D01*
G37*
G36*
G01X92624Y-27997D02*
X92639Y-28028D01*
X93328Y-28717D01*
X93401Y-28723D01*
G02X91479Y-30645I-145J-1777D01*
G01X91473Y-30572D01*
X90784Y-29883D01*
X90753Y-29868D01*
G02X92624Y-27997I607J1264D01*
G37*
G36*
G01X105728Y-29883D02*
X105039Y-30572D01*
X105033Y-30645D01*
G02X103111Y-28723I-1777J145D01*
G01X103184Y-28717D01*
X103873Y-28028D01*
X103888Y-27997D01*
G02X105759Y-29868I1264J-607D01*
G01X105728Y-29883D01*
G37*
G36*
G01X162070Y-24887D02*
Y-30421D01*
X156930D01*
Y-29431D01*
G03X156424Y-29045I-400J0D01*
G02Y-25955I-424J1545D01*
G03X156930Y-25569I106J386D01*
G01Y-24887D01*
X162070D01*
G37*
G36*
G01X-16396Y-27020D02*
G03X-16885Y-27253I-118J-382D01*
G02X-19663Y-27487I-1448J585D01*
G01X-20835Y-26314D01*
X-22980D01*
Y-24912D01*
X-24520D01*
Y-26314D01*
X-28480D01*
Y-23422D01*
X-29590Y-22312D01*
X-33257D01*
X-35017Y-24072D01*
X-35446D01*
Y-25920D01*
X-42554D01*
Y-19600D01*
X-36103D01*
G03X-35783Y-18960I0J400D01*
G02X-33461Y-16781I1283J960D01*
G01X-33405Y-16828D01*
X-32925D01*
X-32484Y-16388D01*
X-30180D01*
Y-15186D01*
X-26220D01*
Y-19932D01*
X-27295D01*
G03X-27577Y-20615I0J-400D01*
G01X-26624Y-21568D01*
X-24520D01*
Y-22088D01*
X-22980D01*
Y-21568D01*
X-21530D01*
G03X-21135Y-21103I0J400D01*
G02X-19020Y-21791I1235J203D01*
G01Y-23712D01*
X-17625Y-25107D01*
G03X-17024Y-25067I283J282D01*
G02X-16396Y-27020I997J-757D01*
G37*
G36*
G01X10331Y-25359D02*
G03X10891Y-25563I371J149D01*
G02X10319Y-27133I590J-1104D01*
G03X9759Y-26929I-371J-149D01*
G02X10331Y-25359I-590J1104D01*
G37*
G36*
G01X86473Y-25572D02*
X85784Y-24883D01*
X85753Y-24868D01*
G02X87624Y-22997I607J1264D01*
G01X87639Y-23028D01*
X88328Y-23717D01*
X88401Y-23723D01*
G02X86479Y-25645I-145J-1777D01*
G01X86473Y-25572D01*
G37*
G36*
G01X110728Y-24883D02*
X110039Y-25572D01*
X110033Y-25645D01*
G02X108111Y-23723I-1777J145D01*
G01X108184Y-23717D01*
X108873Y-23028D01*
X108888Y-22997D01*
G02X110759Y-24868I1264J-607D01*
G01X110728Y-24883D01*
G37*
G36*
G01X113380Y-23719D02*
X113778Y-23322D01*
X113791Y-23268D01*
G02X115488Y-24965I1361J-336D01*
G01X115434Y-24978D01*
X115037Y-25376D01*
X115039Y-25461D01*
G02X113295Y-23717I-1783J-39D01*
G01X113380Y-23719D01*
G37*
G36*
G01X-2630Y-19059D02*
X-1999Y-19689D01*
G02X-4561Y-22251I-1281J-1281D01*
G01X-6252Y-20559D01*
Y-16980D01*
X-6814D01*
Y-13020D01*
X-6312D01*
Y-11432D01*
X-6480D01*
Y-6686D01*
X-2520D01*
Y-11432D01*
X-2688D01*
Y-13020D01*
X-2068D01*
Y-16980D01*
X-2630D01*
Y-19059D01*
G37*
G36*
G01X91473Y-20572D02*
X90784Y-19883D01*
X90753Y-19868D01*
G02X92624Y-17997I607J1264D01*
G01X92639Y-18028D01*
X93328Y-18717D01*
X93401Y-18723D01*
G02X91479Y-20645I-145J-1777D01*
G01X91473Y-20572D01*
G37*
G36*
G01X105728Y-19883D02*
X105039Y-20572D01*
X105033Y-20645D01*
G02X103111Y-18723I-1777J145D01*
G01X103184Y-18717D01*
X103873Y-18028D01*
X103888Y-17997D01*
G02X105759Y-19868I1264J-607D01*
G01X105728Y-19883D01*
G37*
G36*
G01X113380Y-18719D02*
X113778Y-18322D01*
X113791Y-18268D01*
G02X115488Y-19965I1361J-336D01*
G01X115434Y-19978D01*
X115037Y-20376D01*
X115039Y-20461D01*
G02X113295Y-18717I-1783J-39D01*
G01X113380Y-18719D01*
G37*
G36*
G01X-13068Y-20024D02*
X-13621D01*
X-13641Y-20201D01*
G02X-17241I-1800J201D01*
G01X-17261Y-20024D01*
X-17814D01*
Y-16064D01*
X-17252D01*
Y-14480D01*
X-17814D01*
Y-10520D01*
X-16017D01*
G03X-15671Y-9919I0J400D01*
G02X-13068Y-10155I1385J805D01*
G01Y-14480D01*
X-13630D01*
Y-16064D01*
X-13068D01*
Y-20024D01*
G37*
G36*
G01X82734Y-13322D02*
X83132Y-13719D01*
X83217Y-13717D01*
G02X81473Y-15461I39J-1783D01*
G01X81475Y-15376D01*
X81078Y-14978D01*
X81024Y-14965D01*
G02X82721Y-13268I336J1361D01*
G01X82734Y-13322D01*
G37*
G36*
G01X86473Y-15572D02*
X85784Y-14883D01*
X85753Y-14868D01*
G02X87624Y-12997I607J1264D01*
G01X87639Y-13028D01*
X88328Y-13717D01*
X88401Y-13723D01*
G02X86479Y-15645I-145J-1777D01*
G01X86473Y-15572D01*
G37*
G36*
G01X110728Y-14883D02*
X110039Y-15572D01*
X110033Y-15645D01*
G02X108111Y-13723I-1777J145D01*
G01X108184Y-13717D01*
X108873Y-13028D01*
X108888Y-12997D01*
G02X110759Y-14868I1264J-607D01*
G01X110728Y-14883D01*
G37*
G36*
G01X113380Y-13719D02*
X113778Y-13322D01*
X113791Y-13268D01*
G02X115488Y-14965I1361J-336D01*
G01X115434Y-14978D01*
X115037Y-15376D01*
X115039Y-15461D01*
G02X113295Y-13717I-1783J-39D01*
G01X113380Y-13719D01*
G37*
G36*
G01X82734Y-8322D02*
X83132Y-8719D01*
X83217Y-8717D01*
G02X81473Y-10461I39J-1783D01*
G01X81475Y-10376D01*
X81078Y-9978D01*
X81024Y-9965D01*
G02X82721Y-8268I336J1361D01*
G01X82734Y-8322D01*
G37*
G36*
G01X91473Y-10572D02*
X90784Y-9883D01*
X90753Y-9868D01*
G02X92624Y-7997I607J1264D01*
G01X92639Y-8028D01*
X93328Y-8717D01*
X93401Y-8723D01*
G02X91479Y-10645I-145J-1777D01*
G01X91473Y-10572D01*
G37*
G36*
G01X105728Y-9883D02*
X105039Y-10572D01*
X105033Y-10645D01*
G02X103111Y-8723I-1777J145D01*
G01X103184Y-8717D01*
X103873Y-8028D01*
X103888Y-7997D01*
G02X105759Y-9868I1264J-607D01*
G01X105728Y-9883D01*
G37*
G36*
G01X113380Y-8719D02*
X113778Y-8322D01*
X113791Y-8268D01*
G02X115488Y-9965I1361J-336D01*
G01X115434Y-9978D01*
X115037Y-10376D01*
X115039Y-10461D01*
G02X113295Y-8717I-1783J-39D01*
G01X113380Y-8719D01*
G37*
G36*
G01X-101112Y-8943D02*
X-103671Y-11502D01*
X-115829D01*
X-118002Y-9329D01*
Y4829D01*
X-115829Y7002D01*
X-115502D01*
Y19829D01*
X-113829Y21502D01*
X-101171D01*
X-101169Y21500D01*
X-99831D01*
X-99329Y22002D01*
X-89471D01*
X-87898Y20429D01*
Y8771D01*
X-93298Y3371D01*
Y-3029D01*
X-94871Y-4602D01*
X-100498D01*
Y-6092D01*
G03X-99899Y-6438I400J1D01*
G02X-100497Y-9003I899J-1562D01*
G03X-101112Y-8943I-332J-223D01*
G37*
G36*
G01X82734Y-3322D02*
X83132Y-3719D01*
X83217Y-3717D01*
G02X81473Y-5461I39J-1783D01*
G01X81475Y-5376D01*
X81078Y-4978D01*
X81024Y-4965D01*
G02X82721Y-3268I336J1361D01*
G01X82734Y-3322D01*
G37*
G36*
G01X86473Y-5572D02*
X85784Y-4883D01*
X85753Y-4868D01*
G02X87624Y-2997I607J1264D01*
G01X87639Y-3028D01*
X88328Y-3717D01*
X88401Y-3723D01*
G02X86479Y-5645I-145J-1777D01*
G01X86473Y-5572D01*
G37*
G36*
G01X110728Y-4883D02*
X110039Y-5572D01*
X110033Y-5645D01*
G02X108111Y-3723I-1777J145D01*
G01X108184Y-3717D01*
X108873Y-3028D01*
X108888Y-2997D01*
G02X110759Y-4868I1264J-607D01*
G01X110728Y-4883D01*
G37*
G36*
G01X113380Y-3719D02*
X113778Y-3322D01*
X113791Y-3268D01*
G02X115488Y-4965I1361J-336D01*
G01X115434Y-4978D01*
X115037Y-5376D01*
X115039Y-5461D01*
G02X113295Y-3717I-1783J-39D01*
G01X113380Y-3719D01*
G37*
G36*
G01X82734Y1678D02*
X83132Y1281D01*
X83217Y1283D01*
G02X81473Y-461I39J-1783D01*
G01X81475Y-376D01*
X81078Y22D01*
X81024Y35D01*
G02X82721Y1732I336J1361D01*
G01X82734Y1678D01*
G37*
G36*
G01X87734D02*
X88132Y1281D01*
X88217Y1283D01*
G02X86473Y-461I39J-1783D01*
G01X86475Y-376D01*
X86078Y22D01*
X86024Y35D01*
G02X87721Y1732I336J1361D01*
G01X87734Y1678D01*
G37*
G36*
G01X92734D02*
X93132Y1281D01*
X93217Y1283D01*
G02X91473Y-461I39J-1783D01*
G01X91475Y-376D01*
X91078Y22D01*
X91024Y35D01*
G02X92721Y1732I336J1361D01*
G01X92734Y1678D01*
G37*
G36*
G01X103380Y1281D02*
X103778Y1678D01*
X103791Y1732D01*
G02X105488Y35I1361J-336D01*
G01X105434Y22D01*
X105037Y-376D01*
X105039Y-461D01*
G02X103295Y1283I-1783J-39D01*
G01X103380Y1281D01*
G37*
G36*
G01X108380D02*
X108778Y1678D01*
X108791Y1732D01*
G02X110488Y35I1361J-336D01*
G01X110434Y22D01*
X110037Y-376D01*
X110039Y-461D01*
G02X108295Y1283I-1783J-39D01*
G01X108380Y1281D01*
G37*
G36*
G01X113380D02*
X113778Y1678D01*
X113791Y1732D01*
G02X115488Y35I1361J-336D01*
G01X115434Y22D01*
X115037Y-376D01*
X115039Y-461D01*
G02X113295Y1283I-1783J-39D01*
G01X113380Y1281D01*
G37*
G36*
G01X82734Y6678D02*
X83132Y6281D01*
X83217Y6283D01*
G02X81473Y4539I39J-1783D01*
G01X81475Y4624D01*
X81078Y5022D01*
X81024Y5035D01*
G02X82721Y6732I336J1361D01*
G01X82734Y6678D01*
G37*
G36*
G01X87734D02*
X88132Y6281D01*
X88217Y6283D01*
G02X86473Y4539I39J-1783D01*
G01X86475Y4624D01*
X86078Y5022D01*
X86024Y5035D01*
G02X87721Y6732I336J1361D01*
G01X87734Y6678D01*
G37*
G36*
G01X92734D02*
X93132Y6281D01*
X93217Y6283D01*
G02X91473Y4539I39J-1783D01*
G01X91475Y4624D01*
X91078Y5022D01*
X91024Y5035D01*
G02X92721Y6732I336J1361D01*
G01X92734Y6678D01*
G37*
G36*
G01X103380Y6281D02*
X103778Y6678D01*
X103791Y6732D01*
G02X105488Y5035I1361J-336D01*
G01X105434Y5022D01*
X105037Y4624D01*
X105039Y4539D01*
G02X103295Y6283I-1783J-39D01*
G01X103380Y6281D01*
G37*
G36*
G01X108380D02*
X108778Y6678D01*
X108791Y6732D01*
G02X110488Y5035I1361J-336D01*
G01X110434Y5022D01*
X110037Y4624D01*
X110039Y4539D01*
G02X108295Y6283I-1783J-39D01*
G01X108380Y6281D01*
G37*
G36*
G01X113380D02*
X113778Y6678D01*
X113791Y6732D01*
G02X115488Y5035I1361J-336D01*
G01X115434Y5022D01*
X115037Y4624D01*
X115039Y4539D01*
G02X113295Y6283I-1783J-39D01*
G01X113380Y6281D01*
G37*
G36*
G01X82734Y11678D02*
X83132Y11281D01*
X83217Y11283D01*
G02X81473Y9539I39J-1783D01*
G01X81475Y9624D01*
X81078Y10022D01*
X81024Y10035D01*
G02X82721Y11732I336J1361D01*
G01X82734Y11678D01*
G37*
G36*
G01X115435Y8328D02*
X114600D01*
G02X114135Y11051I-1344J1172D01*
G03X114656Y11164I197J348D01*
G02X116126Y8979I1134J-824D01*
G01X116072Y8966D01*
X115435Y8328D01*
G37*
G36*
G01X128491Y-13442D02*
X126498Y-11449D01*
Y3329D01*
X129171Y6002D01*
X140929D01*
X142802Y4129D01*
Y-3529D01*
X137502Y-8829D01*
Y-11829D01*
X135889Y-13442D01*
X128491D01*
G37*
G54D58*
X161000Y-17000D03*
X125441Y-14941D03*
Y-25941D03*
Y-31441D03*
X137900Y-41300D03*
X140500Y10500D03*
X119941Y-3559D03*
X107300Y-99200D03*
X-10086Y-9114D03*
X-49000Y-62000D03*
G54D62*
X-80417Y-49421D03*
G54D61*
X-9728Y-57320D03*
Y-38423D03*
X-6570Y-35281D03*
X-9728Y-35274D03*
X-3429Y-38423D03*
X6020Y-35274D03*
Y-38423D03*
X9169Y-35274D03*
X-278D03*
X2871Y-35273D03*
X-280Y-41572D03*
X9169Y-38423D03*
Y-44722D03*
X2871Y-38422D03*
X-3422Y-41576D03*
X2872Y-41572D03*
X2871Y-44722D03*
X-280Y-47871D03*
X-275Y-44725D03*
X-3429Y-35274D03*
X-9728Y-44722D03*
X9169Y-54171D03*
X6020Y-47871D03*
X9169Y-57320D03*
X6020Y-54171D03*
X6021Y-51021D03*
X2873Y-51023D03*
X2872Y-47875D03*
X-280Y-54171D03*
X-279Y-51021D03*
X-12877Y-47871D03*
Y-44722D03*
X-16027Y-35273D03*
X-16026Y-32123D03*
X-3429Y-25825D03*
Y-28974D03*
X-3428Y-32123D03*
X9170D03*
X2871D03*
X-280Y-28974D03*
X2871Y-28973D03*
X6020Y-28974D03*
X9169D03*
X6021Y-32123D03*
X-279D03*
X-280Y-25825D03*
G54D65*
X-132000Y8500D03*
G54D57*
X161000Y-10079D03*
X170059Y-11059D03*
X174500Y-119500D03*
X124000Y-55500D03*
Y-47500D03*
Y-41000D03*
X143400Y-41500D03*
X124000Y-64000D03*
G54D68*
X136100Y-73300D03*
G54D60*
X87500Y-137744D03*
X77500D03*
X57500Y-127744D03*
X47500D03*
X37500D03*
X27500D03*
X-72500D03*
X107500Y-137744D03*
X117500Y36256D03*
X107500D03*
X97500D03*
G54D59*
X83256Y-30500D03*
X113256D03*
X98256Y-500D03*
Y-60500D03*
G54D67*
X153500Y-125000D03*
X-109982Y-116332D03*
G54D64*
X-132000Y-1500D03*
G54D63*
X-98960Y-20799D03*
Y-68201D03*
G54D66*
X168500Y31756D03*
Y-133244D03*
X-123500Y31756D03*
Y-133244D03*
%LPD*%
G75*
G36*
G01X-115000Y5000D02*
X-103500D01*
X-102500Y4000D01*
Y-7500D01*
X-104500Y-9500D01*
X-115000D01*
X-116000Y-8500D01*
Y4000D01*
X-115000Y5000D01*
G37*
G36*
G01X-113000Y7500D02*
X-113500Y8000D01*
Y19000D01*
X-113000Y19500D01*
X-102000D01*
X-101000Y18500D01*
Y8500D01*
X-102000Y7500D01*
X-113000D01*
G37*
G36*
G01X-99500Y-2600D02*
X-100000Y-2100D01*
Y3700D01*
X-99000Y4700D01*
Y7669D01*
X-98998Y7671D01*
Y19329D01*
X-99000Y19331D01*
Y19500D01*
X-98500Y20000D01*
X-90300D01*
X-89900Y19600D01*
Y9600D01*
X-95300Y4200D01*
Y-2200D01*
X-95700Y-2600D01*
X-99500D01*
G37*
G36*
G01X140800Y-2700D02*
X135500Y-8000D01*
Y-11000D01*
X135060Y-11440D01*
X129320D01*
X128500Y-10620D01*
Y2500D01*
X130000Y4000D01*
X140100D01*
X140800Y3300D01*
Y-2700D01*
G37*
G54D10*
X-85852Y-121158D03*
X147000Y9000D03*
G54D20*
X-81384Y-70358D03*
X-99494Y-46500D03*
X-106306D03*
X-74572Y-70358D03*
X171594Y-27500D03*
X178406D03*
G54D11*
X-77470Y-83788D03*
X-132000Y-1500D03*
X38800Y-82524D03*
X176000Y15500D03*
G54D30*
X38114Y-106000D03*
Y-101000D03*
Y-96000D03*
Y-91000D03*
X59374Y-96000D03*
Y-91000D03*
Y-106000D03*
Y-101000D03*
G54D12*
X-123500Y-133244D03*
Y31756D03*
X168500Y-133244D03*
Y31756D03*
G54D21*
X-77000Y-4500D03*
Y13500D03*
G54D22*
X-132740Y-56118D03*
Y-45882D03*
X-129000Y-56118D03*
X-125260D03*
Y-45882D03*
G54D40*
X-58725Y-44500D03*
X-61275D03*
G54D31*
X-5000Y-62100D03*
X2500Y-60500D03*
X-22500Y-58200D03*
X-6575Y-51027D03*
X17500Y-29000D03*
X2871Y-22674D03*
X-25500Y-37500D03*
X-24763Y-51737D03*
X-23710Y-25550D03*
X6100Y-41600D03*
X-9500Y-18500D03*
X6020Y-22674D03*
X9169Y-25825D03*
Y-22674D03*
X11481Y-26667D03*
X6020Y-25825D03*
X2871Y-25824D03*
X-280Y-25825D03*
X-300Y-19849D03*
X12600Y-23500D03*
X16538Y-33623D03*
X-279Y-32123D03*
X6021D03*
X9169Y-28974D03*
X6020D03*
X2871Y-28973D03*
X-280Y-28974D03*
X2871Y-32123D03*
X9170D03*
X-3280Y-20970D03*
X-3428Y-32123D03*
X-3429Y-28974D03*
Y-25825D03*
X-9728Y-28974D03*
X-15441Y-20000D03*
X-19900Y-20900D03*
X-18333Y-26668D03*
X-12877Y-28974D03*
Y-25825D03*
X-16026Y-32123D03*
X-16027Y-25824D03*
Y-35273D03*
Y-38422D03*
X-12877Y-38423D03*
X-19176D03*
X-12877Y-32123D03*
X-18333Y-29817D03*
X-25500Y-35000D03*
X-19177Y-35274D03*
X-16025Y-44729D03*
X-16027Y-47871D03*
X-12877Y-44722D03*
Y-47871D03*
X-19177D03*
Y-41572D03*
X-19200Y-44700D03*
X-3429Y-54171D03*
X-3428Y-51021D03*
X-279D03*
X-280Y-54171D03*
X-3429Y-47871D03*
X2872Y-47875D03*
X2873Y-51023D03*
X6020Y-57320D03*
X6021Y-51021D03*
X6020Y-54171D03*
X9169Y-57320D03*
X6020Y-47871D03*
X9169Y-54171D03*
X13600Y-35244D03*
X16441Y-43149D03*
X-3429Y-44722D03*
X-9728Y-47871D03*
Y-44722D03*
X-3429Y-35274D03*
X13000Y-51000D03*
X-275Y-44725D03*
X-280Y-47871D03*
X2871Y-44722D03*
X2872Y-41572D03*
X-3422Y-41576D03*
X2871Y-38422D03*
X9169Y-44722D03*
Y-38423D03*
X-280Y-41572D03*
X2871Y-35273D03*
X-278Y-35274D03*
X9169D03*
X6020Y-38423D03*
Y-35274D03*
X-3429Y-38423D03*
X-9728Y-35274D03*
X-6570Y-35281D03*
X-9728Y-38423D03*
X9169Y-47871D03*
X-280Y-57321D03*
X9170Y-51021D03*
X12320Y-57320D03*
Y-54171D03*
X-19177Y-57320D03*
X-16028Y-51021D03*
X-9728Y-57320D03*
X-16027Y-54171D03*
Y-57320D03*
X-9727Y-51021D03*
X-12877Y-54171D03*
Y-57320D03*
X-19177Y-51021D03*
Y-54171D03*
X-25500Y-55000D03*
X-9728Y-54171D03*
G54D13*
G01X-101500Y29627D02*
Y33500D01*
G01X5441Y-60500D02*
X2500D01*
G01X7000Y-82441D02*
X9259D01*
X10300Y-81400D01*
Y-76700D01*
X10500Y-76500D01*
G01X-9500Y-115559D02*
Y-119500D01*
G01X441Y-71500D02*
Y-66000D01*
G01X-5000Y-62100D02*
X-900D01*
X441Y-63441D01*
Y-66000D01*
G01X-28000Y-55059D02*
X-25559D01*
X-25500Y-55000D01*
G01X-15441Y-12500D02*
Y-18044D01*
G01Y-20000D02*
Y-18044D01*
G01X-4500Y-9059D02*
Y-14941D01*
X-4441Y-15000D01*
G01D02*
Y-19809D01*
X-3280Y-20970D01*
G01X18000Y-56260D02*
Y-51000D01*
X16441Y-49441D01*
Y-49000D01*
G01D02*
Y-43149D01*
G01X13000Y-37841D02*
Y-35844D01*
X13600Y-35244D01*
G01X-9500Y-26059D02*
Y-28746D01*
X-9728Y-28974D01*
G01X17500Y-29000D02*
X16001D01*
X14500Y-30501D01*
Y-30559D01*
G01X-6500Y-53441D02*
Y-51102D01*
G01X-6100Y-47559D02*
Y-50702D01*
X-6500Y-51102D01*
G01D02*
X-6575Y-51027D01*
G01X-28500Y7012D02*
X-25988D01*
X-23003Y9997D01*
G01D02*
X-19620D01*
G01X92941Y-84500D02*
Y-87941D01*
X93000Y-88000D01*
G01X110500Y-84059D02*
Y-88000D01*
G01X59374Y-106000D02*
X53744D01*
X53244Y-106500D01*
G01X53941Y-113000D02*
Y-110122D01*
X53244Y-109425D01*
Y-106500D01*
G01X134559Y17000D02*
Y14059D01*
G01X148800Y-43041D02*
X151459D01*
X151668Y-42832D01*
X-122500Y-79000D03*
X-131000Y-117000D03*
X-125000Y-111500D03*
X-131500Y-112000D03*
X-103000Y-121500D03*
X-102600Y-115200D03*
X-122500Y-75500D03*
X-124500Y-117000D03*
X-90600Y-126800D03*
Y-131300D03*
X-84600Y-143300D03*
Y-137300D03*
Y-126800D03*
Y-131300D03*
X-93700Y-116400D03*
Y-111400D03*
X-81700D03*
X-90600Y-143300D03*
X-87700Y-111400D03*
Y-116400D03*
X-81700D03*
X-113500Y-106500D03*
X-99230Y-96500D03*
X-99250Y-100000D03*
Y-93000D03*
X-92500Y-96500D03*
X-93500Y-87000D03*
X-96000Y-96500D03*
X-104500Y-106000D03*
X-94000D03*
X-99250Y-87000D03*
X-109500Y-91500D03*
Y-87000D03*
Y-96500D03*
Y-101500D03*
Y-106000D03*
X-113500Y-91500D03*
X-106000Y-96500D03*
X-105000Y-87000D03*
X-102500Y-96500D03*
X-99250Y-103000D03*
X-89000Y-91500D03*
Y-87000D03*
Y-96500D03*
Y-101500D03*
Y-106000D03*
X-113500Y-86500D03*
X-99250Y-90000D03*
X-113500Y-101500D03*
X-89500Y-74500D03*
X-110260Y-66160D03*
X-125410Y-72500D03*
X-104630Y-58150D03*
X-98630D03*
X-85344Y-74676D03*
X-125410Y-69000D03*
X-121500Y-62500D03*
X-110260Y-60160D03*
X-99250Y-106000D03*
X-91400Y15400D03*
X-80900Y4400D03*
X-78129Y2871D03*
X-80900Y650D03*
X-94500Y18000D03*
X-93000Y41000D03*
X-88500D03*
Y36500D03*
X-84582Y-7112D03*
X-88500Y27500D03*
X-84100Y41000D03*
Y36500D03*
Y32000D03*
Y27500D03*
X-88500Y32000D03*
X-93000Y36500D03*
X-84350Y-26350D03*
X-119700Y-21000D03*
X-95600Y-38900D03*
X-127700Y-32500D03*
X-124700Y-26500D03*
X-114700Y-15500D03*
Y-21000D03*
X-124700D03*
X-129700D03*
X-119700Y-26500D03*
X-134700D03*
X-116900Y-42300D03*
X-121100Y-46300D03*
X-124449Y-10500D03*
X-95600Y-48700D03*
X-99800Y-41900D03*
X-109700Y-15500D03*
Y-26500D03*
Y-21000D03*
X-114700Y-26500D03*
X-127700Y-38500D03*
X-134700Y-21000D03*
X-95600Y-44500D03*
X-117100Y-34600D03*
X-124700Y-15500D03*
X-129700D03*
X-119700D03*
X-121700Y-38500D03*
X-134700Y-15500D03*
X-121700Y-32500D03*
X-99700Y-35700D03*
X-129700Y-26500D03*
X10500Y-76500D03*
X-55000Y-62000D03*
X-49000D03*
X-60000D03*
X-42500Y-69000D03*
X-40000Y-70300D03*
X-31500Y-104600D03*
X-15000Y-104700D03*
X-38500Y-57500D03*
X-52500Y-81500D03*
X-48500D03*
X18000Y-90500D03*
X12500D03*
X7000D03*
X1500D03*
X-4000D03*
X-9500D03*
X-15000D03*
X-20500D03*
X-26000D03*
X-31500D03*
X-37000D03*
X-26000Y-93500D03*
X-20500D03*
X-15000D03*
X-9500D03*
X-4000D03*
X1500D03*
X7000D03*
X12500D03*
X18000D03*
X23500D03*
X29000D03*
X-42500D03*
X-37000D03*
X-31500D03*
X29000Y-79000D03*
X23500D03*
X-9500Y-104500D03*
X29000D03*
X18000Y-79000D03*
X13000D03*
X6666Y-78500D03*
X-42500Y-90500D03*
X29500Y-71500D03*
Y-66000D03*
Y-60500D03*
X29000Y-90500D03*
X23500D03*
X-20500Y-79000D03*
X-42500Y-104500D03*
X-31500Y-79000D03*
X-4000D03*
X-15000D03*
X-34200Y-79160D03*
X-26000Y-79000D03*
X-9500D03*
X1500D03*
X-45378Y-82441D03*
X-59500Y-11500D03*
X-47000Y-12500D03*
X-45500Y4500D03*
X-38500Y9000D03*
X-59000Y0D03*
X-48750Y1500D03*
X-52000Y4500D03*
X-59000D03*
Y9000D03*
Y-5000D03*
X-38500Y4500D03*
Y0D03*
X-48750Y10500D03*
X-42000Y4500D03*
X-55500D03*
X-43500Y-5000D03*
X-47500Y-16000D03*
X-48750Y7500D03*
X-19620Y9997D03*
X-48750Y4500D03*
X-67583Y-6082D03*
X-34500Y-18000D03*
X-54299Y-23790D03*
X-44975Y-43575D03*
Y-39575D03*
X-43500Y-25500D03*
X-38500Y-53298D03*
X-44975Y-35575D03*
X-48750Y-46000D03*
X6000Y-4000D03*
X2559Y8059D03*
X16122Y2941D03*
X29400Y-47300D03*
X-31300Y-46800D03*
X9559Y8059D03*
X28500Y-53000D03*
X29500Y-44000D03*
Y-38500D03*
Y-33000D03*
Y-27500D03*
Y-22000D03*
Y-16500D03*
Y-11000D03*
Y-5500D03*
X16059Y8059D03*
X-38500Y-49500D03*
X9500Y2941D03*
X-44975Y-47575D03*
X24500Y-500D03*
X-75000Y19000D03*
X-50299Y-23790D03*
X-45831D03*
X-14286Y-9114D03*
X-10086D03*
X117050Y-102550D03*
X134500Y-110520D03*
X64500Y-102000D03*
X140000Y-114000D03*
X55500Y-71500D03*
X44000D03*
X55500Y-66000D03*
X122000Y-77500D03*
X41000Y-66000D03*
Y-71500D03*
Y-60500D03*
X44000D03*
X61000Y-59000D03*
X64400Y-63800D03*
X44000Y-66000D03*
X119400Y-74060D03*
X147928Y-59800D03*
X86970Y-116960D03*
X63600Y-88000D03*
X81500Y-117000D03*
X107300Y-99200D03*
X155408Y-59800D03*
X90500Y-117000D03*
X98000D03*
X103000Y-116000D03*
X109000Y-117400D03*
X114500D03*
X101659Y-97159D03*
X128500Y-97000D03*
X66000Y-79500D03*
X128500Y-102500D03*
X80500Y-109500D03*
X84500Y-103000D03*
X52300Y-90800D03*
X153000Y5500D03*
Y2000D03*
X156100Y28600D03*
X55500Y-44000D03*
Y-27500D03*
X44000D03*
X62000Y-16500D03*
X44000D03*
X119941Y-3559D03*
X55500Y-22000D03*
X44000D03*
X67500Y-45500D03*
X41500Y-54100D03*
X41000Y-44000D03*
Y-38500D03*
Y-33000D03*
Y-27500D03*
Y-22000D03*
Y-16500D03*
Y-11000D03*
X46000Y1000D03*
X44000Y-11000D03*
X62450Y-5500D03*
Y-11000D03*
X41000Y-49500D03*
X44000Y-33000D03*
X47183Y8059D03*
X55500Y-38500D03*
X44000D03*
X44100Y-55000D03*
X55500Y-33000D03*
X44000Y-5500D03*
Y-44000D03*
X157000Y10500D03*
X140500D03*
X137900Y-41300D03*
X156000Y-27500D03*
X125441Y-31441D03*
Y-25941D03*
Y-14941D03*
X151668Y-42832D03*
X44000Y-49500D03*
X146772Y-32641D03*
X125441Y-20441D03*
X160500Y-75000D03*
X166000Y-75500D03*
X160000Y-67500D03*
X165500Y-97000D03*
X165000Y-68000D03*
X172500Y-68600D03*
X170059Y-89559D03*
X168500Y-71800D03*
X161000Y15700D03*
Y-17000D03*
X161240Y-49290D03*
Y-53758D03*
G54D50*
G01X9941Y-13500D02*
X9208D01*
X3649Y-19059D01*
X3000D01*
G01D02*
X2871Y-19188D01*
Y-22674D01*
G01X81000Y-102500D02*
X80500Y-102000D01*
X75559D01*
G01D02*
Y-95500D01*
G54D23*
X-132000Y8500D03*
X-67470Y-83788D03*
X48800Y-82524D03*
X176000Y5500D03*
G54D32*
X-72500Y-137744D03*
Y26256D03*
G54D41*
X108256Y-60500D03*
X88256D03*
X108256Y-65500D03*
X103256D03*
X93256D03*
X88256D03*
X108256Y-70500D03*
X103256D03*
X93256D03*
X88256D03*
X93256Y-60500D03*
X103256D03*
X83256D03*
Y-65500D03*
Y-70500D03*
X113256Y-60500D03*
Y-65500D03*
Y-70500D03*
X98256Y-60500D03*
Y-70500D03*
Y-65500D03*
X108256Y9500D03*
X103256D03*
X98256D03*
X93256D03*
X88256D03*
X108256Y4500D03*
X103256D03*
X93256D03*
X88256D03*
Y-500D03*
X108256D03*
X98256Y4500D03*
X103256Y-500D03*
X93256D03*
X83256Y9500D03*
Y4500D03*
Y-45500D03*
Y-50500D03*
Y-55500D03*
X113256Y9500D03*
Y4500D03*
Y-500D03*
Y-5500D03*
X83256Y-500D03*
X113256Y-10500D03*
Y-15500D03*
Y-20500D03*
Y-25500D03*
Y-35500D03*
Y-40500D03*
Y-45500D03*
Y-50500D03*
Y-55500D03*
X83256Y-5500D03*
Y-10500D03*
Y-15500D03*
Y-20500D03*
Y-25500D03*
Y-35500D03*
Y-40500D03*
X98256Y-500D03*
X113256Y-30500D03*
X83256D03*
X108256Y-5500D03*
X88256Y-25500D03*
X103256Y-30500D03*
X93256D03*
X108256Y-35500D03*
X88256D03*
X103256Y-40500D03*
X93256D03*
X108256Y-45500D03*
X88256D03*
X103256Y-50500D03*
X88256Y-5500D03*
X93256Y-50500D03*
X108256Y-55500D03*
X88256D03*
X103256Y-10500D03*
X93256D03*
X108256Y-15500D03*
X88256D03*
X103256Y-20500D03*
X93256D03*
X108256Y-25500D03*
X103256Y-5500D03*
X108256Y-20500D03*
X98256D03*
X88256D03*
X103256Y-25500D03*
X98256D03*
X93256D03*
X108256Y-30500D03*
X98256D03*
X88256D03*
X103256Y-35500D03*
X98256Y-5500D03*
Y-35500D03*
X93256D03*
X108256Y-40500D03*
X98256D03*
X88256D03*
X103256Y-45500D03*
X98256D03*
X93256D03*
X108256Y-50500D03*
X98256D03*
X93256Y-5500D03*
X88256Y-50500D03*
X103256Y-55500D03*
X98256D03*
X93256D03*
X108256Y-10500D03*
X98256D03*
X88256D03*
X103256Y-15500D03*
X98256D03*
X93256D03*
G54D14*
X-135500Y-85500D03*
Y-92000D03*
X-94003Y-121150D03*
X-77700Y-143200D03*
X-80264Y-120904D03*
X-90903Y-121150D03*
X-130500Y-72000D03*
X-134500Y-81500D03*
X-135500Y-72000D03*
X-113500Y-81500D03*
X-110000Y-74000D03*
X-132346Y-67346D03*
X-132700Y-59200D03*
X-86000Y6000D03*
X-134200Y17600D03*
X-114500Y43700D03*
X-119100Y600D03*
X-111500Y4500D03*
X-105500Y-5000D03*
X-85500Y23000D03*
X-99000Y-8000D03*
X-101500Y33500D03*
X-105500Y-8500D03*
X-130000Y17500D03*
X-118800Y15400D03*
X-121500Y-4000D03*
X-90000Y23000D03*
X-113500Y-8000D03*
X-88240Y-12900D03*
X-94970Y-30240D03*
X-88138Y-7112D03*
X-84300Y-35500D03*
X-111100Y-47200D03*
X-111200Y-43000D03*
X-111600Y-52000D03*
X-108300Y-39100D03*
X-109000Y-35600D03*
X-104400Y-35500D03*
Y-30400D03*
X-129000Y-52100D03*
X-9500Y-119500D03*
X-68500Y-75500D03*
Y-94000D03*
X-67400Y-143300D03*
X-72800Y-120900D03*
X-59500Y-96900D03*
Y-102900D03*
X-53700Y-96300D03*
X-67900Y-132800D03*
X-72400Y-143300D03*
X-76900Y-132800D03*
X-59500Y-108900D03*
X-61500Y-115900D03*
Y-120900D03*
X-55500Y-114900D03*
X-53848Y-102870D03*
X-67500Y-115900D03*
Y-120900D03*
X-55500Y-108900D03*
X-68580Y-71882D03*
X-1600Y-114800D03*
X-42600Y-113800D03*
X-23200Y-112800D03*
X4900Y-111100D03*
X-46500Y-59500D03*
X-50580Y-56950D03*
X-13800Y-113000D03*
X33500Y-90500D03*
X-56500Y-82000D03*
X-64200Y-68800D03*
X-28500Y-64000D03*
X-74400Y-65400D03*
X-63100Y-58500D03*
X-68100Y-62400D03*
X-75600Y-57900D03*
X-64200Y-73500D03*
X-60500Y-82000D03*
X9000Y-70500D03*
X-20578Y-71200D03*
X-46500Y-9000D03*
X-41100Y-8800D03*
X-11800Y-12000D03*
X-69570Y-9690D03*
X-57180Y-33260D03*
X-60280Y-18090D03*
X-49270Y-34120D03*
X-52900Y-36940D03*
X-35000Y-35000D03*
X-55470Y-52090D03*
X-62200Y-52240D03*
X-75200Y-38400D03*
X-75000Y-50400D03*
X-74900Y-23500D03*
X-75700Y-31200D03*
X-68000Y-44500D03*
X-67700Y-25000D03*
X-62700Y-29500D03*
X-23500Y-12000D03*
X-61990Y-36990D03*
X-12100Y-6574D03*
X-270Y-5760D03*
X135500Y-61500D03*
X81000Y-102500D03*
X110500Y-88000D03*
X93000D03*
X130500Y-64000D03*
X124000D03*
X148693Y-90701D03*
X53244Y-106500D03*
X148693Y-99307D03*
Y-80307D03*
X48500Y-100500D03*
X141500Y-95000D03*
X134500Y14000D03*
X130500Y1270D03*
Y-55500D03*
Y-47500D03*
Y-41000D03*
X143400Y-41500D03*
X130500Y-4000D03*
X147000Y-37559D03*
X135500Y-6500D03*
X124000Y-41000D03*
X152756Y-15000D03*
X142756Y-10000D03*
X152756D03*
X147756D03*
X142756Y-20000D03*
X152756D03*
X147756D03*
X142756Y-15000D03*
X150700Y-51500D03*
X124000Y-47500D03*
Y-55500D03*
X147756Y-15000D03*
X174500Y-119500D03*
X173740Y-97850D03*
X163300Y-58600D03*
X176846Y-89654D03*
X180000Y-104000D03*
X165500Y-80000D03*
X172315Y-55362D03*
X163000Y-45500D03*
X172315Y-47685D03*
X167000Y-24000D03*
X159500Y-38500D03*
X173500Y-20000D03*
X179000D03*
X170059Y-11059D03*
X161000Y-10079D03*
X167000Y-30000D03*
G54D51*
G01X-67470Y-83788D02*
X-71000Y-80258D01*
Y-79000D01*
X-74422Y-75578D01*
Y-70508D01*
X-74572Y-70358D01*
G54D15*
X-98960Y-68201D03*
Y-20799D03*
G54D24*
X-84350Y-32315D03*
X-80610D03*
Y-21685D03*
X-88090Y-32315D03*
Y-21685D03*
X-84350D03*
G54D33*
X-72543Y-61232D03*
Y-44500D03*
Y-54343D03*
Y-34657D03*
Y-27768D03*
G54D42*
X136100Y-73300D03*
X64600Y9800D03*
G54D52*
G01X-125400Y-243244D02*
G03I-12600J0D01*
G01X-138000D02*
Y-258204D01*
G01X-130520Y-243244D02*
G03I-7480J0D01*
G01X-135640D02*
G03I-2360J0D01*
G01X-138000D02*
X-152960D01*
G01X-138000D02*
Y-228284D01*
G01Y-243244D02*
X-123040D01*
G01X-24713Y53567D02*
X-25040Y53893D01*
X-25320Y54080D01*
X-25693Y54173D01*
X-26020Y54080D01*
X-26253Y53893D01*
X-26440Y53613D01*
X-26487Y53287D01*
X-26440Y53007D01*
X-26253Y52727D01*
X-25973Y52493D01*
X-25647Y52400D01*
X-25273Y52493D01*
X-24947Y52773D01*
X-24760Y53193D01*
X-24713Y53660D01*
X-24807Y54267D01*
X-24947Y54593D01*
X-25180Y54920D01*
X-25507Y55153D01*
X-25833Y55200D01*
X-26160Y55107D01*
X-26393Y54873D01*
G01X-28900Y55200D02*
X-28527Y55107D01*
X-28247Y54873D01*
X-28060Y54593D01*
X-27920Y54220D01*
X-27873Y53800D01*
X-27920Y53380D01*
X-28060Y53007D01*
X-28247Y52727D01*
X-28527Y52493D01*
X-28900Y52400D01*
X-29273Y52493D01*
X-29553Y52727D01*
X-29740Y53007D01*
X-29880Y53380D01*
X-29927Y53800D01*
X-29880Y54220D01*
X-29740Y54593D01*
X-29553Y54873D01*
X-29273Y55107D01*
X-28900Y55200D01*
G01X-32200D02*
X-31827Y55107D01*
X-31547Y54873D01*
X-31360Y54593D01*
X-31220Y54220D01*
X-31173Y53800D01*
X-31220Y53380D01*
X-31360Y53007D01*
X-31547Y52727D01*
X-31827Y52493D01*
X-32200Y52400D01*
X-32573Y52493D01*
X-32853Y52727D01*
X-33040Y53007D01*
X-33180Y53380D01*
X-33227Y53800D01*
X-33180Y54220D01*
X-33040Y54593D01*
X-32853Y54873D01*
X-32573Y55107D01*
X-32200Y55200D01*
G01X-34893Y53333D02*
X-36107D01*
G01X-37913Y53567D02*
X-38240Y53893D01*
X-38520Y54080D01*
X-38893Y54173D01*
X-39220Y54080D01*
X-39453Y53893D01*
X-39640Y53613D01*
X-39687Y53287D01*
X-39640Y53007D01*
X-39453Y52727D01*
X-39173Y52493D01*
X-38847Y52400D01*
X-38473Y52493D01*
X-38147Y52773D01*
X-37960Y53193D01*
X-37913Y53660D01*
X-38007Y54267D01*
X-38147Y54593D01*
X-38380Y54920D01*
X-38707Y55153D01*
X-39033Y55200D01*
X-39360Y55107D01*
X-39593Y54873D01*
G01X-42100Y55200D02*
X-41727Y55107D01*
X-41447Y54873D01*
X-41260Y54593D01*
X-41120Y54220D01*
X-41073Y53800D01*
X-41120Y53380D01*
X-41260Y53007D01*
X-41447Y52727D01*
X-41727Y52493D01*
X-42100Y52400D01*
X-42473Y52493D01*
X-42753Y52727D01*
X-42940Y53007D01*
X-43080Y53380D01*
X-43127Y53800D01*
X-43080Y54220D01*
X-42940Y54593D01*
X-42753Y54873D01*
X-42473Y55107D01*
X-42100Y55200D01*
G01X-45400Y52400D02*
Y55200D01*
X-44840Y54640D01*
G01Y52400D02*
X-45960D01*
G01X-47907Y52727D02*
X-48233Y52493D01*
X-48607Y52400D01*
X-48980Y52493D01*
X-49307Y52773D01*
X-49540Y53193D01*
X-49633Y53613D01*
Y54127D01*
X-49540Y54547D01*
X-49307Y54920D01*
X-49027Y55107D01*
X-48700Y55200D01*
X-48327Y55107D01*
X-48047Y54920D01*
X-47860Y54640D01*
X-47767Y54267D01*
X-47860Y53940D01*
X-48093Y53613D01*
X-48373Y53427D01*
X-48700Y53380D01*
X-49073Y53473D01*
X-49353Y53707D01*
X-49633Y54127D01*
G01X-52000Y52400D02*
X-52327Y52447D01*
X-52700Y52587D01*
X-52933Y52820D01*
X-53027Y53147D01*
X-52933Y53473D01*
X-52653Y53753D01*
X-52233Y53893D01*
X-51767D01*
X-51487Y53987D01*
X-51253Y54220D01*
X-51160Y54547D01*
X-51300Y54873D01*
X-51627Y55107D01*
X-52000Y55200D01*
X-52373Y55107D01*
X-52700Y54873D01*
X-52840Y54547D01*
X-52747Y54220D01*
X-52513Y53987D01*
X-52233Y53893D01*
X-51767D01*
X-51347Y53753D01*
X-51067Y53473D01*
X-50973Y53147D01*
X-51067Y52820D01*
X-51300Y52587D01*
X-51673Y52447D01*
X-52000Y52400D01*
G01X-54693Y53333D02*
X-55907D01*
G01X-58600Y55200D02*
X-58227Y55107D01*
X-57947Y54873D01*
X-57760Y54593D01*
X-57620Y54220D01*
X-57573Y53800D01*
X-57620Y53380D01*
X-57760Y53007D01*
X-57947Y52727D01*
X-58227Y52493D01*
X-58600Y52400D01*
X-58973Y52493D01*
X-59253Y52727D01*
X-59440Y53007D01*
X-59580Y53380D01*
X-59627Y53800D01*
X-59580Y54220D01*
X-59440Y54593D01*
X-59253Y54873D01*
X-58973Y55107D01*
X-58600Y55200D01*
G01X-61900Y52400D02*
Y55200D01*
X-61340Y54640D01*
G01Y52400D02*
X-62460D01*
G01X-67567D02*
Y55200D01*
X-68733D01*
X-69107Y55060D01*
X-69340Y54873D01*
X-69433Y54500D01*
X-69340Y54127D01*
X-69060Y53893D01*
X-68733Y53753D01*
X-67567D01*
G01X-68733D02*
X-69433Y52400D01*
G01X-72733D02*
X-70867D01*
Y55200D01*
X-72733D01*
G01X-71987Y53847D02*
X-70867D01*
G01X-73933Y55200D02*
X-75100Y52400D01*
X-76267Y55200D01*
G01X-78400D02*
X-78027Y55107D01*
X-77747Y54873D01*
X-77560Y54593D01*
X-77420Y54220D01*
X-77373Y53800D01*
X-77420Y53380D01*
X-77560Y53007D01*
X-77747Y52727D01*
X-78027Y52493D01*
X-78400Y52400D01*
X-78773Y52493D01*
X-79053Y52727D01*
X-79240Y53007D01*
X-79380Y53380D01*
X-79427Y53800D01*
X-79380Y54220D01*
X-79240Y54593D01*
X-79053Y54873D01*
X-78773Y55107D01*
X-78400Y55200D01*
G01X-82260Y52400D02*
Y55200D01*
X-80533Y53193D01*
X-82867D01*
G01X-92750Y52600D02*
X-93042Y52642D01*
X-93375Y52767D01*
X-93583Y52975D01*
X-93667Y53267D01*
X-93583Y53558D01*
X-93333Y53808D01*
X-92958Y53933D01*
X-92542D01*
X-92292Y54017D01*
X-92083Y54225D01*
X-92000Y54517D01*
X-92125Y54808D01*
X-92417Y55017D01*
X-92750Y55100D01*
X-93083Y55017D01*
X-93375Y54808D01*
X-93500Y54517D01*
X-93417Y54225D01*
X-93208Y54017D01*
X-92958Y53933D01*
X-92542D01*
X-92167Y53808D01*
X-91917Y53558D01*
X-91833Y53267D01*
X-91917Y52975D01*
X-92125Y52767D01*
X-92458Y52642D01*
X-92750Y52600D01*
G01X-128400Y95256D02*
G03I-12600J0D01*
G01X-133520D02*
G03I-7480J0D01*
G01X-138640D02*
G03I-2360J0D01*
G01X-141000D02*
X-155960D01*
G01X-141000D02*
Y80296D01*
G01Y95256D02*
Y110216D01*
G01Y95256D02*
X-126040D01*
G01X-19177Y-54171D02*
X-17577Y-55771D01*
Y-57963D01*
X-17500Y-58040D01*
Y-62744D01*
G01X-19177Y-51021D02*
X-17578Y-52621D01*
X-15384D01*
X-14477Y-53528D01*
Y-59023D01*
X-12000Y-61500D01*
Y-62744D01*
G01X-20000Y-49471D02*
X-18000D01*
G01X-26600Y-23447D02*
X-26500Y-23547D01*
Y-23941D01*
G01X-16025Y-44729D02*
X-17617Y-46321D01*
X-19820D01*
X-19899Y-46400D01*
X-26600D01*
G01X200600Y95256D02*
G03I-12600J0D01*
G01X188000D02*
Y80296D01*
G01X195480Y95256D02*
G03I-7480J0D01*
G01X190360D02*
G03I-2360J0D01*
G01X188000D02*
X173040D01*
G01X188000D02*
Y110216D01*
G01Y95256D02*
X202960D01*
G54D43*
X147318Y700D03*
X137082D03*
G54D25*
X-97760Y0D03*
X-105240D03*
X-66760Y-110500D03*
X-74240D03*
X-34760Y-74700D03*
X-42240D03*
X-51260D03*
X-58740D03*
G54D34*
X18000Y-63740D03*
Y-56260D03*
X-39000Y-30240D03*
Y-22760D03*
G54D16*
X-101000Y-141012D03*
Y-129988D03*
X-28500Y7012D03*
Y-4012D03*
G54D53*
G01X-107300Y51691D02*
X-103100D01*
Y56191D01*
X-107300D01*
Y51691D01*
G01X-111500D02*
X-107300D01*
Y56191D01*
X-111500D01*
Y51691D01*
G01X-115700D02*
X-111500D01*
Y56191D01*
X-115700D01*
Y51691D01*
G01X-119900D02*
X-115700D01*
Y56191D01*
X-119900D01*
Y51691D01*
G01X-124100D02*
X-119900D01*
Y56191D01*
X-124100D01*
Y51691D01*
G01X-94700Y51700D02*
X-90500D01*
Y56200D01*
X-94700D01*
Y51700D01*
G01X-98900D02*
X-94700D01*
Y56200D01*
X-98900D01*
Y51700D01*
G01X-103100Y51691D02*
X-98900D01*
Y56191D01*
X-103100D01*
Y51691D01*
G54D26*
X-85941Y19000D03*
X-91059D03*
X-99641Y-39000D03*
X-104759D03*
X-28559Y-66744D03*
X-23441D03*
X441Y-71500D03*
Y-66000D03*
X5559D03*
X-23441Y-61000D03*
X-28559D03*
X5441Y-60500D03*
X10559D03*
X5559Y-71500D03*
X-20559Y-12500D03*
X-15441D03*
X-20559Y-18044D03*
X9941Y-19000D03*
X15059D03*
X-15441Y-18044D03*
X16441Y-49000D03*
X21559D03*
X-11841Y-42000D03*
X-16959D03*
X-4441Y-15000D03*
X-9559D03*
X9941Y-13500D03*
X15059D03*
X98059Y-79000D03*
X92941D03*
X98059Y-84500D03*
X154059Y-65500D03*
X148941D03*
X53941Y-113000D03*
X59059D03*
X70441Y-102000D03*
X75559D03*
X70441Y-95500D03*
X75559D03*
X92941Y-84500D03*
X129441Y17000D03*
X134559D03*
X133941Y-10000D03*
X139059D03*
X168441Y-93500D03*
X173559D03*
G54D35*
X-48730Y4500D03*
G54D44*
X159500Y-34346D03*
Y-27654D03*
X168500Y-68346D03*
Y-61654D03*
G54D17*
X-109982Y-116332D03*
X-32500Y-127744D03*
X-22500Y-137744D03*
Y-127744D03*
X-12500Y-137744D03*
Y-127744D03*
X-2500Y-137744D03*
Y-127744D03*
X7500Y-137744D03*
Y-127744D03*
X17500Y-137744D03*
X-72500Y-127744D03*
X17500D03*
X27500Y-137744D03*
Y-127744D03*
X37500Y-137744D03*
Y-127744D03*
X-62500Y-137744D03*
Y-127744D03*
X-52500Y-137744D03*
Y-127744D03*
X-42500Y-137744D03*
Y-127744D03*
X-32500Y-137744D03*
X-52500Y36256D03*
Y26256D03*
X-62500Y36256D03*
Y26256D03*
X37500D03*
Y36256D03*
X27500D03*
Y26256D03*
X-72500Y36256D03*
X17500D03*
Y26256D03*
X7500Y36256D03*
X-2500D03*
X7500Y26256D03*
X-12500Y36256D03*
X-2500Y26256D03*
X-22500Y36256D03*
X-12500Y26256D03*
X-32500Y36256D03*
X-22500Y26256D03*
X-32500D03*
X-42500Y36256D03*
Y26256D03*
X47500Y-137744D03*
Y-127744D03*
X57500Y-137744D03*
Y-127744D03*
X67500Y-137744D03*
Y-127744D03*
X77500Y-137744D03*
Y-127744D03*
X87500Y-137744D03*
Y-127744D03*
X97500Y-137744D03*
Y-127744D03*
X107500Y-137744D03*
Y-127744D03*
X117500Y-137744D03*
Y-127744D03*
X153500Y-125000D03*
X117500Y36256D03*
Y26256D03*
X107500Y36256D03*
Y26256D03*
X97500Y36256D03*
X87500D03*
X97500Y26256D03*
X87500D03*
X77500Y36256D03*
X67500D03*
X77500Y26256D03*
X67500D03*
X57500D03*
Y36256D03*
X47500D03*
Y26256D03*
X152000Y18256D03*
G54D54*
G01X289125Y-183334D02*
X288250Y-182167D01*
X287500Y-181500D01*
X286500Y-181167D01*
X285625Y-181500D01*
X285000Y-182167D01*
X284500Y-183167D01*
X284375Y-184333D01*
X284500Y-185333D01*
X285000Y-186334D01*
X285750Y-187167D01*
X286625Y-187500D01*
X287625Y-187167D01*
X288500Y-186167D01*
X289000Y-184667D01*
X289125Y-183000D01*
X288875Y-180834D01*
X288500Y-179667D01*
X287875Y-178500D01*
X287000Y-177667D01*
X286125Y-177500D01*
X285250Y-177833D01*
X284625Y-178667D01*
G01X276750Y-177500D02*
X277750Y-177833D01*
X278500Y-178667D01*
X279000Y-179667D01*
X279375Y-181000D01*
X279500Y-182500D01*
X279375Y-184000D01*
X279000Y-185333D01*
X278500Y-186334D01*
X277750Y-187167D01*
X276750Y-187500D01*
X275750Y-187167D01*
X275000Y-186334D01*
X274500Y-185333D01*
X274125Y-184000D01*
X274000Y-182500D01*
X274125Y-181000D01*
X274500Y-179667D01*
X275000Y-178667D01*
X275750Y-177833D01*
X276750Y-177500D01*
G01X266750D02*
X267750Y-177833D01*
X268500Y-178667D01*
X269000Y-179667D01*
X269375Y-181000D01*
X269500Y-182500D01*
X269375Y-184000D01*
X269000Y-185333D01*
X268500Y-186334D01*
X267750Y-187167D01*
X266750Y-187500D01*
X265750Y-187167D01*
X265000Y-186334D01*
X264500Y-185333D01*
X264125Y-184000D01*
X264000Y-182500D01*
X264125Y-181000D01*
X264500Y-179667D01*
X265000Y-178667D01*
X265750Y-177833D01*
X266750Y-177500D01*
G01X258375Y-184167D02*
X255125D01*
G01X249125Y-183334D02*
X248250Y-182167D01*
X247500Y-181500D01*
X246500Y-181167D01*
X245625Y-181500D01*
X245000Y-182167D01*
X244500Y-183167D01*
X244375Y-184333D01*
X244500Y-185333D01*
X245000Y-186334D01*
X245750Y-187167D01*
X246625Y-187500D01*
X247625Y-187167D01*
X248500Y-186167D01*
X249000Y-184667D01*
X249125Y-183000D01*
X248875Y-180834D01*
X248500Y-179667D01*
X247875Y-178500D01*
X247000Y-177667D01*
X246125Y-177500D01*
X245250Y-177833D01*
X244625Y-178667D01*
G01X236750Y-177500D02*
X237750Y-177833D01*
X238500Y-178667D01*
X239000Y-179667D01*
X239375Y-181000D01*
X239500Y-182500D01*
X239375Y-184000D01*
X239000Y-185333D01*
X238500Y-186334D01*
X237750Y-187167D01*
X236750Y-187500D01*
X235750Y-187167D01*
X235000Y-186334D01*
X234500Y-185333D01*
X234125Y-184000D01*
X234000Y-182500D01*
X234125Y-181000D01*
X234500Y-179667D01*
X235000Y-178667D01*
X235750Y-177833D01*
X236750Y-177500D01*
G01X226750Y-187500D02*
Y-177500D01*
X228250Y-179500D01*
G01Y-187500D02*
X225250D01*
G01X218875Y-186334D02*
X218000Y-187167D01*
X217000Y-187500D01*
X216000Y-187167D01*
X215125Y-186167D01*
X214500Y-184667D01*
X214250Y-183167D01*
Y-181333D01*
X214500Y-179833D01*
X215125Y-178500D01*
X215875Y-177833D01*
X216750Y-177500D01*
X217750Y-177833D01*
X218500Y-178500D01*
X219000Y-179500D01*
X219250Y-180834D01*
X219000Y-182000D01*
X218375Y-183167D01*
X217625Y-183834D01*
X216750Y-184000D01*
X215750Y-183667D01*
X215000Y-182833D01*
X214250Y-181333D01*
G01X206750Y-187500D02*
X205875Y-187333D01*
X204875Y-186833D01*
X204250Y-186000D01*
X204000Y-184833D01*
X204250Y-183667D01*
X205000Y-182667D01*
X206125Y-182167D01*
X207375D01*
X208125Y-181833D01*
X208750Y-181000D01*
X209000Y-179833D01*
X208625Y-178667D01*
X207750Y-177833D01*
X206750Y-177500D01*
X205750Y-177833D01*
X204875Y-178667D01*
X204500Y-179833D01*
X204750Y-181000D01*
X205375Y-181833D01*
X206125Y-182167D01*
X207375D01*
X208500Y-182667D01*
X209250Y-183667D01*
X209500Y-184833D01*
X209250Y-186000D01*
X208625Y-186833D01*
X207625Y-187333D01*
X206750Y-187500D01*
G01X198375Y-184167D02*
X195125D01*
G01X186750Y-177500D02*
X187750Y-177833D01*
X188500Y-178667D01*
X189000Y-179667D01*
X189375Y-181000D01*
X189500Y-182500D01*
X189375Y-184000D01*
X189000Y-185333D01*
X188500Y-186334D01*
X187750Y-187167D01*
X186750Y-187500D01*
X185750Y-187167D01*
X185000Y-186334D01*
X184500Y-185333D01*
X184125Y-184000D01*
X184000Y-182500D01*
X184125Y-181000D01*
X184500Y-179667D01*
X185000Y-178667D01*
X185750Y-177833D01*
X186750Y-177500D01*
G01X176750Y-187500D02*
Y-177500D01*
X178250Y-179500D01*
G01Y-187500D02*
X175250D01*
G01X159375Y-186167D02*
X158375Y-187000D01*
X157250Y-187500D01*
X156250D01*
X155250Y-187000D01*
X154500Y-186167D01*
X154125Y-185000D01*
X154375Y-183834D01*
X155000Y-182833D01*
X156125Y-182167D01*
X157625Y-181833D01*
X158500Y-181167D01*
X158875Y-180000D01*
X158625Y-178833D01*
X158000Y-178000D01*
X157125Y-177500D01*
X156250D01*
X155375Y-177833D01*
X154625Y-178667D01*
G01X149500Y-177500D02*
Y-184667D01*
X149000Y-186167D01*
X148000Y-187167D01*
X146750Y-187500D01*
X145500Y-187167D01*
X144500Y-186167D01*
X144000Y-184667D01*
Y-177500D01*
G01X139250Y-187500D02*
Y-177500D01*
X136250D01*
X135250Y-178000D01*
X134500Y-179167D01*
X134250Y-180500D01*
X134500Y-181833D01*
X135125Y-182833D01*
X136250Y-183334D01*
X139250D01*
G01X124250Y-187500D02*
X129250D01*
Y-177500D01*
X124250D01*
G01X126250Y-182333D02*
X129250D01*
G01X119250Y-187500D02*
Y-177500D01*
X116125D01*
X115125Y-178000D01*
X114500Y-178667D01*
X114250Y-180000D01*
X114500Y-181333D01*
X115250Y-182167D01*
X116125Y-182667D01*
X119250D01*
G01X116125D02*
X114250Y-187500D01*
G01X109375Y-186167D02*
X108375Y-187000D01*
X107250Y-187500D01*
X106250D01*
X105250Y-187000D01*
X104500Y-186167D01*
X104125Y-185000D01*
X104375Y-183834D01*
X105000Y-182833D01*
X106125Y-182167D01*
X107625Y-181833D01*
X108500Y-181167D01*
X108875Y-180000D01*
X108625Y-178833D01*
X108000Y-178000D01*
X107125Y-177500D01*
X106250D01*
X105375Y-177833D01*
X104625Y-178667D01*
G01X99250Y-187500D02*
Y-177500D01*
X96250D01*
X95250Y-178000D01*
X94500Y-179167D01*
X94250Y-180500D01*
X94500Y-181833D01*
X95125Y-182833D01*
X96250Y-183334D01*
X99250D01*
G01X84250Y-187500D02*
X89250D01*
Y-177500D01*
X84250D01*
G01X86250Y-182333D02*
X89250D01*
G01X74250Y-187500D02*
X79250D01*
Y-177500D01*
X74250D01*
G01X76250Y-182333D02*
X79250D01*
G01X69500Y-187500D02*
Y-177500D01*
X67000D01*
X66000Y-178000D01*
X65250Y-178667D01*
X64625Y-179667D01*
X64125Y-180834D01*
X64000Y-182500D01*
X64125Y-184167D01*
X64625Y-185333D01*
X65250Y-186334D01*
X66000Y-187000D01*
X67000Y-187500D01*
X69500D01*
G01X44250D02*
X49250D01*
Y-177500D01*
X44250D01*
G01X46250Y-182333D02*
X49250D01*
G01X39375Y-187500D02*
X34125Y-177500D01*
G01X39375D02*
X34125Y-187500D01*
G01X29250D02*
Y-177500D01*
X26250D01*
X25250Y-178000D01*
X24500Y-179167D01*
X24250Y-180500D01*
X24500Y-181833D01*
X25125Y-182833D01*
X26250Y-183334D01*
X29250D01*
G01X19250Y-177500D02*
Y-187500D01*
X14250D01*
G01X6750D02*
X7750Y-187333D01*
X8625Y-186667D01*
X9375Y-185667D01*
X9875Y-184500D01*
X10125Y-183167D01*
Y-181833D01*
X9875Y-180500D01*
X9375Y-179333D01*
X8625Y-178333D01*
X7750Y-177667D01*
X6750Y-177500D01*
X5750Y-177667D01*
X4875Y-178333D01*
X4125Y-179333D01*
X3625Y-180500D01*
X3375Y-181833D01*
Y-183167D01*
X3625Y-184500D01*
X4125Y-185667D01*
X4875Y-186667D01*
X5750Y-187333D01*
X6750Y-187500D01*
G01X-750D02*
Y-177500D01*
X-3875D01*
X-4875Y-178000D01*
X-5500Y-178667D01*
X-5750Y-180000D01*
X-5500Y-181333D01*
X-4750Y-182167D01*
X-3875Y-182667D01*
X-750D01*
G01X-3875D02*
X-5750Y-187500D01*
G01X-15750D02*
X-10750D01*
Y-177500D01*
X-15750D01*
G01X-13750Y-182333D02*
X-10750D01*
G01X-20750Y-187500D02*
Y-177500D01*
X-23875D01*
X-24875Y-178000D01*
X-25500Y-178667D01*
X-25750Y-180000D01*
X-25500Y-181333D01*
X-24750Y-182167D01*
X-23875Y-182667D01*
X-20750D01*
G01X-23875D02*
X-25750Y-187500D01*
G01X-40500D02*
Y-177500D01*
G01X-45250D02*
X-40500Y-183667D01*
G01X-46000Y-187500D02*
X-42625Y-180834D01*
G01X-51750Y-177500D02*
X-54750D01*
G01X-53250D02*
Y-187500D01*
G01X-51750D02*
X-54750D01*
G01X-63250Y-177500D02*
Y-187500D01*
G01X-60375Y-177500D02*
X-66125D01*
G01X-80750Y-187500D02*
Y-177500D01*
X-83875D01*
X-84875Y-178000D01*
X-85500Y-178667D01*
X-85750Y-180000D01*
X-85500Y-181333D01*
X-84750Y-182167D01*
X-83875Y-182667D01*
X-80750D01*
G01X-83875D02*
X-85750Y-187500D01*
G01X-95750D02*
X-90750D01*
Y-177500D01*
X-95750D01*
G01X-93750Y-182333D02*
X-90750D01*
G01X-100125Y-177500D02*
X-103250Y-187500D01*
X-106375Y-177500D01*
G01X-113250D02*
X-112250Y-177833D01*
X-111500Y-178667D01*
X-111000Y-179667D01*
X-110625Y-181000D01*
X-110500Y-182500D01*
X-110625Y-184000D01*
X-111000Y-185333D01*
X-111500Y-186334D01*
X-112250Y-187167D01*
X-113250Y-187500D01*
X-114250Y-187167D01*
X-115000Y-186334D01*
X-115500Y-185333D01*
X-115875Y-184000D01*
X-116000Y-182500D01*
X-115875Y-181000D01*
X-115500Y-179667D01*
X-115000Y-178667D01*
X-114250Y-177833D01*
X-113250Y-177500D01*
G01X-124750Y-187500D02*
Y-177500D01*
X-120125Y-184667D01*
X-126375D01*
G01X-140625Y-186167D02*
X-141625Y-187000D01*
X-142750Y-187500D01*
X-143750D01*
X-144750Y-187000D01*
X-145500Y-186167D01*
X-145875Y-185000D01*
X-145625Y-183834D01*
X-145000Y-182833D01*
X-143875Y-182167D01*
X-142375Y-181833D01*
X-141500Y-181167D01*
X-141125Y-180000D01*
X-141375Y-178833D01*
X-142000Y-178000D01*
X-142875Y-177500D01*
X-143750D01*
X-144625Y-177833D01*
X-145375Y-178667D01*
G01X-155750Y-187500D02*
X-150750D01*
Y-177500D01*
X-155750D01*
G01X-153750Y-182333D02*
X-150750D01*
G01X-166000Y-178333D02*
X-165250Y-177833D01*
X-164375Y-177500D01*
X-163375D01*
X-162250Y-178000D01*
X-161375Y-178833D01*
X-160750Y-179833D01*
X-160250Y-181500D01*
X-160125Y-183000D01*
X-160375Y-184500D01*
X-160750Y-185500D01*
X-161500Y-186500D01*
X-162375Y-187167D01*
X-163250Y-187500D01*
X-164125D01*
X-165000Y-187167D01*
X-165750Y-186667D01*
X-166375Y-186000D01*
G01X-173250Y-187500D02*
X-172250Y-187333D01*
X-171375Y-186667D01*
X-170625Y-185667D01*
X-170125Y-184500D01*
X-169875Y-183167D01*
Y-181833D01*
X-170125Y-180500D01*
X-170625Y-179333D01*
X-171375Y-178333D01*
X-172250Y-177667D01*
X-173250Y-177500D01*
X-174250Y-177667D01*
X-175125Y-178333D01*
X-175875Y-179333D01*
X-176375Y-180500D01*
X-176625Y-181833D01*
Y-183167D01*
X-176375Y-184500D01*
X-175875Y-185667D01*
X-175125Y-186667D01*
X-174250Y-187333D01*
X-173250Y-187500D01*
G01X-180375D02*
Y-177500D01*
X-186125Y-187500D01*
Y-177500D01*
G01X-190500Y-187500D02*
Y-177500D01*
X-193000D01*
X-194000Y-178000D01*
X-194750Y-178667D01*
X-195375Y-179667D01*
X-195875Y-180834D01*
X-196000Y-182500D01*
X-195875Y-184167D01*
X-195375Y-185333D01*
X-194750Y-186334D01*
X-194000Y-187000D01*
X-193000Y-187500D01*
X-190500D01*
G01X-200125D02*
X-203250Y-177500D01*
X-206375Y-187500D01*
G01X-205250Y-184000D02*
X-201250D01*
G01X-210750Y-187500D02*
Y-177500D01*
X-213875D01*
X-214875Y-178000D01*
X-215500Y-178667D01*
X-215750Y-180000D01*
X-215500Y-181333D01*
X-214750Y-182167D01*
X-213875Y-182667D01*
X-210750D01*
G01X-213875D02*
X-215750Y-187500D01*
G01X-223250D02*
Y-183000D01*
X-220750Y-177500D01*
G01X-225750D02*
X-223250Y-183000D01*
G01X-240625Y-186167D02*
X-241625Y-187000D01*
X-242750Y-187500D01*
X-243750D01*
X-244750Y-187000D01*
X-245500Y-186167D01*
X-245875Y-185000D01*
X-245625Y-183834D01*
X-245000Y-182833D01*
X-243875Y-182167D01*
X-242375Y-181833D01*
X-241500Y-181167D01*
X-241125Y-180000D01*
X-241375Y-178833D01*
X-242000Y-178000D01*
X-242875Y-177500D01*
X-243750D01*
X-244625Y-177833D01*
X-245375Y-178667D01*
G01X-251750Y-177500D02*
X-254750D01*
G01X-253250D02*
Y-187500D01*
G01X-251750D02*
X-254750D01*
G01X-260500D02*
Y-177500D01*
X-263000D01*
X-264000Y-178000D01*
X-264750Y-178667D01*
X-265375Y-179667D01*
X-265875Y-180834D01*
X-266000Y-182500D01*
X-265875Y-184167D01*
X-265375Y-185333D01*
X-264750Y-186334D01*
X-264000Y-187000D01*
X-263000Y-187500D01*
X-260500D01*
G01X-275750D02*
X-270750D01*
Y-177500D01*
X-275750D01*
G01X-273750Y-182333D02*
X-270750D01*
G01X-22000Y-49941D02*
X-21530Y-49471D01*
X-20000D01*
G01X-18000D02*
X-17578D01*
X-16028Y-51021D01*
G54D18*
X-125654Y-63500D03*
X-132346D03*
X-110654Y-31000D03*
X-117346D03*
X154846Y-73000D03*
X148154D03*
G54D45*
X180169Y-62941D03*
Y-37547D03*
G54D36*
X-65190Y4500D03*
G54D27*
X-80417Y-39579D03*
X-88291Y-49421D03*
X-80417D03*
X-88291Y-39579D03*
G54D55*
G01X-77000Y-4000D02*
X-79755D01*
G01X-17500Y-62744D02*
Y-66941D01*
G01X41000Y-66000D02*
X38940D01*
X38040Y-66900D01*
X35957D01*
X34500Y-65443D01*
Y-48374D01*
X33780Y-47654D01*
X32520D01*
X31800Y-46934D01*
Y-45494D01*
X32520Y-44774D01*
X33780D01*
X34500Y-44054D01*
Y-42500D01*
X33000Y-41000D01*
X28500D01*
X21500Y-34000D01*
Y-10000D01*
X11050Y450D01*
X5070D01*
X-7122Y12642D01*
X-17059D01*
X-18094Y13677D01*
X-29177D01*
X-31600Y16100D01*
Y20100D01*
X-27460Y24240D01*
Y25100D01*
X-26304Y26256D01*
X-22500D01*
G01X16538Y-33623D02*
Y-36538D01*
X25000Y-45000D01*
Y-65000D01*
X17160Y-72840D01*
X10398D01*
X10274Y-72964D01*
X9036D01*
X5060Y-76940D01*
X-4854D01*
X-6060Y-78146D01*
Y-79854D01*
X-7685Y-81479D01*
X-41035D01*
X-42457Y-82901D01*
X-42523Y-82943D01*
X-47000Y-87420D01*
Y-114000D01*
X-57000Y-124000D01*
Y-132244D01*
X-62500Y-137744D01*
G01X7000Y-87559D02*
Y-90500D01*
G01X38800Y-82524D02*
X21500Y-82500D01*
X15000Y-89000D01*
Y-93914D01*
X13354Y-95560D01*
X5660D01*
X4000Y-93900D01*
Y-86000D01*
X500Y-82500D01*
X-4500D01*
X-7000Y-85000D01*
Y-91000D01*
X-9500Y-93500D01*
G01Y-104500D02*
Y-93500D01*
G01X-42500Y26256D02*
X-47266Y21490D01*
X-54680D01*
X-55400Y20770D01*
Y19450D01*
X-53325Y17375D01*
X-36127D01*
X-30909Y12157D01*
X-18724D01*
X-17689Y11122D01*
X-8102D01*
X4670Y-1650D01*
X10250D01*
X19740Y-11140D01*
Y-35740D01*
X27000Y-43000D01*
Y-48500D01*
X32500Y-54000D01*
Y-68400D01*
X35600Y-71500D01*
X41000D01*
G01X67500Y-127744D02*
X71776Y-132020D01*
X90030D01*
X92870Y-129180D01*
Y-126560D01*
X95900Y-123530D01*
X99110D01*
X102970Y-127390D01*
Y-129470D01*
X105730Y-132230D01*
X111180D01*
X112690Y-130720D01*
Y-122960D01*
X111440Y-121710D01*
X33550D01*
X31300Y-119460D01*
Y-116000D01*
X31980Y-115320D01*
X34770D01*
X35440Y-114650D01*
Y-113210D01*
X34670Y-112440D01*
X31980D01*
X31300Y-111760D01*
Y-99780D01*
X26500Y-94980D01*
Y-91910D01*
X25090Y-90500D01*
X23500D01*
G01X-4000D02*
Y-85355D01*
X-3280Y-84635D01*
X-1280D01*
X-560Y-85355D01*
Y-95230D01*
X1290Y-97080D01*
X13984D01*
X15064Y-96000D01*
X20350D01*
X22500Y-98150D01*
Y-100057D01*
X21430Y-101127D01*
X3300D01*
X2369Y-102058D01*
Y-103077D01*
X3299Y-104007D01*
X21530D01*
X22250Y-104727D01*
Y-106167D01*
X21530Y-106887D01*
X8390D01*
X7720Y-107557D01*
Y-108997D01*
X8490Y-109767D01*
X21530D01*
X22250Y-110487D01*
Y-111927D01*
X21530Y-112647D01*
X8780D01*
X8020Y-113407D01*
Y-114847D01*
X8700Y-115527D01*
X21530D01*
X22250Y-116247D01*
Y-117687D01*
X21530Y-118407D01*
X703D01*
X-2500Y-121610D01*
Y-127744D01*
G01X-32500D02*
Y-108160D01*
X-31270Y-106930D01*
X-29860D01*
X-28850Y-107940D01*
Y-121020D01*
X-27790Y-122080D01*
X-26640D01*
X-25600Y-121040D01*
Y-103020D01*
X-27090Y-101530D01*
X-31330D01*
X-32280Y-100580D01*
Y-99220D01*
X-31360Y-98300D01*
X-27900D01*
X-26990Y-97390D01*
Y-95890D01*
X-28390Y-94490D01*
Y-88250D01*
X-30210Y-86430D01*
X-40290D01*
X-40960Y-85760D01*
Y-84620D01*
X-40030Y-83690D01*
X-14110D01*
X-9500Y-88300D01*
Y-90500D01*
G01X-52500Y-127744D02*
Y-131390D01*
X-57190Y-136080D01*
Y-144010D01*
X-55550Y-145650D01*
X-41710D01*
X-40790Y-144730D01*
Y-143420D01*
X-42060Y-142150D01*
X-46040D01*
X-47863Y-140327D01*
Y-118703D01*
X-45630Y-116470D01*
X-41600D01*
X-40340Y-115210D01*
Y-112863D01*
X-41983Y-111220D01*
X-44140D01*
X-45240Y-110120D01*
Y-107960D01*
X-44250Y-106970D01*
X-41330D01*
X-40160Y-105800D01*
Y-102730D01*
X-41030Y-101860D01*
X-43960D01*
X-45240Y-100580D01*
Y-90326D01*
X-43104Y-88190D01*
X-33810D01*
X-31500Y-90500D01*
G01X57500Y-137744D02*
X49324Y-145920D01*
X-31580D01*
X-38000Y-139500D01*
Y-125620D01*
X-35020Y-122640D01*
Y-96620D01*
X-33860Y-95460D01*
Y-93640D01*
X-37000Y-90500D01*
G01X37500Y-137744D02*
X31084Y-144160D01*
X-23590D01*
X-26690Y-141060D01*
Y-125680D01*
X-20180Y-119170D01*
Y-97850D01*
X-22570Y-95460D01*
Y-92570D01*
X-20500Y-90500D01*
G01X27500Y-137744D02*
X22964Y-142280D01*
X-14760D01*
X-17590Y-139450D01*
Y-89380D01*
X-19670Y-87300D01*
X-22800D01*
X-26000Y-90500D01*
G01X97500Y-127744D02*
X101860Y-132104D01*
Y-141260D01*
X103960Y-143360D01*
X124890D01*
X128850Y-139400D01*
Y-123250D01*
X125600Y-120000D01*
X45000D01*
X33500Y-108500D01*
Y-98630D01*
X31500Y-96630D01*
Y-93000D01*
X29000Y-90500D01*
G01X-12000Y-62744D02*
Y-66941D01*
G01X48800Y-82524D02*
X43800Y-87500D01*
X23000D01*
X21000Y-89500D01*
Y-94000D01*
X25500Y-98500D01*
Y-103914D01*
X28260Y-106674D01*
Y-119240D01*
X25000Y-122500D01*
X4500D01*
X2000Y-125000D01*
Y-130500D01*
X0Y-132500D01*
X-4000D01*
X-6560Y-129940D01*
Y-126062D01*
X-6000Y-125502D01*
Y-111000D01*
X-6559Y-110441D01*
X-9500D01*
G01X-12500Y-127744D02*
X-16060Y-124184D01*
Y-111060D01*
X-12500Y-107500D01*
X-8500D01*
X-4000Y-103000D01*
Y-93500D01*
G01X-12500Y26256D02*
Y22960D01*
X-13580Y21880D01*
X-27030D01*
X-28400Y20510D01*
Y15890D01*
X-27707Y15197D01*
X-17464D01*
X-16670Y14403D01*
X-6190D01*
X-2372Y10585D01*
X3005D01*
X8090Y5500D01*
X10100D01*
X23500Y-7900D01*
Y-31000D01*
X28000Y-35500D01*
X31280D01*
X36500Y-40720D01*
Y-56200D01*
X37480Y-57180D01*
X48380D01*
X49490Y-58290D01*
Y-69780D01*
X48770Y-70500D01*
X47500D01*
X46500Y-69500D01*
Y-65000D01*
X45400Y-63900D01*
X41900D01*
X41000Y-63000D01*
Y-60500D01*
G01X-2500Y26256D02*
X-2974Y26730D01*
X-6780D01*
X-7800Y25710D01*
Y21140D01*
X-9160Y19780D01*
X-22400D01*
X-23351Y18829D01*
Y17811D01*
X-22465Y16925D01*
X-5955D01*
X-4960Y17920D01*
Y20950D01*
X-4110Y21800D01*
X-2140D01*
X-1200Y20860D01*
Y17550D01*
X-3220Y15530D01*
Y13750D01*
X-2400Y12930D01*
X-1210D01*
X865Y15005D01*
X2205D01*
X9151Y8059D01*
X9559D01*
G01X17500Y26256D02*
Y24716D01*
X14444Y21660D01*
X6400D01*
X5420Y20680D01*
Y17970D01*
X7060Y16330D01*
X11280D01*
X27190Y420D01*
Y-23190D01*
X28500Y-24500D01*
X34460D01*
X38010Y-28050D01*
Y-34010D01*
X39500Y-35500D01*
X45000D01*
X46920Y-37420D01*
Y-40220D01*
X45640Y-41500D01*
X39500D01*
X38500Y-42500D01*
Y-51100D01*
X41500Y-54100D01*
G01X37500Y26256D02*
X39800Y23956D01*
Y1590D01*
X43520Y-2130D01*
X46860D01*
X48270Y-720D01*
Y2430D01*
X44310Y6390D01*
Y19050D01*
X46310Y21050D01*
X49480D01*
X51150Y19380D01*
Y-10330D01*
X47310Y-14170D01*
X44170D01*
X41000Y-11000D01*
G01X37500Y36256D02*
X37560Y36196D01*
Y32910D01*
X38510Y31960D01*
X51440D01*
X52540Y33060D01*
Y38870D01*
X50190Y41220D01*
X34420D01*
X33440Y40240D01*
Y21362D01*
X34160Y20642D01*
X37370D01*
X38090Y19922D01*
Y18482D01*
X37370Y17762D01*
X34160D01*
X33440Y17042D01*
Y15602D01*
X34160Y14882D01*
X37370D01*
X38090Y14162D01*
Y12722D01*
X37370Y12002D01*
X34160D01*
X33200Y11042D01*
Y8910D01*
X38000Y4110D01*
Y-14000D01*
X40500Y-16500D01*
X41000D01*
G01X17500Y36256D02*
Y39730D01*
X18640Y40870D01*
X29730D01*
X31560Y39040D01*
Y23250D01*
X29890Y21580D01*
X26040D01*
X25160Y20700D01*
Y18670D01*
X26190Y17640D01*
X30850D01*
X31560Y16930D01*
Y15460D01*
X30550Y14450D01*
X26010D01*
X25270Y13710D01*
Y11990D01*
X26090Y11170D01*
X30190D01*
X31560Y9800D01*
Y7050D01*
X35800Y2810D01*
Y-15300D01*
X39500Y-19000D01*
X45600D01*
X47000Y-20400D01*
Y-29400D01*
X45900Y-30500D01*
X41700D01*
X41000Y-31200D01*
Y-33000D01*
G01X7500Y36256D02*
X7836Y35920D01*
X11630D01*
X12600Y36890D01*
Y39740D01*
X11440Y40900D01*
X3620D01*
X2290Y39570D01*
Y33910D01*
X4180Y32020D01*
X21480D01*
X23440Y30060D01*
Y20460D01*
X21360Y18380D01*
X18300D01*
X17190Y17270D01*
Y15510D01*
X18140Y14560D01*
X22390D01*
X23300Y13650D01*
Y9400D01*
X33800Y-1100D01*
Y-16300D01*
X39500Y-22000D01*
X41000D01*
G01X-12500Y36256D02*
X-12606Y36150D01*
X-17500D01*
X-18300Y36950D01*
Y39980D01*
X-17290Y40990D01*
X-8820D01*
X-7860Y40030D01*
Y33700D01*
X-6356Y32196D01*
X954D01*
X2650Y30500D01*
X20000D01*
X21560Y28940D01*
Y23250D01*
X18820Y20510D01*
X15600D01*
X14340Y19250D01*
Y15860D01*
X31800Y-1600D01*
Y-18300D01*
X41000Y-27500D01*
G01X-32500Y36256D02*
X-32494Y36250D01*
X-27770D01*
X-27090Y36930D01*
Y40090D01*
X-27880Y40880D01*
X-55210D01*
X-57390Y38700D01*
Y32120D01*
X-55680Y30410D01*
X-370D01*
X2500Y27540D01*
Y18260D01*
X15290Y5470D01*
X16860D01*
X18800Y3530D01*
Y400D01*
X25500Y-6300D01*
Y-27680D01*
X27820Y-30000D01*
X33570D01*
X35450Y-31880D01*
Y-35350D01*
X38600Y-38500D01*
X41000D01*
G01X-28200Y-17559D02*
X-31999D01*
X-32440Y-18000D01*
X-34500D01*
G01X-26600Y-46400D02*
X-28421D01*
X-31762Y-43059D01*
X-34000D01*
G01X156100Y28600D02*
Y31900D01*
X145000Y43000D01*
X-74500D01*
X-78000Y39500D01*
Y22000D01*
X-75000Y19000D01*
G01X57500Y26256D02*
X62444Y31200D01*
X70300D01*
X73000Y28500D01*
Y23980D01*
X78130Y18850D01*
Y-14049D01*
X77410Y-14769D01*
X70300D01*
X69580Y-15489D01*
Y-16929D01*
X70300Y-17649D01*
X77910D01*
X78630Y-18369D01*
Y-19809D01*
X77910Y-20529D01*
X69720D01*
X69000Y-21249D01*
Y-22689D01*
X69720Y-23409D01*
X77910D01*
X78630Y-24129D01*
Y-25569D01*
X77910Y-26289D01*
X69270D01*
X68550Y-27009D01*
Y-28449D01*
X69270Y-29169D01*
X77910D01*
X78630Y-29889D01*
Y-31329D01*
X77910Y-32049D01*
X69270D01*
X68550Y-32769D01*
Y-34209D01*
X69270Y-34929D01*
X77910D01*
X78630Y-35649D01*
Y-37089D01*
X77910Y-37809D01*
X69270D01*
X68550Y-38529D01*
Y-39969D01*
X69270Y-40689D01*
X77410D01*
X78130Y-41409D01*
Y-44882D01*
X77410Y-45602D01*
X74110D01*
X73390Y-46322D01*
Y-47762D01*
X74110Y-48482D01*
X77510D01*
X78280Y-49252D01*
Y-50692D01*
X77610Y-51362D01*
X74110D01*
X73390Y-52082D01*
Y-53522D01*
X74110Y-54242D01*
X77510D01*
X78280Y-55012D01*
Y-56452D01*
X77610Y-57122D01*
X74110D01*
X73390Y-57842D01*
Y-59282D01*
X74110Y-60002D01*
X77510D01*
X78280Y-60772D01*
Y-62212D01*
X77610Y-62882D01*
X74110D01*
X73180Y-63812D01*
Y-64832D01*
X74110Y-65762D01*
X77410D01*
X78130Y-66482D01*
Y-73130D01*
X84000Y-79000D01*
X92941D01*
G01X104500Y-84059D02*
Y-90999D01*
X102499Y-93000D01*
X99485D01*
X98765Y-93720D01*
Y-96780D01*
X98045Y-97500D01*
X96605D01*
X95885Y-96780D01*
Y-93720D01*
X95165Y-93000D01*
X93102D01*
X76602Y-76500D01*
X58720D01*
X58000Y-75780D01*
Y-74406D01*
X58720Y-73686D01*
X59990D01*
X60710Y-72966D01*
Y-71526D01*
X59990Y-70806D01*
X58720D01*
X57700Y-69786D01*
Y-68000D01*
X58660Y-67040D01*
X69420D01*
X71500Y-64960D01*
Y-46000D01*
X66510Y-41010D01*
Y-13249D01*
X67230Y-12529D01*
X74360D01*
X75130Y-11759D01*
Y-10319D01*
X74460Y-9649D01*
X67230D01*
X66510Y-8929D01*
Y-7489D01*
X67230Y-6769D01*
X74360D01*
X75130Y-5999D01*
Y-4559D01*
X74460Y-3889D01*
X67230D01*
X66510Y-3169D01*
Y-1729D01*
X67230Y-1009D01*
X74360D01*
X75130Y-239D01*
Y1201D01*
X74460Y1871D01*
X67230D01*
X66510Y2591D01*
Y4031D01*
X67230Y4751D01*
X73460D01*
X74180Y5471D01*
Y15320D01*
X73000Y16500D01*
X67800D01*
X66900Y17400D01*
Y19400D01*
X67700Y20200D01*
X69583D01*
X70683Y21300D01*
Y23073D01*
X67500Y26256D01*
G01X41000Y-49500D02*
X43500Y-52000D01*
X53297D01*
X54059Y-52762D01*
Y-57613D01*
X51672Y-60000D01*
Y-62122D01*
X53400Y-63850D01*
X55082D01*
X55802Y-63130D01*
Y-61020D01*
X56522Y-60300D01*
X57962D01*
X58682Y-61020D01*
Y-63130D01*
X59402Y-63850D01*
X61250D01*
X68300Y-56800D01*
Y-54400D01*
X67700Y-53800D01*
X59100D01*
X57400Y-52100D01*
Y-48741D01*
X58321Y-47820D01*
X63580D01*
X64300Y-47100D01*
Y-45861D01*
X63580Y-45141D01*
X58920D01*
X58200Y-44421D01*
Y-42932D01*
X58920Y-42212D01*
X63420D01*
X64140Y-41492D01*
Y-40052D01*
X63420Y-39332D01*
X59780D01*
X59060Y-38612D01*
Y-37172D01*
X59780Y-36452D01*
X63420D01*
X64140Y-35732D01*
Y-34292D01*
X63420Y-33572D01*
X59780D01*
X59060Y-32852D01*
Y-31412D01*
X59780Y-30692D01*
X63420D01*
X64140Y-29972D01*
Y-28532D01*
X63420Y-27812D01*
X59780D01*
X59060Y-27092D01*
Y-25652D01*
X59780Y-24932D01*
X63420D01*
X64140Y-24212D01*
Y-22772D01*
X63420Y-22052D01*
X60832D01*
X59840Y-21060D01*
Y21800D01*
X64296Y26256D01*
X67500D01*
G01X59374Y-91000D02*
X60600D01*
X63600Y-88000D01*
G01X70441Y-95500D02*
Y-90941D01*
X68957Y-89457D01*
X65057D01*
X63600Y-88000D01*
G01X52300Y-90800D02*
Y-94216D01*
X54084Y-96000D01*
X59374D01*
G01D02*
X64047D01*
X70047Y-102000D01*
X70441D01*
G01X113256Y-60500D02*
X115152Y-62396D01*
G01X113256Y-65500D02*
X115152Y-67396D01*
G01X113256Y-70500D02*
X115152Y-72396D01*
G01X83256Y-60500D02*
X81360Y-62396D01*
G01X83256Y-65500D02*
X81360Y-67396D01*
G01X83256Y-70500D02*
X81360Y-72396D01*
G01X103256Y-65500D02*
X105152Y-67396D01*
G01X103256Y-70500D02*
X105152Y-72396D01*
G01X108256Y-70500D02*
X110152Y-72396D01*
G01X108256Y-60500D02*
X110152Y-62396D01*
G01X103256Y-60500D02*
X105152Y-62396D01*
G01X108256Y-65500D02*
X110152Y-67396D01*
G01X93256Y-70500D02*
X91360Y-72396D01*
G01X93256Y-65500D02*
X91360Y-67396D01*
G01X93256Y-60500D02*
X91360Y-62396D01*
G01X88256Y-70500D02*
X86360Y-72396D01*
G01X88256Y-65500D02*
X86360Y-67396D01*
G01X88256Y-60500D02*
X86360Y-62396D01*
G01X117050Y-102550D02*
X120400Y-99200D01*
X139700D01*
X141500Y-101000D01*
Y-105141D01*
G01D02*
X147500D01*
G01X104500Y-78941D02*
Y-75500D01*
X101000Y-72000D01*
Y-68244D01*
X98256Y-65500D01*
G01X104500Y-78941D02*
X110500D01*
G01X98256Y-70500D02*
Y-76565D01*
X98059Y-76762D01*
Y-79000D01*
G01Y-84500D02*
Y-79000D01*
G01X103256Y4500D02*
X105152Y6396D01*
G01X108256Y4500D02*
X110152Y6396D01*
G01X88256Y9500D02*
Y12500D01*
G01X93256Y9500D02*
Y12500D01*
G01X98256Y9500D02*
Y12500D01*
G01X103256Y9500D02*
X105152Y11396D01*
G01X93256Y4500D02*
X91360Y6396D01*
G01X108256Y9500D02*
X110152Y11396D01*
G01X47500Y26256D02*
X51094D01*
X53601Y23749D01*
Y22196D01*
X54321Y21476D01*
X57450D01*
X58170Y20756D01*
Y19316D01*
X57450Y18596D01*
X54321D01*
X53601Y17876D01*
Y16436D01*
X54321Y15716D01*
X57450D01*
X58170Y14996D01*
Y13556D01*
X57450Y12836D01*
X54321D01*
X53601Y12116D01*
Y10676D01*
X54321Y9956D01*
X57450D01*
X58170Y9236D01*
Y7796D01*
X57450Y7076D01*
X54321D01*
X53601Y6356D01*
Y4916D01*
X54321Y4196D01*
X57450D01*
X58170Y3476D01*
Y2036D01*
X57450Y1316D01*
X54321D01*
X53601Y596D01*
Y-844D01*
X54321Y-1564D01*
X57450D01*
X58170Y-2284D01*
Y-3724D01*
X57450Y-4444D01*
X54321D01*
X53601Y-5164D01*
Y-6604D01*
X54321Y-7324D01*
X57450D01*
X58170Y-8044D01*
Y-9484D01*
X57450Y-10204D01*
X54321D01*
X53601Y-10924D01*
Y-12364D01*
X54321Y-13084D01*
X57450D01*
X58170Y-13804D01*
Y-15244D01*
X57450Y-15964D01*
X50376D01*
X49243Y-17097D01*
Y-21232D01*
X49963Y-21952D01*
X52640D01*
X53360Y-22672D01*
Y-24112D01*
X52640Y-24832D01*
X49963D01*
X49243Y-25552D01*
Y-26992D01*
X49963Y-27712D01*
X52640D01*
X53360Y-28432D01*
Y-29872D01*
X52640Y-30592D01*
X49963D01*
X49243Y-31312D01*
Y-32752D01*
X49963Y-33472D01*
X52640D01*
X53360Y-34192D01*
Y-35632D01*
X52640Y-36352D01*
X49963D01*
X49243Y-37072D01*
Y-38512D01*
X49963Y-39232D01*
X52640D01*
X53360Y-39952D01*
Y-44180D01*
X51480Y-46060D01*
X43060D01*
X41000Y-44000D01*
G01X176000Y15500D02*
X167589D01*
X157610Y25479D01*
Y25480D01*
X156890Y26200D01*
X127200D01*
X119480Y18480D01*
Y17020D01*
X118760Y16300D01*
X117320D01*
X116600Y17020D01*
Y21067D01*
X116596Y21071D01*
X116555Y21124D01*
X115880Y21800D01*
X114440D01*
X113720Y21080D01*
Y16920D01*
X113000Y16200D01*
X111560D01*
X110840Y16920D01*
Y20880D01*
X110120Y21600D01*
X108680D01*
X107960Y20880D01*
Y16620D01*
X107240Y15900D01*
X105800D01*
X105080Y16620D01*
Y20480D01*
X104360Y21200D01*
X102920D01*
X102200Y20480D01*
Y16220D01*
X101480Y15500D01*
X100040D01*
X99320Y16220D01*
Y20280D01*
X98600Y21000D01*
X97160D01*
X96440Y20280D01*
Y15720D01*
X95720Y15000D01*
X94280D01*
X93560Y15720D01*
Y20280D01*
X92840Y21000D01*
X91400D01*
X90680Y20280D01*
Y15720D01*
X89960Y15000D01*
X88520D01*
X87800Y15720D01*
Y19880D01*
X87080Y20600D01*
X85640D01*
X84920Y19880D01*
Y15620D01*
X84200Y14900D01*
X82740D01*
X82040Y15600D01*
Y20500D01*
X81320Y21220D01*
X79050D01*
X77500Y22770D01*
Y26256D01*
G01X113256Y-500D02*
X115152Y1396D01*
G01X113256Y-5500D02*
X115152Y-3604D01*
G01X113256Y-10500D02*
X115152Y-8604D01*
G01X113256Y-15500D02*
X115152Y-13604D01*
G01X113256Y-20500D02*
X115152Y-18604D01*
G01X113256Y-25500D02*
X115152Y-23604D01*
G01X113256Y-35500D02*
X115152Y-37396D01*
G01X113256Y-40500D02*
X115152Y-42396D01*
G01X113256Y-45500D02*
X115152Y-47396D01*
G01X113256Y-50500D02*
X115152Y-52396D01*
G01X113256Y-55500D02*
X115152Y-57396D01*
G01X81360Y11396D02*
X83256Y9500D01*
G01Y4500D02*
X81360Y6396D01*
G01X83256Y-500D02*
X81360Y1396D01*
G01X83256Y-5500D02*
X81360Y-3604D01*
G01X83256Y-10500D02*
X81360Y-8604D01*
G01X67500Y36256D02*
X70684D01*
X75590Y31350D01*
X89960D01*
X92180Y33570D01*
Y38380D01*
X89950Y40610D01*
X63950D01*
X62575Y39235D01*
Y34215D01*
X58800Y30440D01*
X44500D01*
X42500Y28440D01*
Y4500D01*
X46000Y1000D01*
G01X83256Y-15500D02*
X81360Y-13604D01*
G01X83256Y-20500D02*
X81360Y-18604D01*
G01X83256Y-25500D02*
X81360Y-23604D01*
G01X83256Y-35500D02*
X81360Y-37396D01*
G01X83256Y-40500D02*
X81360Y-42396D01*
G01X83256Y-45500D02*
X81360Y-47396D01*
G01X83256Y-50500D02*
X81360Y-52396D01*
G01X83256Y-55500D02*
X81360Y-57396D01*
G01X113256Y9500D02*
X114950D01*
X115790Y10340D01*
G01X113256Y4500D02*
X115152Y6396D01*
G01X159500Y-27654D02*
X156154D01*
X156000Y-27500D01*
G01X143500Y-31941D02*
X146072D01*
X146772Y-32641D01*
G01X161000Y15700D02*
Y11500D01*
X156000Y6500D01*
Y-21500D01*
X154000Y-23500D01*
X128500D01*
X125441Y-20441D01*
G01X108256Y-500D02*
X110152Y1396D01*
G01X103256Y-500D02*
X105152Y1396D01*
G01X93256Y-500D02*
X91360Y1396D01*
G01X88256Y-500D02*
X86360Y1396D01*
G01X88256Y4500D02*
X86360Y6396D01*
G01X176000Y5500D02*
X169500Y12000D01*
X168000D01*
X155800Y24200D01*
X146400D01*
X142480Y20280D01*
X132721D01*
X129441Y17000D01*
G01D02*
X129047D01*
X125547Y13500D01*
X104228D01*
X100500Y9772D01*
Y6744D01*
X98256Y4500D01*
G01X165500Y-97000D02*
X168000D01*
X168441Y-96559D01*
Y-93500D01*
G01X170059Y-89559D02*
X173059D01*
X173559Y-90059D01*
Y-93500D01*
G54D46*
G01X-48750Y-46000D02*
G02X-50980Y-45080I10481J28567D01*
G03X-53630Y-44500I-2650J-5764D01*
G01X-58725D01*
G01X-61275D02*
X-68000D01*
G01X-39000Y-22760D02*
X-35560D01*
X-33800Y-21000D01*
X-29047D01*
X-26600Y-23447D01*
G01X-56500Y-17559D02*
Y-17165D01*
X-58487Y-15178D01*
X-60822D01*
X-63170Y-12830D01*
Y-10495D01*
X-67583Y-6082D01*
G01X103256Y-15500D02*
X105152Y-13604D01*
G01X108256Y-10500D02*
X110152Y-8604D01*
G01X103256Y-5500D02*
X105152Y-3604D01*
G01X98256Y-15500D02*
X96360Y-13604D01*
G01X98256Y-10500D02*
X96360Y-8604D01*
G01X98256Y-5500D02*
X96360Y-3604D01*
G01X93256Y-15500D02*
X91360Y-13604D01*
G01X88256Y-10500D02*
X86360Y-8604D01*
G01X93256Y-5500D02*
X91360Y-3604D01*
G01X103256Y-55500D02*
X105152Y-57396D01*
G01X108256Y-50500D02*
X110152Y-52396D01*
G01X103256Y-45500D02*
X105152Y-47396D01*
G01X108256Y-40500D02*
X110152Y-42396D01*
G01X103256Y-35500D02*
X105152Y-37396D01*
G01X108256Y-30500D02*
X110152Y-28604D01*
G01X108256Y-20500D02*
X110152Y-18604D01*
G01X98256Y-55500D02*
X96360Y-57396D01*
G01X98256Y-50500D02*
X96360Y-52396D01*
G01X98256Y-45500D02*
X96360Y-47396D01*
G01X98256Y-40500D02*
X96360Y-42396D01*
G01X98256Y-35500D02*
X96360Y-37396D01*
G01X98256Y-30500D02*
X96360Y-28604D01*
G01X98256Y-20500D02*
X96360Y-18604D01*
G01X93256Y-55500D02*
X91360Y-57396D01*
G01X88256Y-50500D02*
X86360Y-52396D01*
G01X93256Y-45500D02*
X91360Y-47396D01*
G01X88256Y-40500D02*
X86360Y-42396D01*
G01X93256Y-35500D02*
X91360Y-37396D01*
G01X88256Y-30500D02*
X86360Y-28604D01*
G01X93256Y-25500D02*
X91360Y-23604D01*
G01X98256Y-25500D02*
X96360Y-23604D01*
G01X103256Y-25500D02*
X105152Y-23604D01*
G01X88256Y-20500D02*
X86360Y-18604D01*
G01X103256Y-10500D02*
X105152Y-8604D01*
G01X88256Y-25500D02*
X86360Y-23604D01*
G01X88256Y-5500D02*
X86360Y-3604D01*
G01X93256Y-20500D02*
X91360Y-18604D01*
G01X88256Y-15500D02*
X86360Y-13604D01*
G01X93256Y-10500D02*
X91360Y-8604D01*
G01X103256Y-20500D02*
X105152Y-18604D01*
G01X108256Y-25500D02*
X110152Y-23604D01*
G01X108256Y-5500D02*
X110152Y-3604D01*
G01X108256Y-15500D02*
X110152Y-13604D01*
G01X134559Y14059D02*
X134500Y14000D01*
G01X88256Y-35500D02*
X86360Y-37396D01*
G01X88256Y-55500D02*
X86360Y-57396D01*
G01X93256Y-50500D02*
X91360Y-52396D01*
G01X93256Y-40500D02*
X91360Y-42396D01*
G01X93256Y-30500D02*
X91360Y-28604D01*
G01X88256Y-45500D02*
X86360Y-47396D01*
G01X103256Y-30500D02*
X105152Y-28604D01*
G01X108256Y-35500D02*
X110152Y-37396D01*
G01X103256Y-40500D02*
X105152Y-42396D01*
G01X108256Y-45500D02*
X110152Y-47396D01*
G01X103256Y-50500D02*
X105152Y-52396D01*
G01X108256Y-55500D02*
X110152Y-57396D01*
G54D28*
X-95201Y10000D03*
X-107799D03*
G54D19*
X-114500Y-63941D03*
Y-69059D03*
X-9500Y-110441D03*
Y-115559D03*
X-6500Y-58559D03*
X-17500Y-72059D03*
Y-66941D03*
X-12000D03*
Y-72059D03*
X7000Y-82441D03*
Y-87559D03*
X-51000Y-17559D03*
Y-12441D03*
X-56500Y-17559D03*
Y-12441D03*
X-4500Y-3941D03*
X14500Y-30559D03*
X-9500Y-20941D03*
X-28000Y-55059D03*
Y-49941D03*
X-4500Y-9059D03*
X14500Y-25441D03*
X-32000Y-23941D03*
X-21000D03*
X-22700Y-35941D03*
X-34000Y-43059D03*
Y-37941D03*
X-28500Y-41059D03*
X-26500Y-23941D03*
Y-29059D03*
X-6100Y-47559D03*
X-6500Y-53441D03*
X-22700Y-41059D03*
X13000Y-37841D03*
Y-42959D03*
X-22000Y-49941D03*
X-21000Y-29059D03*
X3000Y-19059D03*
X-28200Y-17559D03*
Y-12441D03*
X3000Y-13941D03*
X-9500Y-26059D03*
X-22000Y-55059D03*
X-6100Y-42441D03*
X-28500Y-35941D03*
X-32000Y-29059D03*
X104500Y-84059D03*
Y-78941D03*
X110500D03*
Y-84059D03*
X141500Y-110259D03*
Y-105141D03*
X147500D03*
Y-110259D03*
X143500Y-37059D03*
X148800Y-43041D03*
Y-48159D03*
X143500Y-31941D03*
G54D37*
X-41953Y-13500D03*
X-36047D03*
G54D56*
G01X-88090Y-21685D02*
Y-19690D01*
G02X-86900Y-18500I1190J0D01*
G01X-86150D01*
G03X-85325Y-17675I0J825D01*
G01Y-16375D01*
G02X-81700Y-12750I3625J0D01*
G01X-73040D01*
G02X-69066Y-14396I0J-5620D01*
G01X-56619Y-26843D01*
G03X-52740Y-28450I3879J3878D01*
G01X-50521D01*
G03X-49040Y-26969I0J1481D01*
G01Y-25049D01*
G03X-50299Y-23790I-1259J0D01*
G01X-80610Y-21685D02*
Y-19690D01*
G03X-81800Y-18500I-1190J0D01*
G01X-82550D01*
G02X-83375Y-17675I0J825D01*
G01Y-16375D01*
G02X-81700Y-14700I1675J0D01*
G01X-79440D01*
G02X-78140Y-16000I0J-1300D01*
G01Y-16090D01*
G03X-75540I1300J0D01*
G01Y-16000D01*
G02X-74240Y-14700I1300J0D01*
G01X-73040D01*
G02X-70445Y-15775I0J-3670D01*
G01X-57998Y-28222D01*
G03X-52740Y-30400I5258J5258D01*
G01X-50521D01*
G03X-47090Y-26969I0J3431D01*
G01Y-25049D01*
G02X-45831Y-23790I1259J0D01*
G01X-80610Y-32315D02*
Y-39386D01*
X-80417Y-39579D01*
G01X-88090Y-32315D02*
Y-39378D01*
X-88291Y-39579D01*
G01X-72543Y-61232D02*
Y-60665D01*
G02X-72012Y-59382I1815J0D01*
G02X-70728Y-58850I1284J-1283D01*
G01X-69750D01*
G03X-65980Y-55080I0J3770D01*
G01Y-50490D01*
G02X-63840Y-48350I2140J0D01*
G01X-61750D01*
X-61700Y-48400D01*
G01X-72543Y-34657D02*
Y-34243D01*
G02X-70400Y-32100I2143J0D01*
G01X-69300D01*
G02X-67640Y-33760I0J-1660D01*
G01Y-38940D01*
G03X-64030Y-42550I3610J0D01*
G01X-61750D01*
X-61700Y-42600D01*
G01X-58300D02*
G02X-57000Y-42575I1300J-33788D01*
G01X-46000D01*
G02X-44975Y-43575I0J-1025D01*
G01X-61700Y-42600D02*
X-58300D01*
G01X-38500Y-57500D02*
Y-57374D01*
G03X-39500Y-56374I-1000J0D01*
G01X-43000D01*
G02X-47923Y-54335I0J6963D01*
G01X-52779Y-49479D01*
G03X-55443Y-48375I-2665J-2665D01*
G01X-57000D01*
G03X-58300Y-48400I0J-33812D01*
G01D02*
X-61700D01*
G01X-38500Y-53298D02*
Y-53424D01*
G02X-39500Y-54424I-1000J0D01*
G01X-43000D01*
G02X-46544Y-52956I0J5012D01*
G01X-51400Y-48100D01*
G03X-55444Y-46425I-4044J-4044D01*
G01X-57000D01*
G02X-58300Y-46400I0J33812D01*
G01X-72543Y-54343D02*
Y-54757D01*
G03X-70400Y-56900I2143J0D01*
G01X-69750D01*
G03X-67930Y-55080I0J1820D01*
G01Y-50490D01*
G02X-63840Y-46400I4090J0D01*
G01X-61700D01*
G01X-58300D02*
X-61700D01*
G01X-58300Y-40600D02*
X-61700D01*
G01X-58300D02*
G03X-57000Y-40625I1300J33788D01*
G01X-46000D01*
G03X-44975Y-39575I0J1025D01*
G01X-72543Y-27768D02*
Y-28422D01*
G03X-72080Y-29540I1581J0D01*
G01X-72006Y-29614D01*
G03X-70711Y-30150I1295J1296D01*
G01X-69300D01*
G02X-65690Y-33760I0J-3610D01*
G01Y-38940D01*
G03X-64030Y-40600I1660J0D01*
G01X-61700D01*
G01X161240Y-53758D02*
X159981Y-52499D01*
X157100D01*
X152643Y-56956D01*
Y-60893D01*
X153400Y-61650D01*
X154600D01*
X155408Y-60842D01*
Y-59800D01*
G01X161240Y-49290D02*
X159981Y-50549D01*
X156292D01*
X150693Y-56148D01*
Y-59150D01*
X150043Y-59800D01*
X147928D01*
G54D47*
G01X-19200Y-44700D02*
X-24200D01*
X-25650Y-43250D01*
Y-41908D01*
X-26499Y-41059D01*
X-28500D01*
G01X-26500Y-23941D02*
X-26060Y-23500D01*
X-21441D01*
X-21000Y-23941D01*
G54D29*
X-97760Y29627D03*
X-105240Y18603D03*
Y29627D03*
X-97760Y18603D03*
X-101500Y29627D03*
G54D38*
X-27300Y-44500D03*
X81360Y-67396D03*
X115152Y-72396D03*
Y-67396D03*
X110152D03*
X115152Y-62396D03*
X105152D03*
X110152D03*
X105152Y-57396D03*
X110152D03*
X115152D03*
X86360Y-62396D03*
X91360D03*
X86360Y-67396D03*
X81360Y-72396D03*
X86360D03*
X110152D03*
X105152D03*
Y-67396D03*
X91360D03*
Y-57396D03*
X96360D03*
X81360Y-62396D03*
X91360Y-72396D03*
X81360Y-57396D03*
X86360D03*
X115152Y-18604D03*
Y-13604D03*
X81360Y11396D03*
X115152Y-3604D03*
X110152Y-52396D03*
X105152D03*
X115152D03*
X105152Y-47396D03*
X110152D03*
X115152D03*
X110152Y-42396D03*
X105152D03*
X115152D03*
X105152Y-37396D03*
X110152D03*
X115152D03*
X110152Y-28604D03*
X115152Y-23604D03*
X88256Y12500D03*
X110152Y6396D03*
X115152D03*
X91360D03*
X110152Y-13604D03*
X105152D03*
X93256Y12500D03*
X110152Y-3604D03*
Y-23604D03*
X91360Y-47396D03*
X96360Y-37396D03*
X91360Y-23604D03*
X105152Y-18604D03*
Y-28604D03*
Y1396D03*
X96360Y-18604D03*
X81360Y6396D03*
X91360Y1396D03*
X81360D03*
Y-8604D03*
X91360D03*
X96360D03*
X86360Y-13604D03*
X91360D03*
X86360Y-47396D03*
X105152Y-23604D03*
X96360Y-52396D03*
X81360Y-23604D03*
X86360Y1396D03*
X96360Y-13604D03*
X86360Y-42396D03*
X81360Y-47396D03*
X96360D03*
X110152Y11396D03*
X105152D03*
Y6396D03*
X81360Y-52396D03*
X91360Y-28604D03*
X86360Y-18604D03*
X110152Y1396D03*
X96360Y-28604D03*
X81360Y-42396D03*
Y-13604D03*
X86360Y-8604D03*
Y-52396D03*
X81360Y-18604D03*
X91360D03*
X81360Y-3604D03*
X86360D03*
X91360Y-37396D03*
X110152Y-8604D03*
X98256Y12500D03*
X115152Y1396D03*
X91360Y-42396D03*
X96360D03*
X110152Y-18604D03*
X91360Y-52396D03*
X115790Y10340D03*
X105152Y-3604D03*
X115152Y-8604D03*
X86360Y6396D03*
X96360Y-3604D03*
X91360D03*
X96360Y-23604D03*
X86360D03*
X81360Y-37396D03*
X86360D03*
Y-28604D03*
X105152Y-8604D03*
G54D48*
G01X134500Y-110520D02*
X104020D01*
X77268Y-83768D01*
X65734D01*
X62466Y-80500D01*
X57500D01*
X52500Y-75500D01*
X11500D01*
X10500Y-76500D01*
G01X141500Y-110259D02*
X141239Y-110520D01*
X134500D01*
G54D39*
X-58300Y-40600D03*
X-61700D03*
X-58300Y-42600D03*
Y-46400D03*
Y-48400D03*
X-61700D03*
Y-46400D03*
Y-42600D03*
G54D49*
G01X-84350Y-21685D02*
Y-26350D01*
G01X-23441Y-61000D02*
X-21000D01*
X-19177Y-59177D01*
Y-57320D01*
G01X-23441Y-66744D02*
Y-61000D01*
G01X-32000Y-29059D02*
X-37819D01*
X-39000Y-30240D01*
G01X-32000Y-29059D02*
Y-31500D01*
X-31000Y-32500D01*
X-26500D01*
X-25500Y-33500D01*
Y-35000D01*
G01X6020Y-22674D02*
Y-20480D01*
X7500Y-19000D01*
X9941D01*
G01X-21000Y-23941D02*
X-18333Y-26608D01*
Y-26668D01*
G01X-16959Y-42000D02*
X-18749D01*
X-19177Y-41572D01*
G01D02*
X-19690Y-41059D01*
X-22700D01*
M02*
