G04 ================== begin FILE IDENTIFICATION RECORD ==================*
G04 Layout Name:  FX3_DVK_PROTO_REV3_PD14-0048_PCB_20140612_16p3.brd*
G04 Film Name:    TOPMASK*
G04 File Format:  Gerber RS274X*
G04 File Origin:  Cadence Allegro 16.3-p003*
G04 Origin Date:  Wed Jul 23 11:09:00 2014*
G04 *
G04 Layer:  PIN/TOP*
G04 Layer:  VIA CLASS/SOLDERMASK_TOP*
G04 Layer:  PACKAGE GEOMETRY/SOLDERMASK_TOP*
G04 Layer:  PACKAGE GEOMETRY/PCBNO*
G04 Layer:  BOARD GEOMETRY/OUTLINE*
G04 Layer:  BOARD GEOMETRY/SOLDERMASK_TOP*
G04 Layer:  BOARD GEOMETRY/TARGET*
G04 *
G04 Offset:    (0.00 0.00)*
G04 Mirror:    No*
G04 Mode:      Positive*
G04 Rotation:  0*
G04 FullContactRelief:  No*
G04 UndefLineWidth:     5.00*
G04 ================== end FILE IDENTIFICATION RECORD ====================*
%FSLAX25Y25*MOIN*%
%IR0*IPPOS*OFA0.00000B0.00000*MIA0B0*SFA1.00000B1.00000*%
%ADD44R,.06299X.09449*%
%ADD25R,.07874X.06299*%
%ADD38C,.03*%
%ADD32C,.04*%
%ADD26C,.06*%
%ADD10R,.1181X.063*%
%ADD37C,.016*%
%ADD17C,.026*%
%ADD27R,.06X.06*%
%ADD20C,.067*%
%ADD28C,.05118*%
%ADD42R,.09055X.1752*%
%ADD21C,.05906*%
%ADD14R,.067X.067*%
%ADD34R,.1063X.06299*%
%ADD19R,.06299X.1063*%
%ADD13C,.06378*%
%ADD12R,.0398X.0398*%
%ADD41O,.0315X.01181*%
%ADD40O,.01181X.0315*%
%ADD15C,.118*%
%ADD39R,.14X.14*%
%ADD36R,.02362X.04134*%
%ADD45R,.05315X.01575*%
%ADD16C,.12992*%
%ADD43O,.07387X.05024*%
%ADD35R,.03937X.04331*%
%ADD18R,.04331X.03937*%
%ADD11R,.24409X.22835*%
%ADD31R,.05906X.05118*%
%ADD24R,.02756X.03543*%
%ADD30C,.00985*%
%ADD29R,.03543X.02756*%
%ADD22R,.05118X.05906*%
%ADD33R,.04724X.03937*%
%ADD23R,.07087X.06299*%
%ADD46C,.005*%
%ADD47C,.008*%
G75*
%LPD*%
G75*
G54D10*
X-127500Y-87500D03*
Y-105500D03*
G54D11*
X-99230Y-96500D03*
G54D20*
X-132000Y8500D03*
X-67470Y-83788D03*
X48800Y-82524D03*
X176000Y5500D03*
G54D30*
X7596Y-52596D03*
Y-55745D03*
X4447Y-52596D03*
Y-49447D03*
Y-55745D03*
X1298Y-52596D03*
Y-49447D03*
X-1851Y-52596D03*
Y-49447D03*
X-5000D03*
Y-52596D03*
X-8149Y-55745D03*
X-11298D03*
Y-52596D03*
Y-49447D03*
X-14447Y-55745D03*
Y-52596D03*
X-17596Y-49447D03*
X-20745D03*
X-17596Y-52596D03*
X-20745D03*
Y-55745D03*
X1298D03*
X-14447Y-49447D03*
X10745D03*
X-8149D03*
X-17596Y-55745D03*
X-8149Y-52596D03*
X-1851Y-55745D03*
X7596Y-49447D03*
X10745Y-52596D03*
Y-55745D03*
X-5000D03*
X7596Y-33702D03*
Y-36851D03*
Y-43149D03*
X4447D03*
X1298D03*
X4447Y-36851D03*
X1298D03*
X-1851D03*
Y-40000D03*
X7596D03*
X1298Y-33702D03*
X-1851Y-43149D03*
X1298Y-40000D03*
X-5000Y-27404D03*
Y-30553D03*
X7596Y-24255D03*
X10745Y-27404D03*
X7596D03*
Y-30553D03*
X4447Y-33702D03*
X-1851D03*
X-5000Y-36851D03*
X-1851Y-27404D03*
Y-30553D03*
X-5000Y-33702D03*
X1298Y-27404D03*
Y-30553D03*
X4447Y-27404D03*
Y-30553D03*
X10745Y-33702D03*
X4447Y-40000D03*
X-1851Y-46298D03*
X1298D03*
X10745D03*
X-14447Y-43149D03*
X4447Y-46298D03*
X-5000D03*
Y-43149D03*
X-8149D03*
Y-46298D03*
X-14447D03*
X-11298D03*
Y-43149D03*
X-20745Y-27404D03*
Y-30553D03*
Y-24255D03*
X-14447Y-30553D03*
Y-33702D03*
X-20745Y-46298D03*
Y-40000D03*
Y-43149D03*
X-8149Y-24255D03*
X-11298Y-36851D03*
Y-40000D03*
X-17596Y-46298D03*
X-8149Y-40000D03*
X-14447D03*
Y-36851D03*
X-5000Y-40000D03*
X-8149Y-36851D03*
X-14447Y-27404D03*
X-8149Y-33702D03*
X-17596Y-24255D03*
X-20745Y-36851D03*
X-17596D03*
Y-40000D03*
Y-30553D03*
Y-33702D03*
Y-43149D03*
X-8149Y-27404D03*
X10745Y-36851D03*
X-11298Y-30553D03*
Y-27404D03*
X-14447Y-24255D03*
X-1851D03*
X10745Y-40000D03*
X-11298Y-33702D03*
X-20745D03*
X7596Y-46298D03*
X10745Y-24255D03*
X4447D03*
X10745Y-43149D03*
X-5000Y-24255D03*
X-8149Y-30553D03*
X1298Y-24255D03*
X10745Y-30553D03*
X-17596Y-27404D03*
X-11298Y-24255D03*
G54D12*
X-115690Y-96500D03*
G54D21*
X-80417Y-39579D03*
X-88291Y-49421D03*
X-80417D03*
X-88291Y-39579D03*
G54D22*
X-98760Y40000D03*
X-106240D03*
X13740Y-10500D03*
X6260D03*
G54D31*
X-47500Y-66760D03*
Y-74240D03*
X-55500Y-66760D03*
Y-74240D03*
X-52500Y-5760D03*
Y-13240D03*
G54D40*
X140866Y-5354D03*
X154646D03*
X152677D03*
X148740Y-24646D03*
X142835Y-5354D03*
X150709D03*
X148740D03*
X146772D03*
X144803D03*
X140866Y-24646D03*
X142835D03*
X144803D03*
X152677D03*
X150709D03*
X154646D03*
X146772D03*
G54D13*
X-85852Y-121158D03*
X147000Y9000D03*
G54D23*
X-100000Y16488D03*
Y27512D03*
G54D41*
X157402Y-14016D03*
Y-12047D03*
X138110Y-10079D03*
Y-12047D03*
Y-15984D03*
Y-17953D03*
Y-19921D03*
Y-21890D03*
X157402Y-17953D03*
X138110Y-8110D03*
X157402Y-10079D03*
Y-8110D03*
X138110Y-14016D03*
X157402Y-21890D03*
Y-15984D03*
Y-19921D03*
G54D14*
X-77470Y-83788D03*
X-132000Y-1500D03*
X38800Y-82524D03*
X176000Y15500D03*
G54D32*
X-33340Y-72860D03*
X22500Y-6500D03*
X160000Y-114000D03*
X133760Y-29260D03*
X175000Y-79500D03*
X174500Y-115000D03*
X162960Y-3560D03*
G54D33*
X-17846Y-559D03*
X-11154D03*
X-17846Y4559D03*
X-11154D03*
G54D24*
X-82500Y-16059D03*
Y-10941D03*
X-84000Y-1559D03*
Y3559D03*
X29000Y-82441D03*
Y-87559D03*
X18000Y-96441D03*
Y-101559D03*
Y-82441D03*
Y-87559D03*
X23500Y-82441D03*
Y-87559D03*
X12500Y-96441D03*
Y-101559D03*
X7000Y-96441D03*
Y-101559D03*
X12500Y-82441D03*
Y-87559D03*
X-15000Y-96441D03*
Y-101559D03*
X1500Y-96441D03*
Y-101559D03*
Y-82441D03*
Y-87559D03*
X-4000Y-82441D03*
Y-87559D03*
X-31500Y-96441D03*
Y-101559D03*
X-9500Y-82441D03*
Y-87559D03*
X-42500Y-82441D03*
Y-87559D03*
X-31500Y-82441D03*
Y-87559D03*
X23500Y-96441D03*
Y-101559D03*
X-15000Y-82441D03*
Y-87559D03*
X-26000Y-96441D03*
Y-101559D03*
X-20500Y-96441D03*
Y-101559D03*
X-37000Y-82441D03*
Y-87559D03*
X-26000Y-82441D03*
Y-87559D03*
X-42500Y-96441D03*
Y-101559D03*
X-37000Y-96441D03*
Y-101559D03*
X-44500Y-19559D03*
Y-14441D03*
X-2000Y2941D03*
Y8059D03*
X19000Y2941D03*
Y8059D03*
X24500Y2941D03*
Y8059D03*
X6000Y2941D03*
Y8059D03*
X12500Y2941D03*
Y8059D03*
X84500Y-58059D03*
Y-42441D03*
X112000Y-23441D03*
Y-28559D03*
X93500Y-18441D03*
Y-23559D03*
X108000Y-1441D03*
Y-6559D03*
X103000Y-52559D03*
Y-47441D03*
X112000Y-12441D03*
Y-17559D03*
Y-47441D03*
Y-52559D03*
X157000Y1941D03*
Y7059D03*
X84500Y-47559D03*
X143400Y-32641D03*
X84500Y-24559D03*
Y-19441D03*
X102000Y-8441D03*
Y-13559D03*
X84500Y-36059D03*
Y-30941D03*
X93500Y-12559D03*
Y-7441D03*
Y-29441D03*
X84500Y-52941D03*
X102000Y-24059D03*
X84500Y-8441D03*
X93500Y-34559D03*
X102000Y-18941D03*
X84500Y-13559D03*
X143400Y-37759D03*
G54D15*
X-123500Y-133244D03*
Y31756D03*
X168500Y-133244D03*
Y31756D03*
G54D42*
X178791Y-50244D03*
G54D43*
X180169Y-62941D03*
Y-37547D03*
G54D16*
X-98960Y-68201D03*
Y-20799D03*
G54D34*
X-71100Y13112D03*
Y2088D03*
G54D25*
X-113330Y-1600D03*
X-92070D03*
X120870Y-87900D03*
X142130D03*
G54D35*
X-37700Y-14654D03*
Y-21346D03*
G54D17*
X-99230Y-96500D03*
X-99250Y-100000D03*
Y-93000D03*
X-92500Y-96500D03*
X-93500Y-87000D03*
X-96000Y-96500D03*
X-104500Y-106000D03*
X-94000D03*
X-99250Y-87000D03*
X-109500Y-91500D03*
Y-87000D03*
Y-96500D03*
Y-101500D03*
Y-106000D03*
X-106000Y-96500D03*
X-105000Y-87000D03*
X-102500Y-96500D03*
X-99250Y-103000D03*
X-89000Y-91500D03*
Y-87000D03*
Y-96500D03*
Y-101500D03*
Y-106000D03*
X-99250Y-90000D03*
Y-106000D03*
X-45500Y4500D03*
X-38500Y9000D03*
X-59000Y0D03*
X-48750Y1500D03*
X-52000Y4500D03*
X-59000D03*
Y9000D03*
Y-5000D03*
X-38500Y4500D03*
Y0D03*
X-48750Y10500D03*
X-42000Y4500D03*
X-55500D03*
X-43500Y-5000D03*
X-48750Y7500D03*
Y4500D03*
G54D26*
X-111000Y14756D03*
X-32500Y-127744D03*
X-22500Y-137744D03*
Y-127744D03*
X-12500Y-137744D03*
Y-127744D03*
X-2500Y-137744D03*
Y-127744D03*
X7500Y-137744D03*
Y-127744D03*
X17500Y-137744D03*
X-72500Y-127744D03*
X17500D03*
X27500Y-137744D03*
Y-127744D03*
X37500Y-137744D03*
Y-127744D03*
X-62500Y-137744D03*
Y-127744D03*
X-52500Y-137744D03*
Y-127744D03*
X-42500Y-137744D03*
Y-127744D03*
X-32500Y-137744D03*
X-52500Y36256D03*
Y26256D03*
X-62500Y36256D03*
Y26256D03*
X37500D03*
Y36256D03*
X27500D03*
Y26256D03*
X-72500Y36256D03*
X17500D03*
Y26256D03*
X7500Y36256D03*
X-2500D03*
X7500Y26256D03*
X-12500Y36256D03*
X-2500Y26256D03*
X-22500Y36256D03*
X-12500Y26256D03*
X-32500Y36256D03*
X-22500Y26256D03*
X-32500D03*
X-42500Y36256D03*
Y26256D03*
X47500Y-137744D03*
Y-127744D03*
X57500Y-137744D03*
Y-127744D03*
X67500Y-137744D03*
Y-127744D03*
X77500Y-137744D03*
Y-127744D03*
X87500Y-137744D03*
Y-127744D03*
X97500Y-137744D03*
Y-127744D03*
X107500Y-137744D03*
Y-127744D03*
X117500Y-137744D03*
Y-127744D03*
X153500Y-125000D03*
X117500Y36256D03*
Y26256D03*
X107500Y36256D03*
Y26256D03*
X97500Y36256D03*
X87500D03*
X97500Y26256D03*
X87500D03*
X77500Y36256D03*
X67500D03*
X77500Y26256D03*
X67500D03*
X57500D03*
Y36256D03*
X47500D03*
Y26256D03*
X152000Y18256D03*
G54D44*
X169343Y-61858D03*
Y-38630D03*
G54D18*
X-132746Y-77100D03*
X-126054D03*
X123910Y-60500D03*
X130602D03*
X123910Y-51500D03*
X130602D03*
X170154Y-93500D03*
X176846D03*
G54D45*
X168260Y-50244D03*
Y-47685D03*
Y-45126D03*
Y-55362D03*
Y-52803D03*
G54D36*
X151668Y-56559D03*
X147928D03*
X155408D03*
X147928Y-45929D03*
X155408D03*
X151668D03*
G54D27*
X-72500Y-137744D03*
Y26256D03*
G54D46*
G01X-125400Y-243244D02*
G03I-12600J0D01*
G01X-138000D02*
Y-258204D01*
G01X-130520Y-243244D02*
G03I-7480J0D01*
G01X-135640D02*
G03I-2360J0D01*
G01X-138000D02*
X-152960D01*
G01X-138000D02*
Y-228284D01*
G01Y-243244D02*
X-123040D01*
G01X-129500Y-161055D02*
X174500D01*
G03X184500Y-151055I0J10000D01*
G01Y49567D01*
G03X174500Y59567I-10000J0D01*
G01X-129500D01*
G03X-139500Y49567I0J-10000D01*
G01Y-151055D01*
G03X-129500Y-161055I10000J0D01*
G01X-128400Y95256D02*
G03I-12600J0D01*
G01X-133520D02*
G03I-7480J0D01*
G01X-138640D02*
G03I-2360J0D01*
G01X-141000D02*
X-155960D01*
G01X-141000D02*
Y80296D01*
G01Y95256D02*
Y110216D01*
G01Y95256D02*
X-126040D01*
G01X200600D02*
G03I-12600J0D01*
G01X188000D02*
Y80296D01*
G01X195480Y95256D02*
G03I-7480J0D01*
G01X190360D02*
G03I-2360J0D01*
G01X188000D02*
X173040D01*
G01X188000D02*
Y110216D01*
G01Y95256D02*
X202960D01*
G54D19*
X-77512Y-106000D03*
X-66488D03*
G54D28*
X-72543Y-61232D03*
Y-44500D03*
Y-54343D03*
Y-34657D03*
Y-27768D03*
G54D37*
X81360Y-67396D03*
X115152Y-72396D03*
Y-67396D03*
X110152D03*
X115152Y-62396D03*
X105152D03*
X110152D03*
X105152Y-57396D03*
X110152D03*
X115152D03*
X86360Y-62396D03*
X91360D03*
X86360Y-67396D03*
X81360Y-72396D03*
X86360D03*
X110152D03*
X105152D03*
Y-67396D03*
X91360D03*
Y-57396D03*
X96360D03*
X81360Y-62396D03*
X91360Y-72396D03*
X81360Y-57396D03*
X86360D03*
X115152Y-18604D03*
Y-13604D03*
Y-3604D03*
X110152Y-52396D03*
X105152D03*
X115152D03*
X105152Y-47396D03*
X110152D03*
X115152D03*
X110152Y-42396D03*
X105152D03*
X115152D03*
X105152Y-37396D03*
X110152D03*
X115152D03*
X110152Y-28604D03*
X115152Y-23604D03*
X110152Y6396D03*
X115152D03*
X91360D03*
X110152Y-13604D03*
X105152D03*
X110152Y-3604D03*
Y-23604D03*
X91360Y-47396D03*
X96360Y-37396D03*
X91360Y-23604D03*
X105152Y-18604D03*
Y-28604D03*
Y1396D03*
X96360Y-18604D03*
X81360Y6396D03*
X91360Y1396D03*
X81360D03*
Y-8604D03*
X91360D03*
X96360D03*
X86360Y-13604D03*
X91360D03*
X86360Y-47396D03*
X105152Y-23604D03*
X96360Y-52396D03*
X81360Y-23604D03*
X86360Y1396D03*
X96360Y-13604D03*
X86360Y-42396D03*
X81360Y-47396D03*
X96360D03*
X105152Y6396D03*
X81360Y-52396D03*
X91360Y-28604D03*
X86360Y-18604D03*
X110152Y1396D03*
X96360Y-28604D03*
X81360Y-42396D03*
Y-13604D03*
X86360Y-8604D03*
Y-52396D03*
X81360Y-18604D03*
X91360D03*
X81360Y-3604D03*
X86360D03*
X91360Y-37396D03*
X110152Y-8604D03*
X115152Y1396D03*
X91360Y-42396D03*
X96360D03*
X110152Y-18604D03*
X91360Y-52396D03*
X105152Y-3604D03*
X115152Y-8604D03*
X86360Y6396D03*
X96360Y-3604D03*
X91360D03*
X96360Y-23604D03*
X86360D03*
X81360Y-37396D03*
X86360D03*
Y-28604D03*
X105152Y-8604D03*
G54D47*
G01X-223625Y-190834D02*
X-222750Y-189667D01*
X-222000Y-189000D01*
X-221000Y-188667D01*
X-220125Y-189000D01*
X-219500Y-189667D01*
X-219000Y-190667D01*
X-218875Y-191833D01*
X-219000Y-192833D01*
X-219500Y-193834D01*
X-220250Y-194667D01*
X-221125Y-195000D01*
X-222125Y-194667D01*
X-223000Y-193667D01*
X-223500Y-192167D01*
X-223625Y-190500D01*
X-223375Y-188334D01*
X-223000Y-187167D01*
X-222375Y-186000D01*
X-221500Y-185167D01*
X-220625Y-185000D01*
X-219750Y-185333D01*
X-219125Y-186167D01*
G01X-211250Y-185000D02*
X-212250Y-185333D01*
X-213000Y-186167D01*
X-213500Y-187167D01*
X-213875Y-188500D01*
X-214000Y-190000D01*
X-213875Y-191500D01*
X-213500Y-192833D01*
X-213000Y-193834D01*
X-212250Y-194667D01*
X-211250Y-195000D01*
X-210250Y-194667D01*
X-209500Y-193834D01*
X-209000Y-192833D01*
X-208625Y-191500D01*
X-208500Y-190000D01*
X-208625Y-188500D01*
X-209000Y-187167D01*
X-209500Y-186167D01*
X-210250Y-185333D01*
X-211250Y-185000D01*
G01X-201250D02*
X-202250Y-185333D01*
X-203000Y-186167D01*
X-203500Y-187167D01*
X-203875Y-188500D01*
X-204000Y-190000D01*
X-203875Y-191500D01*
X-203500Y-192833D01*
X-203000Y-193834D01*
X-202250Y-194667D01*
X-201250Y-195000D01*
X-200250Y-194667D01*
X-199500Y-193834D01*
X-199000Y-192833D01*
X-198625Y-191500D01*
X-198500Y-190000D01*
X-198625Y-188500D01*
X-199000Y-187167D01*
X-199500Y-186167D01*
X-200250Y-185333D01*
X-201250Y-185000D01*
G01X-192875Y-191667D02*
X-189625D01*
G01X-183625Y-190834D02*
X-182750Y-189667D01*
X-182000Y-189000D01*
X-181000Y-188667D01*
X-180125Y-189000D01*
X-179500Y-189667D01*
X-179000Y-190667D01*
X-178875Y-191833D01*
X-179000Y-192833D01*
X-179500Y-193834D01*
X-180250Y-194667D01*
X-181125Y-195000D01*
X-182125Y-194667D01*
X-183000Y-193667D01*
X-183500Y-192167D01*
X-183625Y-190500D01*
X-183375Y-188334D01*
X-183000Y-187167D01*
X-182375Y-186000D01*
X-181500Y-185167D01*
X-180625Y-185000D01*
X-179750Y-185333D01*
X-179125Y-186167D01*
G01X-171250Y-185000D02*
X-172250Y-185333D01*
X-173000Y-186167D01*
X-173500Y-187167D01*
X-173875Y-188500D01*
X-174000Y-190000D01*
X-173875Y-191500D01*
X-173500Y-192833D01*
X-173000Y-193834D01*
X-172250Y-194667D01*
X-171250Y-195000D01*
X-170250Y-194667D01*
X-169500Y-193834D01*
X-169000Y-192833D01*
X-168625Y-191500D01*
X-168500Y-190000D01*
X-168625Y-188500D01*
X-169000Y-187167D01*
X-169500Y-186167D01*
X-170250Y-185333D01*
X-171250Y-185000D01*
G01X-161250Y-195000D02*
Y-185000D01*
X-162750Y-187000D01*
G01Y-195000D02*
X-159750D01*
G01X-153375Y-193834D02*
X-152500Y-194667D01*
X-151500Y-195000D01*
X-150500Y-194667D01*
X-149625Y-193667D01*
X-149000Y-192167D01*
X-148750Y-190667D01*
Y-188833D01*
X-149000Y-187333D01*
X-149625Y-186000D01*
X-150375Y-185333D01*
X-151250Y-185000D01*
X-152250Y-185333D01*
X-153000Y-186000D01*
X-153500Y-187000D01*
X-153750Y-188334D01*
X-153500Y-189500D01*
X-152875Y-190667D01*
X-152125Y-191334D01*
X-151250Y-191500D01*
X-150250Y-191167D01*
X-149500Y-190333D01*
X-148750Y-188833D01*
G01X-141250Y-195000D02*
X-140375Y-194833D01*
X-139375Y-194333D01*
X-138750Y-193500D01*
X-138500Y-192333D01*
X-138750Y-191167D01*
X-139500Y-190167D01*
X-140625Y-189667D01*
X-141875D01*
X-142625Y-189333D01*
X-143250Y-188500D01*
X-143500Y-187333D01*
X-143125Y-186167D01*
X-142250Y-185333D01*
X-141250Y-185000D01*
X-140250Y-185333D01*
X-139375Y-186167D01*
X-139000Y-187333D01*
X-139250Y-188500D01*
X-139875Y-189333D01*
X-140625Y-189667D01*
X-141875D01*
X-143000Y-190167D01*
X-143750Y-191167D01*
X-144000Y-192333D01*
X-143750Y-193500D01*
X-143125Y-194333D01*
X-142125Y-194833D01*
X-141250Y-195000D01*
G01X-132875Y-191667D02*
X-129625D01*
G01X-121250Y-185000D02*
X-122250Y-185333D01*
X-123000Y-186167D01*
X-123500Y-187167D01*
X-123875Y-188500D01*
X-124000Y-190000D01*
X-123875Y-191500D01*
X-123500Y-192833D01*
X-123000Y-193834D01*
X-122250Y-194667D01*
X-121250Y-195000D01*
X-120250Y-194667D01*
X-119500Y-193834D01*
X-119000Y-192833D01*
X-118625Y-191500D01*
X-118500Y-190000D01*
X-118625Y-188500D01*
X-119000Y-187167D01*
X-119500Y-186167D01*
X-120250Y-185333D01*
X-121250Y-185000D01*
G01X-111250Y-195000D02*
Y-185000D01*
X-112750Y-187000D01*
G01Y-195000D02*
X-109750D01*
G01X-93875Y-193667D02*
X-92875Y-194500D01*
X-91750Y-195000D01*
X-90750D01*
X-89750Y-194500D01*
X-89000Y-193667D01*
X-88625Y-192500D01*
X-88875Y-191334D01*
X-89500Y-190333D01*
X-90625Y-189667D01*
X-92125Y-189333D01*
X-93000Y-188667D01*
X-93375Y-187500D01*
X-93125Y-186333D01*
X-92500Y-185500D01*
X-91625Y-185000D01*
X-90750D01*
X-89875Y-185333D01*
X-89125Y-186167D01*
G01X-84000Y-185000D02*
Y-192167D01*
X-83500Y-193667D01*
X-82500Y-194667D01*
X-81250Y-195000D01*
X-80000Y-194667D01*
X-79000Y-193667D01*
X-78500Y-192167D01*
Y-185000D01*
G01X-73750Y-195000D02*
Y-185000D01*
X-70750D01*
X-69750Y-185500D01*
X-69000Y-186667D01*
X-68750Y-188000D01*
X-69000Y-189333D01*
X-69625Y-190333D01*
X-70750Y-190834D01*
X-73750D01*
G01X-58750Y-195000D02*
X-63750D01*
Y-185000D01*
X-58750D01*
G01X-60750Y-189833D02*
X-63750D01*
G01X-53750Y-195000D02*
Y-185000D01*
X-50625D01*
X-49625Y-185500D01*
X-49000Y-186167D01*
X-48750Y-187500D01*
X-49000Y-188833D01*
X-49750Y-189667D01*
X-50625Y-190167D01*
X-53750D01*
G01X-50625D02*
X-48750Y-195000D01*
G01X-43875Y-193667D02*
X-42875Y-194500D01*
X-41750Y-195000D01*
X-40750D01*
X-39750Y-194500D01*
X-39000Y-193667D01*
X-38625Y-192500D01*
X-38875Y-191334D01*
X-39500Y-190333D01*
X-40625Y-189667D01*
X-42125Y-189333D01*
X-43000Y-188667D01*
X-43375Y-187500D01*
X-43125Y-186333D01*
X-42500Y-185500D01*
X-41625Y-185000D01*
X-40750D01*
X-39875Y-185333D01*
X-39125Y-186167D01*
G01X-33750Y-195000D02*
Y-185000D01*
X-30750D01*
X-29750Y-185500D01*
X-29000Y-186667D01*
X-28750Y-188000D01*
X-29000Y-189333D01*
X-29625Y-190333D01*
X-30750Y-190834D01*
X-33750D01*
G01X-18750Y-195000D02*
X-23750D01*
Y-185000D01*
X-18750D01*
G01X-20750Y-189833D02*
X-23750D01*
G01X-8750Y-195000D02*
X-13750D01*
Y-185000D01*
X-8750D01*
G01X-10750Y-189833D02*
X-13750D01*
G01X-4000Y-195000D02*
Y-185000D01*
X-1500D01*
X-500Y-185500D01*
X250Y-186167D01*
X875Y-187167D01*
X1375Y-188334D01*
X1500Y-190000D01*
X1375Y-191667D01*
X875Y-192833D01*
X250Y-193834D01*
X-500Y-194500D01*
X-1500Y-195000D01*
X-4000D01*
G01X21250D02*
X16250D01*
Y-185000D01*
X21250D01*
G01X19250Y-189833D02*
X16250D01*
G01X26125Y-195000D02*
X31375Y-185000D01*
G01X26125D02*
X31375Y-195000D01*
G01X36250D02*
Y-185000D01*
X39250D01*
X40250Y-185500D01*
X41000Y-186667D01*
X41250Y-188000D01*
X41000Y-189333D01*
X40375Y-190333D01*
X39250Y-190834D01*
X36250D01*
G01X46250Y-185000D02*
Y-195000D01*
X51250D01*
G01X58750D02*
X57750Y-194833D01*
X56875Y-194167D01*
X56125Y-193167D01*
X55625Y-192000D01*
X55375Y-190667D01*
Y-189333D01*
X55625Y-188000D01*
X56125Y-186833D01*
X56875Y-185833D01*
X57750Y-185167D01*
X58750Y-185000D01*
X59750Y-185167D01*
X60625Y-185833D01*
X61375Y-186833D01*
X61875Y-188000D01*
X62125Y-189333D01*
Y-190667D01*
X61875Y-192000D01*
X61375Y-193167D01*
X60625Y-194167D01*
X59750Y-194833D01*
X58750Y-195000D01*
G01X66250D02*
Y-185000D01*
X69375D01*
X70375Y-185500D01*
X71000Y-186167D01*
X71250Y-187500D01*
X71000Y-188833D01*
X70250Y-189667D01*
X69375Y-190167D01*
X66250D01*
G01X69375D02*
X71250Y-195000D01*
G01X81250D02*
X76250D01*
Y-185000D01*
X81250D01*
G01X79250Y-189833D02*
X76250D01*
G01X86250Y-195000D02*
Y-185000D01*
X89375D01*
X90375Y-185500D01*
X91000Y-186167D01*
X91250Y-187500D01*
X91000Y-188833D01*
X90250Y-189667D01*
X89375Y-190167D01*
X86250D01*
G01X89375D02*
X91250Y-195000D01*
G01X106000D02*
Y-185000D01*
G01X110750D02*
X106000Y-191167D01*
G01X111500Y-195000D02*
X108125Y-188334D01*
G01X117250Y-185000D02*
X120250D01*
G01X118750D02*
Y-195000D01*
G01X117250D02*
X120250D01*
G01X128750Y-185000D02*
Y-195000D01*
G01X125875Y-185000D02*
X131625D01*
G01X146250Y-195000D02*
Y-185000D01*
X149375D01*
X150375Y-185500D01*
X151000Y-186167D01*
X151250Y-187500D01*
X151000Y-188833D01*
X150250Y-189667D01*
X149375Y-190167D01*
X146250D01*
G01X149375D02*
X151250Y-195000D01*
G01X161250D02*
X156250D01*
Y-185000D01*
X161250D01*
G01X159250Y-189833D02*
X156250D01*
G01X165625Y-185000D02*
X168750Y-195000D01*
X171875Y-185000D01*
G01X178750D02*
X177750Y-185333D01*
X177000Y-186167D01*
X176500Y-187167D01*
X176125Y-188500D01*
X176000Y-190000D01*
X176125Y-191500D01*
X176500Y-192833D01*
X177000Y-193834D01*
X177750Y-194667D01*
X178750Y-195000D01*
X179750Y-194667D01*
X180500Y-193834D01*
X181000Y-192833D01*
X181375Y-191500D01*
X181500Y-190000D01*
X181375Y-188500D01*
X181000Y-187167D01*
X180500Y-186167D01*
X179750Y-185333D01*
X178750Y-185000D01*
G01X190250Y-195000D02*
Y-185000D01*
X185625Y-192167D01*
X191875D01*
G01X206125Y-193667D02*
X207125Y-194500D01*
X208250Y-195000D01*
X209250D01*
X210250Y-194500D01*
X211000Y-193667D01*
X211375Y-192500D01*
X211125Y-191334D01*
X210500Y-190333D01*
X209375Y-189667D01*
X207875Y-189333D01*
X207000Y-188667D01*
X206625Y-187500D01*
X206875Y-186333D01*
X207500Y-185500D01*
X208375Y-185000D01*
X209250D01*
X210125Y-185333D01*
X210875Y-186167D01*
G01X218750Y-195000D02*
X217750Y-194833D01*
X216875Y-194167D01*
X216125Y-193167D01*
X215625Y-192000D01*
X215375Y-190667D01*
Y-189333D01*
X215625Y-188000D01*
X216125Y-186833D01*
X216875Y-185833D01*
X217750Y-185167D01*
X218750Y-185000D01*
X219750Y-185167D01*
X220625Y-185833D01*
X221375Y-186833D01*
X221875Y-188000D01*
X222125Y-189333D01*
Y-190667D01*
X221875Y-192000D01*
X221375Y-193167D01*
X220625Y-194167D01*
X219750Y-194833D01*
X218750Y-195000D01*
G01X226250Y-185000D02*
Y-195000D01*
X231250D01*
G01X236000D02*
Y-185000D01*
X238500D01*
X239500Y-185500D01*
X240250Y-186167D01*
X240875Y-187167D01*
X241375Y-188334D01*
X241500Y-190000D01*
X241375Y-191667D01*
X240875Y-192833D01*
X240250Y-193834D01*
X239500Y-194500D01*
X238500Y-195000D01*
X236000D01*
G01X251250D02*
X246250D01*
Y-185000D01*
X251250D01*
G01X249250Y-189833D02*
X246250D01*
G01X256250Y-195000D02*
Y-185000D01*
X259375D01*
X260375Y-185500D01*
X261000Y-186167D01*
X261250Y-187500D01*
X261000Y-188833D01*
X260250Y-189667D01*
X259375Y-190167D01*
X256250D01*
G01X259375D02*
X261250Y-195000D01*
G01X265500D02*
Y-185000D01*
X268750Y-193333D01*
X272000Y-185000D01*
Y-195000D01*
G01X275625D02*
X278750Y-185000D01*
X281875Y-195000D01*
G01X280750Y-191500D02*
X276750D01*
G01X286125Y-193667D02*
X287125Y-194500D01*
X288250Y-195000D01*
X289250D01*
X290250Y-194500D01*
X291000Y-193667D01*
X291375Y-192500D01*
X291125Y-191334D01*
X290500Y-190333D01*
X289375Y-189667D01*
X287875Y-189333D01*
X287000Y-188667D01*
X286625Y-187500D01*
X286875Y-186333D01*
X287500Y-185500D01*
X288375Y-185000D01*
X289250D01*
X290125Y-185333D01*
X290875Y-186167D01*
G01X296000Y-195000D02*
Y-185000D01*
G01X300750D02*
X296000Y-191167D01*
G01X301500Y-195000D02*
X298125Y-188334D01*
G01X318750Y-185000D02*
Y-195000D01*
G01X315875Y-185000D02*
X321625D01*
G01X328750Y-195000D02*
X327750Y-194833D01*
X326875Y-194167D01*
X326125Y-193167D01*
X325625Y-192000D01*
X325375Y-190667D01*
Y-189333D01*
X325625Y-188000D01*
X326125Y-186833D01*
X326875Y-185833D01*
X327750Y-185167D01*
X328750Y-185000D01*
X329750Y-185167D01*
X330625Y-185833D01*
X331375Y-186833D01*
X331875Y-188000D01*
X332125Y-189333D01*
Y-190667D01*
X331875Y-192000D01*
X331375Y-193167D01*
X330625Y-194167D01*
X329750Y-194833D01*
X328750Y-195000D01*
G01X336250D02*
Y-185000D01*
X339250D01*
X340250Y-185500D01*
X341000Y-186667D01*
X341250Y-188000D01*
X341000Y-189333D01*
X340375Y-190333D01*
X339250Y-190834D01*
X336250D01*
G54D29*
X32941Y-60500D03*
X38059D03*
X32941Y-66000D03*
X38059D03*
X32941Y-71500D03*
X38059D03*
X32941Y-5500D03*
X38059D03*
X32941Y-16500D03*
X38059D03*
X32941Y-33000D03*
X38059D03*
X32941Y-22000D03*
X38059D03*
X32941Y-27500D03*
X38059D03*
X32941Y-38500D03*
X38059D03*
X32941Y-55000D03*
X38059D03*
X-31941Y-7500D03*
X-37059D03*
X-1271Y-9114D03*
X-6389D03*
X-18271D03*
X-23389D03*
X32941Y-49500D03*
X38059D03*
X32941Y-44000D03*
X38059D03*
X32941Y-11000D03*
X38059D03*
X-34941Y-44075D03*
X-40059D03*
X-34941Y-39075D03*
X-40059D03*
X96959Y-60080D03*
X91841D03*
X47441Y-71500D03*
X52559D03*
X47441Y-66000D03*
X52559D03*
X110059Y-59500D03*
X47441Y-60500D03*
X52559D03*
X104941Y-59500D03*
X47441Y-5500D03*
X52559D03*
X47441Y-16500D03*
X52559D03*
X47441Y-22000D03*
X52559D03*
X47441Y-27500D03*
X52559D03*
X47441Y-38500D03*
X52559D03*
X47441Y-44000D03*
X52559D03*
X47441Y-33000D03*
X52559D03*
X47441Y-11000D03*
X52559D03*
X104559Y-31000D03*
X99441D03*
X110941Y-34500D03*
X116059D03*
X91441Y-50500D03*
X96559D03*
X123941Y-44000D03*
X129059D03*
X91241Y-40600D03*
X96359D03*
X47441Y-49500D03*
X52559D03*
X47441Y-55000D03*
X52559D03*
X104941Y-40500D03*
X110059D03*
X170059Y-20000D03*
X164941D03*
Y-14500D03*
X170059D03*
G54D38*
X152756Y-15000D03*
X142756Y-10000D03*
X152756D03*
X147756D03*
X142756Y-20000D03*
X152756D03*
X147756D03*
X142756Y-15000D03*
X147756D03*
G54D39*
D03*
M02*
