G04 #@! TF.FileFunction,Legend,Bot*
%FSLAX46Y46*%
G04 Gerber Fmt 4.6, Leading zero omitted, Abs format (unit mm)*
G04 Created by KiCad (PCBNEW (2015-07-28 BZR 6012)-product) date Fr 07 Aug 2015 18:57:51 CEST*
%MOMM*%
G01*
G04 APERTURE LIST*
%ADD10C,0.100000*%
%ADD11C,0.150000*%
%ADD12R,1.927200X1.927200*%
%ADD13O,1.927200X1.927200*%
%ADD14O,3.700120X7.200240*%
%ADD15O,1.800200X2.699360*%
%ADD16R,2.232000X1.927200*%
%ADD17O,2.232000X1.927200*%
%ADD18R,1.774800X2.486000*%
%ADD19O,1.774800X2.486000*%
G04 APERTURE END LIST*
D10*
D11*
X105810000Y-116530000D02*
X105810000Y-65730000D01*
X100730000Y-68270000D02*
X100730000Y-116530000D01*
X105810000Y-116530000D02*
X100730000Y-116530000D01*
X105810000Y-65730000D02*
X103270000Y-65730000D01*
X100450000Y-67000000D02*
X100450000Y-65450000D01*
X103270000Y-65730000D02*
X103270000Y-68270000D01*
X103270000Y-68270000D02*
X100730000Y-68270000D01*
X100450000Y-65450000D02*
X102000000Y-65450000D01*
X64110000Y-116530000D02*
X64110000Y-65730000D01*
X59030000Y-68270000D02*
X59030000Y-116530000D01*
X64110000Y-116530000D02*
X59030000Y-116530000D01*
X64110000Y-65730000D02*
X61570000Y-65730000D01*
X58750000Y-67000000D02*
X58750000Y-65450000D01*
X61570000Y-65730000D02*
X61570000Y-68270000D01*
X61570000Y-68270000D02*
X59030000Y-68270000D01*
X58750000Y-65450000D02*
X60300000Y-65450000D01*
X97352381Y-66261905D02*
X96352381Y-66261905D01*
X96352381Y-66642858D01*
X96400000Y-66738096D01*
X96447619Y-66785715D01*
X96542857Y-66833334D01*
X96685714Y-66833334D01*
X96780952Y-66785715D01*
X96828571Y-66738096D01*
X96876190Y-66642858D01*
X96876190Y-66261905D01*
X96447619Y-67214286D02*
X96400000Y-67261905D01*
X96352381Y-67357143D01*
X96352381Y-67595239D01*
X96400000Y-67690477D01*
X96447619Y-67738096D01*
X96542857Y-67785715D01*
X96638095Y-67785715D01*
X96780952Y-67738096D01*
X97352381Y-67166667D01*
X97352381Y-67785715D01*
X55652381Y-66261905D02*
X54652381Y-66261905D01*
X54652381Y-66642858D01*
X54700000Y-66738096D01*
X54747619Y-66785715D01*
X54842857Y-66833334D01*
X54985714Y-66833334D01*
X55080952Y-66785715D01*
X55128571Y-66738096D01*
X55176190Y-66642858D01*
X55176190Y-66261905D01*
X55652381Y-67785715D02*
X55652381Y-67214286D01*
X55652381Y-67500000D02*
X54652381Y-67500000D01*
X54795238Y-67404762D01*
X54890476Y-67309524D01*
X54938095Y-67214286D01*
%LPC*%
D12*
X102000000Y-67000000D03*
D13*
X104540000Y-67000000D03*
X102000000Y-69540000D03*
X104540000Y-69540000D03*
X102000000Y-72080000D03*
X104540000Y-72080000D03*
X102000000Y-74620000D03*
X104540000Y-74620000D03*
X102000000Y-77160000D03*
X104540000Y-77160000D03*
X102000000Y-79700000D03*
X104540000Y-79700000D03*
X102000000Y-82240000D03*
X104540000Y-82240000D03*
X102000000Y-84780000D03*
X104540000Y-84780000D03*
X102000000Y-87320000D03*
X104540000Y-87320000D03*
X102000000Y-89860000D03*
X104540000Y-89860000D03*
X102000000Y-92400000D03*
X104540000Y-92400000D03*
X102000000Y-94940000D03*
X104540000Y-94940000D03*
X102000000Y-97480000D03*
X104540000Y-97480000D03*
X102000000Y-100020000D03*
X104540000Y-100020000D03*
X102000000Y-102560000D03*
X104540000Y-102560000D03*
X102000000Y-105100000D03*
X104540000Y-105100000D03*
X102000000Y-107640000D03*
X104540000Y-107640000D03*
X102000000Y-110180000D03*
X104540000Y-110180000D03*
X102000000Y-112720000D03*
X104540000Y-112720000D03*
X102000000Y-115260000D03*
X104540000Y-115260000D03*
D12*
X60300000Y-67000000D03*
D13*
X62840000Y-67000000D03*
X60300000Y-69540000D03*
X62840000Y-69540000D03*
X60300000Y-72080000D03*
X62840000Y-72080000D03*
X60300000Y-74620000D03*
X62840000Y-74620000D03*
X60300000Y-77160000D03*
X62840000Y-77160000D03*
X60300000Y-79700000D03*
X62840000Y-79700000D03*
X60300000Y-82240000D03*
X62840000Y-82240000D03*
X60300000Y-84780000D03*
X62840000Y-84780000D03*
X60300000Y-87320000D03*
X62840000Y-87320000D03*
X60300000Y-89860000D03*
X62840000Y-89860000D03*
X60300000Y-92400000D03*
X62840000Y-92400000D03*
X60300000Y-94940000D03*
X62840000Y-94940000D03*
X60300000Y-97480000D03*
X62840000Y-97480000D03*
X60300000Y-100020000D03*
X62840000Y-100020000D03*
X60300000Y-102560000D03*
X62840000Y-102560000D03*
X60300000Y-105100000D03*
X62840000Y-105100000D03*
X60300000Y-107640000D03*
X62840000Y-107640000D03*
X60300000Y-110180000D03*
X62840000Y-110180000D03*
X60300000Y-112720000D03*
X62840000Y-112720000D03*
X60300000Y-115260000D03*
X62840000Y-115260000D03*
D14*
X109597780Y-154063400D03*
X99399680Y-154063400D03*
D15*
X104500000Y-149798740D03*
X106999360Y-149798740D03*
D14*
X87097780Y-154063400D03*
X76899680Y-154063400D03*
D15*
X82000000Y-149798740D03*
X84499360Y-149798740D03*
D14*
X64597780Y-154063400D03*
X54399680Y-154063400D03*
D15*
X59500000Y-149798740D03*
X61999360Y-149798740D03*
D16*
X56500000Y-74500000D03*
D17*
X56500000Y-77040000D03*
X56500000Y-79580000D03*
D18*
X91540000Y-119740000D03*
D19*
X89000000Y-119740000D03*
X86460000Y-119740000D03*
X86460000Y-127360000D03*
X89000000Y-127360000D03*
X91540000Y-127360000D03*
D18*
X80040000Y-119740000D03*
D19*
X77500000Y-119740000D03*
X74960000Y-119740000D03*
X74960000Y-127360000D03*
X77500000Y-127360000D03*
X80040000Y-127360000D03*
D18*
X102120000Y-136960000D03*
D19*
X102120000Y-142040000D03*
X97040000Y-136960000D03*
X97040000Y-142040000D03*
X91960000Y-136960000D03*
X91960000Y-142040000D03*
X86880000Y-136960000D03*
X86880000Y-142040000D03*
D18*
X62380000Y-142040000D03*
D19*
X62380000Y-136960000D03*
X67460000Y-142040000D03*
X67460000Y-136960000D03*
X72540000Y-142040000D03*
X72540000Y-136960000D03*
X77620000Y-142040000D03*
X77620000Y-136960000D03*
M02*
