G04 #@! TF.FileFunction,Legend,Top*
%FSLAX46Y46*%
G04 Gerber Fmt 4.6, Leading zero omitted, Abs format (unit mm)*
G04 Created by KiCad (PCBNEW (2015-07-28 BZR 6012)-product) date Fr 07 Aug 2015 18:57:51 CEST*
%MOMM*%
G01*
G04 APERTURE LIST*
%ADD10C,0.100000*%
%ADD11C,0.150000*%
%ADD12R,1.927200X1.927200*%
%ADD13O,1.927200X1.927200*%
%ADD14R,0.800000X0.700000*%
%ADD15R,1.200000X1.450000*%
%ADD16R,1.450000X1.200000*%
%ADD17R,0.700000X0.800000*%
%ADD18R,0.950000X1.000000*%
%ADD19R,0.997560X0.997560*%
%ADD20O,3.700120X7.200240*%
%ADD21O,1.800200X2.699360*%
%ADD22R,0.600000X0.800000*%
%ADD23R,1.100000X0.700000*%
%ADD24R,1.500000X1.800000*%
%ADD25R,1.800000X1.200000*%
%ADD26R,2.232000X1.927200*%
%ADD27O,2.232000X1.927200*%
%ADD28R,0.700000X1.100000*%
%ADD29R,0.800000X0.600000*%
%ADD30R,1.774800X2.486000*%
%ADD31O,1.774800X2.486000*%
%ADD32R,1.050000X0.500000*%
%ADD33R,0.500000X1.050000*%
%ADD34R,2.037500X2.037500*%
%ADD35R,1.200000X1.800000*%
%ADD36R,1.600000X0.500000*%
%ADD37R,1.260000X0.850000*%
G04 APERTURE END LIST*
D10*
D11*
X70900000Y-77275000D02*
X70400000Y-77275000D01*
X70400000Y-78225000D02*
X70900000Y-78225000D01*
X87000000Y-75350000D02*
X88000000Y-75350000D01*
X88000000Y-73650000D02*
X87000000Y-73650000D01*
X87750000Y-73475000D02*
X88250000Y-73475000D01*
X88250000Y-72525000D02*
X87750000Y-72525000D01*
X80400000Y-68100000D02*
X80400000Y-69100000D01*
X82100000Y-69100000D02*
X82100000Y-68100000D01*
X82275000Y-68850000D02*
X82275000Y-69350000D01*
X83225000Y-69350000D02*
X83225000Y-68850000D01*
X76650000Y-87700000D02*
X77650000Y-87700000D01*
X77650000Y-86000000D02*
X76650000Y-86000000D01*
X77350000Y-88875000D02*
X77850000Y-88875000D01*
X77850000Y-87925000D02*
X77350000Y-87925000D01*
X83575000Y-100900000D02*
X83575000Y-101400000D01*
X84525000Y-101400000D02*
X84525000Y-100900000D01*
X85685000Y-101390000D02*
X85685000Y-100890000D01*
X84735000Y-100890000D02*
X84735000Y-101390000D01*
X76950000Y-99150000D02*
X76950000Y-98150000D01*
X75250000Y-98150000D02*
X75250000Y-99150000D01*
X78125000Y-98450000D02*
X78125000Y-97950000D01*
X77175000Y-97950000D02*
X77175000Y-98450000D01*
X82160000Y-101485000D02*
X82660000Y-101485000D01*
X82660000Y-100535000D02*
X82160000Y-100535000D01*
X89705000Y-98670000D02*
X89705000Y-98170000D01*
X88755000Y-98170000D02*
X88755000Y-98670000D01*
X90950000Y-96325000D02*
X90450000Y-96325000D01*
X90450000Y-97275000D02*
X90950000Y-97275000D01*
X69000000Y-75000000D02*
X69000000Y-74000000D01*
X67300000Y-74000000D02*
X67300000Y-75000000D01*
X70125000Y-74500000D02*
X70125000Y-74000000D01*
X69175000Y-74000000D02*
X69175000Y-74500000D01*
X74300000Y-72100000D02*
X74300000Y-71400000D01*
X75500000Y-71400000D02*
X75500000Y-72100000D01*
X74250000Y-76500000D02*
X74250000Y-75500000D01*
X72550000Y-75500000D02*
X72550000Y-76500000D01*
X75375000Y-74500000D02*
X75375000Y-74000000D01*
X74425000Y-74000000D02*
X74425000Y-74500000D01*
X89250000Y-102825000D02*
X88750000Y-102825000D01*
X88750000Y-103775000D02*
X89250000Y-103775000D01*
X77750000Y-102825000D02*
X77250000Y-102825000D01*
X77250000Y-103775000D02*
X77750000Y-103775000D01*
X88950000Y-78900000D02*
X88950000Y-80800000D01*
X90050000Y-78900000D02*
X90050000Y-80800000D01*
X89500000Y-79800000D02*
X89500000Y-80250000D01*
X89750000Y-79750000D02*
X89250000Y-79750000D01*
X89500000Y-79750000D02*
X89750000Y-80000000D01*
X89750000Y-80000000D02*
X89250000Y-80000000D01*
X89250000Y-80000000D02*
X89500000Y-79750000D01*
X90450000Y-78900000D02*
X90450000Y-80800000D01*
X91550000Y-78900000D02*
X91550000Y-80800000D01*
X91000000Y-79800000D02*
X91000000Y-80250000D01*
X91250000Y-79750000D02*
X90750000Y-79750000D01*
X91000000Y-79750000D02*
X91250000Y-80000000D01*
X91250000Y-80000000D02*
X90750000Y-80000000D01*
X90750000Y-80000000D02*
X91000000Y-79750000D01*
X91950000Y-78900000D02*
X91950000Y-80800000D01*
X93050000Y-78900000D02*
X93050000Y-80800000D01*
X92500000Y-79800000D02*
X92500000Y-80250000D01*
X92750000Y-79750000D02*
X92250000Y-79750000D01*
X92500000Y-79750000D02*
X92750000Y-80000000D01*
X92750000Y-80000000D02*
X92250000Y-80000000D01*
X92250000Y-80000000D02*
X92500000Y-79750000D01*
X93450000Y-78900000D02*
X93450000Y-80800000D01*
X94550000Y-78900000D02*
X94550000Y-80800000D01*
X94000000Y-79800000D02*
X94000000Y-80250000D01*
X94250000Y-79750000D02*
X93750000Y-79750000D01*
X94000000Y-79750000D02*
X94250000Y-80000000D01*
X94250000Y-80000000D02*
X93750000Y-80000000D01*
X93750000Y-80000000D02*
X94000000Y-79750000D01*
X94950000Y-78900000D02*
X94950000Y-80800000D01*
X96050000Y-78900000D02*
X96050000Y-80800000D01*
X95500000Y-79800000D02*
X95500000Y-80250000D01*
X95750000Y-79750000D02*
X95250000Y-79750000D01*
X95500000Y-79750000D02*
X95750000Y-80000000D01*
X95750000Y-80000000D02*
X95250000Y-80000000D01*
X95250000Y-80000000D02*
X95500000Y-79750000D01*
X109999100Y-166600840D02*
X99000900Y-167400940D01*
X109999100Y-165800740D02*
X99000900Y-166600840D01*
X109999100Y-165000640D02*
X99000900Y-165800740D01*
X109999100Y-164200540D02*
X99000900Y-165000640D01*
X109999100Y-163400440D02*
X99000900Y-164200540D01*
X109999100Y-162600340D02*
X99000900Y-163400440D01*
X105500760Y-177499980D02*
G75*
G03X105500760Y-177499980I-1000760J0D01*
G01*
X99699400Y-169498980D02*
X99699400Y-181500480D01*
X99699400Y-181500480D02*
X109300600Y-181500480D01*
X109300600Y-181500480D02*
X109300600Y-169498980D01*
X99000900Y-162000900D02*
X99000900Y-169498980D01*
X99000900Y-169498980D02*
X109999100Y-169498980D01*
X109999100Y-169498980D02*
X109999100Y-162000900D01*
X112300340Y-147599100D02*
X96699660Y-147599100D01*
X96699660Y-147599100D02*
X96699660Y-162000900D01*
X96699660Y-162000900D02*
X112300340Y-162000900D01*
X112300340Y-162000900D02*
X112300340Y-147599100D01*
X87499100Y-166600840D02*
X76500900Y-167400940D01*
X87499100Y-165800740D02*
X76500900Y-166600840D01*
X87499100Y-165000640D02*
X76500900Y-165800740D01*
X87499100Y-164200540D02*
X76500900Y-165000640D01*
X87499100Y-163400440D02*
X76500900Y-164200540D01*
X87499100Y-162600340D02*
X76500900Y-163400440D01*
X83000760Y-177499980D02*
G75*
G03X83000760Y-177499980I-1000760J0D01*
G01*
X77199400Y-169498980D02*
X77199400Y-181500480D01*
X77199400Y-181500480D02*
X86800600Y-181500480D01*
X86800600Y-181500480D02*
X86800600Y-169498980D01*
X76500900Y-162000900D02*
X76500900Y-169498980D01*
X76500900Y-169498980D02*
X87499100Y-169498980D01*
X87499100Y-169498980D02*
X87499100Y-162000900D01*
X89800340Y-147599100D02*
X74199660Y-147599100D01*
X74199660Y-147599100D02*
X74199660Y-162000900D01*
X74199660Y-162000900D02*
X89800340Y-162000900D01*
X89800340Y-162000900D02*
X89800340Y-147599100D01*
X64999100Y-166600840D02*
X54000900Y-167400940D01*
X64999100Y-165800740D02*
X54000900Y-166600840D01*
X64999100Y-165000640D02*
X54000900Y-165800740D01*
X64999100Y-164200540D02*
X54000900Y-165000640D01*
X64999100Y-163400440D02*
X54000900Y-164200540D01*
X64999100Y-162600340D02*
X54000900Y-163400440D01*
X60500760Y-177499980D02*
G75*
G03X60500760Y-177499980I-1000760J0D01*
G01*
X54699400Y-169498980D02*
X54699400Y-181500480D01*
X54699400Y-181500480D02*
X64300600Y-181500480D01*
X64300600Y-181500480D02*
X64300600Y-169498980D01*
X54000900Y-162000900D02*
X54000900Y-169498980D01*
X54000900Y-169498980D02*
X64999100Y-169498980D01*
X64999100Y-169498980D02*
X64999100Y-162000900D01*
X67300340Y-147599100D02*
X51699660Y-147599100D01*
X51699660Y-147599100D02*
X51699660Y-162000900D01*
X51699660Y-162000900D02*
X67300340Y-162000900D01*
X67300340Y-162000900D02*
X67300340Y-147599100D01*
X81500000Y-71075000D02*
X81000000Y-71075000D01*
X81000000Y-72125000D02*
X81500000Y-72125000D01*
X88250000Y-107775000D02*
X87750000Y-107775000D01*
X87750000Y-108825000D02*
X88250000Y-108825000D01*
X90250000Y-107775000D02*
X89750000Y-107775000D01*
X89750000Y-108825000D02*
X90250000Y-108825000D01*
X76750000Y-107775000D02*
X76250000Y-107775000D01*
X76250000Y-108825000D02*
X76750000Y-108825000D01*
X78750000Y-107775000D02*
X78250000Y-107775000D01*
X78250000Y-108825000D02*
X78750000Y-108825000D01*
X86825000Y-107050000D02*
X86825000Y-106050000D01*
X88175000Y-106050000D02*
X88175000Y-107050000D01*
X91175000Y-106050000D02*
X91175000Y-107050000D01*
X89825000Y-107050000D02*
X89825000Y-106050000D01*
X75325000Y-107050000D02*
X75325000Y-106050000D01*
X76675000Y-106050000D02*
X76675000Y-107050000D01*
X79675000Y-106050000D02*
X79675000Y-107050000D01*
X78325000Y-107050000D02*
X78325000Y-106050000D01*
X88250000Y-104025000D02*
X87750000Y-104025000D01*
X87750000Y-105075000D02*
X88250000Y-105075000D01*
X90250000Y-104025000D02*
X89750000Y-104025000D01*
X89750000Y-105075000D02*
X90250000Y-105075000D01*
X76750000Y-104025000D02*
X76250000Y-104025000D01*
X76250000Y-105075000D02*
X76750000Y-105075000D01*
X78750000Y-104025000D02*
X78250000Y-104025000D01*
X78250000Y-105075000D02*
X78750000Y-105075000D01*
X84225000Y-130300000D02*
X84225000Y-132300000D01*
X86275000Y-132300000D02*
X86275000Y-130300000D01*
X86725000Y-130300000D02*
X86725000Y-132300000D01*
X88775000Y-132300000D02*
X88775000Y-130300000D01*
X72725000Y-130300000D02*
X72725000Y-132300000D01*
X74775000Y-132300000D02*
X74775000Y-130300000D01*
X75225000Y-130300000D02*
X75225000Y-132300000D01*
X77275000Y-132300000D02*
X77275000Y-130300000D01*
X84475000Y-114800000D02*
X84475000Y-116800000D01*
X86525000Y-116800000D02*
X86525000Y-114800000D01*
X86725000Y-114800000D02*
X86725000Y-116800000D01*
X88775000Y-116800000D02*
X88775000Y-114800000D01*
X89225000Y-114800000D02*
X89225000Y-116800000D01*
X91275000Y-116800000D02*
X91275000Y-114800000D01*
X91475000Y-114800000D02*
X91475000Y-116800000D01*
X93525000Y-116800000D02*
X93525000Y-114800000D01*
X72975000Y-114800000D02*
X72975000Y-116800000D01*
X75025000Y-116800000D02*
X75025000Y-114800000D01*
X55230000Y-75770000D02*
X55230000Y-80850000D01*
X55230000Y-80850000D02*
X57770000Y-80850000D01*
X57770000Y-80850000D02*
X57770000Y-75770000D01*
X58050000Y-72950000D02*
X58050000Y-74500000D01*
X57770000Y-75770000D02*
X55230000Y-75770000D01*
X54950000Y-74500000D02*
X54950000Y-72950000D01*
X54950000Y-72950000D02*
X58050000Y-72950000D01*
X71650000Y-68825000D02*
X72650000Y-68825000D01*
X72650000Y-70175000D02*
X71650000Y-70175000D01*
X88975000Y-82250000D02*
X88975000Y-82750000D01*
X90025000Y-82750000D02*
X90025000Y-82250000D01*
X90475000Y-82250000D02*
X90475000Y-82750000D01*
X91525000Y-82750000D02*
X91525000Y-82250000D01*
X91975000Y-82250000D02*
X91975000Y-82750000D01*
X93025000Y-82750000D02*
X93025000Y-82250000D01*
X93475000Y-82250000D02*
X93475000Y-82750000D01*
X94525000Y-82750000D02*
X94525000Y-82250000D01*
X94975000Y-82250000D02*
X94975000Y-82750000D01*
X96025000Y-82750000D02*
X96025000Y-82250000D01*
X93445000Y-126090000D02*
X84555000Y-126090000D01*
X84555000Y-126090000D02*
X84555000Y-121010000D01*
X84555000Y-121010000D02*
X93445000Y-121010000D01*
X93445000Y-121010000D02*
X93445000Y-126090000D01*
X93445000Y-124185000D02*
X92175000Y-124185000D01*
X92175000Y-124185000D02*
X92175000Y-122915000D01*
X92175000Y-122915000D02*
X93445000Y-122915000D01*
X81945000Y-126090000D02*
X73055000Y-126090000D01*
X73055000Y-126090000D02*
X73055000Y-121010000D01*
X73055000Y-121010000D02*
X81945000Y-121010000D01*
X81945000Y-121010000D02*
X81945000Y-126090000D01*
X81945000Y-124185000D02*
X80675000Y-124185000D01*
X80675000Y-124185000D02*
X80675000Y-122915000D01*
X80675000Y-122915000D02*
X81945000Y-122915000D01*
X88350000Y-88650000D02*
X88350000Y-89225000D01*
X78950000Y-98050000D02*
X78950000Y-97475000D01*
X88350000Y-98050000D02*
X88350000Y-97475000D01*
X78950000Y-88650000D02*
X79525000Y-88650000D01*
X78950000Y-98050000D02*
X79525000Y-98050000D01*
X88350000Y-98050000D02*
X87775000Y-98050000D01*
X88350000Y-88650000D02*
X87775000Y-88650000D01*
X75225000Y-114800000D02*
X75225000Y-116800000D01*
X77275000Y-116800000D02*
X77275000Y-114800000D01*
X77725000Y-114800000D02*
X77725000Y-116800000D01*
X79775000Y-116800000D02*
X79775000Y-114800000D01*
X79975000Y-114800000D02*
X79975000Y-116800000D01*
X82025000Y-116800000D02*
X82025000Y-114800000D01*
X88775000Y-112300000D02*
X88775000Y-110300000D01*
X86725000Y-110300000D02*
X86725000Y-112300000D01*
X91275000Y-112300000D02*
X91275000Y-110300000D01*
X89225000Y-110300000D02*
X89225000Y-112300000D01*
X77275000Y-112300000D02*
X77275000Y-110300000D01*
X75225000Y-110300000D02*
X75225000Y-112300000D01*
X79775000Y-112300000D02*
X79775000Y-110300000D01*
X77725000Y-110300000D02*
X77725000Y-112300000D01*
X80000000Y-79025000D02*
X82000000Y-79025000D01*
X82000000Y-76975000D02*
X80000000Y-76975000D01*
X80000000Y-76525000D02*
X82000000Y-76525000D01*
X82000000Y-74475000D02*
X80000000Y-74475000D01*
X88425000Y-72025000D02*
X88425000Y-71725000D01*
X85075000Y-72025000D02*
X85075000Y-71725000D01*
X85075000Y-68675000D02*
X85075000Y-68975000D01*
X88425000Y-68675000D02*
X88425000Y-68975000D01*
X88425000Y-72025000D02*
X85075000Y-72025000D01*
X88425000Y-68675000D02*
X85075000Y-68675000D01*
X88425000Y-71725000D02*
X89650000Y-71725000D01*
X72650000Y-74200000D02*
G75*
G03X72650000Y-74200000I-100000J0D01*
G01*
X71900000Y-73950000D02*
X72400000Y-73950000D01*
X71900000Y-71050000D02*
X71900000Y-73950000D01*
X72400000Y-71050000D02*
X71900000Y-71050000D01*
X72400000Y-73950000D02*
X72400000Y-71050000D01*
X103916051Y-142040000D02*
G75*
G03X103916051Y-142040000I-1796051J0D01*
G01*
X104660000Y-144580000D02*
X84340000Y-144580000D01*
X84340000Y-144580000D02*
X84340000Y-134420000D01*
X84340000Y-134420000D02*
X104660000Y-134420000D01*
X104660000Y-134420000D02*
X104660000Y-144580000D01*
X64176051Y-136960000D02*
G75*
G03X64176051Y-136960000I-1796051J0D01*
G01*
X59840000Y-134420000D02*
X80160000Y-134420000D01*
X80160000Y-134420000D02*
X80160000Y-144580000D01*
X80160000Y-144580000D02*
X59840000Y-144580000D01*
X59840000Y-144580000D02*
X59840000Y-134420000D01*
X90450000Y-88525000D02*
X89950000Y-88525000D01*
X89950000Y-89475000D02*
X90450000Y-89475000D01*
X70333334Y-79357143D02*
X70285715Y-79404762D01*
X70142858Y-79452381D01*
X70047620Y-79452381D01*
X69904762Y-79404762D01*
X69809524Y-79309524D01*
X69761905Y-79214286D01*
X69714286Y-79023810D01*
X69714286Y-78880952D01*
X69761905Y-78690476D01*
X69809524Y-78595238D01*
X69904762Y-78500000D01*
X70047620Y-78452381D01*
X70142858Y-78452381D01*
X70285715Y-78500000D01*
X70333334Y-78547619D01*
X71285715Y-79452381D02*
X70714286Y-79452381D01*
X71000000Y-79452381D02*
X71000000Y-78452381D01*
X70904762Y-78595238D01*
X70809524Y-78690476D01*
X70714286Y-78738095D01*
X87333334Y-76607143D02*
X87285715Y-76654762D01*
X87142858Y-76702381D01*
X87047620Y-76702381D01*
X86904762Y-76654762D01*
X86809524Y-76559524D01*
X86761905Y-76464286D01*
X86714286Y-76273810D01*
X86714286Y-76130952D01*
X86761905Y-75940476D01*
X86809524Y-75845238D01*
X86904762Y-75750000D01*
X87047620Y-75702381D01*
X87142858Y-75702381D01*
X87285715Y-75750000D01*
X87333334Y-75797619D01*
X87714286Y-75797619D02*
X87761905Y-75750000D01*
X87857143Y-75702381D01*
X88095239Y-75702381D01*
X88190477Y-75750000D01*
X88238096Y-75797619D01*
X88285715Y-75892857D01*
X88285715Y-75988095D01*
X88238096Y-76130952D01*
X87666667Y-76702381D01*
X88285715Y-76702381D01*
X89833334Y-73357143D02*
X89785715Y-73404762D01*
X89642858Y-73452381D01*
X89547620Y-73452381D01*
X89404762Y-73404762D01*
X89309524Y-73309524D01*
X89261905Y-73214286D01*
X89214286Y-73023810D01*
X89214286Y-72880952D01*
X89261905Y-72690476D01*
X89309524Y-72595238D01*
X89404762Y-72500000D01*
X89547620Y-72452381D01*
X89642858Y-72452381D01*
X89785715Y-72500000D01*
X89833334Y-72547619D01*
X90166667Y-72452381D02*
X90785715Y-72452381D01*
X90452381Y-72833333D01*
X90595239Y-72833333D01*
X90690477Y-72880952D01*
X90738096Y-72928571D01*
X90785715Y-73023810D01*
X90785715Y-73261905D01*
X90738096Y-73357143D01*
X90690477Y-73404762D01*
X90595239Y-73452381D01*
X90309524Y-73452381D01*
X90214286Y-73404762D01*
X90166667Y-73357143D01*
X81607143Y-65916666D02*
X81654762Y-65964285D01*
X81702381Y-66107142D01*
X81702381Y-66202380D01*
X81654762Y-66345238D01*
X81559524Y-66440476D01*
X81464286Y-66488095D01*
X81273810Y-66535714D01*
X81130952Y-66535714D01*
X80940476Y-66488095D01*
X80845238Y-66440476D01*
X80750000Y-66345238D01*
X80702381Y-66202380D01*
X80702381Y-66107142D01*
X80750000Y-65964285D01*
X80797619Y-65916666D01*
X81035714Y-65059523D02*
X81702381Y-65059523D01*
X80654762Y-65297619D02*
X81369048Y-65535714D01*
X81369048Y-64916666D01*
X83607143Y-67166666D02*
X83654762Y-67214285D01*
X83702381Y-67357142D01*
X83702381Y-67452380D01*
X83654762Y-67595238D01*
X83559524Y-67690476D01*
X83464286Y-67738095D01*
X83273810Y-67785714D01*
X83130952Y-67785714D01*
X82940476Y-67738095D01*
X82845238Y-67690476D01*
X82750000Y-67595238D01*
X82702381Y-67452380D01*
X82702381Y-67357142D01*
X82750000Y-67214285D01*
X82797619Y-67166666D01*
X82702381Y-66261904D02*
X82702381Y-66738095D01*
X83178571Y-66785714D01*
X83130952Y-66738095D01*
X83083333Y-66642857D01*
X83083333Y-66404761D01*
X83130952Y-66309523D01*
X83178571Y-66261904D01*
X83273810Y-66214285D01*
X83511905Y-66214285D01*
X83607143Y-66261904D01*
X83654762Y-66309523D01*
X83702381Y-66404761D01*
X83702381Y-66642857D01*
X83654762Y-66738095D01*
X83607143Y-66785714D01*
X74333334Y-87357143D02*
X74285715Y-87404762D01*
X74142858Y-87452381D01*
X74047620Y-87452381D01*
X73904762Y-87404762D01*
X73809524Y-87309524D01*
X73761905Y-87214286D01*
X73714286Y-87023810D01*
X73714286Y-86880952D01*
X73761905Y-86690476D01*
X73809524Y-86595238D01*
X73904762Y-86500000D01*
X74047620Y-86452381D01*
X74142858Y-86452381D01*
X74285715Y-86500000D01*
X74333334Y-86547619D01*
X75190477Y-86452381D02*
X75000000Y-86452381D01*
X74904762Y-86500000D01*
X74857143Y-86547619D01*
X74761905Y-86690476D01*
X74714286Y-86880952D01*
X74714286Y-87261905D01*
X74761905Y-87357143D01*
X74809524Y-87404762D01*
X74904762Y-87452381D01*
X75095239Y-87452381D01*
X75190477Y-87404762D01*
X75238096Y-87357143D01*
X75285715Y-87261905D01*
X75285715Y-87023810D01*
X75238096Y-86928571D01*
X75190477Y-86880952D01*
X75095239Y-86833333D01*
X74904762Y-86833333D01*
X74809524Y-86880952D01*
X74761905Y-86928571D01*
X74714286Y-87023810D01*
X75333334Y-88857143D02*
X75285715Y-88904762D01*
X75142858Y-88952381D01*
X75047620Y-88952381D01*
X74904762Y-88904762D01*
X74809524Y-88809524D01*
X74761905Y-88714286D01*
X74714286Y-88523810D01*
X74714286Y-88380952D01*
X74761905Y-88190476D01*
X74809524Y-88095238D01*
X74904762Y-88000000D01*
X75047620Y-87952381D01*
X75142858Y-87952381D01*
X75285715Y-88000000D01*
X75333334Y-88047619D01*
X75666667Y-87952381D02*
X76333334Y-87952381D01*
X75904762Y-88952381D01*
X83583334Y-99607143D02*
X83535715Y-99654762D01*
X83392858Y-99702381D01*
X83297620Y-99702381D01*
X83154762Y-99654762D01*
X83059524Y-99559524D01*
X83011905Y-99464286D01*
X82964286Y-99273810D01*
X82964286Y-99130952D01*
X83011905Y-98940476D01*
X83059524Y-98845238D01*
X83154762Y-98750000D01*
X83297620Y-98702381D01*
X83392858Y-98702381D01*
X83535715Y-98750000D01*
X83583334Y-98797619D01*
X84154762Y-99130952D02*
X84059524Y-99083333D01*
X84011905Y-99035714D01*
X83964286Y-98940476D01*
X83964286Y-98892857D01*
X84011905Y-98797619D01*
X84059524Y-98750000D01*
X84154762Y-98702381D01*
X84345239Y-98702381D01*
X84440477Y-98750000D01*
X84488096Y-98797619D01*
X84535715Y-98892857D01*
X84535715Y-98940476D01*
X84488096Y-99035714D01*
X84440477Y-99083333D01*
X84345239Y-99130952D01*
X84154762Y-99130952D01*
X84059524Y-99178571D01*
X84011905Y-99226190D01*
X83964286Y-99321429D01*
X83964286Y-99511905D01*
X84011905Y-99607143D01*
X84059524Y-99654762D01*
X84154762Y-99702381D01*
X84345239Y-99702381D01*
X84440477Y-99654762D01*
X84488096Y-99607143D01*
X84535715Y-99511905D01*
X84535715Y-99321429D01*
X84488096Y-99226190D01*
X84440477Y-99178571D01*
X84345239Y-99130952D01*
X86857143Y-100666666D02*
X86904762Y-100714285D01*
X86952381Y-100857142D01*
X86952381Y-100952380D01*
X86904762Y-101095238D01*
X86809524Y-101190476D01*
X86714286Y-101238095D01*
X86523810Y-101285714D01*
X86380952Y-101285714D01*
X86190476Y-101238095D01*
X86095238Y-101190476D01*
X86000000Y-101095238D01*
X85952381Y-100952380D01*
X85952381Y-100857142D01*
X86000000Y-100714285D01*
X86047619Y-100666666D01*
X86952381Y-100190476D02*
X86952381Y-100000000D01*
X86904762Y-99904761D01*
X86857143Y-99857142D01*
X86714286Y-99761904D01*
X86523810Y-99714285D01*
X86142857Y-99714285D01*
X86047619Y-99761904D01*
X86000000Y-99809523D01*
X85952381Y-99904761D01*
X85952381Y-100095238D01*
X86000000Y-100190476D01*
X86047619Y-100238095D01*
X86142857Y-100285714D01*
X86380952Y-100285714D01*
X86476190Y-100238095D01*
X86523810Y-100190476D01*
X86571429Y-100095238D01*
X86571429Y-99904761D01*
X86523810Y-99809523D01*
X86476190Y-99761904D01*
X86380952Y-99714285D01*
X74857143Y-99392857D02*
X74904762Y-99440476D01*
X74952381Y-99583333D01*
X74952381Y-99678571D01*
X74904762Y-99821429D01*
X74809524Y-99916667D01*
X74714286Y-99964286D01*
X74523810Y-100011905D01*
X74380952Y-100011905D01*
X74190476Y-99964286D01*
X74095238Y-99916667D01*
X74000000Y-99821429D01*
X73952381Y-99678571D01*
X73952381Y-99583333D01*
X74000000Y-99440476D01*
X74047619Y-99392857D01*
X74952381Y-98440476D02*
X74952381Y-99011905D01*
X74952381Y-98726191D02*
X73952381Y-98726191D01*
X74095238Y-98821429D01*
X74190476Y-98916667D01*
X74238095Y-99011905D01*
X73952381Y-97821429D02*
X73952381Y-97726190D01*
X74000000Y-97630952D01*
X74047619Y-97583333D01*
X74142857Y-97535714D01*
X74333333Y-97488095D01*
X74571429Y-97488095D01*
X74761905Y-97535714D01*
X74857143Y-97583333D01*
X74904762Y-97630952D01*
X74952381Y-97726190D01*
X74952381Y-97821429D01*
X74904762Y-97916667D01*
X74857143Y-97964286D01*
X74761905Y-98011905D01*
X74571429Y-98059524D01*
X74333333Y-98059524D01*
X74142857Y-98011905D01*
X74047619Y-97964286D01*
X74000000Y-97916667D01*
X73952381Y-97821429D01*
X77857143Y-96142857D02*
X77904762Y-96190476D01*
X77952381Y-96333333D01*
X77952381Y-96428571D01*
X77904762Y-96571429D01*
X77809524Y-96666667D01*
X77714286Y-96714286D01*
X77523810Y-96761905D01*
X77380952Y-96761905D01*
X77190476Y-96714286D01*
X77095238Y-96666667D01*
X77000000Y-96571429D01*
X76952381Y-96428571D01*
X76952381Y-96333333D01*
X77000000Y-96190476D01*
X77047619Y-96142857D01*
X77952381Y-95190476D02*
X77952381Y-95761905D01*
X77952381Y-95476191D02*
X76952381Y-95476191D01*
X77095238Y-95571429D01*
X77190476Y-95666667D01*
X77238095Y-95761905D01*
X77952381Y-94238095D02*
X77952381Y-94809524D01*
X77952381Y-94523810D02*
X76952381Y-94523810D01*
X77095238Y-94619048D01*
X77190476Y-94714286D01*
X77238095Y-94809524D01*
X79857143Y-100357143D02*
X79809524Y-100404762D01*
X79666667Y-100452381D01*
X79571429Y-100452381D01*
X79428571Y-100404762D01*
X79333333Y-100309524D01*
X79285714Y-100214286D01*
X79238095Y-100023810D01*
X79238095Y-99880952D01*
X79285714Y-99690476D01*
X79333333Y-99595238D01*
X79428571Y-99500000D01*
X79571429Y-99452381D01*
X79666667Y-99452381D01*
X79809524Y-99500000D01*
X79857143Y-99547619D01*
X80809524Y-100452381D02*
X80238095Y-100452381D01*
X80523809Y-100452381D02*
X80523809Y-99452381D01*
X80428571Y-99595238D01*
X80333333Y-99690476D01*
X80238095Y-99738095D01*
X81190476Y-99547619D02*
X81238095Y-99500000D01*
X81333333Y-99452381D01*
X81571429Y-99452381D01*
X81666667Y-99500000D01*
X81714286Y-99547619D01*
X81761905Y-99642857D01*
X81761905Y-99738095D01*
X81714286Y-99880952D01*
X81142857Y-100452381D01*
X81761905Y-100452381D01*
X90607143Y-98857143D02*
X90559524Y-98904762D01*
X90416667Y-98952381D01*
X90321429Y-98952381D01*
X90178571Y-98904762D01*
X90083333Y-98809524D01*
X90035714Y-98714286D01*
X89988095Y-98523810D01*
X89988095Y-98380952D01*
X90035714Y-98190476D01*
X90083333Y-98095238D01*
X90178571Y-98000000D01*
X90321429Y-97952381D01*
X90416667Y-97952381D01*
X90559524Y-98000000D01*
X90607143Y-98047619D01*
X91559524Y-98952381D02*
X90988095Y-98952381D01*
X91273809Y-98952381D02*
X91273809Y-97952381D01*
X91178571Y-98095238D01*
X91083333Y-98190476D01*
X90988095Y-98238095D01*
X91892857Y-97952381D02*
X92511905Y-97952381D01*
X92178571Y-98333333D01*
X92321429Y-98333333D01*
X92416667Y-98380952D01*
X92464286Y-98428571D01*
X92511905Y-98523810D01*
X92511905Y-98761905D01*
X92464286Y-98857143D01*
X92416667Y-98904762D01*
X92321429Y-98952381D01*
X92035714Y-98952381D01*
X91940476Y-98904762D01*
X91892857Y-98857143D01*
X92607143Y-97107143D02*
X92559524Y-97154762D01*
X92416667Y-97202381D01*
X92321429Y-97202381D01*
X92178571Y-97154762D01*
X92083333Y-97059524D01*
X92035714Y-96964286D01*
X91988095Y-96773810D01*
X91988095Y-96630952D01*
X92035714Y-96440476D01*
X92083333Y-96345238D01*
X92178571Y-96250000D01*
X92321429Y-96202381D01*
X92416667Y-96202381D01*
X92559524Y-96250000D01*
X92607143Y-96297619D01*
X93559524Y-97202381D02*
X92988095Y-97202381D01*
X93273809Y-97202381D02*
X93273809Y-96202381D01*
X93178571Y-96345238D01*
X93083333Y-96440476D01*
X92988095Y-96488095D01*
X94416667Y-96535714D02*
X94416667Y-97202381D01*
X94178571Y-96154762D02*
X93940476Y-96869048D01*
X94559524Y-96869048D01*
X66857143Y-75142857D02*
X66904762Y-75190476D01*
X66952381Y-75333333D01*
X66952381Y-75428571D01*
X66904762Y-75571429D01*
X66809524Y-75666667D01*
X66714286Y-75714286D01*
X66523810Y-75761905D01*
X66380952Y-75761905D01*
X66190476Y-75714286D01*
X66095238Y-75666667D01*
X66000000Y-75571429D01*
X65952381Y-75428571D01*
X65952381Y-75333333D01*
X66000000Y-75190476D01*
X66047619Y-75142857D01*
X66952381Y-74190476D02*
X66952381Y-74761905D01*
X66952381Y-74476191D02*
X65952381Y-74476191D01*
X66095238Y-74571429D01*
X66190476Y-74666667D01*
X66238095Y-74761905D01*
X65952381Y-73285714D02*
X65952381Y-73761905D01*
X66428571Y-73809524D01*
X66380952Y-73761905D01*
X66333333Y-73666667D01*
X66333333Y-73428571D01*
X66380952Y-73333333D01*
X66428571Y-73285714D01*
X66523810Y-73238095D01*
X66761905Y-73238095D01*
X66857143Y-73285714D01*
X66904762Y-73333333D01*
X66952381Y-73428571D01*
X66952381Y-73666667D01*
X66904762Y-73761905D01*
X66857143Y-73809524D01*
X69857143Y-72142857D02*
X69904762Y-72190476D01*
X69952381Y-72333333D01*
X69952381Y-72428571D01*
X69904762Y-72571429D01*
X69809524Y-72666667D01*
X69714286Y-72714286D01*
X69523810Y-72761905D01*
X69380952Y-72761905D01*
X69190476Y-72714286D01*
X69095238Y-72666667D01*
X69000000Y-72571429D01*
X68952381Y-72428571D01*
X68952381Y-72333333D01*
X69000000Y-72190476D01*
X69047619Y-72142857D01*
X69952381Y-71190476D02*
X69952381Y-71761905D01*
X69952381Y-71476191D02*
X68952381Y-71476191D01*
X69095238Y-71571429D01*
X69190476Y-71666667D01*
X69238095Y-71761905D01*
X68952381Y-70333333D02*
X68952381Y-70523810D01*
X69000000Y-70619048D01*
X69047619Y-70666667D01*
X69190476Y-70761905D01*
X69380952Y-70809524D01*
X69761905Y-70809524D01*
X69857143Y-70761905D01*
X69904762Y-70714286D01*
X69952381Y-70619048D01*
X69952381Y-70428571D01*
X69904762Y-70333333D01*
X69857143Y-70285714D01*
X69761905Y-70238095D01*
X69523810Y-70238095D01*
X69428571Y-70285714D01*
X69380952Y-70333333D01*
X69333333Y-70428571D01*
X69333333Y-70619048D01*
X69380952Y-70714286D01*
X69428571Y-70761905D01*
X69523810Y-70809524D01*
X76857143Y-72142857D02*
X76904762Y-72190476D01*
X76952381Y-72333333D01*
X76952381Y-72428571D01*
X76904762Y-72571429D01*
X76809524Y-72666667D01*
X76714286Y-72714286D01*
X76523810Y-72761905D01*
X76380952Y-72761905D01*
X76190476Y-72714286D01*
X76095238Y-72666667D01*
X76000000Y-72571429D01*
X75952381Y-72428571D01*
X75952381Y-72333333D01*
X76000000Y-72190476D01*
X76047619Y-72142857D01*
X76952381Y-71190476D02*
X76952381Y-71761905D01*
X76952381Y-71476191D02*
X75952381Y-71476191D01*
X76095238Y-71571429D01*
X76190476Y-71666667D01*
X76238095Y-71761905D01*
X75952381Y-70857143D02*
X75952381Y-70190476D01*
X76952381Y-70619048D01*
X73857143Y-79892857D02*
X73904762Y-79940476D01*
X73952381Y-80083333D01*
X73952381Y-80178571D01*
X73904762Y-80321429D01*
X73809524Y-80416667D01*
X73714286Y-80464286D01*
X73523810Y-80511905D01*
X73380952Y-80511905D01*
X73190476Y-80464286D01*
X73095238Y-80416667D01*
X73000000Y-80321429D01*
X72952381Y-80178571D01*
X72952381Y-80083333D01*
X73000000Y-79940476D01*
X73047619Y-79892857D01*
X73952381Y-78940476D02*
X73952381Y-79511905D01*
X73952381Y-79226191D02*
X72952381Y-79226191D01*
X73095238Y-79321429D01*
X73190476Y-79416667D01*
X73238095Y-79511905D01*
X73380952Y-78369048D02*
X73333333Y-78464286D01*
X73285714Y-78511905D01*
X73190476Y-78559524D01*
X73142857Y-78559524D01*
X73047619Y-78511905D01*
X73000000Y-78464286D01*
X72952381Y-78369048D01*
X72952381Y-78178571D01*
X73000000Y-78083333D01*
X73047619Y-78035714D01*
X73142857Y-77988095D01*
X73190476Y-77988095D01*
X73285714Y-78035714D01*
X73333333Y-78083333D01*
X73380952Y-78178571D01*
X73380952Y-78369048D01*
X73428571Y-78464286D01*
X73476190Y-78511905D01*
X73571429Y-78559524D01*
X73761905Y-78559524D01*
X73857143Y-78511905D01*
X73904762Y-78464286D01*
X73952381Y-78369048D01*
X73952381Y-78178571D01*
X73904762Y-78083333D01*
X73857143Y-78035714D01*
X73761905Y-77988095D01*
X73571429Y-77988095D01*
X73476190Y-78035714D01*
X73428571Y-78083333D01*
X73380952Y-78178571D01*
X76357143Y-74607143D02*
X76309524Y-74654762D01*
X76166667Y-74702381D01*
X76071429Y-74702381D01*
X75928571Y-74654762D01*
X75833333Y-74559524D01*
X75785714Y-74464286D01*
X75738095Y-74273810D01*
X75738095Y-74130952D01*
X75785714Y-73940476D01*
X75833333Y-73845238D01*
X75928571Y-73750000D01*
X76071429Y-73702381D01*
X76166667Y-73702381D01*
X76309524Y-73750000D01*
X76357143Y-73797619D01*
X77309524Y-74702381D02*
X76738095Y-74702381D01*
X77023809Y-74702381D02*
X77023809Y-73702381D01*
X76928571Y-73845238D01*
X76833333Y-73940476D01*
X76738095Y-73988095D01*
X77785714Y-74702381D02*
X77976190Y-74702381D01*
X78071429Y-74654762D01*
X78119048Y-74607143D01*
X78214286Y-74464286D01*
X78261905Y-74273810D01*
X78261905Y-73892857D01*
X78214286Y-73797619D01*
X78166667Y-73750000D01*
X78071429Y-73702381D01*
X77880952Y-73702381D01*
X77785714Y-73750000D01*
X77738095Y-73797619D01*
X77690476Y-73892857D01*
X77690476Y-74130952D01*
X77738095Y-74226190D01*
X77785714Y-74273810D01*
X77880952Y-74321429D01*
X78071429Y-74321429D01*
X78166667Y-74273810D01*
X78214286Y-74226190D01*
X78261905Y-74130952D01*
X88357143Y-102357143D02*
X88309524Y-102404762D01*
X88166667Y-102452381D01*
X88071429Y-102452381D01*
X87928571Y-102404762D01*
X87833333Y-102309524D01*
X87785714Y-102214286D01*
X87738095Y-102023810D01*
X87738095Y-101880952D01*
X87785714Y-101690476D01*
X87833333Y-101595238D01*
X87928571Y-101500000D01*
X88071429Y-101452381D01*
X88166667Y-101452381D01*
X88309524Y-101500000D01*
X88357143Y-101547619D01*
X88738095Y-101547619D02*
X88785714Y-101500000D01*
X88880952Y-101452381D01*
X89119048Y-101452381D01*
X89214286Y-101500000D01*
X89261905Y-101547619D01*
X89309524Y-101642857D01*
X89309524Y-101738095D01*
X89261905Y-101880952D01*
X88690476Y-102452381D01*
X89309524Y-102452381D01*
X89880952Y-101880952D02*
X89785714Y-101833333D01*
X89738095Y-101785714D01*
X89690476Y-101690476D01*
X89690476Y-101642857D01*
X89738095Y-101547619D01*
X89785714Y-101500000D01*
X89880952Y-101452381D01*
X90071429Y-101452381D01*
X90166667Y-101500000D01*
X90214286Y-101547619D01*
X90261905Y-101642857D01*
X90261905Y-101690476D01*
X90214286Y-101785714D01*
X90166667Y-101833333D01*
X90071429Y-101880952D01*
X89880952Y-101880952D01*
X89785714Y-101928571D01*
X89738095Y-101976190D01*
X89690476Y-102071429D01*
X89690476Y-102261905D01*
X89738095Y-102357143D01*
X89785714Y-102404762D01*
X89880952Y-102452381D01*
X90071429Y-102452381D01*
X90166667Y-102404762D01*
X90214286Y-102357143D01*
X90261905Y-102261905D01*
X90261905Y-102071429D01*
X90214286Y-101976190D01*
X90166667Y-101928571D01*
X90071429Y-101880952D01*
X76857143Y-102357143D02*
X76809524Y-102404762D01*
X76666667Y-102452381D01*
X76571429Y-102452381D01*
X76428571Y-102404762D01*
X76333333Y-102309524D01*
X76285714Y-102214286D01*
X76238095Y-102023810D01*
X76238095Y-101880952D01*
X76285714Y-101690476D01*
X76333333Y-101595238D01*
X76428571Y-101500000D01*
X76571429Y-101452381D01*
X76666667Y-101452381D01*
X76809524Y-101500000D01*
X76857143Y-101547619D01*
X77238095Y-101547619D02*
X77285714Y-101500000D01*
X77380952Y-101452381D01*
X77619048Y-101452381D01*
X77714286Y-101500000D01*
X77761905Y-101547619D01*
X77809524Y-101642857D01*
X77809524Y-101738095D01*
X77761905Y-101880952D01*
X77190476Y-102452381D01*
X77809524Y-102452381D01*
X78285714Y-102452381D02*
X78476190Y-102452381D01*
X78571429Y-102404762D01*
X78619048Y-102357143D01*
X78714286Y-102214286D01*
X78761905Y-102023810D01*
X78761905Y-101642857D01*
X78714286Y-101547619D01*
X78666667Y-101500000D01*
X78571429Y-101452381D01*
X78380952Y-101452381D01*
X78285714Y-101500000D01*
X78238095Y-101547619D01*
X78190476Y-101642857D01*
X78190476Y-101880952D01*
X78238095Y-101976190D01*
X78285714Y-102023810D01*
X78380952Y-102071429D01*
X78571429Y-102071429D01*
X78666667Y-102023810D01*
X78714286Y-101976190D01*
X78761905Y-101880952D01*
X89952381Y-78238095D02*
X88952381Y-78238095D01*
X88952381Y-78000000D01*
X89000000Y-77857142D01*
X89095238Y-77761904D01*
X89190476Y-77714285D01*
X89380952Y-77666666D01*
X89523810Y-77666666D01*
X89714286Y-77714285D01*
X89809524Y-77761904D01*
X89904762Y-77857142D01*
X89952381Y-78000000D01*
X89952381Y-78238095D01*
X89952381Y-76714285D02*
X89952381Y-77285714D01*
X89952381Y-77000000D02*
X88952381Y-77000000D01*
X89095238Y-77095238D01*
X89190476Y-77190476D01*
X89238095Y-77285714D01*
X91452381Y-78238095D02*
X90452381Y-78238095D01*
X90452381Y-78000000D01*
X90500000Y-77857142D01*
X90595238Y-77761904D01*
X90690476Y-77714285D01*
X90880952Y-77666666D01*
X91023810Y-77666666D01*
X91214286Y-77714285D01*
X91309524Y-77761904D01*
X91404762Y-77857142D01*
X91452381Y-78000000D01*
X91452381Y-78238095D01*
X90547619Y-77285714D02*
X90500000Y-77238095D01*
X90452381Y-77142857D01*
X90452381Y-76904761D01*
X90500000Y-76809523D01*
X90547619Y-76761904D01*
X90642857Y-76714285D01*
X90738095Y-76714285D01*
X90880952Y-76761904D01*
X91452381Y-77333333D01*
X91452381Y-76714285D01*
X92952381Y-78238095D02*
X91952381Y-78238095D01*
X91952381Y-78000000D01*
X92000000Y-77857142D01*
X92095238Y-77761904D01*
X92190476Y-77714285D01*
X92380952Y-77666666D01*
X92523810Y-77666666D01*
X92714286Y-77714285D01*
X92809524Y-77761904D01*
X92904762Y-77857142D01*
X92952381Y-78000000D01*
X92952381Y-78238095D01*
X91952381Y-77333333D02*
X91952381Y-76714285D01*
X92333333Y-77047619D01*
X92333333Y-76904761D01*
X92380952Y-76809523D01*
X92428571Y-76761904D01*
X92523810Y-76714285D01*
X92761905Y-76714285D01*
X92857143Y-76761904D01*
X92904762Y-76809523D01*
X92952381Y-76904761D01*
X92952381Y-77190476D01*
X92904762Y-77285714D01*
X92857143Y-77333333D01*
X94452381Y-78238095D02*
X93452381Y-78238095D01*
X93452381Y-78000000D01*
X93500000Y-77857142D01*
X93595238Y-77761904D01*
X93690476Y-77714285D01*
X93880952Y-77666666D01*
X94023810Y-77666666D01*
X94214286Y-77714285D01*
X94309524Y-77761904D01*
X94404762Y-77857142D01*
X94452381Y-78000000D01*
X94452381Y-78238095D01*
X93785714Y-76809523D02*
X94452381Y-76809523D01*
X93404762Y-77047619D02*
X94119048Y-77285714D01*
X94119048Y-76666666D01*
X95952381Y-78238095D02*
X94952381Y-78238095D01*
X94952381Y-78000000D01*
X95000000Y-77857142D01*
X95095238Y-77761904D01*
X95190476Y-77714285D01*
X95380952Y-77666666D01*
X95523810Y-77666666D01*
X95714286Y-77714285D01*
X95809524Y-77761904D01*
X95904762Y-77857142D01*
X95952381Y-78000000D01*
X95952381Y-78238095D01*
X94952381Y-76761904D02*
X94952381Y-77238095D01*
X95428571Y-77285714D01*
X95380952Y-77238095D01*
X95333333Y-77142857D01*
X95333333Y-76904761D01*
X95380952Y-76809523D01*
X95428571Y-76761904D01*
X95523810Y-76714285D01*
X95761905Y-76714285D01*
X95857143Y-76761904D01*
X95904762Y-76809523D01*
X95952381Y-76904761D01*
X95952381Y-77142857D01*
X95904762Y-77238095D01*
X95857143Y-77285714D01*
X103761905Y-155452381D02*
X103761905Y-154452381D01*
X104142858Y-154452381D01*
X104238096Y-154500000D01*
X104285715Y-154547619D01*
X104333334Y-154642857D01*
X104333334Y-154785714D01*
X104285715Y-154880952D01*
X104238096Y-154928571D01*
X104142858Y-154976190D01*
X103761905Y-154976190D01*
X104666667Y-154452381D02*
X105285715Y-154452381D01*
X104952381Y-154833333D01*
X105095239Y-154833333D01*
X105190477Y-154880952D01*
X105238096Y-154928571D01*
X105285715Y-155023810D01*
X105285715Y-155261905D01*
X105238096Y-155357143D01*
X105190477Y-155404762D01*
X105095239Y-155452381D01*
X104809524Y-155452381D01*
X104714286Y-155404762D01*
X104666667Y-155357143D01*
X81261905Y-155202381D02*
X81261905Y-154202381D01*
X81642858Y-154202381D01*
X81738096Y-154250000D01*
X81785715Y-154297619D01*
X81833334Y-154392857D01*
X81833334Y-154535714D01*
X81785715Y-154630952D01*
X81738096Y-154678571D01*
X81642858Y-154726190D01*
X81261905Y-154726190D01*
X82690477Y-154535714D02*
X82690477Y-155202381D01*
X82452381Y-154154762D02*
X82214286Y-154869048D01*
X82833334Y-154869048D01*
X58761905Y-155452381D02*
X58761905Y-154452381D01*
X59142858Y-154452381D01*
X59238096Y-154500000D01*
X59285715Y-154547619D01*
X59333334Y-154642857D01*
X59333334Y-154785714D01*
X59285715Y-154880952D01*
X59238096Y-154928571D01*
X59142858Y-154976190D01*
X58761905Y-154976190D01*
X60238096Y-154452381D02*
X59761905Y-154452381D01*
X59714286Y-154928571D01*
X59761905Y-154880952D01*
X59857143Y-154833333D01*
X60095239Y-154833333D01*
X60190477Y-154880952D01*
X60238096Y-154928571D01*
X60285715Y-155023810D01*
X60285715Y-155261905D01*
X60238096Y-155357143D01*
X60190477Y-155404762D01*
X60095239Y-155452381D01*
X59857143Y-155452381D01*
X59761905Y-155404762D01*
X59714286Y-155357143D01*
X79333334Y-71452381D02*
X79000000Y-70976190D01*
X78761905Y-71452381D02*
X78761905Y-70452381D01*
X79142858Y-70452381D01*
X79238096Y-70500000D01*
X79285715Y-70547619D01*
X79333334Y-70642857D01*
X79333334Y-70785714D01*
X79285715Y-70880952D01*
X79238096Y-70928571D01*
X79142858Y-70976190D01*
X78761905Y-70976190D01*
X80285715Y-71452381D02*
X79714286Y-71452381D01*
X80000000Y-71452381D02*
X80000000Y-70452381D01*
X79904762Y-70595238D01*
X79809524Y-70690476D01*
X79714286Y-70738095D01*
X85583334Y-108702381D02*
X85250000Y-108226190D01*
X85011905Y-108702381D02*
X85011905Y-107702381D01*
X85392858Y-107702381D01*
X85488096Y-107750000D01*
X85535715Y-107797619D01*
X85583334Y-107892857D01*
X85583334Y-108035714D01*
X85535715Y-108130952D01*
X85488096Y-108178571D01*
X85392858Y-108226190D01*
X85011905Y-108226190D01*
X85916667Y-107702381D02*
X86535715Y-107702381D01*
X86202381Y-108083333D01*
X86345239Y-108083333D01*
X86440477Y-108130952D01*
X86488096Y-108178571D01*
X86535715Y-108273810D01*
X86535715Y-108511905D01*
X86488096Y-108607143D01*
X86440477Y-108654762D01*
X86345239Y-108702381D01*
X86059524Y-108702381D01*
X85964286Y-108654762D01*
X85916667Y-108607143D01*
X92083334Y-108702381D02*
X91750000Y-108226190D01*
X91511905Y-108702381D02*
X91511905Y-107702381D01*
X91892858Y-107702381D01*
X91988096Y-107750000D01*
X92035715Y-107797619D01*
X92083334Y-107892857D01*
X92083334Y-108035714D01*
X92035715Y-108130952D01*
X91988096Y-108178571D01*
X91892858Y-108226190D01*
X91511905Y-108226190D01*
X92940477Y-108035714D02*
X92940477Y-108702381D01*
X92702381Y-107654762D02*
X92464286Y-108369048D01*
X93083334Y-108369048D01*
X73833334Y-108702381D02*
X73500000Y-108226190D01*
X73261905Y-108702381D02*
X73261905Y-107702381D01*
X73642858Y-107702381D01*
X73738096Y-107750000D01*
X73785715Y-107797619D01*
X73833334Y-107892857D01*
X73833334Y-108035714D01*
X73785715Y-108130952D01*
X73738096Y-108178571D01*
X73642858Y-108226190D01*
X73261905Y-108226190D01*
X74738096Y-107702381D02*
X74261905Y-107702381D01*
X74214286Y-108178571D01*
X74261905Y-108130952D01*
X74357143Y-108083333D01*
X74595239Y-108083333D01*
X74690477Y-108130952D01*
X74738096Y-108178571D01*
X74785715Y-108273810D01*
X74785715Y-108511905D01*
X74738096Y-108607143D01*
X74690477Y-108654762D01*
X74595239Y-108702381D01*
X74357143Y-108702381D01*
X74261905Y-108654762D01*
X74214286Y-108607143D01*
X80583334Y-108702381D02*
X80250000Y-108226190D01*
X80011905Y-108702381D02*
X80011905Y-107702381D01*
X80392858Y-107702381D01*
X80488096Y-107750000D01*
X80535715Y-107797619D01*
X80583334Y-107892857D01*
X80583334Y-108035714D01*
X80535715Y-108130952D01*
X80488096Y-108178571D01*
X80392858Y-108226190D01*
X80011905Y-108226190D01*
X81440477Y-107702381D02*
X81250000Y-107702381D01*
X81154762Y-107750000D01*
X81107143Y-107797619D01*
X81011905Y-107940476D01*
X80964286Y-108130952D01*
X80964286Y-108511905D01*
X81011905Y-108607143D01*
X81059524Y-108654762D01*
X81154762Y-108702381D01*
X81345239Y-108702381D01*
X81440477Y-108654762D01*
X81488096Y-108607143D01*
X81535715Y-108511905D01*
X81535715Y-108273810D01*
X81488096Y-108178571D01*
X81440477Y-108130952D01*
X81345239Y-108083333D01*
X81154762Y-108083333D01*
X81059524Y-108130952D01*
X81011905Y-108178571D01*
X80964286Y-108273810D01*
X92702381Y-106416666D02*
X92226190Y-106750000D01*
X92702381Y-106988095D02*
X91702381Y-106988095D01*
X91702381Y-106607142D01*
X91750000Y-106511904D01*
X91797619Y-106464285D01*
X91892857Y-106416666D01*
X92035714Y-106416666D01*
X92130952Y-106464285D01*
X92178571Y-106511904D01*
X92226190Y-106607142D01*
X92226190Y-106988095D01*
X91702381Y-106083333D02*
X91702381Y-105416666D01*
X92702381Y-105845238D01*
X86452381Y-106416666D02*
X85976190Y-106750000D01*
X86452381Y-106988095D02*
X85452381Y-106988095D01*
X85452381Y-106607142D01*
X85500000Y-106511904D01*
X85547619Y-106464285D01*
X85642857Y-106416666D01*
X85785714Y-106416666D01*
X85880952Y-106464285D01*
X85928571Y-106511904D01*
X85976190Y-106607142D01*
X85976190Y-106988095D01*
X85880952Y-105845238D02*
X85833333Y-105940476D01*
X85785714Y-105988095D01*
X85690476Y-106035714D01*
X85642857Y-106035714D01*
X85547619Y-105988095D01*
X85500000Y-105940476D01*
X85452381Y-105845238D01*
X85452381Y-105654761D01*
X85500000Y-105559523D01*
X85547619Y-105511904D01*
X85642857Y-105464285D01*
X85690476Y-105464285D01*
X85785714Y-105511904D01*
X85833333Y-105559523D01*
X85880952Y-105654761D01*
X85880952Y-105845238D01*
X85928571Y-105940476D01*
X85976190Y-105988095D01*
X86071429Y-106035714D01*
X86261905Y-106035714D01*
X86357143Y-105988095D01*
X86404762Y-105940476D01*
X86452381Y-105845238D01*
X86452381Y-105654761D01*
X86404762Y-105559523D01*
X86357143Y-105511904D01*
X86261905Y-105464285D01*
X86071429Y-105464285D01*
X85976190Y-105511904D01*
X85928571Y-105559523D01*
X85880952Y-105654761D01*
X81202381Y-106416666D02*
X80726190Y-106750000D01*
X81202381Y-106988095D02*
X80202381Y-106988095D01*
X80202381Y-106607142D01*
X80250000Y-106511904D01*
X80297619Y-106464285D01*
X80392857Y-106416666D01*
X80535714Y-106416666D01*
X80630952Y-106464285D01*
X80678571Y-106511904D01*
X80726190Y-106607142D01*
X80726190Y-106988095D01*
X81202381Y-105940476D02*
X81202381Y-105750000D01*
X81154762Y-105654761D01*
X81107143Y-105607142D01*
X80964286Y-105511904D01*
X80773810Y-105464285D01*
X80392857Y-105464285D01*
X80297619Y-105511904D01*
X80250000Y-105559523D01*
X80202381Y-105654761D01*
X80202381Y-105845238D01*
X80250000Y-105940476D01*
X80297619Y-105988095D01*
X80392857Y-106035714D01*
X80630952Y-106035714D01*
X80726190Y-105988095D01*
X80773810Y-105940476D01*
X80821429Y-105845238D01*
X80821429Y-105654761D01*
X80773810Y-105559523D01*
X80726190Y-105511904D01*
X80630952Y-105464285D01*
X74952381Y-106892857D02*
X74476190Y-107226191D01*
X74952381Y-107464286D02*
X73952381Y-107464286D01*
X73952381Y-107083333D01*
X74000000Y-106988095D01*
X74047619Y-106940476D01*
X74142857Y-106892857D01*
X74285714Y-106892857D01*
X74380952Y-106940476D01*
X74428571Y-106988095D01*
X74476190Y-107083333D01*
X74476190Y-107464286D01*
X74952381Y-105940476D02*
X74952381Y-106511905D01*
X74952381Y-106226191D02*
X73952381Y-106226191D01*
X74095238Y-106321429D01*
X74190476Y-106416667D01*
X74238095Y-106511905D01*
X73952381Y-105321429D02*
X73952381Y-105226190D01*
X74000000Y-105130952D01*
X74047619Y-105083333D01*
X74142857Y-105035714D01*
X74333333Y-104988095D01*
X74571429Y-104988095D01*
X74761905Y-105035714D01*
X74857143Y-105083333D01*
X74904762Y-105130952D01*
X74952381Y-105226190D01*
X74952381Y-105321429D01*
X74904762Y-105416667D01*
X74857143Y-105464286D01*
X74761905Y-105511905D01*
X74571429Y-105559524D01*
X74333333Y-105559524D01*
X74142857Y-105511905D01*
X74047619Y-105464286D01*
X74000000Y-105416667D01*
X73952381Y-105321429D01*
X85107143Y-104202381D02*
X84773809Y-103726190D01*
X84535714Y-104202381D02*
X84535714Y-103202381D01*
X84916667Y-103202381D01*
X85011905Y-103250000D01*
X85059524Y-103297619D01*
X85107143Y-103392857D01*
X85107143Y-103535714D01*
X85059524Y-103630952D01*
X85011905Y-103678571D01*
X84916667Y-103726190D01*
X84535714Y-103726190D01*
X86059524Y-104202381D02*
X85488095Y-104202381D01*
X85773809Y-104202381D02*
X85773809Y-103202381D01*
X85678571Y-103345238D01*
X85583333Y-103440476D01*
X85488095Y-103488095D01*
X87011905Y-104202381D02*
X86440476Y-104202381D01*
X86726190Y-104202381D02*
X86726190Y-103202381D01*
X86630952Y-103345238D01*
X86535714Y-103440476D01*
X86440476Y-103488095D01*
X91607143Y-104202381D02*
X91273809Y-103726190D01*
X91035714Y-104202381D02*
X91035714Y-103202381D01*
X91416667Y-103202381D01*
X91511905Y-103250000D01*
X91559524Y-103297619D01*
X91607143Y-103392857D01*
X91607143Y-103535714D01*
X91559524Y-103630952D01*
X91511905Y-103678571D01*
X91416667Y-103726190D01*
X91035714Y-103726190D01*
X92559524Y-104202381D02*
X91988095Y-104202381D01*
X92273809Y-104202381D02*
X92273809Y-103202381D01*
X92178571Y-103345238D01*
X92083333Y-103440476D01*
X91988095Y-103488095D01*
X92940476Y-103297619D02*
X92988095Y-103250000D01*
X93083333Y-103202381D01*
X93321429Y-103202381D01*
X93416667Y-103250000D01*
X93464286Y-103297619D01*
X93511905Y-103392857D01*
X93511905Y-103488095D01*
X93464286Y-103630952D01*
X92892857Y-104202381D01*
X93511905Y-104202381D01*
X73357143Y-104202381D02*
X73023809Y-103726190D01*
X72785714Y-104202381D02*
X72785714Y-103202381D01*
X73166667Y-103202381D01*
X73261905Y-103250000D01*
X73309524Y-103297619D01*
X73357143Y-103392857D01*
X73357143Y-103535714D01*
X73309524Y-103630952D01*
X73261905Y-103678571D01*
X73166667Y-103726190D01*
X72785714Y-103726190D01*
X74309524Y-104202381D02*
X73738095Y-104202381D01*
X74023809Y-104202381D02*
X74023809Y-103202381D01*
X73928571Y-103345238D01*
X73833333Y-103440476D01*
X73738095Y-103488095D01*
X74642857Y-103202381D02*
X75261905Y-103202381D01*
X74928571Y-103583333D01*
X75071429Y-103583333D01*
X75166667Y-103630952D01*
X75214286Y-103678571D01*
X75261905Y-103773810D01*
X75261905Y-104011905D01*
X75214286Y-104107143D01*
X75166667Y-104154762D01*
X75071429Y-104202381D01*
X74785714Y-104202381D01*
X74690476Y-104154762D01*
X74642857Y-104107143D01*
X80107143Y-104202381D02*
X79773809Y-103726190D01*
X79535714Y-104202381D02*
X79535714Y-103202381D01*
X79916667Y-103202381D01*
X80011905Y-103250000D01*
X80059524Y-103297619D01*
X80107143Y-103392857D01*
X80107143Y-103535714D01*
X80059524Y-103630952D01*
X80011905Y-103678571D01*
X79916667Y-103726190D01*
X79535714Y-103726190D01*
X81059524Y-104202381D02*
X80488095Y-104202381D01*
X80773809Y-104202381D02*
X80773809Y-103202381D01*
X80678571Y-103345238D01*
X80583333Y-103440476D01*
X80488095Y-103488095D01*
X81916667Y-103535714D02*
X81916667Y-104202381D01*
X81678571Y-103154762D02*
X81440476Y-103869048D01*
X82059524Y-103869048D01*
X93738095Y-66202381D02*
X93738095Y-67011905D01*
X93785714Y-67107143D01*
X93833333Y-67154762D01*
X93928571Y-67202381D01*
X94119048Y-67202381D01*
X94214286Y-67154762D01*
X94261905Y-67107143D01*
X94309524Y-67011905D01*
X94309524Y-66202381D01*
X95309524Y-67202381D02*
X94738095Y-67202381D01*
X95023809Y-67202381D02*
X95023809Y-66202381D01*
X94928571Y-66345238D01*
X94833333Y-66440476D01*
X94738095Y-66488095D01*
X83607143Y-131892857D02*
X83654762Y-131940476D01*
X83702381Y-132083333D01*
X83702381Y-132178571D01*
X83654762Y-132321429D01*
X83559524Y-132416667D01*
X83464286Y-132464286D01*
X83273810Y-132511905D01*
X83130952Y-132511905D01*
X82940476Y-132464286D01*
X82845238Y-132416667D01*
X82750000Y-132321429D01*
X82702381Y-132178571D01*
X82702381Y-132083333D01*
X82750000Y-131940476D01*
X82797619Y-131892857D01*
X82797619Y-131511905D02*
X82750000Y-131464286D01*
X82702381Y-131369048D01*
X82702381Y-131130952D01*
X82750000Y-131035714D01*
X82797619Y-130988095D01*
X82892857Y-130940476D01*
X82988095Y-130940476D01*
X83130952Y-130988095D01*
X83702381Y-131559524D01*
X83702381Y-130940476D01*
X82702381Y-130321429D02*
X82702381Y-130226190D01*
X82750000Y-130130952D01*
X82797619Y-130083333D01*
X82892857Y-130035714D01*
X83083333Y-129988095D01*
X83321429Y-129988095D01*
X83511905Y-130035714D01*
X83607143Y-130083333D01*
X83654762Y-130130952D01*
X83702381Y-130226190D01*
X83702381Y-130321429D01*
X83654762Y-130416667D01*
X83607143Y-130464286D01*
X83511905Y-130511905D01*
X83321429Y-130559524D01*
X83083333Y-130559524D01*
X82892857Y-130511905D01*
X82797619Y-130464286D01*
X82750000Y-130416667D01*
X82702381Y-130321429D01*
X90107143Y-131892857D02*
X90154762Y-131940476D01*
X90202381Y-132083333D01*
X90202381Y-132178571D01*
X90154762Y-132321429D01*
X90059524Y-132416667D01*
X89964286Y-132464286D01*
X89773810Y-132511905D01*
X89630952Y-132511905D01*
X89440476Y-132464286D01*
X89345238Y-132416667D01*
X89250000Y-132321429D01*
X89202381Y-132178571D01*
X89202381Y-132083333D01*
X89250000Y-131940476D01*
X89297619Y-131892857D01*
X89297619Y-131511905D02*
X89250000Y-131464286D01*
X89202381Y-131369048D01*
X89202381Y-131130952D01*
X89250000Y-131035714D01*
X89297619Y-130988095D01*
X89392857Y-130940476D01*
X89488095Y-130940476D01*
X89630952Y-130988095D01*
X90202381Y-131559524D01*
X90202381Y-130940476D01*
X90202381Y-129988095D02*
X90202381Y-130559524D01*
X90202381Y-130273810D02*
X89202381Y-130273810D01*
X89345238Y-130369048D01*
X89440476Y-130464286D01*
X89488095Y-130559524D01*
X72107143Y-131892857D02*
X72154762Y-131940476D01*
X72202381Y-132083333D01*
X72202381Y-132178571D01*
X72154762Y-132321429D01*
X72059524Y-132416667D01*
X71964286Y-132464286D01*
X71773810Y-132511905D01*
X71630952Y-132511905D01*
X71440476Y-132464286D01*
X71345238Y-132416667D01*
X71250000Y-132321429D01*
X71202381Y-132178571D01*
X71202381Y-132083333D01*
X71250000Y-131940476D01*
X71297619Y-131892857D01*
X71297619Y-131511905D02*
X71250000Y-131464286D01*
X71202381Y-131369048D01*
X71202381Y-131130952D01*
X71250000Y-131035714D01*
X71297619Y-130988095D01*
X71392857Y-130940476D01*
X71488095Y-130940476D01*
X71630952Y-130988095D01*
X72202381Y-131559524D01*
X72202381Y-130940476D01*
X71297619Y-130559524D02*
X71250000Y-130511905D01*
X71202381Y-130416667D01*
X71202381Y-130178571D01*
X71250000Y-130083333D01*
X71297619Y-130035714D01*
X71392857Y-129988095D01*
X71488095Y-129988095D01*
X71630952Y-130035714D01*
X72202381Y-130607143D01*
X72202381Y-129988095D01*
X78607143Y-131892857D02*
X78654762Y-131940476D01*
X78702381Y-132083333D01*
X78702381Y-132178571D01*
X78654762Y-132321429D01*
X78559524Y-132416667D01*
X78464286Y-132464286D01*
X78273810Y-132511905D01*
X78130952Y-132511905D01*
X77940476Y-132464286D01*
X77845238Y-132416667D01*
X77750000Y-132321429D01*
X77702381Y-132178571D01*
X77702381Y-132083333D01*
X77750000Y-131940476D01*
X77797619Y-131892857D01*
X77797619Y-131511905D02*
X77750000Y-131464286D01*
X77702381Y-131369048D01*
X77702381Y-131130952D01*
X77750000Y-131035714D01*
X77797619Y-130988095D01*
X77892857Y-130940476D01*
X77988095Y-130940476D01*
X78130952Y-130988095D01*
X78702381Y-131559524D01*
X78702381Y-130940476D01*
X77702381Y-130607143D02*
X77702381Y-129988095D01*
X78083333Y-130321429D01*
X78083333Y-130178571D01*
X78130952Y-130083333D01*
X78178571Y-130035714D01*
X78273810Y-129988095D01*
X78511905Y-129988095D01*
X78607143Y-130035714D01*
X78654762Y-130083333D01*
X78702381Y-130178571D01*
X78702381Y-130464286D01*
X78654762Y-130559524D01*
X78607143Y-130607143D01*
X94857143Y-116392857D02*
X94904762Y-116440476D01*
X94952381Y-116583333D01*
X94952381Y-116678571D01*
X94904762Y-116821429D01*
X94809524Y-116916667D01*
X94714286Y-116964286D01*
X94523810Y-117011905D01*
X94380952Y-117011905D01*
X94190476Y-116964286D01*
X94095238Y-116916667D01*
X94000000Y-116821429D01*
X93952381Y-116678571D01*
X93952381Y-116583333D01*
X94000000Y-116440476D01*
X94047619Y-116392857D01*
X94047619Y-116011905D02*
X94000000Y-115964286D01*
X93952381Y-115869048D01*
X93952381Y-115630952D01*
X94000000Y-115535714D01*
X94047619Y-115488095D01*
X94142857Y-115440476D01*
X94238095Y-115440476D01*
X94380952Y-115488095D01*
X94952381Y-116059524D01*
X94952381Y-115440476D01*
X94285714Y-114583333D02*
X94952381Y-114583333D01*
X93904762Y-114821429D02*
X94619048Y-115059524D01*
X94619048Y-114440476D01*
X96357143Y-116392857D02*
X96404762Y-116440476D01*
X96452381Y-116583333D01*
X96452381Y-116678571D01*
X96404762Y-116821429D01*
X96309524Y-116916667D01*
X96214286Y-116964286D01*
X96023810Y-117011905D01*
X95880952Y-117011905D01*
X95690476Y-116964286D01*
X95595238Y-116916667D01*
X95500000Y-116821429D01*
X95452381Y-116678571D01*
X95452381Y-116583333D01*
X95500000Y-116440476D01*
X95547619Y-116392857D01*
X95547619Y-116011905D02*
X95500000Y-115964286D01*
X95452381Y-115869048D01*
X95452381Y-115630952D01*
X95500000Y-115535714D01*
X95547619Y-115488095D01*
X95642857Y-115440476D01*
X95738095Y-115440476D01*
X95880952Y-115488095D01*
X96452381Y-116059524D01*
X96452381Y-115440476D01*
X95452381Y-114535714D02*
X95452381Y-115011905D01*
X95928571Y-115059524D01*
X95880952Y-115011905D01*
X95833333Y-114916667D01*
X95833333Y-114678571D01*
X95880952Y-114583333D01*
X95928571Y-114535714D01*
X96023810Y-114488095D01*
X96261905Y-114488095D01*
X96357143Y-114535714D01*
X96404762Y-114583333D01*
X96452381Y-114678571D01*
X96452381Y-114916667D01*
X96404762Y-115011905D01*
X96357143Y-115059524D01*
X97857143Y-116392857D02*
X97904762Y-116440476D01*
X97952381Y-116583333D01*
X97952381Y-116678571D01*
X97904762Y-116821429D01*
X97809524Y-116916667D01*
X97714286Y-116964286D01*
X97523810Y-117011905D01*
X97380952Y-117011905D01*
X97190476Y-116964286D01*
X97095238Y-116916667D01*
X97000000Y-116821429D01*
X96952381Y-116678571D01*
X96952381Y-116583333D01*
X97000000Y-116440476D01*
X97047619Y-116392857D01*
X97047619Y-116011905D02*
X97000000Y-115964286D01*
X96952381Y-115869048D01*
X96952381Y-115630952D01*
X97000000Y-115535714D01*
X97047619Y-115488095D01*
X97142857Y-115440476D01*
X97238095Y-115440476D01*
X97380952Y-115488095D01*
X97952381Y-116059524D01*
X97952381Y-115440476D01*
X96952381Y-114583333D02*
X96952381Y-114773810D01*
X97000000Y-114869048D01*
X97047619Y-114916667D01*
X97190476Y-115011905D01*
X97380952Y-115059524D01*
X97761905Y-115059524D01*
X97857143Y-115011905D01*
X97904762Y-114964286D01*
X97952381Y-114869048D01*
X97952381Y-114678571D01*
X97904762Y-114583333D01*
X97857143Y-114535714D01*
X97761905Y-114488095D01*
X97523810Y-114488095D01*
X97428571Y-114535714D01*
X97380952Y-114583333D01*
X97333333Y-114678571D01*
X97333333Y-114869048D01*
X97380952Y-114964286D01*
X97428571Y-115011905D01*
X97523810Y-115059524D01*
X99357143Y-116392857D02*
X99404762Y-116440476D01*
X99452381Y-116583333D01*
X99452381Y-116678571D01*
X99404762Y-116821429D01*
X99309524Y-116916667D01*
X99214286Y-116964286D01*
X99023810Y-117011905D01*
X98880952Y-117011905D01*
X98690476Y-116964286D01*
X98595238Y-116916667D01*
X98500000Y-116821429D01*
X98452381Y-116678571D01*
X98452381Y-116583333D01*
X98500000Y-116440476D01*
X98547619Y-116392857D01*
X98547619Y-116011905D02*
X98500000Y-115964286D01*
X98452381Y-115869048D01*
X98452381Y-115630952D01*
X98500000Y-115535714D01*
X98547619Y-115488095D01*
X98642857Y-115440476D01*
X98738095Y-115440476D01*
X98880952Y-115488095D01*
X99452381Y-116059524D01*
X99452381Y-115440476D01*
X98452381Y-115107143D02*
X98452381Y-114440476D01*
X99452381Y-114869048D01*
X67857143Y-116392857D02*
X67904762Y-116440476D01*
X67952381Y-116583333D01*
X67952381Y-116678571D01*
X67904762Y-116821429D01*
X67809524Y-116916667D01*
X67714286Y-116964286D01*
X67523810Y-117011905D01*
X67380952Y-117011905D01*
X67190476Y-116964286D01*
X67095238Y-116916667D01*
X67000000Y-116821429D01*
X66952381Y-116678571D01*
X66952381Y-116583333D01*
X67000000Y-116440476D01*
X67047619Y-116392857D01*
X66952381Y-116059524D02*
X66952381Y-115440476D01*
X67333333Y-115773810D01*
X67333333Y-115630952D01*
X67380952Y-115535714D01*
X67428571Y-115488095D01*
X67523810Y-115440476D01*
X67761905Y-115440476D01*
X67857143Y-115488095D01*
X67904762Y-115535714D01*
X67952381Y-115630952D01*
X67952381Y-115916667D01*
X67904762Y-116011905D01*
X67857143Y-116059524D01*
X66952381Y-114821429D02*
X66952381Y-114726190D01*
X67000000Y-114630952D01*
X67047619Y-114583333D01*
X67142857Y-114535714D01*
X67333333Y-114488095D01*
X67571429Y-114488095D01*
X67761905Y-114535714D01*
X67857143Y-114583333D01*
X67904762Y-114630952D01*
X67952381Y-114726190D01*
X67952381Y-114821429D01*
X67904762Y-114916667D01*
X67857143Y-114964286D01*
X67761905Y-115011905D01*
X67571429Y-115059524D01*
X67333333Y-115059524D01*
X67142857Y-115011905D01*
X67047619Y-114964286D01*
X67000000Y-114916667D01*
X66952381Y-114821429D01*
X55761905Y-69852381D02*
X55761905Y-68852381D01*
X56142858Y-68852381D01*
X56238096Y-68900000D01*
X56285715Y-68947619D01*
X56333334Y-69042857D01*
X56333334Y-69185714D01*
X56285715Y-69280952D01*
X56238096Y-69328571D01*
X56142858Y-69376190D01*
X55761905Y-69376190D01*
X57190477Y-68852381D02*
X57000000Y-68852381D01*
X56904762Y-68900000D01*
X56857143Y-68947619D01*
X56761905Y-69090476D01*
X56714286Y-69280952D01*
X56714286Y-69661905D01*
X56761905Y-69757143D01*
X56809524Y-69804762D01*
X56904762Y-69852381D01*
X57095239Y-69852381D01*
X57190477Y-69804762D01*
X57238096Y-69757143D01*
X57285715Y-69661905D01*
X57285715Y-69423810D01*
X57238096Y-69328571D01*
X57190477Y-69280952D01*
X57095239Y-69233333D01*
X56904762Y-69233333D01*
X56809524Y-69280952D01*
X56761905Y-69328571D01*
X56714286Y-69423810D01*
X71833334Y-68452381D02*
X71500000Y-67976190D01*
X71261905Y-68452381D02*
X71261905Y-67452381D01*
X71642858Y-67452381D01*
X71738096Y-67500000D01*
X71785715Y-67547619D01*
X71833334Y-67642857D01*
X71833334Y-67785714D01*
X71785715Y-67880952D01*
X71738096Y-67928571D01*
X71642858Y-67976190D01*
X71261905Y-67976190D01*
X72214286Y-67547619D02*
X72261905Y-67500000D01*
X72357143Y-67452381D01*
X72595239Y-67452381D01*
X72690477Y-67500000D01*
X72738096Y-67547619D01*
X72785715Y-67642857D01*
X72785715Y-67738095D01*
X72738096Y-67880952D01*
X72166667Y-68452381D01*
X72785715Y-68452381D01*
X89952381Y-85642857D02*
X89476190Y-85976191D01*
X89952381Y-86214286D02*
X88952381Y-86214286D01*
X88952381Y-85833333D01*
X89000000Y-85738095D01*
X89047619Y-85690476D01*
X89142857Y-85642857D01*
X89285714Y-85642857D01*
X89380952Y-85690476D01*
X89428571Y-85738095D01*
X89476190Y-85833333D01*
X89476190Y-86214286D01*
X89952381Y-84690476D02*
X89952381Y-85261905D01*
X89952381Y-84976191D02*
X88952381Y-84976191D01*
X89095238Y-85071429D01*
X89190476Y-85166667D01*
X89238095Y-85261905D01*
X88952381Y-83785714D02*
X88952381Y-84261905D01*
X89428571Y-84309524D01*
X89380952Y-84261905D01*
X89333333Y-84166667D01*
X89333333Y-83928571D01*
X89380952Y-83833333D01*
X89428571Y-83785714D01*
X89523810Y-83738095D01*
X89761905Y-83738095D01*
X89857143Y-83785714D01*
X89904762Y-83833333D01*
X89952381Y-83928571D01*
X89952381Y-84166667D01*
X89904762Y-84261905D01*
X89857143Y-84309524D01*
X91452381Y-85642857D02*
X90976190Y-85976191D01*
X91452381Y-86214286D02*
X90452381Y-86214286D01*
X90452381Y-85833333D01*
X90500000Y-85738095D01*
X90547619Y-85690476D01*
X90642857Y-85642857D01*
X90785714Y-85642857D01*
X90880952Y-85690476D01*
X90928571Y-85738095D01*
X90976190Y-85833333D01*
X90976190Y-86214286D01*
X91452381Y-84690476D02*
X91452381Y-85261905D01*
X91452381Y-84976191D02*
X90452381Y-84976191D01*
X90595238Y-85071429D01*
X90690476Y-85166667D01*
X90738095Y-85261905D01*
X90452381Y-83833333D02*
X90452381Y-84023810D01*
X90500000Y-84119048D01*
X90547619Y-84166667D01*
X90690476Y-84261905D01*
X90880952Y-84309524D01*
X91261905Y-84309524D01*
X91357143Y-84261905D01*
X91404762Y-84214286D01*
X91452381Y-84119048D01*
X91452381Y-83928571D01*
X91404762Y-83833333D01*
X91357143Y-83785714D01*
X91261905Y-83738095D01*
X91023810Y-83738095D01*
X90928571Y-83785714D01*
X90880952Y-83833333D01*
X90833333Y-83928571D01*
X90833333Y-84119048D01*
X90880952Y-84214286D01*
X90928571Y-84261905D01*
X91023810Y-84309524D01*
X92952381Y-85642857D02*
X92476190Y-85976191D01*
X92952381Y-86214286D02*
X91952381Y-86214286D01*
X91952381Y-85833333D01*
X92000000Y-85738095D01*
X92047619Y-85690476D01*
X92142857Y-85642857D01*
X92285714Y-85642857D01*
X92380952Y-85690476D01*
X92428571Y-85738095D01*
X92476190Y-85833333D01*
X92476190Y-86214286D01*
X92952381Y-84690476D02*
X92952381Y-85261905D01*
X92952381Y-84976191D02*
X91952381Y-84976191D01*
X92095238Y-85071429D01*
X92190476Y-85166667D01*
X92238095Y-85261905D01*
X91952381Y-84357143D02*
X91952381Y-83690476D01*
X92952381Y-84119048D01*
X94452381Y-85642857D02*
X93976190Y-85976191D01*
X94452381Y-86214286D02*
X93452381Y-86214286D01*
X93452381Y-85833333D01*
X93500000Y-85738095D01*
X93547619Y-85690476D01*
X93642857Y-85642857D01*
X93785714Y-85642857D01*
X93880952Y-85690476D01*
X93928571Y-85738095D01*
X93976190Y-85833333D01*
X93976190Y-86214286D01*
X94452381Y-84690476D02*
X94452381Y-85261905D01*
X94452381Y-84976191D02*
X93452381Y-84976191D01*
X93595238Y-85071429D01*
X93690476Y-85166667D01*
X93738095Y-85261905D01*
X93880952Y-84119048D02*
X93833333Y-84214286D01*
X93785714Y-84261905D01*
X93690476Y-84309524D01*
X93642857Y-84309524D01*
X93547619Y-84261905D01*
X93500000Y-84214286D01*
X93452381Y-84119048D01*
X93452381Y-83928571D01*
X93500000Y-83833333D01*
X93547619Y-83785714D01*
X93642857Y-83738095D01*
X93690476Y-83738095D01*
X93785714Y-83785714D01*
X93833333Y-83833333D01*
X93880952Y-83928571D01*
X93880952Y-84119048D01*
X93928571Y-84214286D01*
X93976190Y-84261905D01*
X94071429Y-84309524D01*
X94261905Y-84309524D01*
X94357143Y-84261905D01*
X94404762Y-84214286D01*
X94452381Y-84119048D01*
X94452381Y-83928571D01*
X94404762Y-83833333D01*
X94357143Y-83785714D01*
X94261905Y-83738095D01*
X94071429Y-83738095D01*
X93976190Y-83785714D01*
X93928571Y-83833333D01*
X93880952Y-83928571D01*
X95952381Y-85642857D02*
X95476190Y-85976191D01*
X95952381Y-86214286D02*
X94952381Y-86214286D01*
X94952381Y-85833333D01*
X95000000Y-85738095D01*
X95047619Y-85690476D01*
X95142857Y-85642857D01*
X95285714Y-85642857D01*
X95380952Y-85690476D01*
X95428571Y-85738095D01*
X95476190Y-85833333D01*
X95476190Y-86214286D01*
X95952381Y-84690476D02*
X95952381Y-85261905D01*
X95952381Y-84976191D02*
X94952381Y-84976191D01*
X95095238Y-85071429D01*
X95190476Y-85166667D01*
X95238095Y-85261905D01*
X95952381Y-84214286D02*
X95952381Y-84023810D01*
X95904762Y-83928571D01*
X95857143Y-83880952D01*
X95714286Y-83785714D01*
X95523810Y-83738095D01*
X95142857Y-83738095D01*
X95047619Y-83785714D01*
X95000000Y-83833333D01*
X94952381Y-83928571D01*
X94952381Y-84119048D01*
X95000000Y-84214286D01*
X95047619Y-84261905D01*
X95142857Y-84309524D01*
X95380952Y-84309524D01*
X95476190Y-84261905D01*
X95523810Y-84214286D01*
X95571429Y-84119048D01*
X95571429Y-83928571D01*
X95523810Y-83833333D01*
X95476190Y-83785714D01*
X95380952Y-83738095D01*
X88238095Y-122952381D02*
X88809524Y-122952381D01*
X88523809Y-123952381D02*
X88523809Y-122952381D01*
X89666667Y-123952381D02*
X89095238Y-123952381D01*
X89380952Y-123952381D02*
X89380952Y-122952381D01*
X89285714Y-123095238D01*
X89190476Y-123190476D01*
X89095238Y-123238095D01*
X76738095Y-122952381D02*
X77309524Y-122952381D01*
X77023809Y-123952381D02*
X77023809Y-122952381D01*
X77595238Y-123047619D02*
X77642857Y-123000000D01*
X77738095Y-122952381D01*
X77976191Y-122952381D01*
X78071429Y-123000000D01*
X78119048Y-123047619D01*
X78166667Y-123142857D01*
X78166667Y-123238095D01*
X78119048Y-123380952D01*
X77547619Y-123952381D01*
X78166667Y-123952381D01*
X82888095Y-86927381D02*
X82888095Y-87736905D01*
X82935714Y-87832143D01*
X82983333Y-87879762D01*
X83078571Y-87927381D01*
X83269048Y-87927381D01*
X83364286Y-87879762D01*
X83411905Y-87832143D01*
X83459524Y-87736905D01*
X83459524Y-86927381D01*
X83840476Y-86927381D02*
X84459524Y-86927381D01*
X84126190Y-87308333D01*
X84269048Y-87308333D01*
X84364286Y-87355952D01*
X84411905Y-87403571D01*
X84459524Y-87498810D01*
X84459524Y-87736905D01*
X84411905Y-87832143D01*
X84364286Y-87879762D01*
X84269048Y-87927381D01*
X83983333Y-87927381D01*
X83888095Y-87879762D01*
X83840476Y-87832143D01*
X69357143Y-116392857D02*
X69404762Y-116440476D01*
X69452381Y-116583333D01*
X69452381Y-116678571D01*
X69404762Y-116821429D01*
X69309524Y-116916667D01*
X69214286Y-116964286D01*
X69023810Y-117011905D01*
X68880952Y-117011905D01*
X68690476Y-116964286D01*
X68595238Y-116916667D01*
X68500000Y-116821429D01*
X68452381Y-116678571D01*
X68452381Y-116583333D01*
X68500000Y-116440476D01*
X68547619Y-116392857D01*
X68452381Y-116059524D02*
X68452381Y-115440476D01*
X68833333Y-115773810D01*
X68833333Y-115630952D01*
X68880952Y-115535714D01*
X68928571Y-115488095D01*
X69023810Y-115440476D01*
X69261905Y-115440476D01*
X69357143Y-115488095D01*
X69404762Y-115535714D01*
X69452381Y-115630952D01*
X69452381Y-115916667D01*
X69404762Y-116011905D01*
X69357143Y-116059524D01*
X69452381Y-114488095D02*
X69452381Y-115059524D01*
X69452381Y-114773810D02*
X68452381Y-114773810D01*
X68595238Y-114869048D01*
X68690476Y-114964286D01*
X68738095Y-115059524D01*
X70857143Y-116392857D02*
X70904762Y-116440476D01*
X70952381Y-116583333D01*
X70952381Y-116678571D01*
X70904762Y-116821429D01*
X70809524Y-116916667D01*
X70714286Y-116964286D01*
X70523810Y-117011905D01*
X70380952Y-117011905D01*
X70190476Y-116964286D01*
X70095238Y-116916667D01*
X70000000Y-116821429D01*
X69952381Y-116678571D01*
X69952381Y-116583333D01*
X70000000Y-116440476D01*
X70047619Y-116392857D01*
X69952381Y-116059524D02*
X69952381Y-115440476D01*
X70333333Y-115773810D01*
X70333333Y-115630952D01*
X70380952Y-115535714D01*
X70428571Y-115488095D01*
X70523810Y-115440476D01*
X70761905Y-115440476D01*
X70857143Y-115488095D01*
X70904762Y-115535714D01*
X70952381Y-115630952D01*
X70952381Y-115916667D01*
X70904762Y-116011905D01*
X70857143Y-116059524D01*
X70047619Y-115059524D02*
X70000000Y-115011905D01*
X69952381Y-114916667D01*
X69952381Y-114678571D01*
X70000000Y-114583333D01*
X70047619Y-114535714D01*
X70142857Y-114488095D01*
X70238095Y-114488095D01*
X70380952Y-114535714D01*
X70952381Y-115107143D01*
X70952381Y-114488095D01*
X72357143Y-116392857D02*
X72404762Y-116440476D01*
X72452381Y-116583333D01*
X72452381Y-116678571D01*
X72404762Y-116821429D01*
X72309524Y-116916667D01*
X72214286Y-116964286D01*
X72023810Y-117011905D01*
X71880952Y-117011905D01*
X71690476Y-116964286D01*
X71595238Y-116916667D01*
X71500000Y-116821429D01*
X71452381Y-116678571D01*
X71452381Y-116583333D01*
X71500000Y-116440476D01*
X71547619Y-116392857D01*
X71452381Y-116059524D02*
X71452381Y-115440476D01*
X71833333Y-115773810D01*
X71833333Y-115630952D01*
X71880952Y-115535714D01*
X71928571Y-115488095D01*
X72023810Y-115440476D01*
X72261905Y-115440476D01*
X72357143Y-115488095D01*
X72404762Y-115535714D01*
X72452381Y-115630952D01*
X72452381Y-115916667D01*
X72404762Y-116011905D01*
X72357143Y-116059524D01*
X71452381Y-115107143D02*
X71452381Y-114488095D01*
X71833333Y-114821429D01*
X71833333Y-114678571D01*
X71880952Y-114583333D01*
X71928571Y-114535714D01*
X72023810Y-114488095D01*
X72261905Y-114488095D01*
X72357143Y-114535714D01*
X72404762Y-114583333D01*
X72452381Y-114678571D01*
X72452381Y-114964286D01*
X72404762Y-115059524D01*
X72357143Y-115107143D01*
X86107143Y-111142857D02*
X86154762Y-111190476D01*
X86202381Y-111333333D01*
X86202381Y-111428571D01*
X86154762Y-111571429D01*
X86059524Y-111666667D01*
X85964286Y-111714286D01*
X85773810Y-111761905D01*
X85630952Y-111761905D01*
X85440476Y-111714286D01*
X85345238Y-111666667D01*
X85250000Y-111571429D01*
X85202381Y-111428571D01*
X85202381Y-111333333D01*
X85250000Y-111190476D01*
X85297619Y-111142857D01*
X85202381Y-110809524D02*
X85202381Y-110190476D01*
X85583333Y-110523810D01*
X85583333Y-110380952D01*
X85630952Y-110285714D01*
X85678571Y-110238095D01*
X85773810Y-110190476D01*
X86011905Y-110190476D01*
X86107143Y-110238095D01*
X86154762Y-110285714D01*
X86202381Y-110380952D01*
X86202381Y-110666667D01*
X86154762Y-110761905D01*
X86107143Y-110809524D01*
X85535714Y-109333333D02*
X86202381Y-109333333D01*
X85154762Y-109571429D02*
X85869048Y-109809524D01*
X85869048Y-109190476D01*
X92607143Y-111142857D02*
X92654762Y-111190476D01*
X92702381Y-111333333D01*
X92702381Y-111428571D01*
X92654762Y-111571429D01*
X92559524Y-111666667D01*
X92464286Y-111714286D01*
X92273810Y-111761905D01*
X92130952Y-111761905D01*
X91940476Y-111714286D01*
X91845238Y-111666667D01*
X91750000Y-111571429D01*
X91702381Y-111428571D01*
X91702381Y-111333333D01*
X91750000Y-111190476D01*
X91797619Y-111142857D01*
X91702381Y-110809524D02*
X91702381Y-110190476D01*
X92083333Y-110523810D01*
X92083333Y-110380952D01*
X92130952Y-110285714D01*
X92178571Y-110238095D01*
X92273810Y-110190476D01*
X92511905Y-110190476D01*
X92607143Y-110238095D01*
X92654762Y-110285714D01*
X92702381Y-110380952D01*
X92702381Y-110666667D01*
X92654762Y-110761905D01*
X92607143Y-110809524D01*
X91702381Y-109285714D02*
X91702381Y-109761905D01*
X92178571Y-109809524D01*
X92130952Y-109761905D01*
X92083333Y-109666667D01*
X92083333Y-109428571D01*
X92130952Y-109333333D01*
X92178571Y-109285714D01*
X92273810Y-109238095D01*
X92511905Y-109238095D01*
X92607143Y-109285714D01*
X92654762Y-109333333D01*
X92702381Y-109428571D01*
X92702381Y-109666667D01*
X92654762Y-109761905D01*
X92607143Y-109809524D01*
X74607143Y-111142857D02*
X74654762Y-111190476D01*
X74702381Y-111333333D01*
X74702381Y-111428571D01*
X74654762Y-111571429D01*
X74559524Y-111666667D01*
X74464286Y-111714286D01*
X74273810Y-111761905D01*
X74130952Y-111761905D01*
X73940476Y-111714286D01*
X73845238Y-111666667D01*
X73750000Y-111571429D01*
X73702381Y-111428571D01*
X73702381Y-111333333D01*
X73750000Y-111190476D01*
X73797619Y-111142857D01*
X73702381Y-110809524D02*
X73702381Y-110190476D01*
X74083333Y-110523810D01*
X74083333Y-110380952D01*
X74130952Y-110285714D01*
X74178571Y-110238095D01*
X74273810Y-110190476D01*
X74511905Y-110190476D01*
X74607143Y-110238095D01*
X74654762Y-110285714D01*
X74702381Y-110380952D01*
X74702381Y-110666667D01*
X74654762Y-110761905D01*
X74607143Y-110809524D01*
X73702381Y-109333333D02*
X73702381Y-109523810D01*
X73750000Y-109619048D01*
X73797619Y-109666667D01*
X73940476Y-109761905D01*
X74130952Y-109809524D01*
X74511905Y-109809524D01*
X74607143Y-109761905D01*
X74654762Y-109714286D01*
X74702381Y-109619048D01*
X74702381Y-109428571D01*
X74654762Y-109333333D01*
X74607143Y-109285714D01*
X74511905Y-109238095D01*
X74273810Y-109238095D01*
X74178571Y-109285714D01*
X74130952Y-109333333D01*
X74083333Y-109428571D01*
X74083333Y-109619048D01*
X74130952Y-109714286D01*
X74178571Y-109761905D01*
X74273810Y-109809524D01*
X81107143Y-111142857D02*
X81154762Y-111190476D01*
X81202381Y-111333333D01*
X81202381Y-111428571D01*
X81154762Y-111571429D01*
X81059524Y-111666667D01*
X80964286Y-111714286D01*
X80773810Y-111761905D01*
X80630952Y-111761905D01*
X80440476Y-111714286D01*
X80345238Y-111666667D01*
X80250000Y-111571429D01*
X80202381Y-111428571D01*
X80202381Y-111333333D01*
X80250000Y-111190476D01*
X80297619Y-111142857D01*
X80202381Y-110809524D02*
X80202381Y-110190476D01*
X80583333Y-110523810D01*
X80583333Y-110380952D01*
X80630952Y-110285714D01*
X80678571Y-110238095D01*
X80773810Y-110190476D01*
X81011905Y-110190476D01*
X81107143Y-110238095D01*
X81154762Y-110285714D01*
X81202381Y-110380952D01*
X81202381Y-110666667D01*
X81154762Y-110761905D01*
X81107143Y-110809524D01*
X80202381Y-109857143D02*
X80202381Y-109190476D01*
X81202381Y-109619048D01*
X80357143Y-80357143D02*
X80309524Y-80404762D01*
X80166667Y-80452381D01*
X80071429Y-80452381D01*
X79928571Y-80404762D01*
X79833333Y-80309524D01*
X79785714Y-80214286D01*
X79738095Y-80023810D01*
X79738095Y-79880952D01*
X79785714Y-79690476D01*
X79833333Y-79595238D01*
X79928571Y-79500000D01*
X80071429Y-79452381D01*
X80166667Y-79452381D01*
X80309524Y-79500000D01*
X80357143Y-79547619D01*
X80690476Y-79452381D02*
X81309524Y-79452381D01*
X80976190Y-79833333D01*
X81119048Y-79833333D01*
X81214286Y-79880952D01*
X81261905Y-79928571D01*
X81309524Y-80023810D01*
X81309524Y-80261905D01*
X81261905Y-80357143D01*
X81214286Y-80404762D01*
X81119048Y-80452381D01*
X80833333Y-80452381D01*
X80738095Y-80404762D01*
X80690476Y-80357143D01*
X81880952Y-79880952D02*
X81785714Y-79833333D01*
X81738095Y-79785714D01*
X81690476Y-79690476D01*
X81690476Y-79642857D01*
X81738095Y-79547619D01*
X81785714Y-79500000D01*
X81880952Y-79452381D01*
X82071429Y-79452381D01*
X82166667Y-79500000D01*
X82214286Y-79547619D01*
X82261905Y-79642857D01*
X82261905Y-79690476D01*
X82214286Y-79785714D01*
X82166667Y-79833333D01*
X82071429Y-79880952D01*
X81880952Y-79880952D01*
X81785714Y-79928571D01*
X81738095Y-79976190D01*
X81690476Y-80071429D01*
X81690476Y-80261905D01*
X81738095Y-80357143D01*
X81785714Y-80404762D01*
X81880952Y-80452381D01*
X82071429Y-80452381D01*
X82166667Y-80404762D01*
X82214286Y-80357143D01*
X82261905Y-80261905D01*
X82261905Y-80071429D01*
X82214286Y-79976190D01*
X82166667Y-79928571D01*
X82071429Y-79880952D01*
X80357143Y-74107143D02*
X80309524Y-74154762D01*
X80166667Y-74202381D01*
X80071429Y-74202381D01*
X79928571Y-74154762D01*
X79833333Y-74059524D01*
X79785714Y-73964286D01*
X79738095Y-73773810D01*
X79738095Y-73630952D01*
X79785714Y-73440476D01*
X79833333Y-73345238D01*
X79928571Y-73250000D01*
X80071429Y-73202381D01*
X80166667Y-73202381D01*
X80309524Y-73250000D01*
X80357143Y-73297619D01*
X80690476Y-73202381D02*
X81309524Y-73202381D01*
X80976190Y-73583333D01*
X81119048Y-73583333D01*
X81214286Y-73630952D01*
X81261905Y-73678571D01*
X81309524Y-73773810D01*
X81309524Y-74011905D01*
X81261905Y-74107143D01*
X81214286Y-74154762D01*
X81119048Y-74202381D01*
X80833333Y-74202381D01*
X80738095Y-74154762D01*
X80690476Y-74107143D01*
X81785714Y-74202381D02*
X81976190Y-74202381D01*
X82071429Y-74154762D01*
X82119048Y-74107143D01*
X82214286Y-73964286D01*
X82261905Y-73773810D01*
X82261905Y-73392857D01*
X82214286Y-73297619D01*
X82166667Y-73250000D01*
X82071429Y-73202381D01*
X81880952Y-73202381D01*
X81785714Y-73250000D01*
X81738095Y-73297619D01*
X81690476Y-73392857D01*
X81690476Y-73630952D01*
X81738095Y-73726190D01*
X81785714Y-73773810D01*
X81880952Y-73821429D01*
X82071429Y-73821429D01*
X82166667Y-73773810D01*
X82214286Y-73726190D01*
X82261905Y-73630952D01*
X85988095Y-67452381D02*
X85988095Y-68261905D01*
X86035714Y-68357143D01*
X86083333Y-68404762D01*
X86178571Y-68452381D01*
X86369048Y-68452381D01*
X86464286Y-68404762D01*
X86511905Y-68357143D01*
X86559524Y-68261905D01*
X86559524Y-67452381D01*
X86988095Y-67547619D02*
X87035714Y-67500000D01*
X87130952Y-67452381D01*
X87369048Y-67452381D01*
X87464286Y-67500000D01*
X87511905Y-67547619D01*
X87559524Y-67642857D01*
X87559524Y-67738095D01*
X87511905Y-67880952D01*
X86940476Y-68452381D01*
X87559524Y-68452381D01*
X70702381Y-76011905D02*
X71511905Y-76011905D01*
X71607143Y-75964286D01*
X71654762Y-75916667D01*
X71702381Y-75821429D01*
X71702381Y-75630952D01*
X71654762Y-75535714D01*
X71607143Y-75488095D01*
X71511905Y-75440476D01*
X70702381Y-75440476D01*
X71035714Y-74535714D02*
X71702381Y-74535714D01*
X70654762Y-74773810D02*
X71369048Y-75011905D01*
X71369048Y-74392857D01*
X100088095Y-138952381D02*
X100088095Y-139761905D01*
X100135714Y-139857143D01*
X100183333Y-139904762D01*
X100278571Y-139952381D01*
X100469048Y-139952381D01*
X100564286Y-139904762D01*
X100611905Y-139857143D01*
X100659524Y-139761905D01*
X100659524Y-138952381D01*
X101611905Y-138952381D02*
X101135714Y-138952381D01*
X101088095Y-139428571D01*
X101135714Y-139380952D01*
X101230952Y-139333333D01*
X101469048Y-139333333D01*
X101564286Y-139380952D01*
X101611905Y-139428571D01*
X101659524Y-139523810D01*
X101659524Y-139761905D01*
X101611905Y-139857143D01*
X101564286Y-139904762D01*
X101469048Y-139952381D01*
X101230952Y-139952381D01*
X101135714Y-139904762D01*
X101088095Y-139857143D01*
X62888095Y-138952381D02*
X62888095Y-139761905D01*
X62935714Y-139857143D01*
X62983333Y-139904762D01*
X63078571Y-139952381D01*
X63269048Y-139952381D01*
X63364286Y-139904762D01*
X63411905Y-139857143D01*
X63459524Y-139761905D01*
X63459524Y-138952381D01*
X64364286Y-138952381D02*
X64173809Y-138952381D01*
X64078571Y-139000000D01*
X64030952Y-139047619D01*
X63935714Y-139190476D01*
X63888095Y-139380952D01*
X63888095Y-139761905D01*
X63935714Y-139857143D01*
X63983333Y-139904762D01*
X64078571Y-139952381D01*
X64269048Y-139952381D01*
X64364286Y-139904762D01*
X64411905Y-139857143D01*
X64459524Y-139761905D01*
X64459524Y-139523810D01*
X64411905Y-139428571D01*
X64364286Y-139380952D01*
X64269048Y-139333333D01*
X64078571Y-139333333D01*
X63983333Y-139380952D01*
X63935714Y-139428571D01*
X63888095Y-139523810D01*
X92107143Y-89357143D02*
X92059524Y-89404762D01*
X91916667Y-89452381D01*
X91821429Y-89452381D01*
X91678571Y-89404762D01*
X91583333Y-89309524D01*
X91535714Y-89214286D01*
X91488095Y-89023810D01*
X91488095Y-88880952D01*
X91535714Y-88690476D01*
X91583333Y-88595238D01*
X91678571Y-88500000D01*
X91821429Y-88452381D01*
X91916667Y-88452381D01*
X92059524Y-88500000D01*
X92107143Y-88547619D01*
X92964286Y-88785714D02*
X92964286Y-89452381D01*
X92726190Y-88404762D02*
X92488095Y-89119048D01*
X93107143Y-89119048D01*
X93678571Y-88452381D02*
X93773810Y-88452381D01*
X93869048Y-88500000D01*
X93916667Y-88547619D01*
X93964286Y-88642857D01*
X94011905Y-88833333D01*
X94011905Y-89071429D01*
X93964286Y-89261905D01*
X93916667Y-89357143D01*
X93869048Y-89404762D01*
X93773810Y-89452381D01*
X93678571Y-89452381D01*
X93583333Y-89404762D01*
X93535714Y-89357143D01*
X93488095Y-89261905D01*
X93440476Y-89071429D01*
X93440476Y-88833333D01*
X93488095Y-88642857D01*
X93535714Y-88547619D01*
X93583333Y-88500000D01*
X93678571Y-88452381D01*
%LPC*%
D12*
X102000000Y-67000000D03*
D13*
X104540000Y-67000000D03*
X102000000Y-69540000D03*
X104540000Y-69540000D03*
X102000000Y-72080000D03*
X104540000Y-72080000D03*
X102000000Y-74620000D03*
X104540000Y-74620000D03*
X102000000Y-77160000D03*
X104540000Y-77160000D03*
X102000000Y-79700000D03*
X104540000Y-79700000D03*
X102000000Y-82240000D03*
X104540000Y-82240000D03*
X102000000Y-84780000D03*
X104540000Y-84780000D03*
X102000000Y-87320000D03*
X104540000Y-87320000D03*
X102000000Y-89860000D03*
X104540000Y-89860000D03*
X102000000Y-92400000D03*
X104540000Y-92400000D03*
X102000000Y-94940000D03*
X104540000Y-94940000D03*
X102000000Y-97480000D03*
X104540000Y-97480000D03*
X102000000Y-100020000D03*
X104540000Y-100020000D03*
X102000000Y-102560000D03*
X104540000Y-102560000D03*
X102000000Y-105100000D03*
X104540000Y-105100000D03*
X102000000Y-107640000D03*
X104540000Y-107640000D03*
X102000000Y-110180000D03*
X104540000Y-110180000D03*
X102000000Y-112720000D03*
X104540000Y-112720000D03*
X102000000Y-115260000D03*
X104540000Y-115260000D03*
D14*
X70100000Y-77750000D03*
X71200000Y-77750000D03*
D15*
X88500000Y-74500000D03*
X86500000Y-74500000D03*
D14*
X88550000Y-73000000D03*
X87450000Y-73000000D03*
D16*
X81250000Y-69600000D03*
X81250000Y-67600000D03*
D17*
X82750000Y-69650000D03*
X82750000Y-68550000D03*
D15*
X78150000Y-86850000D03*
X76150000Y-86850000D03*
D14*
X78150000Y-88400000D03*
X77050000Y-88400000D03*
D17*
X84050000Y-101700000D03*
X84050000Y-100600000D03*
X85210000Y-100590000D03*
X85210000Y-101690000D03*
D16*
X76100000Y-97650000D03*
X76100000Y-99650000D03*
D17*
X77650000Y-97650000D03*
X77650000Y-98750000D03*
D14*
X82960000Y-101010000D03*
X81860000Y-101010000D03*
D17*
X89230000Y-97870000D03*
X89230000Y-98970000D03*
D14*
X90150000Y-96800000D03*
X91250000Y-96800000D03*
D16*
X68150000Y-73500000D03*
X68150000Y-75500000D03*
D17*
X69650000Y-73700000D03*
X69650000Y-74800000D03*
D18*
X74900000Y-72500000D03*
X74900000Y-71000000D03*
D16*
X73400000Y-75000000D03*
X73400000Y-77000000D03*
D17*
X74900000Y-73700000D03*
X74900000Y-74800000D03*
D14*
X88450000Y-103300000D03*
X89550000Y-103300000D03*
X76950000Y-103300000D03*
X78050000Y-103300000D03*
D19*
X89500000Y-80749300D03*
X89500000Y-79250700D03*
X91000000Y-80749300D03*
X91000000Y-79250700D03*
X92500000Y-80749300D03*
X92500000Y-79250700D03*
X94000000Y-80749300D03*
X94000000Y-79250700D03*
X95500000Y-80749300D03*
X95500000Y-79250700D03*
D12*
X60300000Y-67000000D03*
D13*
X62840000Y-67000000D03*
X60300000Y-69540000D03*
X62840000Y-69540000D03*
X60300000Y-72080000D03*
X62840000Y-72080000D03*
X60300000Y-74620000D03*
X62840000Y-74620000D03*
X60300000Y-77160000D03*
X62840000Y-77160000D03*
X60300000Y-79700000D03*
X62840000Y-79700000D03*
X60300000Y-82240000D03*
X62840000Y-82240000D03*
X60300000Y-84780000D03*
X62840000Y-84780000D03*
X60300000Y-87320000D03*
X62840000Y-87320000D03*
X60300000Y-89860000D03*
X62840000Y-89860000D03*
X60300000Y-92400000D03*
X62840000Y-92400000D03*
X60300000Y-94940000D03*
X62840000Y-94940000D03*
X60300000Y-97480000D03*
X62840000Y-97480000D03*
X60300000Y-100020000D03*
X62840000Y-100020000D03*
X60300000Y-102560000D03*
X62840000Y-102560000D03*
X60300000Y-105100000D03*
X62840000Y-105100000D03*
X60300000Y-107640000D03*
X62840000Y-107640000D03*
X60300000Y-110180000D03*
X62840000Y-110180000D03*
X60300000Y-112720000D03*
X62840000Y-112720000D03*
X60300000Y-115260000D03*
X62840000Y-115260000D03*
D20*
X109597780Y-154063400D03*
X99399680Y-154063400D03*
D21*
X104500000Y-149798740D03*
X106999360Y-149798740D03*
D20*
X87097780Y-154063400D03*
X76899680Y-154063400D03*
D21*
X82000000Y-149798740D03*
X84499360Y-149798740D03*
D20*
X64597780Y-154063400D03*
X54399680Y-154063400D03*
D21*
X59500000Y-149798740D03*
X61999360Y-149798740D03*
D22*
X80800000Y-71600000D03*
X81700000Y-71600000D03*
X87550000Y-108300000D03*
X88450000Y-108300000D03*
X89550000Y-108300000D03*
X90450000Y-108300000D03*
X76050000Y-108300000D03*
X76950000Y-108300000D03*
X78050000Y-108300000D03*
X78950000Y-108300000D03*
D23*
X87500000Y-105800000D03*
X87500000Y-107300000D03*
X90500000Y-107300000D03*
X90500000Y-105800000D03*
X76000000Y-105800000D03*
X76000000Y-107300000D03*
X79000000Y-107300000D03*
X79000000Y-105800000D03*
D22*
X87550000Y-104550000D03*
X88450000Y-104550000D03*
X89550000Y-104550000D03*
X90450000Y-104550000D03*
X76050000Y-104550000D03*
X76950000Y-104550000D03*
X78050000Y-104550000D03*
X78950000Y-104550000D03*
D24*
X93250000Y-72500000D03*
X93250000Y-68500000D03*
X95750000Y-72500000D03*
X95750000Y-68500000D03*
D25*
X85250000Y-132800000D03*
X85250000Y-129800000D03*
X87750000Y-132800000D03*
X87750000Y-129800000D03*
X73750000Y-132800000D03*
X73750000Y-129800000D03*
X76250000Y-132800000D03*
X76250000Y-129800000D03*
X85500000Y-117300000D03*
X85500000Y-114300000D03*
X87750000Y-117300000D03*
X87750000Y-114300000D03*
X90250000Y-117300000D03*
X90250000Y-114300000D03*
X92500000Y-117300000D03*
X92500000Y-114300000D03*
X74000000Y-117300000D03*
X74000000Y-114300000D03*
D26*
X56500000Y-74500000D03*
D27*
X56500000Y-77040000D03*
X56500000Y-79580000D03*
D28*
X72900000Y-69500000D03*
X71400000Y-69500000D03*
D29*
X89500000Y-82950000D03*
X89500000Y-82050000D03*
X91000000Y-82950000D03*
X91000000Y-82050000D03*
X92500000Y-82950000D03*
X92500000Y-82050000D03*
X94000000Y-82950000D03*
X94000000Y-82050000D03*
X95500000Y-82950000D03*
X95500000Y-82050000D03*
D30*
X91540000Y-119740000D03*
D31*
X89000000Y-119740000D03*
X86460000Y-119740000D03*
X86460000Y-127360000D03*
X89000000Y-127360000D03*
X91540000Y-127360000D03*
D30*
X80040000Y-119740000D03*
D31*
X77500000Y-119740000D03*
X74960000Y-119740000D03*
X74960000Y-127360000D03*
X77500000Y-127360000D03*
X80040000Y-127360000D03*
D32*
X79200000Y-89600000D03*
X79200000Y-90100000D03*
X79200000Y-90600000D03*
X79200000Y-91100000D03*
X79200000Y-91600000D03*
X79200000Y-92100000D03*
X79200000Y-92600000D03*
X79200000Y-93100000D03*
X79200000Y-93600000D03*
X79200000Y-94100000D03*
X79200000Y-94600000D03*
X79200000Y-95100000D03*
X79200000Y-95600000D03*
X79200000Y-96100000D03*
X79200000Y-96600000D03*
X79200000Y-97100000D03*
D33*
X79900000Y-97800000D03*
X80400000Y-97800000D03*
X80900000Y-97800000D03*
X81400000Y-97800000D03*
X81900000Y-97800000D03*
X82400000Y-97800000D03*
X82900000Y-97800000D03*
X83400000Y-97800000D03*
X83900000Y-97800000D03*
X84400000Y-97800000D03*
X84900000Y-97800000D03*
X85400000Y-97800000D03*
X85900000Y-97800000D03*
X86400000Y-97800000D03*
X86900000Y-97800000D03*
X87400000Y-97800000D03*
D32*
X88100000Y-97100000D03*
X88100000Y-96600000D03*
X88100000Y-96100000D03*
X88100000Y-95600000D03*
X88100000Y-95100000D03*
X88100000Y-94600000D03*
X88100000Y-94100000D03*
X88100000Y-93600000D03*
X88100000Y-93100000D03*
X88100000Y-92600000D03*
X88100000Y-92100000D03*
X88100000Y-91600000D03*
X88100000Y-91100000D03*
X88100000Y-90600000D03*
X88100000Y-90100000D03*
X88100000Y-89600000D03*
D33*
X87400000Y-88900000D03*
X86900000Y-88900000D03*
X86400000Y-88900000D03*
X85900000Y-88900000D03*
X85400000Y-88900000D03*
X84900000Y-88900000D03*
X84400000Y-88900000D03*
X83900000Y-88900000D03*
X83400000Y-88900000D03*
X82900000Y-88900000D03*
X82400000Y-88900000D03*
X81900000Y-88900000D03*
X81400000Y-88900000D03*
X80900000Y-88900000D03*
X80400000Y-88900000D03*
X79900000Y-88900000D03*
D34*
X86406250Y-96106250D03*
X86406250Y-94268750D03*
X86406250Y-92431250D03*
X86406250Y-90593750D03*
X84568750Y-96106250D03*
X84568750Y-94268750D03*
X84568750Y-92431250D03*
X84568750Y-90593750D03*
X82731250Y-96106250D03*
X82731250Y-94268750D03*
X82731250Y-92431250D03*
X82731250Y-90593750D03*
X80893750Y-96106250D03*
X80893750Y-94268750D03*
X80893750Y-92431250D03*
X80893750Y-90593750D03*
D25*
X76250000Y-117300000D03*
X76250000Y-114300000D03*
X78750000Y-117300000D03*
X78750000Y-114300000D03*
X81000000Y-117300000D03*
X81000000Y-114300000D03*
X87750000Y-109800000D03*
X87750000Y-112800000D03*
X90250000Y-109800000D03*
X90250000Y-112800000D03*
X76250000Y-109800000D03*
X76250000Y-112800000D03*
X78750000Y-109800000D03*
X78750000Y-112800000D03*
D35*
X82500000Y-78000000D03*
X79500000Y-78000000D03*
X82500000Y-75500000D03*
X79500000Y-75500000D03*
D36*
X88950000Y-71350000D03*
X88950000Y-70850000D03*
X88950000Y-70350000D03*
X88950000Y-69850000D03*
X88950000Y-69350000D03*
X84550000Y-69350000D03*
X84550000Y-69850000D03*
X84550000Y-70350000D03*
X84550000Y-70850000D03*
X84550000Y-71350000D03*
D37*
X73250000Y-73450000D03*
X73250000Y-72500000D03*
X73250000Y-71550000D03*
X71050000Y-71550000D03*
X71050000Y-73450000D03*
X71050000Y-72500000D03*
D30*
X102120000Y-136960000D03*
D31*
X102120000Y-142040000D03*
X97040000Y-136960000D03*
X97040000Y-142040000D03*
X91960000Y-136960000D03*
X91960000Y-142040000D03*
X86880000Y-136960000D03*
X86880000Y-142040000D03*
D30*
X62380000Y-142040000D03*
D31*
X62380000Y-136960000D03*
X67460000Y-142040000D03*
X67460000Y-136960000D03*
X72540000Y-142040000D03*
X72540000Y-136960000D03*
X77620000Y-142040000D03*
X77620000Y-136960000D03*
D14*
X89650000Y-89000000D03*
X90750000Y-89000000D03*
M02*
