G04 #@! TF.FileFunction,Soldermask,Top*
%FSLAX46Y46*%
G04 Gerber Fmt 4.6, Leading zero omitted, Abs format (unit mm)*
G04 Created by KiCad (PCBNEW (2015-07-28 BZR 6012)-product) date Fr 07 Aug 2015 18:57:51 CEST*
%MOMM*%
G01*
G04 APERTURE LIST*
%ADD10C,0.100000*%
%ADD11R,1.927200X1.927200*%
%ADD12O,1.927200X1.927200*%
%ADD13R,0.800000X0.700000*%
%ADD14R,1.200000X1.450000*%
%ADD15R,1.450000X1.200000*%
%ADD16R,0.700000X0.800000*%
%ADD17R,0.950000X1.000000*%
%ADD18R,0.997560X0.997560*%
%ADD19O,3.700120X7.200240*%
%ADD20O,1.800200X2.699360*%
%ADD21R,0.600000X0.800000*%
%ADD22R,1.100000X0.700000*%
%ADD23R,1.500000X1.800000*%
%ADD24R,1.800000X1.200000*%
%ADD25R,2.232000X1.927200*%
%ADD26O,2.232000X1.927200*%
%ADD27R,0.700000X1.100000*%
%ADD28R,0.800000X0.600000*%
%ADD29R,1.774800X2.486000*%
%ADD30O,1.774800X2.486000*%
%ADD31R,1.050000X0.500000*%
%ADD32R,0.500000X1.050000*%
%ADD33R,2.037500X2.037500*%
%ADD34R,1.200000X1.800000*%
%ADD35R,1.600000X0.500000*%
%ADD36R,1.260000X0.850000*%
G04 APERTURE END LIST*
D10*
D11*
X102000000Y-67000000D03*
D12*
X104540000Y-67000000D03*
X102000000Y-69540000D03*
X104540000Y-69540000D03*
X102000000Y-72080000D03*
X104540000Y-72080000D03*
X102000000Y-74620000D03*
X104540000Y-74620000D03*
X102000000Y-77160000D03*
X104540000Y-77160000D03*
X102000000Y-79700000D03*
X104540000Y-79700000D03*
X102000000Y-82240000D03*
X104540000Y-82240000D03*
X102000000Y-84780000D03*
X104540000Y-84780000D03*
X102000000Y-87320000D03*
X104540000Y-87320000D03*
X102000000Y-89860000D03*
X104540000Y-89860000D03*
X102000000Y-92400000D03*
X104540000Y-92400000D03*
X102000000Y-94940000D03*
X104540000Y-94940000D03*
X102000000Y-97480000D03*
X104540000Y-97480000D03*
X102000000Y-100020000D03*
X104540000Y-100020000D03*
X102000000Y-102560000D03*
X104540000Y-102560000D03*
X102000000Y-105100000D03*
X104540000Y-105100000D03*
X102000000Y-107640000D03*
X104540000Y-107640000D03*
X102000000Y-110180000D03*
X104540000Y-110180000D03*
X102000000Y-112720000D03*
X104540000Y-112720000D03*
X102000000Y-115260000D03*
X104540000Y-115260000D03*
D13*
X70100000Y-77750000D03*
X71200000Y-77750000D03*
D14*
X88500000Y-74500000D03*
X86500000Y-74500000D03*
D13*
X88550000Y-73000000D03*
X87450000Y-73000000D03*
D15*
X81250000Y-69600000D03*
X81250000Y-67600000D03*
D16*
X82750000Y-69650000D03*
X82750000Y-68550000D03*
D14*
X78150000Y-86850000D03*
X76150000Y-86850000D03*
D13*
X78150000Y-88400000D03*
X77050000Y-88400000D03*
D16*
X84050000Y-101700000D03*
X84050000Y-100600000D03*
X85210000Y-100590000D03*
X85210000Y-101690000D03*
D15*
X76100000Y-97650000D03*
X76100000Y-99650000D03*
D16*
X77650000Y-97650000D03*
X77650000Y-98750000D03*
D13*
X82960000Y-101010000D03*
X81860000Y-101010000D03*
D16*
X89230000Y-97870000D03*
X89230000Y-98970000D03*
D13*
X90150000Y-96800000D03*
X91250000Y-96800000D03*
D15*
X68150000Y-73500000D03*
X68150000Y-75500000D03*
D16*
X69650000Y-73700000D03*
X69650000Y-74800000D03*
D17*
X74900000Y-72500000D03*
X74900000Y-71000000D03*
D15*
X73400000Y-75000000D03*
X73400000Y-77000000D03*
D16*
X74900000Y-73700000D03*
X74900000Y-74800000D03*
D13*
X88450000Y-103300000D03*
X89550000Y-103300000D03*
X76950000Y-103300000D03*
X78050000Y-103300000D03*
D18*
X89500000Y-80749300D03*
X89500000Y-79250700D03*
X91000000Y-80749300D03*
X91000000Y-79250700D03*
X92500000Y-80749300D03*
X92500000Y-79250700D03*
X94000000Y-80749300D03*
X94000000Y-79250700D03*
X95500000Y-80749300D03*
X95500000Y-79250700D03*
D11*
X60300000Y-67000000D03*
D12*
X62840000Y-67000000D03*
X60300000Y-69540000D03*
X62840000Y-69540000D03*
X60300000Y-72080000D03*
X62840000Y-72080000D03*
X60300000Y-74620000D03*
X62840000Y-74620000D03*
X60300000Y-77160000D03*
X62840000Y-77160000D03*
X60300000Y-79700000D03*
X62840000Y-79700000D03*
X60300000Y-82240000D03*
X62840000Y-82240000D03*
X60300000Y-84780000D03*
X62840000Y-84780000D03*
X60300000Y-87320000D03*
X62840000Y-87320000D03*
X60300000Y-89860000D03*
X62840000Y-89860000D03*
X60300000Y-92400000D03*
X62840000Y-92400000D03*
X60300000Y-94940000D03*
X62840000Y-94940000D03*
X60300000Y-97480000D03*
X62840000Y-97480000D03*
X60300000Y-100020000D03*
X62840000Y-100020000D03*
X60300000Y-102560000D03*
X62840000Y-102560000D03*
X60300000Y-105100000D03*
X62840000Y-105100000D03*
X60300000Y-107640000D03*
X62840000Y-107640000D03*
X60300000Y-110180000D03*
X62840000Y-110180000D03*
X60300000Y-112720000D03*
X62840000Y-112720000D03*
X60300000Y-115260000D03*
X62840000Y-115260000D03*
D19*
X109597780Y-154063400D03*
X99399680Y-154063400D03*
D20*
X104500000Y-149798740D03*
X106999360Y-149798740D03*
D19*
X87097780Y-154063400D03*
X76899680Y-154063400D03*
D20*
X82000000Y-149798740D03*
X84499360Y-149798740D03*
D19*
X64597780Y-154063400D03*
X54399680Y-154063400D03*
D20*
X59500000Y-149798740D03*
X61999360Y-149798740D03*
D21*
X80800000Y-71600000D03*
X81700000Y-71600000D03*
X87550000Y-108300000D03*
X88450000Y-108300000D03*
X89550000Y-108300000D03*
X90450000Y-108300000D03*
X76050000Y-108300000D03*
X76950000Y-108300000D03*
X78050000Y-108300000D03*
X78950000Y-108300000D03*
D22*
X87500000Y-105800000D03*
X87500000Y-107300000D03*
X90500000Y-107300000D03*
X90500000Y-105800000D03*
X76000000Y-105800000D03*
X76000000Y-107300000D03*
X79000000Y-107300000D03*
X79000000Y-105800000D03*
D21*
X87550000Y-104550000D03*
X88450000Y-104550000D03*
X89550000Y-104550000D03*
X90450000Y-104550000D03*
X76050000Y-104550000D03*
X76950000Y-104550000D03*
X78050000Y-104550000D03*
X78950000Y-104550000D03*
D23*
X93250000Y-72500000D03*
X93250000Y-68500000D03*
X95750000Y-72500000D03*
X95750000Y-68500000D03*
D24*
X85250000Y-132800000D03*
X85250000Y-129800000D03*
X87750000Y-132800000D03*
X87750000Y-129800000D03*
X73750000Y-132800000D03*
X73750000Y-129800000D03*
X76250000Y-132800000D03*
X76250000Y-129800000D03*
X85500000Y-117300000D03*
X85500000Y-114300000D03*
X87750000Y-117300000D03*
X87750000Y-114300000D03*
X90250000Y-117300000D03*
X90250000Y-114300000D03*
X92500000Y-117300000D03*
X92500000Y-114300000D03*
X74000000Y-117300000D03*
X74000000Y-114300000D03*
D25*
X56500000Y-74500000D03*
D26*
X56500000Y-77040000D03*
X56500000Y-79580000D03*
D27*
X72900000Y-69500000D03*
X71400000Y-69500000D03*
D28*
X89500000Y-82950000D03*
X89500000Y-82050000D03*
X91000000Y-82950000D03*
X91000000Y-82050000D03*
X92500000Y-82950000D03*
X92500000Y-82050000D03*
X94000000Y-82950000D03*
X94000000Y-82050000D03*
X95500000Y-82950000D03*
X95500000Y-82050000D03*
D29*
X91540000Y-119740000D03*
D30*
X89000000Y-119740000D03*
X86460000Y-119740000D03*
X86460000Y-127360000D03*
X89000000Y-127360000D03*
X91540000Y-127360000D03*
D29*
X80040000Y-119740000D03*
D30*
X77500000Y-119740000D03*
X74960000Y-119740000D03*
X74960000Y-127360000D03*
X77500000Y-127360000D03*
X80040000Y-127360000D03*
D31*
X79200000Y-89600000D03*
X79200000Y-90100000D03*
X79200000Y-90600000D03*
X79200000Y-91100000D03*
X79200000Y-91600000D03*
X79200000Y-92100000D03*
X79200000Y-92600000D03*
X79200000Y-93100000D03*
X79200000Y-93600000D03*
X79200000Y-94100000D03*
X79200000Y-94600000D03*
X79200000Y-95100000D03*
X79200000Y-95600000D03*
X79200000Y-96100000D03*
X79200000Y-96600000D03*
X79200000Y-97100000D03*
D32*
X79900000Y-97800000D03*
X80400000Y-97800000D03*
X80900000Y-97800000D03*
X81400000Y-97800000D03*
X81900000Y-97800000D03*
X82400000Y-97800000D03*
X82900000Y-97800000D03*
X83400000Y-97800000D03*
X83900000Y-97800000D03*
X84400000Y-97800000D03*
X84900000Y-97800000D03*
X85400000Y-97800000D03*
X85900000Y-97800000D03*
X86400000Y-97800000D03*
X86900000Y-97800000D03*
X87400000Y-97800000D03*
D31*
X88100000Y-97100000D03*
X88100000Y-96600000D03*
X88100000Y-96100000D03*
X88100000Y-95600000D03*
X88100000Y-95100000D03*
X88100000Y-94600000D03*
X88100000Y-94100000D03*
X88100000Y-93600000D03*
X88100000Y-93100000D03*
X88100000Y-92600000D03*
X88100000Y-92100000D03*
X88100000Y-91600000D03*
X88100000Y-91100000D03*
X88100000Y-90600000D03*
X88100000Y-90100000D03*
X88100000Y-89600000D03*
D32*
X87400000Y-88900000D03*
X86900000Y-88900000D03*
X86400000Y-88900000D03*
X85900000Y-88900000D03*
X85400000Y-88900000D03*
X84900000Y-88900000D03*
X84400000Y-88900000D03*
X83900000Y-88900000D03*
X83400000Y-88900000D03*
X82900000Y-88900000D03*
X82400000Y-88900000D03*
X81900000Y-88900000D03*
X81400000Y-88900000D03*
X80900000Y-88900000D03*
X80400000Y-88900000D03*
X79900000Y-88900000D03*
D33*
X86406250Y-96106250D03*
X86406250Y-94268750D03*
X86406250Y-92431250D03*
X86406250Y-90593750D03*
X84568750Y-96106250D03*
X84568750Y-94268750D03*
X84568750Y-92431250D03*
X84568750Y-90593750D03*
X82731250Y-96106250D03*
X82731250Y-94268750D03*
X82731250Y-92431250D03*
X82731250Y-90593750D03*
X80893750Y-96106250D03*
X80893750Y-94268750D03*
X80893750Y-92431250D03*
X80893750Y-90593750D03*
D24*
X76250000Y-117300000D03*
X76250000Y-114300000D03*
X78750000Y-117300000D03*
X78750000Y-114300000D03*
X81000000Y-117300000D03*
X81000000Y-114300000D03*
X87750000Y-109800000D03*
X87750000Y-112800000D03*
X90250000Y-109800000D03*
X90250000Y-112800000D03*
X76250000Y-109800000D03*
X76250000Y-112800000D03*
X78750000Y-109800000D03*
X78750000Y-112800000D03*
D34*
X82500000Y-78000000D03*
X79500000Y-78000000D03*
X82500000Y-75500000D03*
X79500000Y-75500000D03*
D35*
X88950000Y-71350000D03*
X88950000Y-70850000D03*
X88950000Y-70350000D03*
X88950000Y-69850000D03*
X88950000Y-69350000D03*
X84550000Y-69350000D03*
X84550000Y-69850000D03*
X84550000Y-70350000D03*
X84550000Y-70850000D03*
X84550000Y-71350000D03*
D36*
X73250000Y-73450000D03*
X73250000Y-72500000D03*
X73250000Y-71550000D03*
X71050000Y-71550000D03*
X71050000Y-73450000D03*
X71050000Y-72500000D03*
D29*
X102120000Y-136960000D03*
D30*
X102120000Y-142040000D03*
X97040000Y-136960000D03*
X97040000Y-142040000D03*
X91960000Y-136960000D03*
X91960000Y-142040000D03*
X86880000Y-136960000D03*
X86880000Y-142040000D03*
D29*
X62380000Y-142040000D03*
D30*
X62380000Y-136960000D03*
X67460000Y-142040000D03*
X67460000Y-136960000D03*
X72540000Y-142040000D03*
X72540000Y-136960000D03*
X77620000Y-142040000D03*
X77620000Y-136960000D03*
D13*
X89650000Y-89000000D03*
X90750000Y-89000000D03*
M02*
