M48
;DRILL file {KiCad (2015-07-28 BZR 6012)-product} date Fr 07 Aug 2015 18:58:17 CEST
;FORMAT={2:4/ absolute / inch / suppress leading zeros}
FMAT,2
INCH,TZ
T1C0.017
T2C0.032
T3C0.039
T4C0.040
T5C0.087
T6C0.138
%
G90
G05
M72
T1
X25551Y-33386
X25591Y-27244
X25630Y-26220
X25787Y-34370
X25939Y-37237
X26063Y-35394
X26299Y-35630
X26339Y-35984
X26378Y-36850
X26654Y-35906
X26929Y-35748
X27188Y-35593
X27323Y-29823
X27480Y-35551
X27756Y-35394
X27815Y-27362
X28012Y-30906
X28031Y-35236
X28307Y-35079
X28583Y-34921
X28799Y-27854
X28898Y-27362
X28898Y-30709
X28937Y-34173
X28937Y-39173
X29370Y-38425
X29449Y-30630
X29488Y-29724
X30020Y-44114
X30039Y-34704
X30197Y-27126
X30433Y-35236
X30492Y-39272
X30709Y-33189
X30709Y-33740
X30764Y-35252
X30906Y-38445
X31004Y-44114
X31181Y-25591
X31181Y-27756
X31181Y-33189
X31496Y-43228
X31555Y-38917
X31594Y-26614
X31654Y-40177
X31691Y-34340
X31693Y-28740
X31811Y-33189
X31830Y-34055
X31848Y-35667
X31848Y-36390
X31848Y-37114
X31848Y-37837
X32224Y-40043
X32244Y-38917
X32441Y-39488
X32571Y-35667
X32571Y-36390
X32571Y-37114
X32571Y-37837
X32579Y-26614
X32748Y-39390
X32835Y-38917
X33295Y-35667
X33295Y-36390
X33295Y-37114
X33295Y-37837
X33524Y-38917
X33531Y-39232
X33547Y-40295
X33661Y-29331
X33858Y-27697
X34018Y-35667
X34018Y-36390
X34018Y-37114
X34018Y-37837
X34055Y-43228
X34094Y-28740
X34213Y-40039
X34311Y-38917
X34547Y-44114
X34843Y-33189
X34843Y-34567
X35118Y-38150
X35130Y-39264
X35236Y-33071
X35512Y-40039
X35531Y-44114
X35827Y-33071
X36024Y-35039
X36217Y-38110
X36299Y-26969
X36417Y-30787
X36417Y-33071
X36457Y-40039
X37008Y-33071
X37323Y-39055
X37598Y-33071
X37638Y-39055
X37835Y-41654
X37953Y-39055
X38150Y-41654
X38189Y-40630
X38268Y-39055
X38465Y-41654
X38583Y-39055
X38583Y-39764
X39409Y-30827
X39449Y-43661
X41535Y-30866
T2
X24559Y-53921
X24559Y-55921
X26559Y-53921
X26559Y-55921
X28559Y-53921
X28559Y-55921
X29512Y-47142
X29512Y-50142
X30512Y-47142
X30512Y-50142
X30559Y-53921
X30559Y-55921
X31512Y-47142
X31512Y-50142
X34039Y-47142
X34039Y-50142
X34205Y-53921
X34205Y-55921
X35039Y-47142
X35039Y-50142
X36039Y-47142
X36039Y-50142
X36205Y-53921
X36205Y-55921
X38205Y-53921
X38205Y-55921
X40205Y-53921
X40205Y-55921
T3
X23425Y-58976
X24409Y-58976
X32283Y-58976
X33267Y-58976
X41142Y-58976
X42126Y-58976
T4
X22244Y-29331
X22244Y-30331
X22244Y-31331
X23740Y-26378
X23740Y-27378
X23740Y-28378
X23740Y-29378
X23740Y-30378
X23740Y-31378
X23740Y-32378
X23740Y-33378
X23740Y-34378
X23740Y-35378
X23740Y-36378
X23740Y-37378
X23740Y-38378
X23740Y-39378
X23740Y-40378
X23740Y-41378
X23740Y-42378
X23740Y-43378
X23740Y-44378
X23740Y-45378
X24740Y-26378
X24740Y-27378
X24740Y-28378
X24740Y-29378
X24740Y-30378
X24740Y-31378
X24740Y-32378
X24740Y-33378
X24740Y-34378
X24740Y-35378
X24740Y-36378
X24740Y-37378
X24740Y-38378
X24740Y-39378
X24740Y-40378
X24740Y-41378
X24740Y-42378
X24740Y-43378
X24740Y-44378
X24740Y-45378
X40157Y-26378
X40157Y-27378
X40157Y-28378
X40157Y-29378
X40157Y-30378
X40157Y-31378
X40157Y-32378
X40157Y-33378
X40157Y-34378
X40157Y-35378
X40157Y-36378
X40157Y-37378
X40157Y-38378
X40157Y-39378
X40157Y-40378
X40157Y-41378
X40157Y-42378
X40157Y-43378
X40157Y-44378
X40157Y-45378
X41157Y-26378
X41157Y-27378
X41157Y-28378
X41157Y-29378
X41157Y-30378
X41157Y-31378
X41157Y-32378
X41157Y-33378
X41157Y-34378
X41157Y-35378
X41157Y-36378
X41157Y-37378
X41157Y-38378
X41157Y-39378
X41157Y-40378
X41157Y-41378
X41157Y-42378
X41157Y-43378
X41157Y-44378
X41157Y-45378
T5
X21417Y-60655
X25432Y-60655
X30275Y-60655
X34290Y-60655
X39134Y-60655
X43149Y-60655
T6
X22441Y-48819
X26575Y-24016
X38189Y-24016
X42126Y-48819
T0
M30
